<?xml version="1.0" standalone="no"?>
<svg xmlns="http://www.w3.org/2000/svg" xmlns:xlink="http://www.w3.org/1999/xlink" width="1060pt" height="1152pt" viewBox="0.00 0.00 1059.71 1152.00">
<g id="graph0" class="graph" transform="translate(4,1148) scale(1)" data-name="G">

<polygon fill="white" stroke="none" points="-4,4 -4,-1148 1055.71,-1148 1055.71,4 -4,4" style=""/>
<g id="clust2" class="cluster" data-name="cluster_2146f035">

<polygon fill="none" stroke="black" stroke-dasharray="1,5" points="455.18,-313 455.18,-624 1043.71,-624 1043.71,-313 455.18,-313" style=""/>
<text text-anchor="middle" x="749.45" y="-607.4" font-family="Times,serif" font-size="14.00" style="">File: data_loader</text>
</g>
<g id="clust3" class="cluster" data-name="cluster_5b71224a">

<polygon fill="none" stroke="black" stroke-dasharray="1,5" points="697.28,-321 697.28,-452 829.98,-452 829.98,-321 697.28,-321" style=""/>
<text text-anchor="middle" x="763.63" y="-435.4" font-family="Times,serif" font-size="14.00" style="">Class: qqp_dataset</text>
</g>
<g id="clust4" class="cluster" data-name="cluster_15f946be">

<polygon fill="none" stroke="black" stroke-dasharray="1,5" points="693.78,-460 693.78,-591 833.48,-591 833.48,-460 693.78,-460" style=""/>
<text text-anchor="middle" x="763.63" y="-574.4" font-family="Times,serif" font-size="14.00" style="">Class: paws_dataset</text>
</g>
<g id="clust5" class="cluster" data-name="cluster_1ea589b4">

<polygon fill="none" stroke="black" stroke-dasharray="1,5" points="85.48,-632 85.48,-763 884.03,-763 884.03,-632 85.48,-632" style=""/>
<text text-anchor="middle" x="484.75" y="-746.4" font-family="Times,serif" font-size="14.00" style="">File: generate_embeddings</text>
</g>
<g id="clust6" class="cluster" data-name="cluster_c7d48d46">

<polygon fill="none" stroke="black" stroke-dasharray="1,5" points="85.48,-120 85.48,-305 623.24,-305 623.24,-120 85.48,-120" style=""/>
<text text-anchor="middle" x="354.36" y="-288.4" font-family="Times,serif" font-size="14.00" style="">File: test</text>
</g>
<g id="clust7" class="cluster" data-name="cluster_98654514">

<polygon fill="none" stroke="black" stroke-dasharray="1,5" points="85.48,-951 85.48,-1136 854.33,-1136 854.33,-951 85.48,-951" style=""/>
<text text-anchor="middle" x="469.9" y="-1119.4" font-family="Times,serif" font-size="14.00" style="">File: train</text>
</g>
<g id="clust8" class="cluster" data-name="cluster_368d03b3">

<polygon fill="none" stroke="black" stroke-dasharray="1,5" points="680.94,-1005 680.94,-1082 846.33,-1082 846.33,-1005 680.94,-1005" style=""/>
<text text-anchor="middle" x="763.63" y="-1065.4" font-family="Times,serif" font-size="14.00" style="">Class: GeneralizedCELoss</text>
</g>
<g id="clust9" class="cluster" data-name="cluster_0bb56630">

<polygon fill="none" stroke="black" stroke-dasharray="1,5" points="700.94,-771 700.94,-943 826.33,-943 826.33,-771 700.94,-771" style=""/>
<text text-anchor="middle" x="763.63" y="-926.4" font-family="Times,serif" font-size="14.00" style="">File: util</text>
</g>
<g id="clust10" class="cluster" data-name="cluster_050517b5">

<polygon fill="none" stroke="black" stroke-dasharray="1,5" points="708.94,-779 708.94,-910 818.33,-910 818.33,-779 708.94,-779" style=""/>
<text text-anchor="middle" x="763.63" y="-893.4" font-family="Times,serif" font-size="14.00" style="">Class: EMA</text>
</g>
<!-- Legend -->
<g id="node1" class="node" pointer-events="visible" data-name="Legend">

<polygon fill="none" stroke="black" points="1.5,-93 1.5,-111 270.5,-111 270.5,-93 1.5,-93" style=""/>
<text text-anchor="start" x="82.15" y="-97.4" font-family="Times,serif" font-size="14.00" style="">Code2flow Legend</text>
<polygon fill="none" stroke="black" points="1.5,-1 1.5,-93 270.5,-93 270.5,-1 1.5,-1" style=""/>
<polygon fill="none" stroke="black" points="3.5,-69 3.5,-91 218.5,-91 218.5,-69 3.5,-69" style=""/>
<text text-anchor="start" x="63.76" y="-75.4" font-family="Times,serif" font-size="14.00" style="">Regular function</text>
<polygon fill="#cccccc" stroke="none" points="218.5,-69 218.5,-91 268.5,-91 268.5,-69 218.5,-69" style=""/>
<polygon fill="none" stroke="black" points="218.5,-69 218.5,-91 268.5,-91 268.5,-69 218.5,-69" style=""/>
<polygon fill="none" stroke="black" points="3.5,-47 3.5,-69 218.5,-69 218.5,-47 3.5,-47" style=""/>
<text text-anchor="start" x="14.57" y="-53.4" font-family="Times,serif" font-size="14.00" style="">Trunk function (nothing calls this)</text>
<polygon fill="#966f33" stroke="none" points="218.5,-47 218.5,-69 268.5,-69 268.5,-47 218.5,-47" style=""/>
<polygon fill="none" stroke="black" points="218.5,-47 218.5,-69 268.5,-69 268.5,-47 218.5,-47" style=""/>
<polygon fill="none" stroke="black" points="3.5,-25 3.5,-47 218.5,-47 218.5,-25 3.5,-25" style=""/>
<text text-anchor="start" x="6.23" y="-31.4" font-family="Times,serif" font-size="14.00" style="">Leaf function (this calls nothing else)</text>
<polygon fill="#6db33f" stroke="none" points="218.5,-25 218.5,-47 268.5,-47 268.5,-25 218.5,-25" style=""/>
<polygon fill="none" stroke="black" points="218.5,-25 218.5,-47 268.5,-47 268.5,-25 218.5,-25" style=""/>
<polygon fill="none" stroke="black" points="3.5,-3 3.5,-25 218.5,-25 218.5,-3 3.5,-3" style=""/>
<text text-anchor="start" x="74.26" y="-9.4" font-family="Times,serif" font-size="14.00" style="">Function call</text>
<polygon fill="none" stroke="black" points="218.5,-3 218.5,-25 268.5,-25 268.5,-3 218.5,-3" style=""/>
<text text-anchor="start" x="238.25" y="-9.4" font-family="Times,serif" font-size="14.00" style="">→</text>
<polygon fill="none" stroke="black" points="2.5,-2 2.5,-92 269.5,-92 269.5,-2 2.5,-2" style=""/>
<polygon fill="none" stroke="black" points="0,0 0,-112 271,-112 271,0 0,0" style=""/>
</g>
<!-- node_bc5ac879 -->
<g id="node2" class="node" pointer-events="visible" data-name="node_bc5ac879">

<path fill="#cccccc" stroke="black" d="M564.57,-591C564.57,-591 475.38,-591 475.38,-591 469.38,-591 463.38,-585 463.38,-579 463.38,-579 463.38,-567 463.38,-567 463.38,-561 469.38,-555 475.38,-555 475.38,-555 564.57,-555 564.57,-555 570.57,-555 576.57,-561 576.57,-567 576.57,-567 576.57,-579 576.57,-579 576.57,-585 570.57,-591 564.57,-591" style=""/>
<text text-anchor="middle" x="519.97" y="-568.8" font-family="Times,serif" font-size="14.00" style="">217: load_paws()</text>
</g>
<!-- node_7eb7b2d5 -->
<g id="node5" class="node" pointer-events="visible" data-name="node_7eb7b2d5">

<path fill="#6db33f" stroke="black" d="M802.02,-504C802.02,-504 725.25,-504 725.25,-504 719.25,-504 713.25,-498 713.25,-492 713.25,-492 713.25,-480 713.25,-480 713.25,-474 719.25,-468 725.25,-468 725.25,-468 802.02,-468 802.02,-468 808.02,-468 814.02,-474 814.02,-480 814.02,-480 814.02,-492 814.02,-492 814.02,-498 808.02,-504 802.02,-504" style=""/>
<text text-anchor="middle" x="763.63" y="-481.8" font-family="Times,serif" font-size="14.00" style="">150: __init__()</text>
</g>
<!-- node_bc5ac879&#45;&gt;node_7eb7b2d5 -->
<g id="edge1" class="edge" data-name="node_bc5ac879-&gt;node_7eb7b2d5">

<path fill="none" stroke="#e69f00" stroke-width="2" d="M520.71,-554.55C520.71,-529.01 520.71,-486 520.71,-486 520.71,-486 699.98,-486 699.98,-486" style=""/>
<polygon fill="#e69f00" stroke="#e69f00" stroke-width="2" points="699.98,-489.5 709.98,-486 699.98,-482.5 699.98,-489.5" style=""/>
</g>
<!-- node_0634206a -->
<g id="node3" class="node" pointer-events="visible" data-name="node_0634206a">

<path fill="#966f33" stroke="black" d="M560.79,-365C560.79,-365 479.16,-365 479.16,-365 473.16,-365 467.16,-359 467.16,-353 467.16,-353 467.16,-341 467.16,-341 467.16,-335 473.16,-329 479.16,-329 479.16,-329 560.79,-329 560.79,-329 566.79,-329 572.79,-335 572.79,-341 572.79,-341 572.79,-353 572.79,-353 572.79,-359 566.79,-365 560.79,-365" style=""/>
<text text-anchor="middle" x="519.97" y="-342.8" font-family="Times,serif" font-size="14.00" style="">116: load_qqp()</text>
</g>
<!-- node_6817b8fe -->
<g id="node7" class="node" pointer-events="visible" data-name="node_6817b8fe">

<path fill="#6db33f" stroke="black" d="M798.52,-365C798.52,-365 728.75,-365 728.75,-365 722.75,-365 716.75,-359 716.75,-353 716.75,-353 716.75,-341 716.75,-341 716.75,-335 722.75,-329 728.75,-329 728.75,-329 798.52,-329 798.52,-329 804.52,-329 810.52,-335 810.52,-341 810.52,-341 810.52,-353 810.52,-353 810.52,-359 804.52,-365 798.52,-365" style=""/>
<text text-anchor="middle" x="763.63" y="-342.8" font-family="Times,serif" font-size="14.00" style="">49: __init__()</text>
</g>
<!-- node_0634206a&#45;&gt;node_6817b8fe -->
<g id="edge2" class="edge" data-name="node_0634206a-&gt;node_6817b8fe">

<path fill="none" stroke="#56b4e9" stroke-width="2" d="M573.15,-347C573.15,-347 703.32,-347 703.32,-347" style=""/>
<polygon fill="#56b4e9" stroke="#56b4e9" stroke-width="2" points="703.32,-350.5 713.32,-347 703.32,-343.5 703.32,-350.5" style=""/>
</g>
<!-- node_985c2221 -->
<g id="node4" class="node" pointer-events="visible" data-name="node_985c2221">

<path fill="#966f33" stroke="black" d="M813.33,-558C813.33,-558 713.93,-558 713.93,-558 707.93,-558 701.93,-552 701.93,-546 701.93,-546 701.93,-534 701.93,-534 701.93,-528 707.93,-522 713.93,-522 713.93,-522 813.33,-522 813.33,-522 819.33,-522 825.33,-528 825.33,-534 825.33,-534 825.33,-546 825.33,-546 825.33,-552 819.33,-558 813.33,-558" style=""/>
<text text-anchor="middle" x="763.63" y="-535.8" font-family="Times,serif" font-size="14.00" style="">176: __getitem__()</text>
</g>
<!-- node_23eb315a -->
<g id="node8" class="node" pointer-events="visible" data-name="node_23eb315a">

<path fill="#6db33f" stroke="black" d="M1023.56,-488C1023.56,-488 924.18,-488 924.18,-488 918.18,-488 912.18,-482 912.18,-476 912.18,-476 912.18,-464 912.18,-464 912.18,-458 918.18,-452 924.18,-452 924.18,-452 1023.56,-452 1023.56,-452 1029.56,-452 1035.56,-458 1035.56,-464 1035.56,-464 1035.56,-476 1035.56,-476 1035.56,-482 1029.56,-488 1023.56,-488" style=""/>
<text text-anchor="middle" x="973.87" y="-465.8" font-family="Times,serif" font-size="14.00" style="">24: tokenize_sent()</text>
</g>
<!-- node_985c2221&#45;&gt;node_23eb315a -->
<g id="edge3" class="edge" data-name="node_985c2221-&gt;node_23eb315a">

<path fill="none" stroke="#e69f00" stroke-width="2" d="M816.71,-521.73C816.71,-503.44 816.71,-478 816.71,-478 816.71,-478 898.73,-478 898.73,-478" style=""/>
<polygon fill="#e69f00" stroke="#e69f00" stroke-width="2" points="898.73,-481.5 908.73,-478 898.73,-474.5 898.73,-481.5" style=""/>
</g>
<!-- node_5aca6650 -->
<g id="node6" class="node" pointer-events="visible" data-name="node_5aca6650">

<path fill="#966f33" stroke="black" d="M809.83,-419C809.83,-419 717.43,-419 717.43,-419 711.43,-419 705.43,-413 705.43,-407 705.43,-407 705.43,-395 705.43,-395 705.43,-389 711.43,-383 717.43,-383 717.43,-383 809.83,-383 809.83,-383 815.83,-383 821.83,-389 821.83,-395 821.83,-395 821.83,-407 821.83,-407 821.83,-413 815.83,-419 809.83,-419" style=""/>
<text text-anchor="middle" x="763.63" y="-396.8" font-family="Times,serif" font-size="14.00" style="">75: __getitem__()</text>
</g>
<!-- node_5aca6650&#45;&gt;node_23eb315a -->
<g id="edge5" class="edge" data-name="node_5aca6650-&gt;node_23eb315a">

<path fill="none" stroke="#000000" stroke-width="2" d="M819.71,-419.34C819.71,-436.66 819.71,-460 819.71,-460 819.71,-460 899.03,-460 899.03,-460" style=""/>
<polygon fill="#000000" stroke="#000000" stroke-width="2" points="899.03,-463.5 909.03,-460 899.03,-456.5 899.03,-463.5" style=""/>
</g>
<!-- node_a7113e9a -->
<g id="node9" class="node" pointer-events="visible" data-name="node_a7113e9a">

<path fill="#966f33" stroke="black" d="M165.53,-676C165.53,-676 105.47,-676 105.47,-676 99.47,-676 93.47,-670 93.47,-664 93.47,-664 93.47,-652 93.47,-652 93.47,-646 99.47,-640 105.47,-640 105.47,-640 165.53,-640 165.53,-640 171.53,-640 177.53,-646 177.53,-652 177.53,-652 177.53,-664 177.53,-664 177.53,-670 171.53,-676 165.53,-676" style=""/>
<text text-anchor="middle" x="135.5" y="-653.8" font-family="Times,serif" font-size="14.00" style="">0: (global)()</text>
</g>
<!-- node_35062a38 -->
<g id="node11" class="node" pointer-events="visible" data-name="node_35062a38">

<path fill="#cccccc" stroke="black" d="M376.56,-676C376.56,-676 319.15,-676 319.15,-676 313.15,-676 307.15,-670 307.15,-664 307.15,-664 307.15,-652 307.15,-652 307.15,-646 313.15,-640 319.15,-640 319.15,-640 376.56,-640 376.56,-640 382.56,-640 388.56,-646 388.56,-652 388.56,-652 388.56,-664 388.56,-664 388.56,-670 382.56,-676 376.56,-676" style=""/>
<text text-anchor="middle" x="347.85" y="-653.8" font-family="Times,serif" font-size="14.00" style="">184: main()</text>
</g>
<!-- node_a7113e9a&#45;&gt;node_35062a38 -->
<g id="edge7" class="edge" data-name="node_a7113e9a-&gt;node_35062a38">

<path fill="none" stroke="#56b4e9" stroke-width="2" d="M177.96,-658C177.96,-658 293.88,-658 293.88,-658" style=""/>
<polygon fill="#56b4e9" stroke="#56b4e9" stroke-width="2" points="293.88,-661.5 303.88,-658 293.88,-654.5 293.88,-661.5" style=""/>
</g>
<!-- node_a6c9cb93 -->
<g id="node10" class="node" pointer-events="visible" data-name="node_a6c9cb93">

<path fill="#cccccc" stroke="black" d="M595.75,-676C595.75,-676 444.2,-676 444.2,-676 438.2,-676 432.2,-670 432.2,-664 432.2,-664 432.2,-652 432.2,-652 432.2,-646 438.2,-640 444.2,-640 444.2,-640 595.75,-640 595.75,-640 601.75,-640 607.75,-646 607.75,-652 607.75,-652 607.75,-664 607.75,-664 607.75,-670 601.75,-676 595.75,-676" style=""/>
<text text-anchor="middle" x="519.97" y="-653.8" font-family="Times,serif" font-size="14.00" style="">155: generate_embeddings()</text>
</g>
<!-- node_daaf73c1 -->
<g id="node13" class="node" pointer-events="visible" data-name="node_daaf73c1">

<path fill="#6db33f" stroke="black" d="M863.92,-676C863.92,-676 663.35,-676 663.35,-676 657.35,-676 651.35,-670 651.35,-664 651.35,-664 651.35,-652 651.35,-652 651.35,-646 657.35,-640 663.35,-640 663.35,-640 863.92,-640 863.92,-640 869.92,-640 875.92,-646 875.92,-652 875.92,-652 875.92,-664 875.92,-664 875.92,-670 869.92,-676 863.92,-676" style=""/>
<text text-anchor="middle" x="763.63" y="-653.8" font-family="Times,serif" font-size="14.00" style="">139: save_embeddings_to_text_file()</text>
</g>
<!-- node_a6c9cb93&#45;&gt;node_daaf73c1 -->
<g id="edge8" class="edge" data-name="node_a6c9cb93-&gt;node_daaf73c1">

<path fill="none" stroke="#009e73" stroke-width="2" d="M607.94,-658C607.94,-658 638.16,-658 638.16,-658" style=""/>
<polygon fill="#009e73" stroke="#009e73" stroke-width="2" points="638.16,-661.5 648.16,-658 638.16,-654.5 638.16,-661.5" style=""/>
</g>
<!-- node_35062a38&#45;&gt;node_bc5ac879 -->
<g id="edge9" class="edge" data-name="node_35062a38-&gt;node_bc5ac879">

<path fill="none" stroke="#000000" stroke-width="2" d="M361.71,-639.68C361.71,-616.34 361.71,-579 361.71,-579 361.71,-579 450.26,-579 450.26,-579" style=""/>
<polygon fill="#000000" stroke="#000000" stroke-width="2" points="450.26,-582.5 460.26,-579 450.26,-575.5 450.26,-582.5" style=""/>
</g>
<!-- node_35062a38&#45;&gt;node_a6c9cb93 -->
<g id="edge12" class="edge" data-name="node_35062a38-&gt;node_a6c9cb93">

<path fill="none" stroke="#000000" stroke-width="2" d="M388.64,-658C388.64,-658 418.99,-658 418.99,-658" style=""/>
<polygon fill="#000000" stroke="#000000" stroke-width="2" points="418.99,-661.5 428.99,-658 418.99,-654.5 418.99,-661.5" style=""/>
</g>
<!-- node_86997af2 -->
<g id="node12" class="node" pointer-events="visible" data-name="node_86997af2">

<path fill="#6db33f" stroke="black" d="M569.65,-730C569.65,-730 470.3,-730 470.3,-730 464.3,-730 458.3,-724 458.3,-718 458.3,-718 458.3,-706 458.3,-706 458.3,-700 464.3,-694 470.3,-694 470.3,-694 569.65,-694 569.65,-694 575.65,-694 581.65,-700 581.65,-706 581.65,-706 581.65,-718 581.65,-718 581.65,-724 575.65,-730 569.65,-730" style=""/>
<text text-anchor="middle" x="519.97" y="-707.8" font-family="Times,serif" font-size="14.00" style="">124: read_dataset()</text>
</g>
<!-- node_35062a38&#45;&gt;node_86997af2 -->
<g id="edge17" class="edge" data-name="node_35062a38-&gt;node_86997af2">

<path fill="none" stroke="#000000" stroke-width="2" d="M361.71,-676.28C361.71,-691.95 361.71,-712 361.71,-712 361.71,-712 444.85,-712 444.85,-712" style=""/>
<polygon fill="#000000" stroke="#000000" stroke-width="2" points="444.85,-715.5 454.85,-712 444.85,-708.5 444.85,-715.5" style=""/>
</g>
<!-- node_e2c9e7ce -->
<g id="node14" class="node" pointer-events="visible" data-name="node_e2c9e7ce">

<path fill="#966f33" stroke="black" d="M165.53,-245C165.53,-245 105.47,-245 105.47,-245 99.47,-245 93.47,-239 93.47,-233 93.47,-233 93.47,-221 93.47,-221 93.47,-215 99.47,-209 105.47,-209 105.47,-209 165.53,-209 165.53,-209 171.53,-209 177.53,-215 177.53,-221 177.53,-221 177.53,-233 177.53,-233 177.53,-239 171.53,-245 165.53,-245" style=""/>
<text text-anchor="middle" x="135.5" y="-222.8" font-family="Times,serif" font-size="14.00" style="">0: (global)()</text>
</g>
<!-- node_a1306fc0 -->
<g id="node18" class="node" pointer-events="visible" data-name="node_a1306fc0">

<path fill="#cccccc" stroke="black" d="M376.56,-245C376.56,-245 319.15,-245 319.15,-245 313.15,-245 307.15,-239 307.15,-233 307.15,-233 307.15,-221 307.15,-221 307.15,-215 313.15,-209 319.15,-209 319.15,-209 376.56,-209 376.56,-209 382.56,-209 388.56,-215 388.56,-221 388.56,-221 388.56,-233 388.56,-233 388.56,-239 382.56,-245 376.56,-245" style=""/>
<text text-anchor="middle" x="347.85" y="-222.8" font-family="Times,serif" font-size="14.00" style="">238: main()</text>
</g>
<!-- node_e2c9e7ce&#45;&gt;node_a1306fc0 -->
<g id="edge19" class="edge" data-name="node_e2c9e7ce-&gt;node_a1306fc0">

<path fill="none" stroke="#d55e00" stroke-width="2" d="M177.96,-227C177.96,-227 293.88,-227 293.88,-227" style=""/>
<polygon fill="#d55e00" stroke="#d55e00" stroke-width="2" points="293.88,-230.5 303.88,-227 293.88,-223.5 293.88,-230.5" style=""/>
</g>
<!-- node_6afeb101 -->
<g id="node15" class="node" pointer-events="visible" data-name="node_6afeb101">

<path fill="#6db33f" stroke="black" d="M603.01,-164C603.01,-164 436.94,-164 436.94,-164 430.94,-164 424.94,-158 424.94,-152 424.94,-152 424.94,-140 424.94,-140 424.94,-134 430.94,-128 436.94,-128 436.94,-128 603.01,-128 603.01,-128 609.01,-128 615.01,-134 615.01,-140 615.01,-140 615.01,-152 615.01,-152 615.01,-158 609.01,-164 603.01,-164" style=""/>
<text text-anchor="middle" x="519.97" y="-141.8" font-family="Times,serif" font-size="14.00" style="">210: generate_prediction_file()</text>
</g>
<!-- node_ac6a250b -->
<g id="node16" class="node" pointer-events="visible" data-name="node_ac6a250b">

<path fill="#6db33f" stroke="black" d="M587.91,-218C587.91,-218 452.04,-218 452.04,-218 446.04,-218 440.04,-212 440.04,-206 440.04,-206 440.04,-194 440.04,-194 440.04,-188 446.04,-182 452.04,-182 452.04,-182 587.91,-182 587.91,-182 593.91,-182 599.91,-188 599.91,-194 599.91,-194 599.91,-206 599.91,-206 599.91,-212 593.91,-218 587.91,-218" style=""/>
<text text-anchor="middle" x="519.97" y="-195.8" font-family="Times,serif" font-size="14.00" style="">223: generate_prob_file()</text>
</g>
<!-- node_9e9f5ef0 -->
<g id="node17" class="node" pointer-events="visible" data-name="node_9e9f5ef0">

<path fill="#6db33f" stroke="black" d="M560.76,-272C560.76,-272 479.19,-272 479.19,-272 473.19,-272 467.19,-266 467.19,-260 467.19,-260 467.19,-248 467.19,-248 467.19,-242 473.19,-236 479.19,-236 479.19,-236 560.76,-236 560.76,-236 566.76,-236 572.76,-242 572.76,-248 572.76,-248 572.76,-260 572.76,-260 572.76,-266 566.76,-272 560.76,-272" style=""/>
<text text-anchor="middle" x="519.97" y="-249.8" font-family="Times,serif" font-size="14.00" style="">156: inference()</text>
</g>
<!-- node_a1306fc0&#45;&gt;node_bc5ac879 -->
<g id="edge20" class="edge" data-name="node_a1306fc0-&gt;node_bc5ac879">

<path fill="none" stroke="#000000" stroke-width="2" d="M334.71,-245.28C334.71,-315.9 334.71,-567 334.71,-567 334.71,-567 450.1,-567 450.1,-567" style=""/>
<polygon fill="#000000" stroke="#000000" stroke-width="2" points="450.1,-570.5 460.1,-567 450.1,-563.5 450.1,-570.5" style=""/>
</g>
<!-- node_a1306fc0&#45;&gt;node_6afeb101 -->
<g id="edge21" class="edge" data-name="node_a1306fc0-&gt;node_6afeb101">

<path fill="none" stroke="#000000" stroke-width="2" d="M388.76,-212C408.81,-212 428.71,-212 428.71,-212 428.71,-212 428.71,-177.41 428.71,-177.41" style=""/>
<polygon fill="#000000" stroke="#000000" stroke-width="2" points="432.21,-177.41 428.71,-167.41 425.21,-177.41 432.21,-177.41" style=""/>
</g>
<!-- node_a1306fc0&#45;&gt;node_ac6a250b -->
<g id="edge22" class="edge" data-name="node_a1306fc0-&gt;node_ac6a250b">

<path fill="none" stroke="#000000" stroke-width="2" d="M388.64,-215C388.64,-215 426.57,-215 426.57,-215" style=""/>
<polygon fill="#000000" stroke="#000000" stroke-width="2" points="426.57,-218.5 436.57,-215 426.57,-211.5 426.57,-218.5" style=""/>
</g>
<!-- node_a1306fc0&#45;&gt;node_9e9f5ef0 -->
<g id="edge23" class="edge" data-name="node_a1306fc0-&gt;node_9e9f5ef0">

<path fill="none" stroke="#000000" stroke-width="2" d="M388.64,-240.5C388.64,-240.5 453.73,-240.5 453.73,-240.5" style=""/>
<polygon fill="#000000" stroke="#000000" stroke-width="2" points="453.73,-244 463.73,-240.5 453.73,-237 453.73,-244" style=""/>
</g>
<!-- node_4f72369f -->
<g id="node19" class="node" pointer-events="visible" data-name="node_4f72369f">

<path fill="#966f33" stroke="black" d="M165.53,-995C165.53,-995 105.47,-995 105.47,-995 99.47,-995 93.47,-989 93.47,-983 93.47,-983 93.47,-971 93.47,-971 93.47,-965 99.47,-959 105.47,-959 105.47,-959 165.53,-959 165.53,-959 171.53,-959 177.53,-965 177.53,-971 177.53,-971 177.53,-983 177.53,-983 177.53,-989 171.53,-995 165.53,-995" style=""/>
<text text-anchor="middle" x="135.5" y="-972.8" font-family="Times,serif" font-size="14.00" style="">0: (global)()</text>
</g>
<!-- node_fa044cf0 -->
<g id="node21" class="node" pointer-events="visible" data-name="node_fa044cf0">

<path fill="#cccccc" stroke="black" d="M376.56,-995C376.56,-995 319.15,-995 319.15,-995 313.15,-995 307.15,-989 307.15,-983 307.15,-983 307.15,-971 307.15,-971 307.15,-965 313.15,-959 319.15,-959 319.15,-959 376.56,-959 376.56,-959 382.56,-959 388.56,-965 388.56,-971 388.56,-971 388.56,-983 388.56,-983 388.56,-989 382.56,-995 376.56,-995" style=""/>
<text text-anchor="middle" x="347.85" y="-972.8" font-family="Times,serif" font-size="14.00" style="">368: main()</text>
</g>
<!-- node_4f72369f&#45;&gt;node_fa044cf0 -->
<g id="edge24" class="edge" data-name="node_4f72369f-&gt;node_fa044cf0">

<path fill="none" stroke="#cc79a7" stroke-width="2" d="M177.96,-977C177.96,-977 293.88,-977 293.88,-977" style=""/>
<polygon fill="#cc79a7" stroke="#cc79a7" stroke-width="2" points="293.88,-980.5 303.88,-977 293.88,-973.5 293.88,-980.5" style=""/>
</g>
<!-- node_f8f14ddb -->
<g id="node20" class="node" pointer-events="visible" data-name="node_f8f14ddb">

<path fill="#6db33f" stroke="black" d="M798.52,-1049C798.52,-1049 728.75,-1049 728.75,-1049 722.75,-1049 716.75,-1043 716.75,-1037 716.75,-1037 716.75,-1025 716.75,-1025 716.75,-1019 722.75,-1013 728.75,-1013 728.75,-1013 798.52,-1013 798.52,-1013 804.52,-1013 810.52,-1019 810.52,-1025 810.52,-1025 810.52,-1037 810.52,-1037 810.52,-1043 804.52,-1049 798.52,-1049" style=""/>
<text text-anchor="middle" x="763.63" y="-1026.8" font-family="Times,serif" font-size="14.00" style="">80: __init__()</text>
</g>
<!-- node_5ba834a8 -->
<g id="node22" class="node" pointer-events="visible" data-name="node_5ba834a8">

<path fill="#6db33f" stroke="black" d="M569.65,-995C569.65,-995 470.3,-995 470.3,-995 464.3,-995 458.3,-989 458.3,-983 458.3,-983 458.3,-971 458.3,-971 458.3,-965 464.3,-959 470.3,-959 470.3,-959 569.65,-959 569.65,-959 575.65,-959 581.65,-965 581.65,-971 581.65,-971 581.65,-983 581.65,-983 581.65,-989 575.65,-995 569.65,-995" style=""/>
<text text-anchor="middle" x="519.97" y="-972.8" font-family="Times,serif" font-size="14.00" style="">167: read_dataset()</text>
</g>
<!-- node_fa044cf0&#45;&gt;node_5ba834a8 -->
<g id="edge25" class="edge" data-name="node_fa044cf0-&gt;node_5ba834a8">

<path fill="none" stroke="#000000" stroke-width="2" d="M388.64,-977C388.64,-977 444.9,-977 444.9,-977" style=""/>
<polygon fill="#000000" stroke="#000000" stroke-width="2" points="444.9,-980.5 454.9,-977 444.9,-973.5 444.9,-980.5" style=""/>
</g>
<!-- node_6d48e1f3 -->
<g id="node23" class="node" pointer-events="visible" data-name="node_6d48e1f3">

<path fill="#cccccc" stroke="black" d="M547.84,-1049C547.84,-1049 492.1,-1049 492.1,-1049 486.1,-1049 480.1,-1043 480.1,-1037 480.1,-1037 480.1,-1025 480.1,-1025 480.1,-1019 486.1,-1013 492.1,-1013 492.1,-1013 547.84,-1013 547.84,-1013 553.84,-1013 559.84,-1019 559.84,-1025 559.84,-1025 559.84,-1037 559.84,-1037 559.84,-1043 553.84,-1049 547.84,-1049" style=""/>
<text text-anchor="middle" x="519.97" y="-1026.8" font-family="Times,serif" font-size="14.00" style="">233: train()</text>
</g>
<!-- node_fa044cf0&#45;&gt;node_6d48e1f3 -->
<g id="edge27" class="edge" data-name="node_fa044cf0-&gt;node_6d48e1f3">

<path fill="none" stroke="#000000" stroke-width="2" d="M361.71,-995.28C361.71,-1010.95 361.71,-1031 361.71,-1031 361.71,-1031 466.6,-1031 466.6,-1031" style=""/>
<polygon fill="#000000" stroke="#000000" stroke-width="2" points="466.6,-1034.5 476.6,-1031 466.6,-1027.5 466.6,-1034.5" style=""/>
</g>
<!-- node_0d29d150 -->
<g id="node24" class="node" pointer-events="visible" data-name="node_0d29d150">

<path fill="#6db33f" stroke="black" d="M548.68,-1103C548.68,-1103 491.27,-1103 491.27,-1103 485.27,-1103 479.27,-1097 479.27,-1091 479.27,-1091 479.27,-1079 479.27,-1079 479.27,-1073 485.27,-1067 491.27,-1067 491.27,-1067 548.68,-1067 548.68,-1067 554.68,-1067 560.68,-1073 560.68,-1079 560.68,-1079 560.68,-1091 560.68,-1091 560.68,-1097 554.68,-1103 548.68,-1103" style=""/>
<text text-anchor="middle" x="519.97" y="-1080.8" font-family="Times,serif" font-size="14.00" style="">193: valid()</text>
</g>
<!-- node_fa044cf0&#45;&gt;node_0d29d150 -->
<g id="edge28" class="edge" data-name="node_fa044cf0-&gt;node_0d29d150">

<path fill="none" stroke="#000000" stroke-width="2" d="M334.71,-995.32C334.71,-1026.13 334.71,-1085 334.71,-1085 334.71,-1085 465.83,-1085 465.83,-1085" style=""/>
<polygon fill="#000000" stroke="#000000" stroke-width="2" points="465.83,-1088.5 475.83,-1085 465.83,-1081.5 465.83,-1088.5" style=""/>
</g>
<!-- node_0e7bf1af -->
<g id="node25" class="node" pointer-events="visible" data-name="node_0e7bf1af">

<path fill="#6db33f" stroke="black" d="M798.52,-823C798.52,-823 728.75,-823 728.75,-823 722.75,-823 716.75,-817 716.75,-811 716.75,-811 716.75,-799 716.75,-799 716.75,-793 722.75,-787 728.75,-787 728.75,-787 798.52,-787 798.52,-787 804.52,-787 810.52,-793 810.52,-799 810.52,-799 810.52,-811 810.52,-811 810.52,-817 804.52,-823 798.52,-823" style=""/>
<text text-anchor="middle" x="763.63" y="-800.8" font-family="Times,serif" font-size="14.00" style="">29: __init__()</text>
</g>
<!-- node_fa044cf0&#45;&gt;node_0e7bf1af -->
<g id="edge29" class="edge" data-name="node_fa044cf0-&gt;node_0e7bf1af">

<path fill="none" stroke="#000000" stroke-width="2" d="M334.71,-958.59C334.71,-914.22 334.71,-805 334.71,-805 334.71,-805 703.48,-805 703.48,-805" style=""/>
<polygon fill="#000000" stroke="#000000" stroke-width="2" points="703.48,-808.5 713.48,-805 703.48,-801.5 703.48,-808.5" style=""/>
</g>
<!-- node_6d48e1f3&#45;&gt;node_f8f14ddb -->
<g id="edge31" class="edge" data-name="node_6d48e1f3-&gt;node_f8f14ddb">

<path fill="none" stroke="#009e73" stroke-width="2" d="M560.21,-1037C560.21,-1037 703.64,-1037 703.64,-1037" style=""/>
<polygon fill="#009e73" stroke="#009e73" stroke-width="2" points="703.64,-1040.5 713.64,-1037 703.64,-1033.5 703.64,-1040.5" style=""/>
</g>
<!-- node_f3337a4d -->
<g id="node26" class="node" pointer-events="visible" data-name="node_f3337a4d">

<path fill="#6db33f" stroke="black" d="M793.67,-877C793.67,-877 733.6,-877 733.6,-877 727.6,-877 721.6,-871 721.6,-865 721.6,-865 721.6,-853 721.6,-853 721.6,-847 727.6,-841 733.6,-841 733.6,-841 793.67,-841 793.67,-841 799.67,-841 805.67,-847 805.67,-853 805.67,-853 805.67,-865 805.67,-865 805.67,-871 799.67,-877 793.67,-877" style=""/>
<text text-anchor="middle" x="763.63" y="-854.8" font-family="Times,serif" font-size="14.00" style="">45: update()</text>
</g>
<!-- node_6d48e1f3&#45;&gt;node_f3337a4d -->
<g id="edge34" class="edge" data-name="node_6d48e1f3-&gt;node_f3337a4d">

<path fill="none" stroke="#009e73" stroke-width="2" d="M560.21,-1025C584.86,-1025 611.71,-1025 611.71,-1025 611.71,-1025 611.71,-859 611.71,-859 611.71,-859 708.29,-859 708.29,-859" style=""/>
<polygon fill="#009e73" stroke="#009e73" stroke-width="2" points="708.29,-862.5 718.29,-859 708.29,-855.5 708.29,-862.5" style=""/>
</g>
</g>
</svg>