<?xml version="1.0" standalone="no"?>
<svg xmlns="http://www.w3.org/2000/svg" xmlns:xlink="http://www.w3.org/1999/xlink" width="558pt" height="407pt" viewBox="0.00 0.00 558.43 407.00">
<g id="graph0" class="graph" transform="translate(4,403) scale(1)" data-name="G">

<polygon fill="white" stroke="none" points="-4,4 -4,-403 554.43,-403 554.43,4 -4,4" style=""/>
<g id="clust2" class="cluster" data-name="cluster_e7eee3a6">

<polygon fill="none" stroke="black" stroke-dasharray="1,5" points="85.48,-121 85.48,-252 542.43,-252 542.43,-121 85.48,-121" style=""/>
<text text-anchor="middle" x="313.96" y="-235.4" font-family="Times,serif" font-size="14.00" style="">File: accuracy</text>
</g>
<g id="clust3" class="cluster" data-name="cluster_7e00edcd">

<polygon fill="none" stroke="black" stroke-dasharray="1,5" points="85.48,-260 85.48,-391 542.43,-391 542.43,-260 85.48,-260" style=""/>
<text text-anchor="middle" x="313.96" y="-374.4" font-family="Times,serif" font-size="14.00" style="">File: accuracy_partial</text>
</g>
<!-- Legend -->
<g id="node1" class="node" pointer-events="visible" data-name="Legend">

<polygon fill="none" stroke="black" points="1.5,-93 1.5,-111 270.5,-111 270.5,-93 1.5,-93" style=""/>
<text text-anchor="start" x="82.15" y="-97.4" font-family="Times,serif" font-size="14.00" style="">Code2flow Legend</text>
<polygon fill="none" stroke="black" points="1.5,-1 1.5,-93 270.5,-93 270.5,-1 1.5,-1" style=""/>
<polygon fill="none" stroke="black" points="3.5,-69 3.5,-91 218.5,-91 218.5,-69 3.5,-69" style=""/>
<text text-anchor="start" x="63.76" y="-75.4" font-family="Times,serif" font-size="14.00" style="">Regular function</text>
<polygon fill="#cccccc" stroke="none" points="218.5,-69 218.5,-91 268.5,-91 268.5,-69 218.5,-69" style=""/>
<polygon fill="none" stroke="black" points="218.5,-69 218.5,-91 268.5,-91 268.5,-69 218.5,-69" style=""/>
<polygon fill="none" stroke="black" points="3.5,-47 3.5,-69 218.5,-69 218.5,-47 3.5,-47" style=""/>
<text text-anchor="start" x="14.57" y="-53.4" font-family="Times,serif" font-size="14.00" style="">Trunk function (nothing calls this)</text>
<polygon fill="#966f33" stroke="none" points="218.5,-47 218.5,-69 268.5,-69 268.5,-47 218.5,-47" style=""/>
<polygon fill="none" stroke="black" points="218.5,-47 218.5,-69 268.5,-69 268.5,-47 218.5,-47" style=""/>
<polygon fill="none" stroke="black" points="3.5,-25 3.5,-47 218.5,-47 218.5,-25 3.5,-25" style=""/>
<text text-anchor="start" x="6.23" y="-31.4" font-family="Times,serif" font-size="14.00" style="">Leaf function (this calls nothing else)</text>
<polygon fill="#6db33f" stroke="none" points="218.5,-25 218.5,-47 268.5,-47 268.5,-25 218.5,-25" style=""/>
<polygon fill="none" stroke="black" points="218.5,-25 218.5,-47 268.5,-47 268.5,-25 218.5,-25" style=""/>
<polygon fill="none" stroke="black" points="3.5,-3 3.5,-25 218.5,-25 218.5,-3 3.5,-3" style=""/>
<text text-anchor="start" x="74.26" y="-9.4" font-family="Times,serif" font-size="14.00" style="">Function call</text>
<polygon fill="none" stroke="black" points="218.5,-3 218.5,-25 268.5,-25 268.5,-3 218.5,-3" style=""/>
<text text-anchor="start" x="238.25" y="-9.4" font-family="Times,serif" font-size="14.00" style="">→</text>
<polygon fill="none" stroke="black" points="2.5,-2 2.5,-92 269.5,-92 269.5,-2 2.5,-2" style=""/>
<polygon fill="none" stroke="black" points="0,0 0,-112 271,-112 271,0 0,0" style=""/>
</g>
<!-- node_9ab9315d -->
<g id="node2" class="node" pointer-events="visible" data-name="node_9ab9315d">

<path fill="#966f33" stroke="black" d="M165.53,-166C165.53,-166 105.47,-166 105.47,-166 99.47,-166 93.47,-160 93.47,-154 93.47,-154 93.47,-142 93.47,-142 93.47,-136 99.47,-130 105.47,-130 105.47,-130 165.53,-130 165.53,-130 171.53,-130 177.53,-136 177.53,-142 177.53,-142 177.53,-154 177.53,-154 177.53,-160 171.53,-166 165.53,-166" style=""/>
<text text-anchor="middle" x="135.5" y="-143.8" font-family="Times,serif" font-size="14.00" style="">0: (global)()</text>
</g>
<!-- node_5e30fb92 -->
<g id="node4" class="node" pointer-events="visible" data-name="node_5e30fb92">

<path fill="#cccccc" stroke="black" d="M369.56,-166C369.56,-166 319.15,-166 319.15,-166 313.15,-166 307.15,-160 307.15,-154 307.15,-154 307.15,-142 307.15,-142 307.15,-136 313.15,-130 319.15,-130 319.15,-130 369.56,-130 369.56,-130 375.56,-130 381.56,-136 381.56,-142 381.56,-142 381.56,-154 381.56,-154 381.56,-160 375.56,-166 369.56,-166" style=""/>
<text text-anchor="middle" x="344.35" y="-143.8" font-family="Times,serif" font-size="14.00" style="">82: main()</text>
</g>
<!-- node_9ab9315d&#45;&gt;node_5e30fb92 -->
<g id="edge1" class="edge" data-name="node_9ab9315d-&gt;node_5e30fb92">

<path fill="none" stroke="#0072b2" stroke-width="2" d="M178.02,-148C178.02,-148 293.77,-148 293.77,-148" style=""/>
<polygon fill="#0072b2" stroke="#0072b2" stroke-width="2" points="293.77,-151.5 303.77,-148 293.77,-144.5 293.77,-151.5" style=""/>
</g>
<!-- node_80a8dc4c -->
<g id="node3" class="node" pointer-events="visible" data-name="node_80a8dc4c">

<path fill="#6db33f" stroke="black" d="M522.29,-165C522.29,-165 429.85,-165 429.85,-165 423.85,-165 417.85,-159 417.85,-153 417.85,-153 417.85,-141 417.85,-141 417.85,-135 423.85,-129 429.85,-129 429.85,-129 522.29,-129 522.29,-129 528.29,-129 534.29,-135 534.29,-141 534.29,-141 534.29,-153 534.29,-153 534.29,-159 528.29,-165 522.29,-165" style=""/>
<text text-anchor="middle" x="476.07" y="-142.8" font-family="Times,serif" font-size="14.00" style="">43: id_ood_split()</text>
</g>
<!-- node_5e30fb92&#45;&gt;node_80a8dc4c -->
<g id="edge2" class="edge" data-name="node_5e30fb92-&gt;node_80a8dc4c">

<path fill="none" stroke="#56b4e9" stroke-width="2" d="M381.75,-147.5C381.75,-147.5 404.38,-147.5 404.38,-147.5" style=""/>
<polygon fill="#56b4e9" stroke="#56b4e9" stroke-width="2" points="404.38,-151 414.38,-147.5 404.38,-144 404.38,-151" style=""/>
</g>
<!-- node_90f82364 -->
<g id="node5" class="node" pointer-events="visible" data-name="node_90f82364">

<path fill="#6db33f" stroke="black" d="M512.53,-219C512.53,-219 439.61,-219 439.61,-219 433.61,-219 427.61,-213 427.61,-207 427.61,-207 427.61,-195 427.61,-195 427.61,-189 433.61,-183 439.61,-183 439.61,-183 512.53,-183 512.53,-183 518.53,-183 524.53,-189 524.53,-195 524.53,-195 524.53,-207 524.53,-207 524.53,-213 518.53,-219 512.53,-219" style=""/>
<text text-anchor="middle" x="476.07" y="-196.8" font-family="Times,serif" font-size="14.00" style="">25: read_file()</text>
</g>
<!-- node_5e30fb92&#45;&gt;node_90f82364 -->
<g id="edge3" class="edge" data-name="node_5e30fb92-&gt;node_90f82364">

<path fill="none" stroke="#56b4e9" stroke-width="2" d="M344.43,-166.24C344.43,-181.57 344.43,-201 344.43,-201 344.43,-201 414.4,-201 414.4,-201" style=""/>
<polygon fill="#56b4e9" stroke="#56b4e9" stroke-width="2" points="414.4,-204.5 424.4,-201 414.4,-197.5 414.4,-204.5" style=""/>
</g>
<!-- node_81404a35 -->
<g id="node6" class="node" pointer-events="visible" data-name="node_81404a35">

<path fill="#966f33" stroke="black" d="M165.53,-331C165.53,-331 105.47,-331 105.47,-331 99.47,-331 93.47,-325 93.47,-319 93.47,-319 93.47,-307 93.47,-307 93.47,-301 99.47,-295 105.47,-295 105.47,-295 165.53,-295 165.53,-295 171.53,-295 177.53,-301 177.53,-307 177.53,-307 177.53,-319 177.53,-319 177.53,-325 171.53,-331 165.53,-331" style=""/>
<text text-anchor="middle" x="135.5" y="-308.8" font-family="Times,serif" font-size="14.00" style="">0: (global)()</text>
</g>
<!-- node_369fdd45 -->
<g id="node8" class="node" pointer-events="visible" data-name="node_369fdd45">

<path fill="#cccccc" stroke="black" d="M369.56,-331C369.56,-331 319.15,-331 319.15,-331 313.15,-331 307.15,-325 307.15,-319 307.15,-319 307.15,-307 307.15,-307 307.15,-301 313.15,-295 319.15,-295 319.15,-295 369.56,-295 369.56,-295 375.56,-295 381.56,-301 381.56,-307 381.56,-307 381.56,-319 381.56,-319 381.56,-325 375.56,-331 369.56,-331" style=""/>
<text text-anchor="middle" x="344.35" y="-308.8" font-family="Times,serif" font-size="14.00" style="">88: main()</text>
</g>
<!-- node_81404a35&#45;&gt;node_369fdd45 -->
<g id="edge6" class="edge" data-name="node_81404a35-&gt;node_369fdd45">

<path fill="none" stroke="#0072b2" stroke-width="2" d="M178.02,-313C178.02,-313 293.77,-313 293.77,-313" style=""/>
<polygon fill="#0072b2" stroke="#0072b2" stroke-width="2" points="293.77,-316.5 303.77,-313 293.77,-309.5 293.77,-316.5" style=""/>
</g>
<!-- node_4dcd7baf -->
<g id="node7" class="node" pointer-events="visible" data-name="node_4dcd7baf">

<path fill="#6db33f" stroke="black" d="M522.29,-304C522.29,-304 429.85,-304 429.85,-304 423.85,-304 417.85,-298 417.85,-292 417.85,-292 417.85,-280 417.85,-280 417.85,-274 423.85,-268 429.85,-268 429.85,-268 522.29,-268 522.29,-268 528.29,-268 534.29,-274 534.29,-280 534.29,-280 534.29,-292 534.29,-292 534.29,-298 528.29,-304 522.29,-304" style=""/>
<text text-anchor="middle" x="476.07" y="-281.8" font-family="Times,serif" font-size="14.00" style="">48: id_ood_split()</text>
</g>
<!-- node_369fdd45&#45;&gt;node_4dcd7baf -->
<g id="edge7" class="edge" data-name="node_369fdd45-&gt;node_4dcd7baf">

<path fill="none" stroke="#0072b2" stroke-width="2" d="M381.75,-299.5C381.75,-299.5 404.38,-299.5 404.38,-299.5" style=""/>
<polygon fill="#0072b2" stroke="#0072b2" stroke-width="2" points="404.38,-303 414.38,-299.5 404.38,-296 404.38,-303" style=""/>
</g>
<!-- node_8a991dea -->
<g id="node9" class="node" pointer-events="visible" data-name="node_8a991dea">

<path fill="#6db33f" stroke="black" d="M512.53,-358C512.53,-358 439.61,-358 439.61,-358 433.61,-358 427.61,-352 427.61,-346 427.61,-346 427.61,-334 427.61,-334 427.61,-328 433.61,-322 439.61,-322 439.61,-322 512.53,-322 512.53,-322 518.53,-322 524.53,-328 524.53,-334 524.53,-334 524.53,-346 524.53,-346 524.53,-352 518.53,-358 512.53,-358" style=""/>
<text text-anchor="middle" x="476.07" y="-335.8" font-family="Times,serif" font-size="14.00" style="">28: read_file()</text>
</g>
<!-- node_369fdd45&#45;&gt;node_8a991dea -->
<g id="edge8" class="edge" data-name="node_369fdd45-&gt;node_8a991dea">

<path fill="none" stroke="#0072b2" stroke-width="2" d="M381.75,-326.5C381.75,-326.5 414.22,-326.5 414.22,-326.5" style=""/>
<polygon fill="#0072b2" stroke="#0072b2" stroke-width="2" points="414.22,-330 424.22,-326.5 414.22,-323 414.22,-330" style=""/>
</g>
</g>
</svg>