<?xml version="1.0" standalone="no"?>
<svg xmlns="http://www.w3.org/2000/svg" xmlns:xlink="http://www.w3.org/1999/xlink" width="1053pt" height="1059pt" viewBox="0.00 0.00 1052.71 1059.00">
<g id="graph0" class="graph" transform="translate(4,1055) scale(1)" data-name="G">

<polygon fill="white" stroke="none" points="-4,4 -4,-1055 1048.71,-1055 1048.71,4 -4,4"/>
<g id="clust2" class="cluster" data-name="cluster_97fb0e9c">

<polygon fill="none" stroke="black" stroke-dasharray="1,5" points="455.18,-313 455.18,-624 1036.71,-624 1036.71,-313 455.18,-313"/>
<text text-anchor="middle" x="745.95" y="-607.4" font-family="Times,serif" font-size="14.00">File: data_loader</text>
</g>
<g id="clust3" class="cluster" data-name="cluster_7eea8e14">

<polygon fill="none" stroke="black" stroke-dasharray="1,5" points="693.78,-321 693.78,-452 826.48,-452 826.48,-321 693.78,-321"/>
<text text-anchor="middle" x="760.13" y="-435.4" font-family="Times,serif" font-size="14.00">Class: qqp_dataset</text>
</g>
<g id="clust4" class="cluster" data-name="cluster_61b5e18f">

<polygon fill="none" stroke="black" stroke-dasharray="1,5" points="690.28,-460 690.28,-591 829.98,-591 829.98,-460 690.28,-460"/>
<text text-anchor="middle" x="760.13" y="-574.4" font-family="Times,serif" font-size="14.00">Class: paws_dataset</text>
</g>
<g id="clust5" class="cluster" data-name="cluster_e5b2c8dd">

<polygon fill="none" stroke="black" stroke-dasharray="1,5" points="85.48,-879 85.48,-1043 877.03,-1043 877.03,-879 85.48,-879"/>
<text text-anchor="middle" x="481.25" y="-1026.4" font-family="Times,serif" font-size="14.00">File: generate_embeddings</text>
</g>
<g id="clust6" class="cluster" data-name="cluster_ed7369ge">

<polygon fill="none" stroke="black" stroke-dasharray="1,5" points="700.62,-933 700.62,-1010 819.65,-1010 819.65,-933 700.62,-933"/>
<text text-anchor="middle" x="760.13" y="-993.4" font-family="Times,serif" font-size="14.00">Class: MainModel</text>
</g>
<g id="clust7" class="cluster" data-name="cluster_5d417a34">

<polygon fill="none" stroke="black" stroke-dasharray="1,5" points="85.48,-632 85.48,-871 827.65,-871 827.65,-632 85.48,-632"/>
<text text-anchor="middle" x="456.57" y="-854.4" font-family="Times,serif" font-size="14.00">File: test</text>
</g>
<g id="clust8" class="cluster" data-name="cluster_ed7369f0">

<polygon fill="none" stroke="black" stroke-dasharray="1,5" points="700.62,-686 700.62,-763 819.65,-763 819.65,-686 700.62,-686"/>
<text text-anchor="middle" x="760.13" y="-746.4" font-family="Times,serif" font-size="14.00">Class: MainModel</text>
</g>
<g id="clust9" class="cluster" data-name="cluster_34b6d783">

<polygon fill="none" stroke="black" stroke-dasharray="1,5" points="85.48,-120 85.48,-305 827.65,-305 827.65,-120 85.48,-120"/>
<text text-anchor="middle" x="456.57" y="-288.4" font-family="Times,serif" font-size="14.00">File: train</text>
</g>
<g id="clust10" class="cluster" data-name="cluster_9c67ae81">

<polygon fill="none" stroke="black" stroke-dasharray="1,5" points="700.62,-184 700.62,-261 819.65,-261 819.65,-184 700.62,-184"/>
<text text-anchor="middle" x="760.13" y="-244.4" font-family="Times,serif" font-size="14.00">Class: MainModel</text>
</g>
<!-- Legend -->
<g id="node1" class="node" pointer-events="visible" data-name="Legend">

<polygon fill="none" stroke="black" points="1.5,-93 1.5,-111 270.5,-111 270.5,-93 1.5,-93"/>
<text text-anchor="start" x="82.15" y="-97.4" font-family="Times,serif" font-size="14.00">Code2flow Legend</text>
<polygon fill="none" stroke="black" points="1.5,-1 1.5,-93 270.5,-93 270.5,-1 1.5,-1"/>
<polygon fill="none" stroke="black" points="3.5,-69 3.5,-91 218.5,-91 218.5,-69 3.5,-69"/>
<text text-anchor="start" x="63.76" y="-75.4" font-family="Times,serif" font-size="14.00">Regular function</text>
<polygon fill="#cccccc" stroke="none" points="218.5,-69 218.5,-91 268.5,-91 268.5,-69 218.5,-69"/>
<polygon fill="none" stroke="black" points="218.5,-69 218.5,-91 268.5,-91 268.5,-69 218.5,-69"/>
<polygon fill="none" stroke="black" points="3.5,-47 3.5,-69 218.5,-69 218.5,-47 3.5,-47"/>
<text text-anchor="start" x="14.57" y="-53.4" font-family="Times,serif" font-size="14.00">Trunk function (nothing calls this)</text>
<polygon fill="#966f33" stroke="none" points="218.5,-47 218.5,-69 268.5,-69 268.5,-47 218.5,-47"/>
<polygon fill="none" stroke="black" points="218.5,-47 218.5,-69 268.5,-69 268.5,-47 218.5,-47"/>
<polygon fill="none" stroke="black" points="3.5,-25 3.5,-47 218.5,-47 218.5,-25 3.5,-25"/>
<text text-anchor="start" x="6.23" y="-31.4" font-family="Times,serif" font-size="14.00">Leaf function (this calls nothing else)</text>
<polygon fill="#6db33f" stroke="none" points="218.5,-25 218.5,-47 268.5,-47 268.5,-25 218.5,-25"/>
<polygon fill="none" stroke="black" points="218.5,-25 218.5,-47 268.5,-47 268.5,-25 218.5,-25"/>
<polygon fill="none" stroke="black" points="3.5,-3 3.5,-25 218.5,-25 218.5,-3 3.5,-3"/>
<text text-anchor="start" x="74.26" y="-9.4" font-family="Times,serif" font-size="14.00">Function call</text>
<polygon fill="none" stroke="black" points="218.5,-3 218.5,-25 268.5,-25 268.5,-3 218.5,-3"/>
<text text-anchor="start" x="238.25" y="-9.4" font-family="Times,serif" font-size="14.00">→</text>
<polygon fill="none" stroke="black" points="2.5,-2 2.5,-92 269.5,-92 269.5,-2 2.5,-2"/>
<polygon fill="none" stroke="black" points="0,0 0,-112 271,-112 271,0 0,0"/>
</g>
<!-- node_8d89f3bf -->
<g id="node2" class="node" pointer-events="visible" data-name="node_8d89f3bf">

<path fill="#cccccc" stroke="black" d="M564.57,-591C564.57,-591 475.38,-591 475.38,-591 469.38,-591 463.38,-585 463.38,-579 463.38,-579 463.38,-567 463.38,-567 463.38,-561 469.38,-555 475.38,-555 475.38,-555 564.57,-555 564.57,-555 570.57,-555 576.57,-561 576.57,-567 576.57,-567 576.57,-579 576.57,-579 576.57,-585 570.57,-591 564.57,-591"/>
<text text-anchor="middle" x="519.97" y="-568.8" font-family="Times,serif" font-size="14.00">217: load_paws()</text>
</g>
<!-- node_7a5049b5 -->
<g id="node5" class="node" pointer-events="visible" data-name="node_7a5049b5">

<path fill="#6db33f" stroke="black" d="M798.52,-504C798.52,-504 721.75,-504 721.75,-504 715.75,-504 709.75,-498 709.75,-492 709.75,-492 709.75,-480 709.75,-480 709.75,-474 715.75,-468 721.75,-468 721.75,-468 798.52,-468 798.52,-468 804.52,-468 810.52,-474 810.52,-480 810.52,-480 810.52,-492 810.52,-492 810.52,-498 804.52,-504 798.52,-504"/>
<text text-anchor="middle" x="760.13" y="-481.8" font-family="Times,serif" font-size="14.00">150: __init__()</text>
</g>
<!-- node_8d89f3bf&#45;&gt;node_7a5049b5 -->
<g id="edge1" class="edge" data-name="node_8d89f3bf-&gt;node_7a5049b5">

<path fill="none" stroke="#cc79a7" stroke-width="2" d="M520.71,-554.55C520.71,-529.01 520.71,-486 520.71,-486 520.71,-486 696.33,-486 696.33,-486"/>
<polygon fill="#cc79a7" stroke="#cc79a7" stroke-width="2" points="696.33,-489.5 706.33,-486 696.33,-482.5 696.33,-489.5"/>
</g>
<!-- node_6ced184f -->
<g id="node3" class="node" pointer-events="visible" data-name="node_6ced184f">

<path fill="#cccccc" stroke="black" d="M560.79,-388C560.79,-388 479.16,-388 479.16,-388 473.16,-388 467.16,-382 467.16,-376 467.16,-376 467.16,-364 467.16,-364 467.16,-358 473.16,-352 479.16,-352 479.16,-352 560.79,-352 560.79,-352 566.79,-352 572.79,-358 572.79,-364 572.79,-364 572.79,-376 572.79,-376 572.79,-382 566.79,-388 560.79,-388"/>
<text text-anchor="middle" x="519.97" y="-365.8" font-family="Times,serif" font-size="14.00">116: load_qqp()</text>
</g>
<!-- node_551bcc0b -->
<g id="node7" class="node" pointer-events="visible" data-name="node_551bcc0b">

<path fill="#6db33f" stroke="black" d="M795.02,-419C795.02,-419 725.25,-419 725.25,-419 719.25,-419 713.25,-413 713.25,-407 713.25,-407 713.25,-395 713.25,-395 713.25,-389 719.25,-383 725.25,-383 725.25,-383 795.02,-383 795.02,-383 801.02,-383 807.02,-389 807.02,-395 807.02,-395 807.02,-407 807.02,-407 807.02,-413 801.02,-419 795.02,-419"/>
<text text-anchor="middle" x="760.13" y="-396.8" font-family="Times,serif" font-size="14.00">49: __init__()</text>
</g>
<!-- node_6ced184f&#45;&gt;node_551bcc0b -->
<g id="edge2" class="edge" data-name="node_6ced184f-&gt;node_551bcc0b">

<path fill="none" stroke="#cc79a7" stroke-width="2" d="M573.1,-374C644,-374 760.71,-374 760.71,-374 760.71,-374 760.71,-374.85 760.71,-374.85"/>
<polygon fill="#cc79a7" stroke="#cc79a7" stroke-width="2" points="757.21,-369.52 760.71,-379.52 764.21,-369.52 757.21,-369.52"/>
</g>
<!-- node_4b789ddb -->
<g id="node4" class="node" pointer-events="visible" data-name="node_4b789ddb">

<path fill="rgb(204, 204, 204)" stroke="black" d="M809.83,-558C809.83,-558 710.43,-558 710.43,-558 704.43,-558 698.43,-552 698.43,-546 698.43,-546 698.43,-534 698.43,-534 698.43,-528 704.43,-522 710.43,-522 710.43,-522 809.83,-522 809.83,-522 815.83,-522 821.83,-528 821.83,-534 821.83,-534 821.83,-546 821.83,-546 821.83,-552 815.83,-558 809.83,-558"/>
<text text-anchor="middle" x="760.13" y="-535.8" font-family="Times,serif" font-size="14.00">176: __getitem__()</text>
</g>
<!-- node_ee1bb901 -->
<g id="node8" class="node" pointer-events="visible" data-name="node_ee1bb901">

<path fill="#6db33f" stroke="black" d="M1016.56,-461C1016.56,-461 917.18,-461 917.18,-461 911.18,-461 905.18,-455 905.18,-449 905.18,-449 905.18,-437 905.18,-437 905.18,-431 911.18,-425 917.18,-425 917.18,-425 1016.56,-425 1016.56,-425 1022.56,-425 1028.56,-431 1028.56,-437 1028.56,-437 1028.56,-449 1028.56,-449 1028.56,-455 1022.56,-461 1016.56,-461"/>
<text text-anchor="middle" x="966.87" y="-438.8" font-family="Times,serif" font-size="14.00">24: tokenize_sent()</text>
</g>
<!-- node_4b789ddb&#45;&gt;node_ee1bb901 -->
<g id="edge3" class="edge" data-name="node_4b789ddb-&gt;node_ee1bb901">

<path fill="none" stroke="#009e73" stroke-width="2" d="M813.71,-521.58C813.71,-494.99 813.71,-449 813.71,-449 813.71,-449 891.99,-449 891.99,-449"/>
<polygon fill="#009e73" stroke="#009e73" stroke-width="2" points="891.99,-452.5 901.99,-449 891.99,-445.5 891.99,-452.5"/>
</g>
<!-- node_1cac63ac -->
<g id="node6" class="node" pointer-events="visible" data-name="node_1cac63ac">

<path fill="rgb(204, 204, 204)" stroke="black" d="M806.33,-365C806.33,-365 713.93,-365 713.93,-365 707.93,-365 701.93,-359 701.93,-353 701.93,-353 701.93,-341 701.93,-341 701.93,-335 707.93,-329 713.93,-329 713.93,-329 806.33,-329 806.33,-329 812.33,-329 818.33,-335 818.33,-341 818.33,-341 818.33,-353 818.33,-353 818.33,-359 812.33,-365 806.33,-365"/>
<text text-anchor="middle" x="760.13" y="-342.8" font-family="Times,serif" font-size="14.00">75: __getitem__()</text>
</g>
<!-- node_1cac63ac&#45;&gt;node_ee1bb901 -->
<g id="edge5" class="edge" data-name="node_1cac63ac-&gt;node_ee1bb901">

<path fill="none" stroke="#009e73" stroke-width="2" d="M816.71,-365.21C816.71,-391.51 816.71,-437 816.71,-437 816.71,-437 891.9,-437 891.9,-437"/>
<polygon fill="#009e73" stroke="#009e73" stroke-width="2" points="891.9,-440.5 901.9,-437 891.9,-433.5 891.9,-440.5"/>
</g>
<!-- node_8e1d5b78 -->
<g id="node9" class="node" pointer-events="visible" data-name="node_8e1d5b78">

<path fill="#966f33" stroke="black" d="M165.53,-923C165.53,-923 105.47,-923 105.47,-923 99.47,-923 93.47,-917 93.47,-911 93.47,-911 93.47,-899 93.47,-899 93.47,-893 99.47,-887 105.47,-887 105.47,-887 165.53,-887 165.53,-887 171.53,-887 177.53,-893 177.53,-899 177.53,-899 177.53,-911 177.53,-911 177.53,-917 171.53,-923 165.53,-923"/>
<text text-anchor="middle" x="135.5" y="-900.8" font-family="Times,serif" font-size="14.00">0: (global)()</text>
</g>
<!-- node_3155dedd -->
<g id="node11" class="node" pointer-events="visible" data-name="node_3155dedd">

<path fill="#cccccc" stroke="black" d="M376.56,-923C376.56,-923 319.15,-923 319.15,-923 313.15,-923 307.15,-917 307.15,-911 307.15,-911 307.15,-899 307.15,-899 307.15,-893 313.15,-887 319.15,-887 319.15,-887 376.56,-887 376.56,-887 382.56,-887 388.56,-893 388.56,-899 388.56,-899 388.56,-911 388.56,-911 388.56,-917 382.56,-923 376.56,-923"/>
<text text-anchor="middle" x="347.85" y="-900.8" font-family="Times,serif" font-size="14.00">155: main()</text>
</g>
<!-- node_8e1d5b78&#45;&gt;node_3155dedd -->
<g id="edge7" class="edge" data-name="node_8e1d5b78-&gt;node_3155dedd">

<path fill="none" stroke="#000000" stroke-width="2" d="M177.96,-905C177.96,-905 293.88,-905 293.88,-905"/>
<polygon fill="#000000" stroke="#000000" stroke-width="2" points="293.88,-908.5 303.88,-905 293.88,-901.5 293.88,-908.5"/>
</g>
<!-- node_787c93d4 -->
<g id="node10" class="node" pointer-events="visible" data-name="node_787c93d4">

<path fill="#cccccc" stroke="black" d="M595.75,-977C595.75,-977 444.2,-977 444.2,-977 438.2,-977 432.2,-971 432.2,-965 432.2,-965 432.2,-953 432.2,-953 432.2,-947 438.2,-941 444.2,-941 444.2,-941 595.75,-941 595.75,-941 601.75,-941 607.75,-947 607.75,-953 607.75,-953 607.75,-965 607.75,-965 607.75,-971 601.75,-977 595.75,-977"/>
<text text-anchor="middle" x="519.97" y="-954.8" font-family="Times,serif" font-size="14.00">126: generate_embeddings()</text>
</g>
<!-- node_787c93d4&#45;&gt;node_4b789ddb -->
<g id="edge41" class="edge" data-name="node_787c93d4-&gt;node_4b789ddb">

<path fill="none" stroke="#e69f00" stroke-width="2" d="M590.71,-940.85C590.71,-912.9 590.71,-862.5 590.71,-862.5 590.71,-862.5 709.71,-862.5 709.71,-862.5 709.71,-862.5 709.71,-571.29 709.71,-571.29"/>
<polygon fill="#e69f00" stroke="#e69f00" stroke-width="2" points="713.21,-571.29 709.71,-561.29 706.21,-571.29 713.21,-571.29"/>
</g>
<!-- node_787c93d4&#45;&gt;node_1cac63ac -->
<g id="edge42" class="edge" data-name="node_787c93d4-&gt;node_1cac63ac">

<path fill="none" stroke="#e69f00" stroke-width="2" d="M608.19,-953C623.02,-953 633.71,-953 633.71,-953 633.71,-953 633.71,-358.5 633.71,-358.5 633.71,-358.5 688.71,-358.5 688.71,-358.5"/>
<polygon fill="#e69f00" stroke="#e69f00" stroke-width="2" points="688.71,-362 698.71,-358.5 688.71,-355 688.71,-362"/>
</g>
<!-- node_f46dc75b -->
<g id="node13" class="node" pointer-events="visible" data-name="node_f46dc75b">

<path fill="#6db33f" stroke="black" d="M856.92,-923C856.92,-923 663.35,-923 663.35,-923 657.35,-923 651.35,-917 651.35,-911 651.35,-911 651.35,-899 651.35,-899 651.35,-893 657.35,-887 663.35,-887 663.35,-887 856.92,-887 856.92,-887 862.92,-887 868.92,-893 868.92,-899 868.92,-899 868.92,-911 868.92,-911 868.92,-917 862.92,-923 856.92,-923"/>
<text text-anchor="middle" x="760.13" y="-900.8" font-family="Times,serif" font-size="14.00">92: save_embeddings_to_text_file()</text>
</g>
<!-- node_787c93d4&#45;&gt;node_f46dc75b -->
<g id="edge8" class="edge" data-name="node_787c93d4-&gt;node_f46dc75b">

<path fill="none" stroke="#e69f00" stroke-width="2" d="M599.71,-940.72C599.71,-925.05 599.71,-905 599.71,-905 599.71,-905 637.88,-905 637.88,-905"/>
<polygon fill="#e69f00" stroke="#e69f00" stroke-width="2" points="637.88,-908.5 647.88,-905 637.88,-901.5 637.88,-908.5"/>
</g>
<!-- node_8ec347ge -->
<g id="node23" class="node" pointer-events="visible" data-name="node_8ec347ge">

<path fill="#6db33f" stroke="black" d="M793.66,-977C793.66,-977 726.61,-977 726.61,-977 720.61,-977 714.61,-971 714.61,-965 714.61,-965 714.61,-953 714.61,-953 714.61,-947 720.61,-941 726.61,-941 726.61,-941 793.66,-941 793.66,-941 799.66,-941 805.66,-947 805.66,-953 805.66,-953 805.66,-965 805.66,-965 805.66,-971 799.66,-977 793.66,-977"/>
<text text-anchor="middle" x="760.13" y="-954.8" font-family="Times,serif" font-size="14.00">87: forward()</text>
</g>
<!-- node_787c93d4&#45;&gt;node_8ec347ge -->
<g id="edge40" class="edge" data-name="node_787c93d4-&gt;node_8ec347ge">

<path fill="none" stroke="#e69f00" stroke-width="2" d="M608.04,-965C608.04,-965 701.18,-965 701.18,-965"/>
<polygon fill="#e69f00" stroke="#e69f00" stroke-width="2" points="701.18,-968.5 711.18,-965 701.18,-961.5 701.18,-968.5"/>
</g>
<!-- node_3155dedd&#45;&gt;node_8d89f3bf -->
<g id="edge9" class="edge" data-name="node_3155dedd-&gt;node_8d89f3bf">

<path fill="none" stroke="#0072b2" stroke-width="2" d="M389.05,-896C398.94,-896 406.71,-896 406.71,-896 406.71,-896 406.71,-579 406.71,-579 406.71,-579 449.98,-579 449.98,-579"/>
<polygon fill="#0072b2" stroke="#0072b2" stroke-width="2" points="449.98,-582.5 459.98,-579 449.98,-575.5 449.98,-582.5"/>
</g>
<!-- node_3155dedd&#45;&gt;node_787c93d4 -->
<g id="edge10" class="edge" data-name="node_3155dedd-&gt;node_787c93d4">

<path fill="none" stroke="#0072b2" stroke-width="2" d="M388.79,-914C415.6,-914 445.71,-914 445.71,-914 445.71,-914 445.71,-927.67 445.71,-927.67"/>
<polygon fill="#0072b2" stroke="#0072b2" stroke-width="2" points="442.21,-927.67 445.71,-937.67 449.21,-927.67 442.21,-927.67"/>
</g>
<!-- node_d0450036 -->
<g id="node12" class="node" pointer-events="visible" data-name="node_d0450036">

<path fill="#6db33f" stroke="black" d="M569.65,-923C569.65,-923 470.3,-923 470.3,-923 464.3,-923 458.3,-917 458.3,-911 458.3,-911 458.3,-899 458.3,-899 458.3,-893 464.3,-887 470.3,-887 470.3,-887 569.65,-887 569.65,-887 575.65,-887 581.65,-893 581.65,-899 581.65,-899 581.65,-911 581.65,-911 581.65,-917 575.65,-923 569.65,-923"/>
<text text-anchor="middle" x="519.97" y="-900.8" font-family="Times,serif" font-size="14.00">112: read_dataset()</text>
</g>
<!-- node_3155dedd&#45;&gt;node_d0450036 -->
<g id="edge13" class="edge" data-name="node_3155dedd-&gt;node_d0450036">

<path fill="none" stroke="#0072b2" stroke-width="2" d="M388.64,-905C388.64,-905 444.9,-905 444.9,-905"/>
<polygon fill="#0072b2" stroke="#0072b2" stroke-width="2" points="444.9,-908.5 454.9,-905 444.9,-901.5 444.9,-908.5"/>
</g>
<!-- node_2ebbee37 -->
<g id="node14" class="node" pointer-events="visible" data-name="node_2ebbee37">

<path fill="#966f33" stroke="black" d="M165.53,-730C165.53,-730 105.47,-730 105.47,-730 99.47,-730 93.47,-724 93.47,-718 93.47,-718 93.47,-706 93.47,-706 93.47,-700 99.47,-694 105.47,-694 105.47,-694 165.53,-694 165.53,-694 171.53,-694 177.53,-700 177.53,-706 177.53,-706 177.53,-718 177.53,-718 177.53,-724 171.53,-730 165.53,-730"/>
<text text-anchor="middle" x="135.5" y="-707.8" font-family="Times,serif" font-size="14.00">0: (global)()</text>
</g>
<!-- node_9aab6c1b -->
<g id="node19" class="node" pointer-events="visible" data-name="node_9aab6c1b">

<path fill="#cccccc" stroke="black" d="M376.56,-730C376.56,-730 319.15,-730 319.15,-730 313.15,-730 307.15,-724 307.15,-718 307.15,-718 307.15,-706 307.15,-706 307.15,-700 313.15,-694 319.15,-694 319.15,-694 376.56,-694 376.56,-694 382.56,-694 388.56,-700 388.56,-706 388.56,-706 388.56,-718 388.56,-718 388.56,-724 382.56,-730 376.56,-730"/>
<text text-anchor="middle" x="347.85" y="-707.8" font-family="Times,serif" font-size="14.00">194: main()</text>
</g>
<!-- node_2ebbee37&#45;&gt;node_9aab6c1b -->
<g id="edge15" class="edge" data-name="node_2ebbee37-&gt;node_9aab6c1b">

<path fill="none" stroke="#cc79a7" stroke-width="2" d="M177.96,-712C177.96,-712 293.88,-712 293.88,-712"/>
<polygon fill="#cc79a7" stroke="#cc79a7" stroke-width="2" points="293.88,-715.5 303.88,-712 293.88,-708.5 293.88,-715.5"/>
</g>
<!-- node_8ec34736 -->
<g id="node15" class="node" pointer-events="visible" data-name="node_8ec34736">

<path fill="#6db33f" stroke="black" d="M793.66,-730C793.66,-730 726.61,-730 726.61,-730 720.61,-730 714.61,-724 714.61,-718 714.61,-718 714.61,-706 714.61,-706 714.61,-700 720.61,-694 726.61,-694 726.61,-694 793.66,-694 793.66,-694 799.66,-694 805.66,-700 805.66,-706 805.66,-706 805.66,-718 805.66,-718 805.66,-724 799.66,-730 793.66,-730"/>
<text text-anchor="middle" x="760.13" y="-707.8" font-family="Times,serif" font-size="14.00">92: forward()</text>
</g>
<!-- node_405f204a -->
<g id="node16" class="node" pointer-events="visible" data-name="node_405f204a">

<path fill="#6db33f" stroke="black" d="M603.01,-838C603.01,-838 436.94,-838 436.94,-838 430.94,-838 424.94,-832 424.94,-826 424.94,-826 424.94,-814 424.94,-814 424.94,-808 430.94,-802 436.94,-802 436.94,-802 603.01,-802 603.01,-802 609.01,-802 615.01,-808 615.01,-814 615.01,-814 615.01,-826 615.01,-826 615.01,-832 609.01,-838 603.01,-838"/>
<text text-anchor="middle" x="519.97" y="-815.8" font-family="Times,serif" font-size="14.00">160: generate_prediction_file()</text>
</g>
<!-- node_5de653ea -->
<g id="node17" class="node" pointer-events="visible" data-name="node_5de653ea">

<path fill="#6db33f" stroke="black" d="M587.91,-676C587.91,-676 452.04,-676 452.04,-676 446.04,-676 440.04,-670 440.04,-664 440.04,-664 440.04,-652 440.04,-652 440.04,-646 446.04,-640 452.04,-640 452.04,-640 587.91,-640 587.91,-640 593.91,-640 599.91,-646 599.91,-652 599.91,-652 599.91,-664 599.91,-664 599.91,-670 593.91,-676 587.91,-676"/>
<text text-anchor="middle" x="519.97" y="-653.8" font-family="Times,serif" font-size="14.00">175: generate_prob_file()</text>
</g>
<!-- node_89b5e599 -->
<g id="node18" class="node" pointer-events="visible" data-name="node_89b5e599">

<path fill="#cccccc" stroke="black" d="M560.76,-730C560.76,-730 479.19,-730 479.19,-730 473.19,-730 467.19,-724 467.19,-718 467.19,-718 467.19,-706 467.19,-706 467.19,-700 473.19,-694 479.19,-694 479.19,-694 560.76,-694 560.76,-694 566.76,-694 572.76,-700 572.76,-706 572.76,-706 572.76,-718 572.76,-718 572.76,-724 566.76,-730 560.76,-730"/>
<text text-anchor="middle" x="519.97" y="-707.8" font-family="Times,serif" font-size="14.00">116: inference()</text>
</g>
<!-- node_89b5e599&#45;&gt;node_4b789ddb -->
<g id="edge17" class="edge" data-name="node_89b5e599-&gt;node_4b789ddb">

<path fill="none" stroke="#d55e00" stroke-width="2" d="M572.91,-706C627.5,-706 704.71,-706 704.71,-706 704.71,-706 704.71,-571.43 704.71,-571.43"/>
<polygon fill="#d55e00" stroke="#d55e00" stroke-width="2" points="708.21,-571.43 704.71,-561.43 701.21,-571.43 708.21,-571.43"/>
</g>
<!-- node_89b5e599&#45;&gt;node_8ec34736 -->
<g id="edge16" class="edge" data-name="node_89b5e599-&gt;node_8ec34736">

<path fill="none" stroke="#d55e00" stroke-width="2" d="M572.98,-718C572.98,-718 701.12,-718 701.12,-718"/>
<polygon fill="#d55e00" stroke="#d55e00" stroke-width="2" points="701.12,-721.5 711.12,-718 701.12,-714.5 701.12,-721.5"/>
</g>
<!-- node_9aab6c1b&#45;&gt;node_8d89f3bf -->
<g id="edge18" class="edge" data-name="node_9aab6c1b-&gt;node_8d89f3bf">

<path fill="none" stroke="#009e73" stroke-width="2" d="M348.71,-693.64C348.71,-654.62 348.71,-567 348.71,-567 348.71,-567 449.92,-567 449.92,-567"/>
<polygon fill="#009e73" stroke="#009e73" stroke-width="2" points="449.92,-570.5 459.92,-567 449.92,-563.5 449.92,-570.5"/>
</g>
<!-- node_9aab6c1b&#45;&gt;node_405f204a -->
<g id="edge19" class="edge" data-name="node_9aab6c1b-&gt;node_405f204a">

<path fill="none" stroke="#009e73" stroke-width="2" d="M388.79,-721C410.49,-721 432.71,-721 432.71,-721 432.71,-721 432.71,-788.81 432.71,-788.81"/>
<polygon fill="#009e73" stroke="#009e73" stroke-width="2" points="429.21,-788.81 432.71,-798.81 436.21,-788.81 429.21,-788.81"/>
</g>
<!-- node_9aab6c1b&#45;&gt;node_5de653ea -->
<g id="edge22" class="edge" data-name="node_9aab6c1b-&gt;node_5de653ea">

<path fill="none" stroke="#009e73" stroke-width="2" d="M388.9,-703C417.93,-703 451.71,-703 451.71,-703 451.71,-703 451.71,-689.33 451.71,-689.33"/>
<polygon fill="#009e73" stroke="#009e73" stroke-width="2" points="455.21,-689.33 451.71,-679.33 448.21,-689.33 455.21,-689.33"/>
</g>
<!-- node_9aab6c1b&#45;&gt;node_89b5e599 -->
<g id="edge25" class="edge" data-name="node_9aab6c1b-&gt;node_89b5e599">

<path fill="none" stroke="#009e73" stroke-width="2" d="M388.64,-712C388.64,-712 453.73,-712 453.73,-712"/>
<polygon fill="#009e73" stroke="#009e73" stroke-width="2" points="453.73,-715.5 463.73,-712 453.73,-708.5 453.73,-715.5"/>
</g>
<!-- node_3450c67c -->
<g id="node20" class="node" pointer-events="visible" data-name="node_3450c67c">

<path fill="#6db33f" stroke="black" d="M566.15,-784C566.15,-784 473.8,-784 473.8,-784 467.8,-784 461.8,-778 461.8,-772 461.8,-772 461.8,-760 461.8,-760 461.8,-754 467.8,-748 473.8,-748 473.8,-748 566.15,-748 566.15,-748 572.15,-748 578.15,-754 578.15,-760 578.15,-760 578.15,-772 578.15,-772 578.15,-778 572.15,-784 566.15,-784"/>
<text text-anchor="middle" x="519.97" y="-761.8" font-family="Times,serif" font-size="14.00">57: read_dataset()</text>
</g>
<!-- node_9aab6c1b&#45;&gt;node_3450c67c -->
<g id="edge28" class="edge" data-name="node_9aab6c1b-&gt;node_3450c67c">

<path fill="none" stroke="#009e73" stroke-width="2" d="M348.71,-730.28C348.71,-745.95 348.71,-766 348.71,-766 348.71,-766 448.49,-766 448.49,-766"/>
<polygon fill="#009e73" stroke="#009e73" stroke-width="2" points="448.49,-769.5 458.49,-766 448.49,-762.5 448.49,-769.5"/>
</g>
<!-- node_2c5014a0 -->
<g id="node21" class="node" pointer-events="visible" data-name="node_2c5014a0">

<path fill="#966f33" stroke="black" d="M165.53,-245C165.53,-245 105.47,-245 105.47,-245 99.47,-245 93.47,-239 93.47,-233 93.47,-233 93.47,-221 93.47,-221 93.47,-215 99.47,-209 105.47,-209 105.47,-209 165.53,-209 165.53,-209 171.53,-209 177.53,-215 177.53,-221 177.53,-221 177.53,-233 177.53,-233 177.53,-239 171.53,-245 165.53,-245"/>
<text text-anchor="middle" x="135.5" y="-222.8" font-family="Times,serif" font-size="14.00">0: (global)()</text>
</g>
<!-- node_44f5e4a1 -->
<g id="node24" class="node" pointer-events="visible" data-name="node_44f5e4a1">

<path fill="#cccccc" stroke="black" d="M376.56,-245C376.56,-245 319.15,-245 319.15,-245 313.15,-245 307.15,-239 307.15,-233 307.15,-233 307.15,-221 307.15,-221 307.15,-215 313.15,-209 319.15,-209 319.15,-209 376.56,-209 376.56,-209 382.56,-209 388.56,-215 388.56,-221 388.56,-221 388.56,-233 388.56,-233 388.56,-239 382.56,-245 376.56,-245"/>
<text text-anchor="middle" x="347.85" y="-222.8" font-family="Times,serif" font-size="14.00">214: main()</text>
</g>
<!-- node_2c5014a0&#45;&gt;node_44f5e4a1 -->
<g id="edge30" class="edge" data-name="node_2c5014a0-&gt;node_44f5e4a1">

<path fill="none" stroke="#000000" stroke-width="2" d="M177.96,-227C177.96,-227 293.88,-227 293.88,-227"/>
<polygon fill="#000000" stroke="#000000" stroke-width="2" points="293.88,-230.5 303.88,-227 293.88,-223.5 293.88,-230.5"/>
</g>
<!-- node_e90bbe08 -->
<g id="node22" class="node" pointer-events="visible" data-name="node_e90bbe08">

<path fill="#6db33f" stroke="black" d="M793.66,-228C793.66,-228 726.61,-228 726.61,-228 720.61,-228 714.61,-222 714.61,-216 714.61,-216 714.61,-204 714.61,-204 714.61,-198 720.61,-192 726.61,-192 726.61,-192 793.66,-192 793.66,-192 799.66,-192 805.66,-198 805.66,-204 805.66,-204 805.66,-216 805.66,-216 805.66,-222 799.66,-228 793.66,-228"/>
<text text-anchor="middle" x="760.13" y="-205.8" font-family="Times,serif" font-size="14.00">86: forward()</text>
</g>
<!-- node_44f5e4a1&#45;&gt;node_6ced184f -->
<g id="edge35" class="edge" data-name="node_44f5e4a1-&gt;node_6ced184f">

<path fill="none" stroke="#e69f00" stroke-width="2" d="M388.75,-242C424.83,-242 471.71,-242 471.71,-242 471.71,-242 471.71,-338.63 471.71,-338.63"/>
<polygon fill="#e69f00" stroke="#e69f00" stroke-width="2" points="468.21,-338.63 471.71,-348.63 475.21,-338.63 468.21,-338.63"/>
</g>
<!-- node_06075de9 -->
<g id="node25" class="node" pointer-events="visible" data-name="node_06075de9">

<path fill="#6db33f" stroke="black" d="M570.43,-164C570.43,-164 469.51,-164 469.51,-164 463.51,-164 457.51,-158 457.51,-152 457.51,-152 457.51,-140 457.51,-140 457.51,-134 463.51,-128 469.51,-128 469.51,-128 570.43,-128 570.43,-128 576.43,-128 582.43,-134 582.43,-140 582.43,-140 582.43,-152 582.43,-152 582.43,-158 576.43,-164 570.43,-164"/>
<text text-anchor="middle" x="519.97" y="-141.8" font-family="Times,serif" font-size="14.00">199: save_dataset()</text>
</g>
<!-- node_44f5e4a1&#45;&gt;node_06075de9 -->
<g id="edge36" class="edge" data-name="node_44f5e4a1-&gt;node_06075de9">

<path fill="none" stroke="#e69f00" stroke-width="2" d="M389.01,-212C426.39,-212 475.71,-212 475.71,-212 475.71,-212 475.71,-177.41 475.71,-177.41"/>
<polygon fill="#e69f00" stroke="#e69f00" stroke-width="2" points="479.21,-177.41 475.71,-167.41 472.21,-177.41 479.21,-177.41"/>
</g>
<!-- node_fb0ae1bc -->
<g id="node26" class="node" pointer-events="visible" data-name="node_fb0ae1bc">

<path fill="#cccccc" stroke="black" d="M547.84,-272C547.84,-272 492.1,-272 492.1,-272 486.1,-272 480.1,-266 480.1,-260 480.1,-260 480.1,-248 480.1,-248 480.1,-242 486.1,-236 492.1,-236 492.1,-236 547.84,-236 547.84,-236 553.84,-236 559.84,-242 559.84,-248 559.84,-248 559.84,-260 559.84,-260 559.84,-266 553.84,-272 547.84,-272"/>
<text text-anchor="middle" x="519.97" y="-249.8" font-family="Times,serif" font-size="14.00">109: train()</text>
</g>
<!-- node_44f5e4a1&#45;&gt;node_fb0ae1bc -->
<g id="edge38" class="edge" data-name="node_44f5e4a1-&gt;node_fb0ae1bc">

<path fill="none" stroke="#e69f00" stroke-width="2" d="M388.64,-239C388.64,-239 466.75,-239 466.75,-239"/>
<polygon fill="#e69f00" stroke="#e69f00" stroke-width="2" points="466.75,-242.5 476.75,-239 466.75,-235.5 466.75,-242.5"/>
</g>
<!-- node_1928c2dc -->
<g id="node27" class="node" pointer-events="visible" data-name="node_1928c2dc">

<path fill="#cccccc" stroke="black" d="M548.68,-218C548.68,-218 491.27,-218 491.27,-218 485.27,-218 479.27,-212 479.27,-206 479.27,-206 479.27,-194 479.27,-194 479.27,-188 485.27,-182 491.27,-182 491.27,-182 548.68,-182 548.68,-182 554.68,-182 560.68,-188 560.68,-194 560.68,-194 560.68,-206 560.68,-206 560.68,-212 554.68,-218 548.68,-218"/>
<text text-anchor="middle" x="519.97" y="-195.8" font-family="Times,serif" font-size="14.00">161: valid()</text>
</g>
<!-- node_44f5e4a1&#45;&gt;node_1928c2dc -->
<g id="edge39" class="edge" data-name="node_44f5e4a1-&gt;node_1928c2dc">

<path fill="none" stroke="#e69f00" stroke-width="2" d="M388.64,-215C388.64,-215 465.85,-215 465.85,-215"/>
<polygon fill="#e69f00" stroke="#e69f00" stroke-width="2" points="465.85,-218.5 475.85,-215 465.85,-211.5 465.85,-218.5"/>
</g>
<!-- node_fb0ae1bc&#45;&gt;node_1cac63ac -->
<g id="edge33" class="edge" data-name="node_fb0ae1bc-&gt;node_1cac63ac">

<path fill="none" stroke="#009e73" stroke-width="2" d="M560.03,-254C614.9,-254 706.71,-254 706.71,-254 706.71,-254 706.71,-315.6 706.71,-315.6"/>
<polygon fill="#009e73" stroke="#009e73" stroke-width="2" points="703.21,-315.6 706.71,-325.6 710.21,-315.6 703.21,-315.6"/>
</g>
<!-- node_fb0ae1bc&#45;&gt;node_e90bbe08 -->
<g id="edge31" class="edge" data-name="node_fb0ae1bc-&gt;node_e90bbe08">

<path fill="none" stroke="#009e73" stroke-width="2" d="M520.71,-235.61C520.71,-228.93 520.71,-223 520.71,-223 520.71,-223 701.23,-223 701.23,-223"/>
<polygon fill="#009e73" stroke="#009e73" stroke-width="2" points="701.23,-226.5 711.23,-223 701.23,-219.5 701.23,-226.5"/>
</g>
<!-- node_1928c2dc&#45;&gt;node_1cac63ac -->
<g id="edge34" class="edge" data-name="node_1928c2dc-&gt;node_1cac63ac">

<path fill="none" stroke="#000000" stroke-width="2" d="M560.89,-209.33C616.94,-209.33 710.71,-209.33 710.71,-209.33 710.71,-209.33 710.71,-315.69 710.71,-315.69"/>
<polygon fill="#000000" stroke="#000000" stroke-width="2" points="707.21,-315.69 710.71,-325.69 714.21,-315.69 707.21,-315.69"/>
</g>
<!-- node_1928c2dc&#45;&gt;node_e90bbe08 -->
<g id="edge32" class="edge" data-name="node_1928c2dc-&gt;node_e90bbe08">

<path fill="none" stroke="#000000" stroke-width="2" d="M560.99,-200.67C560.99,-200.67 701.35,-200.67 701.35,-200.67"/>
<polygon fill="#000000" stroke="#000000" stroke-width="2" points="701.35,-204.17 711.35,-200.67 701.35,-197.17 701.35,-204.17"/>
</g>
</g>
</svg>