<?xml version="1.0" standalone="no"?>
<svg xmlns="http://www.w3.org/2000/svg" xmlns:xlink="http://www.w3.org/1999/xlink" width="1060pt" height="943pt" viewBox="0.00 0.00 1059.71 943.00">
<g id="graph0" class="graph" transform="translate(4,939) scale(1)" data-name="G">

<polygon fill="white" stroke="none" points="-4,4 -4,-939 1055.71,-939 1055.71,4 -4,4" style=""/>
<g id="clust2" class="cluster" data-name="cluster_1e691225">

<polygon fill="none" stroke="black" stroke-dasharray="1,5" points="456.73,-531 456.73,-842 1043.71,-842 1043.71,-531 456.73,-531" style=""/>
<text text-anchor="middle" x="750.22" y="-825.4" font-family="Times,serif" font-size="14.00" style="">File: data_loader</text>
</g>
<g id="clust3" class="cluster" data-name="cluster_763645fa">

<polygon fill="none" stroke="black" stroke-dasharray="1,5" points="697.28,-678 697.28,-809 829.98,-809 829.98,-678 697.28,-678" style=""/>
<text text-anchor="middle" x="763.63" y="-792.4" font-family="Times,serif" font-size="14.00" style="">Class: mnli_dataset</text>
</g>
<g id="clust4" class="cluster" data-name="cluster_d435c1e1">

<polygon fill="none" stroke="black" stroke-dasharray="1,5" points="693.78,-539 693.78,-670 833.48,-670 833.48,-539 693.78,-539" style=""/>
<text text-anchor="middle" x="763.63" y="-653.4" font-family="Times,serif" font-size="14.00" style="">Class: hans_dataset</text>
</g>
<g id="clust5" class="cluster" data-name="cluster_0085b3be">

<polygon fill="none" stroke="black" stroke-dasharray="1,5" points="85.48,-850 85.48,-927 884.03,-927 884.03,-850 85.48,-850" style=""/>
<text text-anchor="middle" x="484.75" y="-910.4" font-family="Times,serif" font-size="14.00" style="">File: generate_embeddings</text>
</g>
<g id="clust6" class="cluster" data-name="cluster_ebe717e3">

<polygon fill="none" stroke="black" stroke-dasharray="1,5" points="85.48,-284 85.48,-523 623.24,-523 623.24,-284 85.48,-284" style=""/>
<text text-anchor="middle" x="354.36" y="-506.4" font-family="Times,serif" font-size="14.00" style="">File: test</text>
</g>
<g id="clust7" class="cluster" data-name="cluster_d50e11f4">

<polygon fill="none" stroke="black" stroke-dasharray="1,5" points="85.48,-120 85.48,-251 854.33,-251 854.33,-120 85.48,-120" style=""/>
<text text-anchor="middle" x="469.9" y="-234.4" font-family="Times,serif" font-size="14.00" style="">File: train</text>
</g>
<g id="clust8" class="cluster" data-name="cluster_4f376c6e">

<polygon fill="none" stroke="black" stroke-dasharray="1,5" points="680.94,-128 680.94,-205 846.33,-205 846.33,-128 680.94,-128" style=""/>
<text text-anchor="middle" x="763.63" y="-188.4" font-family="Times,serif" font-size="14.00" style="">Class: GeneralizedCELoss</text>
</g>
<g id="clust9" class="cluster" data-name="cluster_0cca4982">

<polygon fill="none" stroke="black" stroke-dasharray="1,5" points="697.83,-259 697.83,-485 829.44,-485 829.44,-259 697.83,-259" style=""/>
<text text-anchor="middle" x="763.63" y="-468.4" font-family="Times,serif" font-size="14.00" style="">File: util</text>
</g>
<g id="clust10" class="cluster" data-name="cluster_0cce4a84">

<polygon fill="none" stroke="black" stroke-dasharray="1,5" points="705.83,-267 705.83,-452 821.44,-452 821.44,-267 705.83,-267" style=""/>
<text text-anchor="middle" x="763.63" y="-435.4" font-family="Times,serif" font-size="14.00" style="">Class: EMA</text>
</g>
<!-- Legend -->
<g id="node1" class="node" pointer-events="visible" data-name="Legend">

<polygon fill="none" stroke="black" points="1.5,-93 1.5,-111 270.5,-111 270.5,-93 1.5,-93" style=""/>
<text text-anchor="start" x="82.15" y="-97.4" font-family="Times,serif" font-size="14.00" style="">Code2flow Legend</text>
<polygon fill="none" stroke="black" points="1.5,-1 1.5,-93 270.5,-93 270.5,-1 1.5,-1" style=""/>
<polygon fill="none" stroke="black" points="3.5,-69 3.5,-91 218.5,-91 218.5,-69 3.5,-69" style=""/>
<text text-anchor="start" x="63.76" y="-75.4" font-family="Times,serif" font-size="14.00" style="">Regular function</text>
<polygon fill="#cccccc" stroke="none" points="218.5,-69 218.5,-91 268.5,-91 268.5,-69 218.5,-69" style=""/>
<polygon fill="none" stroke="black" points="218.5,-69 218.5,-91 268.5,-91 268.5,-69 218.5,-69" style=""/>
<polygon fill="none" stroke="black" points="3.5,-47 3.5,-69 218.5,-69 218.5,-47 3.5,-47" style=""/>
<text text-anchor="start" x="14.57" y="-53.4" font-family="Times,serif" font-size="14.00" style="">Trunk function (nothing calls this)</text>
<polygon fill="#966f33" stroke="none" points="218.5,-47 218.5,-69 268.5,-69 268.5,-47 218.5,-47" style=""/>
<polygon fill="none" stroke="black" points="218.5,-47 218.5,-69 268.5,-69 268.5,-47 218.5,-47" style=""/>
<polygon fill="none" stroke="black" points="3.5,-25 3.5,-47 218.5,-47 218.5,-25 3.5,-25" style=""/>
<text text-anchor="start" x="6.23" y="-31.4" font-family="Times,serif" font-size="14.00" style="">Leaf function (this calls nothing else)</text>
<polygon fill="#6db33f" stroke="none" points="218.5,-25 218.5,-47 268.5,-47 268.5,-25 218.5,-25" style=""/>
<polygon fill="none" stroke="black" points="218.5,-25 218.5,-47 268.5,-47 268.5,-25 218.5,-25" style=""/>
<polygon fill="none" stroke="black" points="3.5,-3 3.5,-25 218.5,-25 218.5,-3 3.5,-3" style=""/>
<text text-anchor="start" x="74.26" y="-9.4" font-family="Times,serif" font-size="14.00" style="">Function call</text>
<polygon fill="none" stroke="black" points="218.5,-3 218.5,-25 268.5,-25 268.5,-3 218.5,-3" style=""/>
<text text-anchor="start" x="238.25" y="-9.4" font-family="Times,serif" font-size="14.00" style="">→</text>
<polygon fill="none" stroke="black" points="2.5,-2 2.5,-92 269.5,-92 269.5,-2 2.5,-2" style=""/>
<polygon fill="none" stroke="black" points="0,0 0,-112 271,-112 271,0 0,0" style=""/>
</g>
<!-- node_ea1e3a43 -->
<g id="node2" class="node" pointer-events="visible" data-name="node_ea1e3a43">

<path fill="#966f33" stroke="black" d="M813.33,-637C813.33,-637 713.93,-637 713.93,-637 707.93,-637 701.93,-631 701.93,-625 701.93,-625 701.93,-613 701.93,-613 701.93,-607 707.93,-601 713.93,-601 713.93,-601 813.33,-601 813.33,-601 819.33,-601 825.33,-607 825.33,-613 825.33,-613 825.33,-625 825.33,-625 825.33,-631 819.33,-637 813.33,-637" style=""/>
<text text-anchor="middle" x="763.63" y="-614.8" font-family="Times,serif" font-size="14.00" style="">187: __getitem__()</text>
</g>
<!-- node_213c406e -->
<g id="node9" class="node" pointer-events="visible" data-name="node_213c406e">

<path fill="#6db33f" stroke="black" d="M1023.56,-706C1023.56,-706 924.18,-706 924.18,-706 918.18,-706 912.18,-700 912.18,-694 912.18,-694 912.18,-682 912.18,-682 912.18,-676 918.18,-670 924.18,-670 924.18,-670 1023.56,-670 1023.56,-670 1029.56,-670 1035.56,-676 1035.56,-682 1035.56,-682 1035.56,-694 1035.56,-694 1035.56,-700 1029.56,-706 1023.56,-706" style=""/>
<text text-anchor="middle" x="973.87" y="-683.8" font-family="Times,serif" font-size="14.00" style="">24: tokenize_sent()</text>
</g>
<!-- node_ea1e3a43&#45;&gt;node_213c406e -->
<g id="edge1" class="edge" data-name="node_ea1e3a43-&gt;node_213c406e">

<path fill="none" stroke="#009e73" stroke-width="2" d="M818.71,-637.34C818.71,-654.66 818.71,-678 818.71,-678 818.71,-678 899.07,-678 899.07,-678" style=""/>
<polygon fill="#009e73" stroke="#009e73" stroke-width="2" points="899.07,-681.5 909.07,-678 899.07,-674.5 899.07,-681.5" style=""/>
</g>
<!-- node_04aae928 -->
<g id="node3" class="node" pointer-events="visible" data-name="node_04aae928">

<path fill="#6db33f" stroke="black" d="M802.02,-583C802.02,-583 725.25,-583 725.25,-583 719.25,-583 713.25,-577 713.25,-571 713.25,-571 713.25,-559 713.25,-559 713.25,-553 719.25,-547 725.25,-547 725.25,-547 802.02,-547 802.02,-547 808.02,-547 814.02,-553 814.02,-559 814.02,-559 814.02,-571 814.02,-571 814.02,-577 808.02,-583 802.02,-583" style=""/>
<text text-anchor="middle" x="763.63" y="-560.8" font-family="Times,serif" font-size="14.00" style="">161: __init__()</text>
</g>
<!-- node_45bdba84 -->
<g id="node4" class="node" pointer-events="visible" data-name="node_45bdba84">

<path fill="#cccccc" stroke="black" d="M563.46,-629C563.46,-629 476.49,-629 476.49,-629 470.49,-629 464.49,-623 464.49,-617 464.49,-617 464.49,-605 464.49,-605 464.49,-599 470.49,-593 476.49,-593 476.49,-593 563.46,-593 563.46,-593 569.46,-593 575.46,-599 575.46,-605 575.46,-605 575.46,-617 575.46,-617 575.46,-623 569.46,-629 563.46,-629" style=""/>
<text text-anchor="middle" x="519.97" y="-606.8" font-family="Times,serif" font-size="14.00" style="">230: load_hans()</text>
</g>
<!-- node_45bdba84&#45;&gt;node_04aae928 -->
<g id="edge3" class="edge" data-name="node_45bdba84-&gt;node_04aae928">

<path fill="none" stroke="#f0e442" stroke-width="2" d="M575.89,-597C647.85,-597 763.71,-597 763.71,-597 763.71,-597 763.71,-595.62 763.71,-595.62" style=""/>
<polygon fill="#f0e442" stroke="#f0e442" stroke-width="2" points="767.21,-596.27 763.71,-586.27 760.21,-596.27 767.21,-596.27" style=""/>
</g>
<!-- node_06ca261a -->
<g id="node5" class="node" pointer-events="visible" data-name="node_06ca261a">

<path fill="#cccccc" stroke="black" d="M563.46,-575C563.46,-575 476.49,-575 476.49,-575 470.49,-575 464.49,-569 464.49,-563 464.49,-563 464.49,-551 464.49,-551 464.49,-545 470.49,-539 476.49,-539 476.49,-539 563.46,-539 563.46,-539 569.46,-539 575.46,-545 575.46,-551 575.46,-551 575.46,-563 575.46,-563 575.46,-569 569.46,-575 563.46,-575" style=""/>
<text text-anchor="middle" x="519.97" y="-552.8" font-family="Times,serif" font-size="14.00" style="">118: load_mnli()</text>
</g>
<!-- node_0bf095f9 -->
<g id="node8" class="node" pointer-events="visible" data-name="node_0bf095f9">

<path fill="#6db33f" stroke="black" d="M798.52,-722C798.52,-722 728.75,-722 728.75,-722 722.75,-722 716.75,-716 716.75,-710 716.75,-710 716.75,-698 716.75,-698 716.75,-692 722.75,-686 728.75,-686 728.75,-686 798.52,-686 798.52,-686 804.52,-686 810.52,-692 810.52,-698 810.52,-698 810.52,-710 810.52,-710 810.52,-716 804.52,-722 798.52,-722" style=""/>
<text text-anchor="middle" x="763.63" y="-699.8" font-family="Times,serif" font-size="14.00" style="">49: __init__()</text>
</g>
<!-- node_06ca261a&#45;&gt;node_0bf095f9 -->
<g id="edge4" class="edge" data-name="node_06ca261a-&gt;node_0bf095f9">

<path fill="none" stroke="#56b4e9" stroke-width="2" d="M575.72,-561C594.93,-561 611.71,-561 611.71,-561 611.71,-561 611.71,-698 611.71,-698 611.71,-698 703.37,-698 703.37,-698" style=""/>
<polygon fill="#56b4e9" stroke="#56b4e9" stroke-width="2" points="703.37,-701.5 713.37,-698 703.37,-694.5 703.37,-701.5" style=""/>
</g>
<!-- node_57f1bb23 -->
<g id="node6" class="node" pointer-events="visible" data-name="node_57f1bb23">

<path fill="#cccccc" stroke="black" d="M560.52,-722C560.52,-722 479.43,-722 479.43,-722 473.43,-722 467.43,-716 467.43,-710 467.43,-710 467.43,-698 467.43,-698 467.43,-692 473.43,-686 479.43,-686 479.43,-686 560.52,-686 560.52,-686 566.52,-686 572.52,-692 572.52,-698 572.52,-698 572.52,-710 572.52,-710 572.52,-716 566.52,-722 560.52,-722" style=""/>
<text text-anchor="middle" x="519.97" y="-699.8" font-family="Times,serif" font-size="14.00" style="">263: load_snli()</text>
</g>
<!-- node_57f1bb23&#45;&gt;node_0bf095f9 -->
<g id="edge5" class="edge" data-name="node_57f1bb23-&gt;node_0bf095f9">

<path fill="none" stroke="#009e73" stroke-width="2" d="M572.85,-710C572.85,-710 703.6,-710 703.6,-710" style=""/>
<polygon fill="#009e73" stroke="#009e73" stroke-width="2" points="703.6,-713.5 713.6,-710 703.6,-706.5 703.6,-713.5" style=""/>
</g>
<!-- node_388f9753 -->
<g id="node7" class="node" pointer-events="visible" data-name="node_388f9753">

<path fill="#966f33" stroke="black" d="M809.83,-776C809.83,-776 717.43,-776 717.43,-776 711.43,-776 705.43,-770 705.43,-764 705.43,-764 705.43,-752 705.43,-752 705.43,-746 711.43,-740 717.43,-740 717.43,-740 809.83,-740 809.83,-740 815.83,-740 821.83,-746 821.83,-752 821.83,-752 821.83,-764 821.83,-764 821.83,-770 815.83,-776 809.83,-776" style=""/>
<text text-anchor="middle" x="763.63" y="-753.8" font-family="Times,serif" font-size="14.00" style="">75: __getitem__()</text>
</g>
<!-- node_388f9753&#45;&gt;node_213c406e -->
<g id="edge6" class="edge" data-name="node_388f9753-&gt;node_213c406e">

<path fill="none" stroke="#009e73" stroke-width="2" d="M814.71,-739.73C814.71,-721.44 814.71,-696 814.71,-696 814.71,-696 898.85,-696 898.85,-696" style=""/>
<polygon fill="#009e73" stroke="#009e73" stroke-width="2" points="898.85,-699.5 908.85,-696 898.85,-692.5 898.85,-699.5" style=""/>
</g>
<!-- node_7e968159 -->
<g id="node10" class="node" pointer-events="visible" data-name="node_7e968159">

<path fill="#966f33" stroke="black" d="M165.53,-894C165.53,-894 105.47,-894 105.47,-894 99.47,-894 93.47,-888 93.47,-882 93.47,-882 93.47,-870 93.47,-870 93.47,-864 99.47,-858 105.47,-858 105.47,-858 165.53,-858 165.53,-858 171.53,-858 177.53,-864 177.53,-870 177.53,-870 177.53,-882 177.53,-882 177.53,-888 171.53,-894 165.53,-894" style=""/>
<text text-anchor="middle" x="135.5" y="-871.8" font-family="Times,serif" font-size="14.00" style="">0: (global)()</text>
</g>
<!-- node_9db551ea -->
<g id="node12" class="node" pointer-events="visible" data-name="node_9db551ea">

<path fill="#cccccc" stroke="black" d="M376.56,-894C376.56,-894 319.15,-894 319.15,-894 313.15,-894 307.15,-888 307.15,-882 307.15,-882 307.15,-870 307.15,-870 307.15,-864 313.15,-858 319.15,-858 319.15,-858 376.56,-858 376.56,-858 382.56,-858 388.56,-864 388.56,-870 388.56,-870 388.56,-882 388.56,-882 388.56,-888 382.56,-894 376.56,-894" style=""/>
<text text-anchor="middle" x="347.85" y="-871.8" font-family="Times,serif" font-size="14.00" style="">152: main()</text>
</g>
<!-- node_7e968159&#45;&gt;node_9db551ea -->
<g id="edge8" class="edge" data-name="node_7e968159-&gt;node_9db551ea">

<path fill="none" stroke="#e69f00" stroke-width="2" d="M177.96,-876C177.96,-876 293.88,-876 293.88,-876" style=""/>
<polygon fill="#e69f00" stroke="#e69f00" stroke-width="2" points="293.88,-879.5 303.88,-876 293.88,-872.5 293.88,-879.5" style=""/>
</g>
<!-- node_72042532 -->
<g id="node11" class="node" pointer-events="visible" data-name="node_72042532">

<path fill="#cccccc" stroke="black" d="M595.75,-894C595.75,-894 444.2,-894 444.2,-894 438.2,-894 432.2,-888 432.2,-882 432.2,-882 432.2,-870 432.2,-870 432.2,-864 438.2,-858 444.2,-858 444.2,-858 595.75,-858 595.75,-858 601.75,-858 607.75,-864 607.75,-870 607.75,-870 607.75,-882 607.75,-882 607.75,-888 601.75,-894 595.75,-894" style=""/>
<text text-anchor="middle" x="519.97" y="-871.8" font-family="Times,serif" font-size="14.00" style="">122: generate_embeddings()</text>
</g>
<!-- node_2630b2f6 -->
<g id="node13" class="node" pointer-events="visible" data-name="node_2630b2f6">

<path fill="#6db33f" stroke="black" d="M863.92,-894C863.92,-894 663.35,-894 663.35,-894 657.35,-894 651.35,-888 651.35,-882 651.35,-882 651.35,-870 651.35,-870 651.35,-864 657.35,-858 663.35,-858 663.35,-858 863.92,-858 863.92,-858 869.92,-858 875.92,-864 875.92,-870 875.92,-870 875.92,-882 875.92,-882 875.92,-888 869.92,-894 863.92,-894" style=""/>
<text text-anchor="middle" x="763.63" y="-871.8" font-family="Times,serif" font-size="14.00" style="">104: save_embeddings_to_text_file()</text>
</g>
<!-- node_72042532&#45;&gt;node_2630b2f6 -->
<g id="edge9" class="edge" data-name="node_72042532-&gt;node_2630b2f6">

<path fill="none" stroke="#56b4e9" stroke-width="2" d="M607.94,-876C607.94,-876 638.16,-876 638.16,-876" style=""/>
<polygon fill="#56b4e9" stroke="#56b4e9" stroke-width="2" points="638.16,-879.5 648.16,-876 638.16,-872.5 638.16,-879.5" style=""/>
</g>
<!-- node_9db551ea&#45;&gt;node_45bdba84 -->
<g id="edge10" class="edge" data-name="node_9db551ea-&gt;node_45bdba84">

<path fill="none" stroke="#56b4e9" stroke-width="2" d="M330.71,-857.59C330.71,-798.89 330.71,-620 330.71,-620 330.71,-620 451.19,-620 451.19,-620" style=""/>
<polygon fill="#56b4e9" stroke="#56b4e9" stroke-width="2" points="451.19,-623.5 461.19,-620 451.19,-616.5 451.19,-623.5" style=""/>
</g>
<!-- node_9db551ea&#45;&gt;node_06ca261a -->
<g id="edge12" class="edge" data-name="node_9db551ea-&gt;node_06ca261a">

<path fill="none" stroke="#56b4e9" stroke-width="2" d="M318.71,-857.54C318.71,-790.8 318.71,-566 318.71,-566 318.71,-566 451.15,-566 451.15,-566" style=""/>
<polygon fill="#56b4e9" stroke="#56b4e9" stroke-width="2" points="451.15,-569.5 461.15,-566 451.15,-562.5 451.15,-569.5" style=""/>
</g>
<!-- node_9db551ea&#45;&gt;node_57f1bb23 -->
<g id="edge13" class="edge" data-name="node_9db551ea-&gt;node_57f1bb23">

<path fill="none" stroke="#56b4e9" stroke-width="2" d="M353.71,-857.6C353.71,-814.38 353.71,-710 353.71,-710 353.71,-710 454.34,-710 454.34,-710" style=""/>
<polygon fill="#56b4e9" stroke="#56b4e9" stroke-width="2" points="454.34,-713.5 464.34,-710 454.34,-706.5 454.34,-713.5" style=""/>
</g>
<!-- node_9db551ea&#45;&gt;node_72042532 -->
<g id="edge14" class="edge" data-name="node_9db551ea-&gt;node_72042532">

<path fill="none" stroke="#56b4e9" stroke-width="2" d="M388.64,-882C388.64,-882 418.99,-882 418.99,-882" style=""/>
<polygon fill="#56b4e9" stroke="#56b4e9" stroke-width="2" points="418.99,-885.5 428.99,-882 418.99,-878.5 418.99,-885.5" style=""/>
</g>
<!-- node_024cc56b -->
<g id="node19" class="node" pointer-events="visible" data-name="node_024cc56b">

<path fill="#6db33f" stroke="black" d="M569.65,-490C569.65,-490 470.3,-490 470.3,-490 464.3,-490 458.3,-484 458.3,-478 458.3,-478 458.3,-466 458.3,-466 458.3,-460 464.3,-454 470.3,-454 470.3,-454 569.65,-454 569.65,-454 575.65,-454 581.65,-460 581.65,-466 581.65,-466 581.65,-478 581.65,-478 581.65,-484 575.65,-490 569.65,-490" style=""/>
<text text-anchor="middle" x="519.97" y="-467.8" font-family="Times,serif" font-size="14.00" style="">250: read_dataset()</text>
</g>
<!-- node_9db551ea&#45;&gt;node_024cc56b -->
<g id="edge19" class="edge" data-name="node_9db551ea-&gt;node_024cc56b">

<path fill="none" stroke="#56b4e9" stroke-width="2" d="M389.04,-870C397.41,-870 403.71,-870 403.71,-870 403.71,-870 403.71,-482.8 403.71,-482.8 403.71,-482.8 445.07,-482.8 445.07,-482.8" style=""/>
<polygon fill="#56b4e9" stroke="#56b4e9" stroke-width="2" points="445.07,-486.3 455.07,-482.8 445.07,-479.3 445.07,-486.3" style=""/>
</g>
<!-- node_63fb9dbb -->
<g id="node14" class="node" pointer-events="visible" data-name="node_63fb9dbb">

<path fill="#966f33" stroke="black" d="M165.53,-490C165.53,-490 105.47,-490 105.47,-490 99.47,-490 93.47,-484 93.47,-478 93.47,-478 93.47,-466 93.47,-466 93.47,-460 99.47,-454 105.47,-454 105.47,-454 165.53,-454 165.53,-454 171.53,-454 177.53,-460 177.53,-466 177.53,-466 177.53,-478 177.53,-478 177.53,-484 171.53,-490 165.53,-490" style=""/>
<text text-anchor="middle" x="135.5" y="-467.8" font-family="Times,serif" font-size="14.00" style="">0: (global)()</text>
</g>
<!-- node_59fd4cf2 -->
<g id="node18" class="node" pointer-events="visible" data-name="node_59fd4cf2">

<path fill="#cccccc" stroke="black" d="M376.56,-490C376.56,-490 319.15,-490 319.15,-490 313.15,-490 307.15,-484 307.15,-478 307.15,-478 307.15,-466 307.15,-466 307.15,-460 313.15,-454 319.15,-454 319.15,-454 376.56,-454 376.56,-454 382.56,-454 388.56,-460 388.56,-466 388.56,-466 388.56,-478 388.56,-478 388.56,-484 382.56,-490 376.56,-490" style=""/>
<text text-anchor="middle" x="347.85" y="-467.8" font-family="Times,serif" font-size="14.00" style="">264: main()</text>
</g>
<!-- node_63fb9dbb&#45;&gt;node_59fd4cf2 -->
<g id="edge21" class="edge" data-name="node_63fb9dbb-&gt;node_59fd4cf2">

<path fill="none" stroke="#009e73" stroke-width="2" d="M177.96,-472C177.96,-472 293.88,-472 293.88,-472" style=""/>
<polygon fill="#009e73" stroke="#009e73" stroke-width="2" points="293.88,-475.5 303.88,-472 293.88,-468.5 293.88,-475.5" style=""/>
</g>
<!-- node_9cf6ab27 -->
<g id="node15" class="node" pointer-events="visible" data-name="node_9cf6ab27">

<path fill="#6db33f" stroke="black" d="M603.01,-436C603.01,-436 436.94,-436 436.94,-436 430.94,-436 424.94,-430 424.94,-424 424.94,-424 424.94,-412 424.94,-412 424.94,-406 430.94,-400 436.94,-400 436.94,-400 603.01,-400 603.01,-400 609.01,-400 615.01,-406 615.01,-412 615.01,-412 615.01,-424 615.01,-424 615.01,-430 609.01,-436 603.01,-436" style=""/>
<text text-anchor="middle" x="519.97" y="-413.8" font-family="Times,serif" font-size="14.00" style="">221: generate_prediction_file()</text>
</g>
<!-- node_c906c5bc -->
<g id="node16" class="node" pointer-events="visible" data-name="node_c906c5bc">

<path fill="#6db33f" stroke="black" d="M587.91,-382C587.91,-382 452.04,-382 452.04,-382 446.04,-382 440.04,-376 440.04,-370 440.04,-370 440.04,-358 440.04,-358 440.04,-352 446.04,-346 452.04,-346 452.04,-346 587.91,-346 587.91,-346 593.91,-346 599.91,-352 599.91,-358 599.91,-358 599.91,-370 599.91,-370 599.91,-376 593.91,-382 587.91,-382" style=""/>
<text text-anchor="middle" x="519.97" y="-359.8" font-family="Times,serif" font-size="14.00" style="">235: generate_prob_file()</text>
</g>
<!-- node_806f9800 -->
<g id="node17" class="node" pointer-events="visible" data-name="node_806f9800">

<path fill="#6db33f" stroke="black" d="M560.76,-328C560.76,-328 479.19,-328 479.19,-328 473.19,-328 467.19,-322 467.19,-316 467.19,-316 467.19,-304 467.19,-304 467.19,-298 473.19,-292 479.19,-292 479.19,-292 560.76,-292 560.76,-292 566.76,-292 572.76,-298 572.76,-304 572.76,-304 572.76,-316 572.76,-316 572.76,-322 566.76,-328 560.76,-328" style=""/>
<text text-anchor="middle" x="519.97" y="-305.8" font-family="Times,serif" font-size="14.00" style="">163: inference()</text>
</g>
<!-- node_59fd4cf2&#45;&gt;node_45bdba84 -->
<g id="edge22" class="edge" data-name="node_59fd4cf2-&gt;node_45bdba84">

<path fill="none" stroke="#56b4e9" stroke-width="2" d="M365.71,-490.46C365.71,-528.27 365.71,-611 365.71,-611 365.71,-611 451.26,-611 451.26,-611" style=""/>
<polygon fill="#56b4e9" stroke="#56b4e9" stroke-width="2" points="451.26,-614.5 461.26,-611 451.26,-607.5 451.26,-614.5" style=""/>
</g>
<!-- node_59fd4cf2&#45;&gt;node_06ca261a -->
<g id="edge23" class="edge" data-name="node_59fd4cf2-&gt;node_06ca261a">

<path fill="none" stroke="#56b4e9" stroke-width="2" d="M377.71,-490.44C377.71,-515.44 377.71,-557 377.71,-557 377.71,-557 451.13,-557 451.13,-557" style=""/>
<polygon fill="#56b4e9" stroke="#56b4e9" stroke-width="2" points="451.13,-560.5 461.13,-557 451.13,-553.5 451.13,-560.5" style=""/>
</g>
<!-- node_59fd4cf2&#45;&gt;node_57f1bb23 -->
<g id="edge24" class="edge" data-name="node_59fd4cf2-&gt;node_57f1bb23">

<path fill="none" stroke="#56b4e9" stroke-width="2" d="M342.71,-490.49C342.71,-544.47 342.71,-698 342.71,-698 342.71,-698 454.24,-698 454.24,-698" style=""/>
<polygon fill="#56b4e9" stroke="#56b4e9" stroke-width="2" points="454.24,-701.5 464.24,-698 454.24,-694.5 454.24,-701.5" style=""/>
</g>
<!-- node_59fd4cf2&#45;&gt;node_9cf6ab27 -->
<g id="edge25" class="edge" data-name="node_59fd4cf2-&gt;node_9cf6ab27">

<path fill="none" stroke="#56b4e9" stroke-width="2" d="M388.76,-468.4C408.81,-468.4 428.71,-468.4 428.71,-468.4 428.71,-468.4 428.71,-449.51 428.71,-449.51" style=""/>
<polygon fill="#56b4e9" stroke="#56b4e9" stroke-width="2" points="432.21,-449.51 428.71,-439.51 425.21,-449.51 432.21,-449.51" style=""/>
</g>
<!-- node_59fd4cf2&#45;&gt;node_c906c5bc -->
<g id="edge30" class="edge" data-name="node_59fd4cf2-&gt;node_c906c5bc">

<path fill="none" stroke="#56b4e9" stroke-width="2" d="M368.71,-453.68C368.71,-422.87 368.71,-364 368.71,-364 368.71,-364 426.89,-364 426.89,-364" style=""/>
<polygon fill="#56b4e9" stroke="#56b4e9" stroke-width="2" points="426.89,-367.5 436.89,-364 426.89,-360.5 426.89,-367.5" style=""/>
</g>
<!-- node_59fd4cf2&#45;&gt;node_806f9800 -->
<g id="edge35" class="edge" data-name="node_59fd4cf2-&gt;node_806f9800">

<path fill="none" stroke="#56b4e9" stroke-width="2" d="M348.71,-453.73C348.71,-411.36 348.71,-310 348.71,-310 348.71,-310 453.7,-310 453.7,-310" style=""/>
<polygon fill="#56b4e9" stroke="#56b4e9" stroke-width="2" points="453.7,-313.5 463.7,-310 453.7,-306.5 453.7,-313.5" style=""/>
</g>
<!-- node_59fd4cf2&#45;&gt;node_024cc56b -->
<g id="edge41" class="edge" data-name="node_59fd4cf2-&gt;node_024cc56b">

<path fill="none" stroke="#56b4e9" stroke-width="2" d="M388.64,-475.6C388.64,-475.6 444.9,-475.6 444.9,-475.6" style=""/>
<polygon fill="#56b4e9" stroke="#56b4e9" stroke-width="2" points="444.9,-479.1 454.9,-475.6 444.9,-472.1 444.9,-479.1" style=""/>
</g>
<!-- node_d2ce6ce2 -->
<g id="node20" class="node" pointer-events="visible" data-name="node_d2ce6ce2">

<path fill="#966f33" stroke="black" d="M165.53,-218C165.53,-218 105.47,-218 105.47,-218 99.47,-218 93.47,-212 93.47,-206 93.47,-206 93.47,-194 93.47,-194 93.47,-188 99.47,-182 105.47,-182 105.47,-182 165.53,-182 165.53,-182 171.53,-182 177.53,-188 177.53,-194 177.53,-194 177.53,-206 177.53,-206 177.53,-212 171.53,-218 165.53,-218" style=""/>
<text text-anchor="middle" x="135.5" y="-195.8" font-family="Times,serif" font-size="14.00" style="">0: (global)()</text>
</g>
<!-- node_0c1f76a8 -->
<g id="node22" class="node" pointer-events="visible" data-name="node_0c1f76a8">

<path fill="#cccccc" stroke="black" d="M376.56,-218C376.56,-218 319.15,-218 319.15,-218 313.15,-218 307.15,-212 307.15,-206 307.15,-206 307.15,-194 307.15,-194 307.15,-188 313.15,-182 319.15,-182 319.15,-182 376.56,-182 376.56,-182 382.56,-182 388.56,-188 388.56,-194 388.56,-194 388.56,-206 388.56,-206 388.56,-212 382.56,-218 376.56,-218" style=""/>
<text text-anchor="middle" x="347.85" y="-195.8" font-family="Times,serif" font-size="14.00" style="">329: main()</text>
</g>
<!-- node_d2ce6ce2&#45;&gt;node_0c1f76a8 -->
<g id="edge43" class="edge" data-name="node_d2ce6ce2-&gt;node_0c1f76a8">

<path fill="none" stroke="#56b4e9" stroke-width="2" d="M177.96,-200C177.96,-200 293.88,-200 293.88,-200" style=""/>
<polygon fill="#56b4e9" stroke="#56b4e9" stroke-width="2" points="293.88,-203.5 303.88,-200 293.88,-196.5 293.88,-203.5" style=""/>
</g>
<!-- node_280539fb -->
<g id="node21" class="node" pointer-events="visible" data-name="node_280539fb">

<path fill="#6db33f" stroke="black" d="M798.52,-172C798.52,-172 728.75,-172 728.75,-172 722.75,-172 716.75,-166 716.75,-160 716.75,-160 716.75,-148 716.75,-148 716.75,-142 722.75,-136 728.75,-136 728.75,-136 798.52,-136 798.52,-136 804.52,-136 810.52,-142 810.52,-148 810.52,-148 810.52,-160 810.52,-160 810.52,-166 804.52,-172 798.52,-172" style=""/>
<text text-anchor="middle" x="763.63" y="-149.8" font-family="Times,serif" font-size="14.00" style="">83: __init__()</text>
</g>
<!-- node_0c1f76a8&#45;&gt;node_45bdba84 -->
<g id="edge44" class="edge" data-name="node_0c1f76a8-&gt;node_45bdba84">

<path fill="none" stroke="#000000" stroke-width="2" d="M388.64,-200C393.46,-200 396.71,-200 396.71,-200 396.71,-200 396.71,-602 396.71,-602 396.71,-602 451.09,-602 451.09,-602" style=""/>
<polygon fill="#000000" stroke="#000000" stroke-width="2" points="451.09,-605.5 461.09,-602 451.09,-598.5 451.09,-605.5" style=""/>
</g>
<!-- node_0c1f76a8&#45;&gt;node_06ca261a -->
<g id="edge45" class="edge" data-name="node_0c1f76a8-&gt;node_06ca261a">

<path fill="none" stroke="#000000" stroke-width="2" d="M388.73,-194C400.73,-194 410.71,-194 410.71,-194 410.71,-194 410.71,-548 410.71,-548 410.71,-548 451.04,-548 451.04,-548" style=""/>
<polygon fill="#000000" stroke="#000000" stroke-width="2" points="451.04,-551.5 461.04,-548 451.04,-544.5 451.04,-551.5" style=""/>
</g>
<!-- node_0c1f76a8&#45;&gt;node_806f9800 -->
<g id="edge46" class="edge" data-name="node_0c1f76a8-&gt;node_806f9800">

<path fill="none" stroke="#000000" stroke-width="2" d="M388.72,-212C425.47,-212 473.71,-212 473.71,-212 473.71,-212 473.71,-278.54 473.71,-278.54" style=""/>
<polygon fill="#000000" stroke="#000000" stroke-width="2" points="470.21,-278.54 473.71,-288.54 477.21,-278.54 470.21,-278.54" style=""/>
</g>
<!-- node_0c1f76a8&#45;&gt;node_024cc56b -->
<g id="edge47" class="edge" data-name="node_0c1f76a8-&gt;node_024cc56b">

<path fill="none" stroke="#000000" stroke-width="2" d="M388.89,-188C404.1,-188 417.71,-188 417.71,-188 417.71,-188 417.71,-461.2 417.71,-461.2 417.71,-461.2 444.81,-461.2 444.81,-461.2" style=""/>
<polygon fill="#000000" stroke="#000000" stroke-width="2" points="444.81,-464.7 454.81,-461.2 444.81,-457.7 444.81,-464.7" style=""/>
</g>
<!-- node_853a335b -->
<g id="node23" class="node" pointer-events="visible" data-name="node_853a335b">

<path fill="#cccccc" stroke="black" d="M547.84,-164C547.84,-164 492.1,-164 492.1,-164 486.1,-164 480.1,-158 480.1,-152 480.1,-152 480.1,-140 480.1,-140 480.1,-134 486.1,-128 492.1,-128 492.1,-128 547.84,-128 547.84,-128 553.84,-128 559.84,-134 559.84,-140 559.84,-140 559.84,-152 559.84,-152 559.84,-158 553.84,-164 547.84,-164" style=""/>
<text text-anchor="middle" x="519.97" y="-141.8" font-family="Times,serif" font-size="14.00" style="">233: train()</text>
</g>
<!-- node_0c1f76a8&#45;&gt;node_853a335b -->
<g id="edge48" class="edge" data-name="node_0c1f76a8-&gt;node_853a335b">

<path fill="none" stroke="#000000" stroke-width="2" d="M348.71,-181.72C348.71,-166.05 348.71,-146 348.71,-146 348.71,-146 466.79,-146 466.79,-146" style=""/>
<polygon fill="#000000" stroke="#000000" stroke-width="2" points="466.79,-149.5 476.79,-146 466.79,-142.5 466.79,-149.5" style=""/>
</g>
<!-- node_3f786e64 -->
<g id="node24" class="node" pointer-events="visible" data-name="node_3f786e64">

<path fill="#6db33f" stroke="black" d="M548.68,-218C548.68,-218 491.27,-218 491.27,-218 485.27,-218 479.27,-212 479.27,-206 479.27,-206 479.27,-194 479.27,-194 479.27,-188 485.27,-182 491.27,-182 491.27,-182 548.68,-182 548.68,-182 554.68,-182 560.68,-188 560.68,-194 560.68,-194 560.68,-206 560.68,-206 560.68,-212 554.68,-218 548.68,-218" style=""/>
<text text-anchor="middle" x="519.97" y="-195.8" font-family="Times,serif" font-size="14.00" style="">189: valid()</text>
</g>
<!-- node_0c1f76a8&#45;&gt;node_3f786e64 -->
<g id="edge49" class="edge" data-name="node_0c1f76a8-&gt;node_3f786e64">

<path fill="none" stroke="#000000" stroke-width="2" d="M388.64,-206C388.64,-206 465.85,-206 465.85,-206" style=""/>
<polygon fill="#000000" stroke="#000000" stroke-width="2" points="465.85,-209.5 475.85,-206 465.85,-202.5 465.85,-209.5" style=""/>
</g>
<!-- node_1decca25 -->
<g id="node25" class="node" pointer-events="visible" data-name="node_1decca25">

<path fill="#6db33f" stroke="black" d="M798.52,-419C798.52,-419 728.75,-419 728.75,-419 722.75,-419 716.75,-413 716.75,-407 716.75,-407 716.75,-395 716.75,-395 716.75,-389 722.75,-383 728.75,-383 728.75,-383 798.52,-383 798.52,-383 804.52,-383 810.52,-389 810.52,-395 810.52,-395 810.52,-407 810.52,-407 810.52,-413 804.52,-419 798.52,-419" style=""/>
<text text-anchor="middle" x="763.63" y="-396.8" font-family="Times,serif" font-size="14.00" style="">29: __init__()</text>
</g>
<!-- node_0c1f76a8&#45;&gt;node_1decca25 -->
<g id="edge50" class="edge" data-name="node_0c1f76a8-&gt;node_1decca25">

<path fill="none" stroke="#000000" stroke-width="2" d="M327.71,-218.36C327.71,-266.29 327.71,-391.5 327.71,-391.5 327.71,-391.5 703.54,-391.5 703.54,-391.5" style=""/>
<polygon fill="#000000" stroke="#000000" stroke-width="2" points="703.54,-395 713.54,-391.5 703.54,-388 703.54,-395" style=""/>
</g>
<!-- node_853a335b&#45;&gt;node_280539fb -->
<g id="edge52" class="edge" data-name="node_853a335b-&gt;node_280539fb">

<path fill="none" stroke="#009e73" stroke-width="2" d="M560.21,-143C560.21,-143 703.64,-143 703.64,-143" style=""/>
<polygon fill="#009e73" stroke="#009e73" stroke-width="2" points="703.64,-146.5 713.64,-143 703.64,-139.5 703.64,-146.5" style=""/>
</g>
<!-- node_bf9d8d38 -->
<g id="node26" class="node" pointer-events="visible" data-name="node_bf9d8d38">

<path fill="#6db33f" stroke="black" d="M801.24,-365C801.24,-365 726.03,-365 726.03,-365 720.03,-365 714.03,-359 714.03,-353 714.03,-353 714.03,-341 714.03,-341 714.03,-335 720.03,-329 726.03,-329 726.03,-329 801.24,-329 801.24,-329 807.24,-329 813.24,-335 813.24,-341 813.24,-341 813.24,-353 813.24,-353 813.24,-359 807.24,-365 801.24,-365" style=""/>
<text text-anchor="middle" x="763.63" y="-342.8" font-family="Times,serif" font-size="14.00" style="">67: max_loss()</text>
</g>
<!-- node_853a335b&#45;&gt;node_bf9d8d38 -->
<g id="edge55" class="edge" data-name="node_853a335b-&gt;node_bf9d8d38">

<path fill="none" stroke="#009e73" stroke-width="2" d="M560.34,-150C574.39,-150 586.71,-150 586.71,-150 586.71,-150 586.71,-337.5 586.71,-337.5 586.71,-337.5 700.85,-337.5 700.85,-337.5" style=""/>
<polygon fill="#009e73" stroke="#009e73" stroke-width="2" points="700.85,-341 710.85,-337.5 700.85,-334 700.85,-341" style=""/>
</g>
<!-- node_03d84eff -->
<g id="node27" class="node" pointer-events="visible" data-name="node_03d84eff">

<path fill="#6db33f" stroke="black" d="M793.67,-311C793.67,-311 733.6,-311 733.6,-311 727.6,-311 721.6,-305 721.6,-299 721.6,-299 721.6,-287 721.6,-287 721.6,-281 727.6,-275 733.6,-275 733.6,-275 793.67,-275 793.67,-275 799.67,-275 805.67,-281 805.67,-287 805.67,-287 805.67,-299 805.67,-299 805.67,-305 799.67,-311 793.67,-311" style=""/>
<text text-anchor="middle" x="763.63" y="-288.8" font-family="Times,serif" font-size="14.00" style="">45: update()</text>
</g>
<!-- node_853a335b&#45;&gt;node_03d84eff -->
<g id="edge57" class="edge" data-name="node_853a335b-&gt;node_03d84eff">

<path fill="none" stroke="#009e73" stroke-width="2" d="M560.25,-157C564.73,-157 567.71,-157 567.71,-157 567.71,-157 567.71,-283.5 567.71,-283.5 567.71,-283.5 708.09,-283.5 708.09,-283.5" style=""/>
<polygon fill="#009e73" stroke="#009e73" stroke-width="2" points="708.09,-287 718.09,-283.5 708.09,-280 708.09,-287" style=""/>
</g>
</g>
</svg>