<?xml version="1.0" standalone="no"?>
<svg xmlns="http://www.w3.org/2000/svg" xmlns:xlink="http://www.w3.org/1999/xlink" width="1053pt" height="1059pt" viewBox="0.00 0.00 1052.71 1059.00">
<g id="graph0" class="graph" transform="translate(4,1055) scale(1)" data-name="G">

<polygon fill="white" stroke="none" points="-4,4 -4,-1055 1048.71,-1055 1048.71,4 -4,4"/>
<g id="clust2" class="cluster" data-name="cluster_e9e0ec1d">

<polygon fill="none" stroke="black" stroke-dasharray="1,5" points="456.73,-313 456.73,-624 1036.71,-624 1036.71,-313 456.73,-313"/>
<text text-anchor="middle" x="746.72" y="-607.4" font-family="Times,serif" font-size="14.00">File: data_loader</text>
</g>
<g id="clust3" class="cluster" data-name="cluster_82de68e8">

<polygon fill="none" stroke="black" stroke-dasharray="1,5" points="693.78,-321 693.78,-452 826.48,-452 826.48,-321 693.78,-321"/>
<text text-anchor="middle" x="760.13" y="-435.4" font-family="Times,serif" font-size="14.00">Class: mnli_dataset</text>
</g>
<g id="clust4" class="cluster" data-name="cluster_f3a30bcd">

<polygon fill="none" stroke="black" stroke-dasharray="1,5" points="690.28,-460 690.28,-591 829.98,-591 829.98,-460 690.28,-460"/>
<text text-anchor="middle" x="760.13" y="-574.4" font-family="Times,serif" font-size="14.00">Class: hans_dataset</text>
</g>
<g id="clust5" class="cluster" data-name="cluster_b897c775">

<polygon fill="none" stroke="black" stroke-dasharray="1,5" points="85.48,-879 85.48,-1043 877.03,-1043 877.03,-879 85.48,-879"/>
<text text-anchor="middle" x="481.25" y="-1026.4" font-family="Times,serif" font-size="14.00">File: generate_embeddings</text>
</g>
<g id="clust6" class="cluster" data-name="cluster_fb8db6ge">

<polygon fill="none" stroke="black" stroke-dasharray="1,5" points="701.12,-933 701.12,-1010 820.15,-1010 820.15,-933 701.12,-933"/>
<text text-anchor="middle" x="760.63" y="-993.4" font-family="Times,serif" font-size="14.00">Class: MainModel</text>
</g>
<g id="clust7" class="cluster" data-name="cluster_0e75affb">

<polygon fill="none" stroke="black" stroke-dasharray="1,5" points="85.48,-632 85.48,-871 827.65,-871 827.65,-632 85.48,-632"/>
<text text-anchor="middle" x="456.57" y="-854.4" font-family="Times,serif" font-size="14.00">File: test</text>
</g>
<g id="clust8" class="cluster" data-name="cluster_5b5d544c">

<polygon fill="none" stroke="black" stroke-dasharray="1,5" points="700.62,-740 700.62,-817 819.65,-817 819.65,-740 700.62,-740"/>
<text text-anchor="middle" x="760.13" y="-800.4" font-family="Times,serif" font-size="14.00">Class: MainModel</text>
</g>
<g id="clust9" class="cluster" data-name="cluster_f1a4190e">

<polygon fill="none" stroke="black" stroke-dasharray="1,5" points="85.48,-120 85.48,-305 828.15,-305 828.15,-120 85.48,-120"/>
<text text-anchor="middle" x="456.82" y="-288.4" font-family="Times,serif" font-size="14.00">File: train</text>
</g>
<g id="clust10" class="cluster" data-name="cluster_fb8db6ff">

<polygon fill="none" stroke="black" stroke-dasharray="1,5" points="701.12,-184 701.12,-261 820.15,-261 820.15,-184 701.12,-184"/>
<text text-anchor="middle" x="760.63" y="-244.4" font-family="Times,serif" font-size="14.00">Class: MainModel</text>
</g>
<!-- Legend -->
<g id="node1" class="node" pointer-events="visible" data-name="Legend">

<polygon fill="none" stroke="black" points="1.5,-93 1.5,-111 270.5,-111 270.5,-93 1.5,-93"/>
<text text-anchor="start" x="82.15" y="-97.4" font-family="Times,serif" font-size="14.00">Code2flow Legend</text>
<polygon fill="none" stroke="black" points="1.5,-1 1.5,-93 270.5,-93 270.5,-1 1.5,-1"/>
<polygon fill="none" stroke="black" points="3.5,-69 3.5,-91 218.5,-91 218.5,-69 3.5,-69"/>
<text text-anchor="start" x="63.76" y="-75.4" font-family="Times,serif" font-size="14.00">Regular function</text>
<polygon fill="#cccccc" stroke="none" points="218.5,-69 218.5,-91 268.5,-91 268.5,-69 218.5,-69"/>
<polygon fill="none" stroke="black" points="218.5,-69 218.5,-91 268.5,-91 268.5,-69 218.5,-69"/>
<polygon fill="none" stroke="black" points="3.5,-47 3.5,-69 218.5,-69 218.5,-47 3.5,-47"/>
<text text-anchor="start" x="14.57" y="-53.4" font-family="Times,serif" font-size="14.00">Trunk function (nothing calls this)</text>
<polygon fill="#966f33" stroke="none" points="218.5,-47 218.5,-69 268.5,-69 268.5,-47 218.5,-47"/>
<polygon fill="none" stroke="black" points="218.5,-47 218.5,-69 268.5,-69 268.5,-47 218.5,-47"/>
<polygon fill="none" stroke="black" points="3.5,-25 3.5,-47 218.5,-47 218.5,-25 3.5,-25"/>
<text text-anchor="start" x="6.23" y="-31.4" font-family="Times,serif" font-size="14.00">Leaf function (this calls nothing else)</text>
<polygon fill="#6db33f" stroke="none" points="218.5,-25 218.5,-47 268.5,-47 268.5,-25 218.5,-25"/>
<polygon fill="none" stroke="black" points="218.5,-25 218.5,-47 268.5,-47 268.5,-25 218.5,-25"/>
<polygon fill="none" stroke="black" points="3.5,-3 3.5,-25 218.5,-25 218.5,-3 3.5,-3"/>
<text text-anchor="start" x="74.26" y="-9.4" font-family="Times,serif" font-size="14.00">Function call</text>
<polygon fill="none" stroke="black" points="218.5,-3 218.5,-25 268.5,-25 268.5,-3 218.5,-3"/>
<text text-anchor="start" x="238.25" y="-9.4" font-family="Times,serif" font-size="14.00">→</text>
<polygon fill="none" stroke="black" points="2.5,-2 2.5,-92 269.5,-92 269.5,-2 2.5,-2"/>
<polygon fill="none" stroke="black" points="0,0 0,-112 271,-112 271,0 0,0"/>
</g>
<!-- node_3891eba6 -->
<g id="node2" class="node" pointer-events="visible" data-name="node_3891eba6">

<path fill="rgb(204, 204, 204)" stroke="black" d="M809.83,-558C809.83,-558 710.43,-558 710.43,-558 704.43,-558 698.43,-552 698.43,-546 698.43,-546 698.43,-534 698.43,-534 698.43,-528 704.43,-522 710.43,-522 710.43,-522 809.83,-522 809.83,-522 815.83,-522 821.83,-528 821.83,-534 821.83,-534 821.83,-546 821.83,-546 821.83,-552 815.83,-558 809.83,-558"/>
<text text-anchor="middle" x="760.13" y="-535.8" font-family="Times,serif" font-size="14.00">187: __getitem__()</text>
</g>
<!-- node_04ea1954 -->
<g id="node9" class="node" pointer-events="visible" data-name="node_04ea1954">

<path fill="#6db33f" stroke="black" d="M1016.56,-461C1016.56,-461 917.18,-461 917.18,-461 911.18,-461 905.18,-455 905.18,-449 905.18,-449 905.18,-437 905.18,-437 905.18,-431 911.18,-425 917.18,-425 917.18,-425 1016.56,-425 1016.56,-425 1022.56,-425 1028.56,-431 1028.56,-437 1028.56,-437 1028.56,-449 1028.56,-449 1028.56,-455 1022.56,-461 1016.56,-461"/>
<text text-anchor="middle" x="966.87" y="-438.8" font-family="Times,serif" font-size="14.00">24: tokenize_sent()</text>
</g>
<!-- node_3891eba6&#45;&gt;node_04ea1954 -->
<g id="edge1" class="edge" data-name="node_3891eba6-&gt;node_04ea1954">

<path fill="none" stroke="#d55e00" stroke-width="2" d="M813.71,-521.87C813.71,-496.77 813.71,-454.5 813.71,-454.5 813.71,-454.5 891.99,-454.5 891.99,-454.5"/>
<polygon fill="#d55e00" stroke="#d55e00" stroke-width="2" points="891.99,-458 901.99,-454.5 891.99,-451 891.99,-458"/>
</g>
<!-- node_54114194 -->
<g id="node3" class="node" pointer-events="visible" data-name="node_54114194">

<path fill="#6db33f" stroke="black" d="M798.52,-504C798.52,-504 721.75,-504 721.75,-504 715.75,-504 709.75,-498 709.75,-492 709.75,-492 709.75,-480 709.75,-480 709.75,-474 715.75,-468 721.75,-468 721.75,-468 798.52,-468 798.52,-468 804.52,-468 810.52,-474 810.52,-480 810.52,-480 810.52,-492 810.52,-492 810.52,-498 804.52,-504 798.52,-504"/>
<text text-anchor="middle" x="760.13" y="-481.8" font-family="Times,serif" font-size="14.00">161: __init__()</text>
</g>
<!-- node_c3022f12 -->
<g id="node4" class="node" pointer-events="visible" data-name="node_c3022f12">

<path fill="#cccccc" stroke="black" d="M563.46,-591C563.46,-591 476.49,-591 476.49,-591 470.49,-591 464.49,-585 464.49,-579 464.49,-579 464.49,-567 464.49,-567 464.49,-561 470.49,-555 476.49,-555 476.49,-555 563.46,-555 563.46,-555 569.46,-555 575.46,-561 575.46,-567 575.46,-567 575.46,-579 575.46,-579 575.46,-585 569.46,-591 563.46,-591"/>
<text text-anchor="middle" x="519.97" y="-568.8" font-family="Times,serif" font-size="14.00">230: load_hans()</text>
</g>
<!-- node_c3022f12&#45;&gt;node_54114194 -->
<g id="edge3" class="edge" data-name="node_c3022f12-&gt;node_54114194">

<path fill="none" stroke="#56b4e9" stroke-width="2" d="M520.71,-554.55C520.71,-529.01 520.71,-486 520.71,-486 520.71,-486 696.33,-486 696.33,-486"/>
<polygon fill="#56b4e9" stroke="#56b4e9" stroke-width="2" points="696.33,-489.5 706.33,-486 696.33,-482.5 696.33,-489.5"/>
</g>
<!-- node_0479b8d0 -->
<g id="node5" class="node" pointer-events="visible" data-name="node_0479b8d0">

<path fill="#cccccc" stroke="black" d="M563.46,-390C563.46,-390 476.49,-390 476.49,-390 470.49,-390 464.49,-384 464.49,-378 464.49,-378 464.49,-366 464.49,-366 464.49,-360 470.49,-354 476.49,-354 476.49,-354 563.46,-354 563.46,-354 569.46,-354 575.46,-360 575.46,-366 575.46,-366 575.46,-378 575.46,-378 575.46,-384 569.46,-390 563.46,-390"/>
<text text-anchor="middle" x="519.97" y="-367.8" font-family="Times,serif" font-size="14.00">118: load_mnli()</text>
</g>
<!-- node_ff1f5c13 -->
<g id="node8" class="node" pointer-events="visible" data-name="node_ff1f5c13">

<path fill="#6db33f" stroke="black" d="M795.02,-419C795.02,-419 725.25,-419 725.25,-419 719.25,-419 713.25,-413 713.25,-407 713.25,-407 713.25,-395 713.25,-395 713.25,-389 719.25,-383 725.25,-383 725.25,-383 795.02,-383 795.02,-383 801.02,-383 807.02,-389 807.02,-395 807.02,-395 807.02,-407 807.02,-407 807.02,-413 801.02,-419 795.02,-419"/>
<text text-anchor="middle" x="760.13" y="-396.8" font-family="Times,serif" font-size="14.00">49: __init__()</text>
</g>
<!-- node_0479b8d0&#45;&gt;node_ff1f5c13 -->
<g id="edge4" class="edge" data-name="node_0479b8d0-&gt;node_ff1f5c13">

<path fill="none" stroke="#000000" stroke-width="2" d="M575.68,-386.5C575.68,-386.5 699.8,-386.5 699.8,-386.5"/>
<polygon fill="#000000" stroke="#000000" stroke-width="2" points="699.8,-390 709.8,-386.5 699.8,-383 699.8,-390"/>
</g>
<!-- node_dfa51d1d -->
<g id="node6" class="node" pointer-events="visible" data-name="node_dfa51d1d">

<path fill="#cccccc" stroke="black" d="M560.52,-448C560.52,-448 479.43,-448 479.43,-448 473.43,-448 467.43,-442 467.43,-436 467.43,-436 467.43,-424 467.43,-424 467.43,-418 473.43,-412 479.43,-412 479.43,-412 560.52,-412 560.52,-412 566.52,-412 572.52,-418 572.52,-424 572.52,-424 572.52,-436 572.52,-436 572.52,-442 566.52,-448 560.52,-448"/>
<text text-anchor="middle" x="519.97" y="-425.8" font-family="Times,serif" font-size="14.00">263: load_snli()</text>
</g>
<!-- node_dfa51d1d&#45;&gt;node_ff1f5c13 -->
<g id="edge5" class="edge" data-name="node_dfa51d1d-&gt;node_ff1f5c13">

<path fill="none" stroke="#0072b2" stroke-width="2" d="M572.98,-415.5C572.98,-415.5 699.93,-415.5 699.93,-415.5"/>
<polygon fill="#0072b2" stroke="#0072b2" stroke-width="2" points="699.93,-419 709.93,-415.5 699.93,-412 699.93,-419"/>
</g>
<!-- node_fb95e0a0 -->
<g id="node7" class="node" pointer-events="visible" data-name="node_fb95e0a0">

<path fill="rgb(204, 204, 204)" stroke="black" d="M806.33,-365C806.33,-365 713.93,-365 713.93,-365 707.93,-365 701.93,-359 701.93,-353 701.93,-353 701.93,-341 701.93,-341 701.93,-335 707.93,-329 713.93,-329 713.93,-329 806.33,-329 806.33,-329 812.33,-329 818.33,-335 818.33,-341 818.33,-341 818.33,-353 818.33,-353 818.33,-359 812.33,-365 806.33,-365"/>
<text text-anchor="middle" x="760.13" y="-342.8" font-family="Times,serif" font-size="14.00">75: __getitem__()</text>
</g>
<!-- node_fb95e0a0&#45;&gt;node_04ea1954 -->
<g id="edge6" class="edge" data-name="node_fb95e0a0-&gt;node_04ea1954">

<path fill="none" stroke="#000000" stroke-width="2" d="M816.71,-365.11C816.71,-391.26 816.71,-436.5 816.71,-436.5 816.71,-436.5 891.9,-436.5 891.9,-436.5"/>
<polygon fill="#000000" stroke="#000000" stroke-width="2" points="891.9,-440 901.9,-436.5 891.9,-433 891.9,-440"/>
</g>
<!-- node_50bd616f -->
<g id="node10" class="node" pointer-events="visible" data-name="node_50bd616f">

<path fill="#966f33" stroke="black" d="M165.53,-923C165.53,-923 105.47,-923 105.47,-923 99.47,-923 93.47,-917 93.47,-911 93.47,-911 93.47,-899 93.47,-899 93.47,-893 99.47,-887 105.47,-887 105.47,-887 165.53,-887 165.53,-887 171.53,-887 177.53,-893 177.53,-899 177.53,-899 177.53,-911 177.53,-911 177.53,-917 171.53,-923 165.53,-923"/>
<text text-anchor="middle" x="135.5" y="-900.8" font-family="Times,serif" font-size="14.00">0: (global)()</text>
</g>
<!-- node_7e13140e -->
<g id="node12" class="node" pointer-events="visible" data-name="node_7e13140e">

<path fill="#cccccc" stroke="black" d="M376.56,-923C376.56,-923 319.15,-923 319.15,-923 313.15,-923 307.15,-917 307.15,-911 307.15,-911 307.15,-899 307.15,-899 307.15,-893 313.15,-887 319.15,-887 319.15,-887 376.56,-887 376.56,-887 382.56,-887 388.56,-893 388.56,-899 388.56,-899 388.56,-911 388.56,-911 388.56,-917 382.56,-923 376.56,-923"/>
<text text-anchor="middle" x="347.85" y="-900.8" font-family="Times,serif" font-size="14.00">160: main()</text>
</g>
<!-- node_50bd616f&#45;&gt;node_7e13140e -->
<g id="edge8" class="edge" data-name="node_50bd616f-&gt;node_7e13140e">

<path fill="none" stroke="#cc79a7" stroke-width="2" d="M177.96,-905C177.96,-905 293.88,-905 293.88,-905"/>
<polygon fill="#cc79a7" stroke="#cc79a7" stroke-width="2" points="293.88,-908.5 303.88,-905 293.88,-901.5 293.88,-908.5"/>
</g>
<!-- node_5450295d -->
<g id="node11" class="node" pointer-events="visible" data-name="node_5450295d">

<path fill="#cccccc" stroke="black" d="M595.75,-923C595.75,-923 444.2,-923 444.2,-923 438.2,-923 432.2,-917 432.2,-911 432.2,-911 432.2,-899 432.2,-899 432.2,-893 438.2,-887 444.2,-887 444.2,-887 595.75,-887 595.75,-887 601.75,-887 607.75,-893 607.75,-899 607.75,-899 607.75,-911 607.75,-911 607.75,-917 601.75,-923 595.75,-923"/>
<text text-anchor="middle" x="519.97" y="-900.8" font-family="Times,serif" font-size="14.00">114: generate_embeddings()</text>
</g>
<!-- node_5450295d&#45;&gt;node_3891eba6 -->
<g id="edge15" class="edge" data-name="node_5450295d-&gt;node_3891eba6">

<path fill="none" stroke="#0072b2" stroke-width="2" d="M604.71,-886.73C604.71,-875.21 604.71,-862.5 604.71,-862.5 604.71,-862.5 709.71,-862.5 709.71,-862.5 709.71,-862.5 709.71,-571.29 709.71,-571.29"/>
<polygon fill="#0072b2" stroke="#0072b2" stroke-width="2" points="713.21,-571.29 709.71,-561.29 706.21,-571.29 713.21,-571.29"/>
</g>
<!-- node_5450295d&#45;&gt;node_fb95e0a0 -->
<g id="edge14" class="edge" data-name="node_5450295d-&gt;node_fb95e0a0">

<path fill="none" stroke="#0072b2" stroke-width="2" d="M608.19,-899C623.02,-899 633.71,-899 633.71,-899 633.71,-899 633.71,-359.5 633.71,-359.5 633.71,-359.5 688.71,-359.5 688.71,-359.5"/>
<polygon fill="#0072b2" stroke="#0072b2" stroke-width="2" points="688.71,-363 698.71,-359.5 688.71,-356 688.71,-363"/>
</g>
<!-- node_bdc8d475 -->
<g id="node14" class="node" pointer-events="visible" data-name="node_bdc8d475">

<path fill="#6db33f" stroke="black" d="M856.92,-923C856.92,-923 663.35,-923 663.35,-923 657.35,-923 651.35,-917 651.35,-911 651.35,-911 651.35,-899 651.35,-899 651.35,-893 657.35,-887 663.35,-887 663.35,-887 856.92,-887 856.92,-887 862.92,-887 868.92,-893 868.92,-899 868.92,-899 868.92,-911 868.92,-911 868.92,-917 862.92,-923 856.92,-923"/>
<text text-anchor="middle" x="760.13" y="-900.8" font-family="Times,serif" font-size="14.00">96: save_embeddings_to_text_file()</text>
</g>
<!-- node_5450295d&#45;&gt;node_bdc8d475 -->
<g id="edge9" class="edge" data-name="node_5450295d-&gt;node_bdc8d475">

<path fill="none" stroke="#0072b2" stroke-width="2" d="M608.04,-911C608.04,-911 638.22,-911 638.22,-911"/>
<polygon fill="#0072b2" stroke="#0072b2" stroke-width="2" points="638.22,-914.5 648.22,-911 638.22,-907.5 638.22,-914.5"/>
</g>
<!-- node_d12207ge -->
<g id="node28" class="node" pointer-events="visible" data-name="node_d12207ge">

<path fill="#6db33f" stroke="black" d="M797.16,-977C797.16,-977 723.11,-977 723.11,-977 717.11,-977 711.11,-971 711.11,-965 711.11,-965 711.11,-953 711.11,-953 711.11,-947 717.11,-941 723.11,-941 723.11,-941 797.16,-941 797.16,-941 803.16,-941 809.16,-947 809.16,-953 809.16,-953 809.16,-965 809.16,-965 809.16,-971 803.16,-977 797.16,-977"/>
<text text-anchor="middle" x="760.13" y="-954.8" font-family="Times,serif" font-size="14.00">100: forward()</text>
</g>
<!-- node_5450295d&#45;&gt;node_d12207ge -->
<g id="edge13" class="edge" data-name="node_5450295d-&gt;node_d12207ge">

<path fill="none" stroke="#0072b2" stroke-width="2" d="M595.71,-923.28C595.71,-938.95 595.71,-959 595.71,-959 595.71,-959 697.77,-959 697.77,-959"/>
<polygon fill="#0072b2" stroke="#0072b2" stroke-width="2" points="697.77,-962.5 707.77,-959 697.77,-955.5 697.77,-962.5"/>
</g>
<!-- node_7e13140e&#45;&gt;node_c3022f12 -->
<g id="edge16" class="edge" data-name="node_7e13140e-&gt;node_c3022f12">

<path fill="none" stroke="#d55e00" stroke-width="2" d="M388.93,-905C401.8,-905 412.71,-905 412.71,-905 412.71,-905 412.71,-579 412.71,-579 412.71,-579 451.12,-579 451.12,-579"/>
<polygon fill="#d55e00" stroke="#d55e00" stroke-width="2" points="451.12,-582.5 461.12,-579 451.12,-575.5 451.12,-582.5"/>
</g>
<!-- node_7e13140e&#45;&gt;node_0479b8d0 -->
<g id="edge17" class="edge" data-name="node_7e13140e-&gt;node_0479b8d0">

<path fill="none" stroke="#d55e00" stroke-width="2" d="M388.98,-896C395.8,-896 400.71,-896 400.71,-896 400.71,-896 400.71,-378 400.71,-378 400.71,-378 451.16,-378 451.16,-378"/>
<polygon fill="#d55e00" stroke="#d55e00" stroke-width="2" points="451.16,-381.5 461.16,-378 451.16,-374.5 451.16,-381.5"/>
</g>
<!-- node_7e13140e&#45;&gt;node_5450295d -->
<g id="edge18" class="edge" data-name="node_7e13140e-&gt;node_5450295d">

<path fill="none" stroke="#d55e00" stroke-width="2" d="M388.64,-914C388.64,-914 418.99,-914 418.99,-914"/>
<polygon fill="#d55e00" stroke="#d55e00" stroke-width="2" points="418.99,-917.5 428.99,-914 418.99,-910.5 418.99,-917.5"/>
</g>
<!-- node_111e25cc -->
<g id="node13" class="node" pointer-events="visible" data-name="node_111e25cc">

<path fill="#6db33f" stroke="black" d="M569.65,-977C569.65,-977 470.3,-977 470.3,-977 464.3,-977 458.3,-971 458.3,-965 458.3,-965 458.3,-953 458.3,-953 458.3,-947 464.3,-941 470.3,-941 470.3,-941 569.65,-941 569.65,-941 575.65,-941 581.65,-947 581.65,-953 581.65,-953 581.65,-965 581.65,-965 581.65,-971 575.65,-977 569.65,-977"/>
<text text-anchor="middle" x="519.97" y="-954.8" font-family="Times,serif" font-size="14.00">145: read_dataset()</text>
</g>
<!-- node_7e13140e&#45;&gt;node_111e25cc -->
<g id="edge22" class="edge" data-name="node_7e13140e-&gt;node_111e25cc">

<path fill="none" stroke="#d55e00" stroke-width="2" d="M348.71,-923.28C348.71,-938.95 348.71,-959 348.71,-959 348.71,-959 445.12,-959 445.12,-959"/>
<polygon fill="#d55e00" stroke="#d55e00" stroke-width="2" points="445.12,-962.5 455.12,-959 445.12,-955.5 445.12,-962.5"/>
</g>
<!-- node_33e99e86 -->
<g id="node15" class="node" pointer-events="visible" data-name="node_33e99e86">

<path fill="#966f33" stroke="black" d="M165.53,-676C165.53,-676 105.47,-676 105.47,-676 99.47,-676 93.47,-670 93.47,-664 93.47,-664 93.47,-652 93.47,-652 93.47,-646 99.47,-640 105.47,-640 105.47,-640 165.53,-640 165.53,-640 171.53,-640 177.53,-646 177.53,-652 177.53,-652 177.53,-664 177.53,-664 177.53,-670 171.53,-676 165.53,-676"/>
<text text-anchor="middle" x="135.5" y="-653.8" font-family="Times,serif" font-size="14.00">0: (global)()</text>
</g>
<!-- node_3833c3d3 -->
<g id="node20" class="node" pointer-events="visible" data-name="node_3833c3d3">

<path fill="#cccccc" stroke="black" d="M376.56,-676C376.56,-676 319.15,-676 319.15,-676 313.15,-676 307.15,-670 307.15,-664 307.15,-664 307.15,-652 307.15,-652 307.15,-646 313.15,-640 319.15,-640 319.15,-640 376.56,-640 376.56,-640 382.56,-640 388.56,-646 388.56,-652 388.56,-652 388.56,-664 388.56,-664 388.56,-670 382.56,-676 376.56,-676"/>
<text text-anchor="middle" x="347.85" y="-653.8" font-family="Times,serif" font-size="14.00">208: main()</text>
</g>
<!-- node_33e99e86&#45;&gt;node_3833c3d3 -->
<g id="edge24" class="edge" data-name="node_33e99e86-&gt;node_3833c3d3">

<path fill="none" stroke="#d55e00" stroke-width="2" d="M177.96,-658C177.96,-658 293.88,-658 293.88,-658"/>
<polygon fill="#d55e00" stroke="#d55e00" stroke-width="2" points="293.88,-661.5 303.88,-658 293.88,-654.5 293.88,-661.5"/>
</g>
<!-- node_d119ac65 -->
<g id="node16" class="node" pointer-events="visible" data-name="node_d119ac65">

<path fill="#6db33f" stroke="black" d="M793.66,-784C793.66,-784 726.61,-784 726.61,-784 720.61,-784 714.61,-778 714.61,-772 714.61,-772 714.61,-760 714.61,-760 714.61,-754 720.61,-748 726.61,-748 726.61,-748 793.66,-748 793.66,-748 799.66,-748 805.66,-754 805.66,-760 805.66,-760 805.66,-772 805.66,-772 805.66,-778 799.66,-784 793.66,-784"/>
<text text-anchor="middle" x="760.13" y="-761.8" font-family="Times,serif" font-size="14.00">84: forward()</text>
</g>
<!-- node_53c870e0 -->
<g id="node17" class="node" pointer-events="visible" data-name="node_53c870e0">

<path fill="#6db33f" stroke="black" d="M603.01,-676C603.01,-676 436.94,-676 436.94,-676 430.94,-676 424.94,-670 424.94,-664 424.94,-664 424.94,-652 424.94,-652 424.94,-646 430.94,-640 436.94,-640 436.94,-640 603.01,-640 603.01,-640 609.01,-640 615.01,-646 615.01,-652 615.01,-652 615.01,-664 615.01,-664 615.01,-670 609.01,-676 603.01,-676"/>
<text text-anchor="middle" x="519.97" y="-653.8" font-family="Times,serif" font-size="14.00">159: generate_prediction_file()</text>
</g>
<!-- node_57e3217d -->
<g id="node18" class="node" pointer-events="visible" data-name="node_57e3217d">

<path fill="#6db33f" stroke="black" d="M587.91,-730C587.91,-730 452.04,-730 452.04,-730 446.04,-730 440.04,-724 440.04,-718 440.04,-718 440.04,-706 440.04,-706 440.04,-700 446.04,-694 452.04,-694 452.04,-694 587.91,-694 587.91,-694 593.91,-694 599.91,-700 599.91,-706 599.91,-706 599.91,-718 599.91,-718 599.91,-724 593.91,-730 587.91,-730"/>
<text text-anchor="middle" x="519.97" y="-707.8" font-family="Times,serif" font-size="14.00">174: generate_prob_file()</text>
</g>
<!-- node_a196b5d0 -->
<g id="node19" class="node" pointer-events="visible" data-name="node_a196b5d0">

<path fill="#cccccc" stroke="black" d="M560.76,-784C560.76,-784 479.19,-784 479.19,-784 473.19,-784 467.19,-778 467.19,-772 467.19,-772 467.19,-760 467.19,-760 467.19,-754 473.19,-748 479.19,-748 479.19,-748 560.76,-748 560.76,-748 566.76,-748 572.76,-754 572.76,-760 572.76,-760 572.76,-772 572.76,-772 572.76,-778 566.76,-784 560.76,-784"/>
<text text-anchor="middle" x="519.97" y="-761.8" font-family="Times,serif" font-size="14.00">109: inference()</text>
</g>
<!-- node_a196b5d0&#45;&gt;node_3891eba6 -->
<g id="edge42" class="edge" data-name="node_a196b5d0-&gt;node_3891eba6">

<path fill="none" stroke="#000000" stroke-width="2" d="M572.91,-760C627.5,-760 704.71,-760 704.71,-760 704.71,-760 704.71,-571.41 704.71,-571.41"/>
<polygon fill="#000000" stroke="#000000" stroke-width="2" points="708.21,-571.41 704.71,-561.41 701.21,-571.41 708.21,-571.41"/>
</g>
<!-- node_a196b5d0&#45;&gt;node_d119ac65 -->
<g id="edge25" class="edge" data-name="node_a196b5d0-&gt;node_d119ac65">

<path fill="none" stroke="#0072b2" stroke-width="2" d="M572.98,-772C572.98,-772 701.12,-772 701.12,-772"/>
<polygon fill="#0072b2" stroke="#0072b2" stroke-width="2" points="701.12,-775.5 711.12,-772 701.12,-768.5 701.12,-775.5"/>
</g>
<!-- node_3833c3d3&#45;&gt;node_c3022f12 -->
<g id="edge26" class="edge" data-name="node_3833c3d3-&gt;node_c3022f12">

<path fill="none" stroke="#009e73" stroke-width="2" d="M368.71,-639.58C368.71,-612.99 368.71,-567 368.71,-567 368.71,-567 451.05,-567 451.05,-567"/>
<polygon fill="#009e73" stroke="#009e73" stroke-width="2" points="451.05,-570.5 461.05,-567 451.05,-563.5 451.05,-570.5"/>
</g>
<!-- node_3833c3d3&#45;&gt;node_0479b8d0 -->
<g id="edge27" class="edge" data-name="node_3833c3d3-&gt;node_0479b8d0">

<path fill="none" stroke="#009e73" stroke-width="2" d="M327.71,-639.73C327.71,-575.81 327.71,-366 327.71,-366 327.71,-366 451.08,-366 451.08,-366"/>
<polygon fill="#009e73" stroke="#009e73" stroke-width="2" points="451.08,-369.5 461.08,-366 451.08,-362.5 451.08,-369.5"/>
</g>
<!-- node_3833c3d3&#45;&gt;node_dfa51d1d -->
<g id="edge28" class="edge" data-name="node_3833c3d3-&gt;node_dfa51d1d">

<path fill="none" stroke="#009e73" stroke-width="2" d="M348.71,-639.73C348.71,-585.62 348.71,-430 348.71,-430 348.71,-430 454.17,-430 454.17,-430"/>
<polygon fill="#009e73" stroke="#009e73" stroke-width="2" points="454.17,-433.5 464.17,-430 454.17,-426.5 454.17,-433.5"/>
</g>
<!-- node_3833c3d3&#45;&gt;node_53c870e0 -->
<g id="edge29" class="edge" data-name="node_3833c3d3-&gt;node_53c870e0">

<path fill="none" stroke="#009e73" stroke-width="2" d="M388.64,-658C388.64,-658 411.42,-658 411.42,-658"/>
<polygon fill="#009e73" stroke="#009e73" stroke-width="2" points="411.42,-661.5 421.42,-658 411.42,-654.5 411.42,-661.5"/>
</g>
<!-- node_3833c3d3&#45;&gt;node_57e3217d -->
<g id="edge34" class="edge" data-name="node_3833c3d3-&gt;node_57e3217d">

<path fill="none" stroke="#009e73" stroke-width="2" d="M368.71,-676.28C368.71,-691.95 368.71,-712 368.71,-712 368.71,-712 426.89,-712 426.89,-712"/>
<polygon fill="#009e73" stroke="#009e73" stroke-width="2" points="426.89,-715.5 436.89,-712 426.89,-708.5 426.89,-715.5"/>
</g>
<!-- node_3833c3d3&#45;&gt;node_a196b5d0 -->
<g id="edge39" class="edge" data-name="node_3833c3d3-&gt;node_a196b5d0">

<path fill="none" stroke="#009e73" stroke-width="2" d="M348.71,-676.32C348.71,-707.13 348.71,-766 348.71,-766 348.71,-766 453.7,-766 453.7,-766"/>
<polygon fill="#009e73" stroke="#009e73" stroke-width="2" points="453.7,-769.5 463.7,-766 453.7,-762.5 453.7,-769.5"/>
</g>
<!-- node_b3f347fb -->
<g id="node21" class="node" pointer-events="visible" data-name="node_b3f347fb">

<path fill="#6db33f" stroke="black" d="M569.65,-838C569.65,-838 470.3,-838 470.3,-838 464.3,-838 458.3,-832 458.3,-826 458.3,-826 458.3,-814 458.3,-814 458.3,-808 464.3,-802 470.3,-802 470.3,-802 569.65,-802 569.65,-802 575.65,-802 581.65,-808 581.65,-814 581.65,-814 581.65,-826 581.65,-826 581.65,-832 575.65,-838 569.65,-838"/>
<text text-anchor="middle" x="519.97" y="-815.8" font-family="Times,serif" font-size="14.00">192: read_dataset()</text>
</g>
<!-- node_3833c3d3&#45;&gt;node_b3f347fb -->
<g id="edge46" class="edge" data-name="node_3833c3d3-&gt;node_b3f347fb">

<path fill="none" stroke="#009e73" stroke-width="2" d="M327.71,-676.27C327.71,-718.64 327.71,-820 327.71,-820 327.71,-820 444.79,-820 444.79,-820"/>
<polygon fill="#009e73" stroke="#009e73" stroke-width="2" points="444.79,-823.5 454.79,-820 444.79,-816.5 444.79,-823.5"/>
</g>
<!-- node_a0f5c087 -->
<g id="node22" class="node" pointer-events="visible" data-name="node_a0f5c087">

<path fill="#966f33" stroke="black" d="M165.53,-272C165.53,-272 105.47,-272 105.47,-272 99.47,-272 93.47,-266 93.47,-260 93.47,-260 93.47,-248 93.47,-248 93.47,-242 99.47,-236 105.47,-236 105.47,-236 165.53,-236 165.53,-236 171.53,-236 177.53,-242 177.53,-248 177.53,-248 177.53,-260 177.53,-260 177.53,-266 171.53,-272 165.53,-272"/>
<text text-anchor="middle" x="135.5" y="-249.8" font-family="Times,serif" font-size="14.00">0: (global)()</text>
</g>
<!-- node_10ce1ff8 -->
<g id="node24" class="node" pointer-events="visible" data-name="node_10ce1ff8">

<path fill="#cccccc" stroke="black" d="M376.56,-272C376.56,-272 319.15,-272 319.15,-272 313.15,-272 307.15,-266 307.15,-260 307.15,-260 307.15,-248 307.15,-248 307.15,-242 313.15,-236 319.15,-236 319.15,-236 376.56,-236 376.56,-236 382.56,-236 388.56,-242 388.56,-248 388.56,-248 388.56,-260 388.56,-260 388.56,-266 382.56,-272 376.56,-272"/>
<text text-anchor="middle" x="347.85" y="-249.8" font-family="Times,serif" font-size="14.00">231: main()</text>
</g>
<!-- node_a0f5c087&#45;&gt;node_10ce1ff8 -->
<g id="edge48" class="edge" data-name="node_a0f5c087-&gt;node_10ce1ff8">

<path fill="none" stroke="#cc79a7" stroke-width="2" d="M177.96,-254C177.96,-254 293.88,-254 293.88,-254"/>
<polygon fill="#cc79a7" stroke="#cc79a7" stroke-width="2" points="293.88,-257.5 303.88,-254 293.88,-250.5 293.88,-257.5"/>
</g>
<!-- node_d122075e -->
<g id="node23" class="node" pointer-events="visible" data-name="node_d122075e">

<path fill="#6db33f" stroke="black" d="M797.16,-228C797.16,-228 723.11,-228 723.11,-228 717.11,-228 711.11,-222 711.11,-216 711.11,-216 711.11,-204 711.11,-204 711.11,-198 717.11,-192 723.11,-192 723.11,-192 797.16,-192 797.16,-192 803.16,-192 809.16,-198 809.16,-204 809.16,-204 809.16,-216 809.16,-216 809.16,-222 803.16,-228 797.16,-228"/>
<text text-anchor="middle" x="760.13" y="-205.8" font-family="Times,serif" font-size="14.00">100: forward()</text>
</g>
<!-- node_10ce1ff8&#45;&gt;node_0479b8d0 -->
<g id="edge50" class="edge" data-name="node_10ce1ff8-&gt;node_0479b8d0">

<path fill="none" stroke="#000000" stroke-width="2" d="M388.77,-263C424.17,-263 469.71,-263 469.71,-263 469.71,-263 469.71,-340.48 469.71,-340.48"/>
<polygon fill="#000000" stroke="#000000" stroke-width="2" points="466.21,-340.48 469.71,-350.48 473.21,-340.48 466.21,-340.48"/>
</g>
<!-- node_3978d842 -->
<g id="node25" class="node" pointer-events="visible" data-name="node_3978d842">

<path fill="#6db33f" stroke="black" d="M570.43,-164C570.43,-164 469.51,-164 469.51,-164 463.51,-164 457.51,-158 457.51,-152 457.51,-152 457.51,-140 457.51,-140 457.51,-134 463.51,-128 469.51,-128 469.51,-128 570.43,-128 570.43,-128 576.43,-128 582.43,-134 582.43,-140 582.43,-140 582.43,-152 582.43,-152 582.43,-158 576.43,-164 570.43,-164"/>
<text text-anchor="middle" x="519.97" y="-141.8" font-family="Times,serif" font-size="14.00">216: save_dataset()</text>
</g>
<!-- node_10ce1ff8&#45;&gt;node_3978d842 -->
<g id="edge53" class="edge" data-name="node_10ce1ff8-&gt;node_3978d842">

<path fill="none" stroke="#000000" stroke-width="2" d="M389.04,-245C426.08,-245 474.71,-245 474.71,-245 474.71,-245 474.71,-177.19 474.71,-177.19"/>
<polygon fill="#000000" stroke="#000000" stroke-width="2" points="478.21,-177.19 474.71,-167.19 471.21,-177.19 478.21,-177.19"/>
</g>
<!-- node_a60cd033 -->
<g id="node26" class="node" pointer-events="visible" data-name="node_a60cd033">

<path fill="#cccccc" stroke="black" d="M547.84,-218C547.84,-218 492.1,-218 492.1,-218 486.1,-218 480.1,-212 480.1,-206 480.1,-206 480.1,-194 480.1,-194 480.1,-188 486.1,-182 492.1,-182 492.1,-182 547.84,-182 547.84,-182 553.84,-182 559.84,-188 559.84,-194 559.84,-194 559.84,-206 559.84,-206 559.84,-212 553.84,-218 547.84,-218"/>
<text text-anchor="middle" x="519.97" y="-195.8" font-family="Times,serif" font-size="14.00">124: train()</text>
</g>
<!-- node_10ce1ff8&#45;&gt;node_a60cd033 -->
<g id="edge55" class="edge" data-name="node_10ce1ff8-&gt;node_a60cd033">

<path fill="none" stroke="#000000" stroke-width="2" d="M348.71,-235.72C348.71,-220.05 348.71,-200 348.71,-200 348.71,-200 466.79,-200 466.79,-200"/>
<polygon fill="#000000" stroke="#000000" stroke-width="2" points="466.79,-203.5 476.79,-200 466.79,-196.5 466.79,-203.5"/>
</g>
<!-- node_59d9be44 -->
<g id="node27" class="node" pointer-events="visible" data-name="node_59d9be44">

<path fill="#cccccc" stroke="black" d="M548.68,-272C548.68,-272 491.27,-272 491.27,-272 485.27,-272 479.27,-266 479.27,-260 479.27,-260 479.27,-248 479.27,-248 479.27,-242 485.27,-236 491.27,-236 491.27,-236 548.68,-236 548.68,-236 554.68,-236 560.68,-242 560.68,-248 560.68,-248 560.68,-260 560.68,-260 560.68,-266 554.68,-272 548.68,-272"/>
<text text-anchor="middle" x="519.97" y="-249.8" font-family="Times,serif" font-size="14.00">178: valid()</text>
</g>
<!-- node_10ce1ff8&#45;&gt;node_59d9be44 -->
<g id="edge56" class="edge" data-name="node_10ce1ff8-&gt;node_59d9be44">

<path fill="none" stroke="#000000" stroke-width="2" d="M388.64,-254C388.64,-254 465.85,-254 465.85,-254"/>
<polygon fill="#000000" stroke="#000000" stroke-width="2" points="465.85,-257.5 475.85,-254 465.85,-250.5 465.85,-257.5"/>
</g>
<!-- node_a60cd033&#45;&gt;node_fb95e0a0 -->
<g id="edge10" class="edge" data-name="node_a60cd033-&gt;node_fb95e0a0">

<path fill="none" stroke="#d55e00" stroke-width="2" d="M560,-209.33C615.4,-209.33 708.71,-209.33 708.71,-209.33 708.71,-209.33 708.71,-315.69 708.71,-315.69"/>
<polygon fill="#d55e00" stroke="#d55e00" stroke-width="2" points="705.21,-315.69 708.71,-325.69 712.21,-315.69 705.21,-315.69"/>
</g>
<!-- node_a60cd033&#45;&gt;node_d122075e -->
<g id="edge49" class="edge" data-name="node_a60cd033-&gt;node_d122075e">

<path fill="none" stroke="#d55e00" stroke-width="2" d="M560.17,-200.67C560.17,-200.67 697.62,-200.67 697.62,-200.67"/>
<polygon fill="#d55e00" stroke="#d55e00" stroke-width="2" points="697.62,-204.17 707.62,-200.67 697.62,-197.17 697.62,-204.17"/>
</g>
<!-- node_59d9be44&#45;&gt;node_fb95e0a0 -->
<g id="edge11" class="edge" data-name="node_59d9be44-&gt;node_fb95e0a0">

<path fill="none" stroke="#0072b2" stroke-width="2" d="M560.74,-254C615.41,-254 705.71,-254 705.71,-254 705.71,-254 705.71,-315.6 705.71,-315.6"/>
<polygon fill="#0072b2" stroke="#0072b2" stroke-width="2" points="702.21,-315.6 705.71,-325.6 709.21,-315.6 702.21,-315.6"/>
</g>
<!-- node_59d9be44&#45;&gt;node_d122075e -->
<g id="edge12" class="edge" data-name="node_59d9be44-&gt;node_d122075e">

<path fill="none" stroke="#0072b2" stroke-width="2" d="M520.71,-235.61C520.71,-228.93 520.71,-223 520.71,-223 520.71,-223 697.79,-223 697.79,-223"/>
<polygon fill="#0072b2" stroke="#0072b2" stroke-width="2" points="697.79,-226.5 707.79,-223 697.79,-219.5 697.79,-226.5"/>
</g>
</g>
</svg>