<?xml version="1.0" standalone="no"?>
<svg xmlns="http://www.w3.org/2000/svg" xmlns:xlink="http://www.w3.org/1999/xlink" width="919pt" height="2296pt" viewBox="0.00 0.00 918.94 2296.00">
<g id="graph0" class="graph" transform="translate(40.0287579586319,2150.4859028922338) scale(0.7494263332257985)" data-name="G">

<polygon fill="white" stroke="none" points="-4,4 -4,-2292 914.94,-2292 914.94,4 -4,4" style=""/>
<g id="clust2" class="cluster" data-name="cluster_3829adtr">

<polygon fill="none" stroke="black" points="77.48,-655 77.48,-1074 651.48,-1074 651.48,-655 77.48,-655" style=""/>
<text text-anchor="middle" x="364.48" y="-1057.4" font-family="Times,serif" font-size="14.00" style="">Method: Decision Tree</text>
</g>
<g id="clust3" class="cluster" data-name="cluster_45012961">

<polygon fill="none" stroke="black" stroke-dasharray="1,5" points="85.48,-856 85.48,-1041 643.48,-1041 643.48,-856 85.48,-856" style=""/>
<text text-anchor="middle" x="364.48" y="-1024.4" font-family="Times,serif" font-size="14.00" style="">File: create_dtree</text>
</g>
<g id="clust4" class="cluster" data-name="cluster_cb29285b">

<polygon fill="none" stroke="black" stroke-dasharray="1,5" points="85.48,-663 85.48,-848 643.48,-848 643.48,-663 85.48,-663" style=""/>
<text text-anchor="middle" x="364.48" y="-831.4" font-family="Times,serif" font-size="14.00" style="">File: ood</text>
</g>
<g id="clust5" class="cluster" data-name="cluster_3u38tr">

<polygon fill="none" stroke="black" points="77.48,-1082 77.48,-1200 401.21,-1200 401.21,-1082 77.48,-1082" style=""/>
<text text-anchor="middle" x="239.35" y="-1183.4" font-family="Times,serif" font-size="14.00" style="">Method: DNN + our method</text>
</g>
<g id="clust6" class="cluster" data-name="cluster_ca7456f6">

<polygon fill="none" stroke="black" stroke-dasharray="1,5" points="85.48,-1090 85.48,-1167 393.21,-1167 393.21,-1090 85.48,-1090" style=""/>
<text text-anchor="middle" x="239.35" y="-1150.4" font-family="Times,serif" font-size="14.00" style="">File: dnn_w_gt</text>
</g>
<g id="clust7" class="cluster" data-name="cluster_3820opr">

<polygon fill="none" stroke="black" points="77.48,-1208 77.48,-1326 634.38,-1326 634.38,-1208 77.48,-1208" style=""/>
<text text-anchor="middle" x="355.93" y="-1309.4" font-family="Times,serif" font-size="14.00" style="">Method: MSP</text>
</g>
<g id="clust8" class="cluster" data-name="cluster_9dcd2714">

<polygon fill="none" stroke="black" stroke-dasharray="1,5" points="85.48,-1216 85.48,-1293 626.38,-1293 626.38,-1216 85.48,-1216" style=""/>
<text text-anchor="middle" x="355.93" y="-1276.4" font-family="Times,serif" font-size="14.00" style="">File: generate_ood</text>
</g>
<g id="clust9" class="cluster" data-name="cluster_13dacshe">

<polygon fill="none" stroke="black" points="77.48,-120 77.48,-647 902.94,-647 902.94,-120 77.48,-120" style=""/>
<text text-anchor="middle" x="490.21" y="-630.4" font-family="Times,serif" font-size="14.00" style="">Method: SHE</text>
</g>
<g id="clust10" class="cluster" data-name="cluster_2260f859">

<polygon fill="none" stroke="black" stroke-dasharray="1,5" points="85.48,-429 85.48,-614 650.49,-614 650.49,-429 85.48,-429" style=""/>
<text text-anchor="middle" x="367.99" y="-597.4" font-family="Times,serif" font-size="14.00" style="">File: generate_stored_pattern</text>
</g>
<g id="clust11" class="cluster" data-name="cluster_ca704424">

<polygon fill="none" stroke="black" stroke-dasharray="1,5" points="85.48,-128 85.48,-421 894.94,-421 894.94,-128 85.48,-128" style=""/>
<text text-anchor="middle" x="490.21" y="-404.4" font-family="Times,serif" font-size="14.00" style="">File: SHE</text>
</g>
<g id="clust12" class="cluster" data-name="cluster_129ah3pd">

<polygon fill="none" stroke="black" points="77.48,-1334 77.48,-1560 651.48,-1560 651.48,-1334 77.48,-1334" style=""/>
<text text-anchor="middle" x="364.48" y="-1543.4" font-family="Times,serif" font-size="14.00" style="">Method: Our method using fraction of train data</text>
</g>
<g id="clust13" class="cluster" data-name="cluster_11775823">

<polygon fill="none" stroke="black" stroke-dasharray="1,5" points="85.48,-1342 85.48,-1527 643.48,-1527 643.48,-1342 85.48,-1342" style=""/>
<text text-anchor="middle" x="364.48" y="-1510.4" font-family="Times,serif" font-size="14.00" style="">File: knn_ood_on_partial_data</text>
</g>
<g id="clust14" class="cluster" data-name="cluster_aef23ka">

<polygon fill="none" stroke="black" points="77.48,-1568 77.48,-1794 651.48,-1794 651.48,-1568 77.48,-1568" style=""/>
<text text-anchor="middle" x="364.48" y="-1777.4" font-family="Times,serif" font-size="14.00" style="">Method: DNN</text>
</g>
<g id="clust15" class="cluster" data-name="cluster_aef574f0">

<polygon fill="none" stroke="black" stroke-dasharray="1,5" points="85.48,-1576 85.48,-1761 643.48,-1761 643.48,-1576 85.48,-1576" style=""/>
<text text-anchor="middle" x="364.48" y="-1744.4" font-family="Times,serif" font-size="14.00" style="">File: knn_ood_v4</text>
</g>
<g id="clust16" class="cluster" data-name="cluster_a1cf34dh">

<polygon fill="none" stroke="black" points="77.48,-1802 77.48,-2028 651.48,-2028 651.48,-1802 77.48,-1802" style=""/>
<text text-anchor="middle" x="364.48" y="-2011.4" font-family="Times,serif" font-size="14.00" style="">Method: Our method</text>
</g>
<g id="clust17" class="cluster" data-name="cluster_a1cf39f3">

<polygon fill="none" stroke="black" stroke-dasharray="1,5" points="85.48,-1810 85.48,-1995 643.48,-1995 643.48,-1810 85.48,-1810" style=""/>
<text text-anchor="middle" x="364.48" y="-1978.4" font-family="Times,serif" font-size="14.00" style="">File: knn_ood_v6</text>
</g>
<g id="clust18" class="cluster" data-name="cluster_a1cf3msom">

<polygon fill="none" stroke="black" points="77.48,-2036 77.48,-2154 401.21,-2154 401.21,-2036 77.48,-2036" style=""/>
<text text-anchor="middle" x="239.35" y="-2137.4" font-family="Times,serif" font-size="14.00" style="">Method: MSP + our method</text>
</g>
<g id="clust19" class="cluster" data-name="cluster_c807dc87">

<polygon fill="none" stroke="black" stroke-dasharray="1,5" points="85.48,-2044 85.48,-2121 393.21,-2121 393.21,-2044 85.48,-2044" style=""/>
<text text-anchor="middle" x="239.35" y="-2104.4" font-family="Times,serif" font-size="14.00" style="">File: msp_w_gt</text>
</g>
<g id="clust20" class="cluster" data-name="cluster_a1cfk91h">

<polygon fill="none" stroke="black" points="77.48,-2162 77.48,-2280 401.21,-2280 401.21,-2162 77.48,-2162" style=""/>
<text text-anchor="middle" x="239.35" y="-2263.4" font-family="Times,serif" font-size="14.00" style="">Method: SHE + our method</text>
</g>
<g id="clust21" class="cluster" data-name="cluster_f4b1a345">

<polygon fill="none" stroke="black" stroke-dasharray="1,5" points="85.48,-2170 85.48,-2247 393.21,-2247 393.21,-2170 85.48,-2170" style=""/>
<text text-anchor="middle" x="239.35" y="-2230.4" font-family="Times,serif" font-size="14.00" style="">File: she_w_gt</text>
</g>
<!-- Legend -->
<g id="node1" class="node" pointer-events="visible" data-name="Legend">

<polygon fill="none" stroke="black" points="1.5,-93 1.5,-111 270.5,-111 270.5,-93 1.5,-93" style=""/>
<text text-anchor="start" x="82.15" y="-97.4" font-family="Times,serif" font-size="14.00" style="">Code2flow Legend</text>
<polygon fill="none" stroke="black" points="1.5,-1 1.5,-93 270.5,-93 270.5,-1 1.5,-1" style=""/>
<polygon fill="none" stroke="black" points="3.5,-69 3.5,-91 218.5,-91 218.5,-69 3.5,-69" style=""/>
<text text-anchor="start" x="63.76" y="-75.4" font-family="Times,serif" font-size="14.00" style="">Regular function</text>
<polygon fill="#cccccc" stroke="none" points="218.5,-69 218.5,-91 268.5,-91 268.5,-69 218.5,-69" style=""/>
<polygon fill="none" stroke="black" points="218.5,-69 218.5,-91 268.5,-91 268.5,-69 218.5,-69" style=""/>
<polygon fill="none" stroke="black" points="3.5,-47 3.5,-69 218.5,-69 218.5,-47 3.5,-47" style=""/>
<text text-anchor="start" x="14.57" y="-53.4" font-family="Times,serif" font-size="14.00" style="">Trunk function (nothing calls this)</text>
<polygon fill="#966f33" stroke="none" points="218.5,-47 218.5,-69 268.5,-69 268.5,-47 218.5,-47" style=""/>
<polygon fill="none" stroke="black" points="218.5,-47 218.5,-69 268.5,-69 268.5,-47 218.5,-47" style=""/>
<polygon fill="none" stroke="black" points="3.5,-25 3.5,-47 218.5,-47 218.5,-25 3.5,-25" style=""/>
<text text-anchor="start" x="6.23" y="-31.4" font-family="Times,serif" font-size="14.00" style="">Leaf function (this calls nothing else)</text>
<polygon fill="#6db33f" stroke="none" points="218.5,-25 218.5,-47 268.5,-47 268.5,-25 218.5,-25" style=""/>
<polygon fill="none" stroke="black" points="218.5,-25 218.5,-47 268.5,-47 268.5,-25 218.5,-25" style=""/>
<polygon fill="none" stroke="black" points="3.5,-3 3.5,-25 218.5,-25 218.5,-3 3.5,-3" style=""/>
<text text-anchor="start" x="74.26" y="-9.4" font-family="Times,serif" font-size="14.00" style="">Function call</text>
<polygon fill="none" stroke="black" points="218.5,-3 218.5,-25 268.5,-25 268.5,-3 218.5,-3" style=""/>
<text text-anchor="start" x="238.25" y="-9.4" font-family="Times,serif" font-size="14.00" style="">→</text>
<polygon fill="none" stroke="black" points="2.5,-2 2.5,-92 269.5,-92 269.5,-2 2.5,-2" style=""/>
<polygon fill="none" stroke="black" points="0,0 0,-112 271,-112 271,0 0,0" style=""/>
</g>
<!-- node_8a1ea321 -->
<g id="node2" class="node" pointer-events="visible" data-name="node_8a1ea321">

<path fill="#966f33" stroke="black" d="M165.53,-280C165.53,-280 105.47,-280 105.47,-280 99.47,-280 93.47,-274 93.47,-268 93.47,-268 93.47,-256 93.47,-256 93.47,-250 99.47,-244 105.47,-244 105.47,-244 165.53,-244 165.53,-244 171.53,-244 177.53,-250 177.53,-256 177.53,-256 177.53,-268 177.53,-268 177.53,-274 171.53,-280 165.53,-280" style=""/>
<text text-anchor="middle" x="135.5" y="-257.8" font-family="Times,serif" font-size="14.00" style="">0: (global)()</text>
</g>
<!-- node_c50cb9d9 -->
<g id="node4" class="node" pointer-events="visible" data-name="node_c50cb9d9">

<path fill="#cccccc" stroke="black" d="M376.56,-280C376.56,-280 319.15,-280 319.15,-280 313.15,-280 307.15,-274 307.15,-268 307.15,-268 307.15,-256 307.15,-256 307.15,-250 313.15,-244 319.15,-244 319.15,-244 376.56,-244 376.56,-244 382.56,-244 388.56,-250 388.56,-256 388.56,-256 388.56,-268 388.56,-268 388.56,-274 382.56,-280 376.56,-280" style=""/>
<text text-anchor="middle" x="347.85" y="-257.8" font-family="Times,serif" font-size="14.00" style="">192: main()</text>
</g>
<!-- node_8a1ea321&#45;&gt;node_c50cb9d9 -->
<g id="edge1" class="edge" data-name="node_8a1ea321-&gt;node_c50cb9d9">

<path fill="none" stroke="#e69f00" stroke-width="2" d="M177.96,-262C177.96,-262 293.88,-262 293.88,-262" style=""/>
<polygon fill="#e69f00" stroke="#e69f00" stroke-width="2" points="293.88,-265.5 303.88,-262 293.88,-258.5 293.88,-265.5" style=""/>
</g>
<!-- node_53f25902 -->
<g id="node3" class="node" pointer-events="visible" data-name="node_53f25902">

<path fill="#cccccc" stroke="black" d="M591.9,-172C591.9,-172 475.29,-172 475.29,-172 469.29,-172 463.29,-166 463.29,-160 463.29,-160 463.29,-148 463.29,-148 463.29,-142 469.29,-136 475.29,-136 475.29,-136 591.9,-136 591.9,-136 597.9,-136 603.9,-142 603.9,-148 603.9,-148 603.9,-160 603.9,-160 603.9,-166 597.9,-172 591.9,-172" style=""/>
<text text-anchor="middle" x="533.6" y="-149.8" font-family="Times,serif" font-size="14.00" style="">115: get_ood_scores()</text>
</g>
<!-- node_5d19b894 -->
<g id="node9" class="node" pointer-events="visible" data-name="node_5d19b894">

<path fill="#6db33f" stroke="black" d="M875.17,-172C875.17,-172 690.26,-172 690.26,-172 684.26,-172 678.26,-166 678.26,-160 678.26,-160 678.26,-148 678.26,-148 678.26,-142 684.26,-136 690.26,-136 690.26,-136 875.17,-136 875.17,-136 881.17,-136 887.17,-142 887.17,-148 887.17,-148 887.17,-160 887.17,-160 887.17,-166 881.17,-172 875.17,-172" style=""/>
<text text-anchor="middle" x="782.72" y="-149.8" font-family="Times,serif" font-size="14.00" style="">141: simple_compute_score_HE()</text>
</g>
<!-- node_53f25902&#45;&gt;node_5d19b894 -->
<g id="edge2" class="edge" data-name="node_53f25902-&gt;node_5d19b894">

<path fill="none" stroke="#56b4e9" stroke-width="2" d="M604.32,-154C604.32,-154 664.84,-154 664.84,-154" style=""/>
<polygon fill="#56b4e9" stroke="#56b4e9" stroke-width="2" points="664.84,-157.5 674.84,-154 664.84,-150.5 664.84,-157.5" style=""/>
</g>
<!-- node_c50cb9d9&#45;&gt;node_53f25902 -->
<g id="edge3" class="edge" data-name="node_c50cb9d9-&gt;node_53f25902">

<path fill="none" stroke="#e69f00" stroke-width="2" d="M347.94,-243.68C347.94,-212.87 347.94,-154 347.94,-154 347.94,-154 449.85,-154 449.85,-154" style=""/>
<polygon fill="#e69f00" stroke="#e69f00" stroke-width="2" points="449.85,-157.5 459.85,-154 449.85,-150.5 449.85,-157.5" style=""/>
</g>
<!-- node_5f6edb4e -->
<g id="node5" class="node" pointer-events="visible" data-name="node_5f6edb4e">

<path fill="#6db33f" stroke="black" d="M623.37,-226C623.37,-226 443.83,-226 443.83,-226 437.83,-226 431.83,-220 431.83,-214 431.83,-214 431.83,-202 431.83,-202 431.83,-196 437.83,-190 443.83,-190 443.83,-190 623.37,-190 623.37,-190 629.37,-190 635.37,-196 635.37,-202 635.37,-202 635.37,-214 635.37,-214 635.37,-220 629.37,-226 623.37,-226" style=""/>
<text text-anchor="middle" x="533.6" y="-203.8" font-family="Times,serif" font-size="14.00" style="">47: normalize_embedding_func()</text>
</g>
<!-- node_c50cb9d9&#45;&gt;node_5f6edb4e -->
<g id="edge5" class="edge" data-name="node_c50cb9d9-&gt;node_5f6edb4e">

<path fill="none" stroke="#e69f00" stroke-width="2" d="M388.95,-253C413.89,-253 440.94,-253 440.94,-253 440.94,-253 440.94,-239.33 440.94,-239.33" style=""/>
<polygon fill="#e69f00" stroke="#e69f00" stroke-width="2" points="444.44,-239.33 440.94,-229.33 437.44,-239.33 444.44,-239.33" style=""/>
</g>
<!-- node_7bf9981f -->
<g id="node6" class="node" pointer-events="visible" data-name="node_7bf9981f">

<path fill="#6db33f" stroke="black" d="M588.1,-280C588.1,-280 479.1,-280 479.1,-280 473.1,-280 467.1,-274 467.1,-268 467.1,-268 467.1,-256 467.1,-256 467.1,-250 473.1,-244 479.1,-244 479.1,-244 588.1,-244 588.1,-244 594.1,-244 600.1,-250 600.1,-256 600.1,-256 600.1,-268 600.1,-268 600.1,-274 594.1,-280 588.1,-280" style=""/>
<text text-anchor="middle" x="533.6" y="-257.8" font-family="Times,serif" font-size="14.00" style="">34: read_data_func()</text>
</g>
<!-- node_c50cb9d9&#45;&gt;node_7bf9981f -->
<g id="edge8" class="edge" data-name="node_c50cb9d9-&gt;node_7bf9981f">

<path fill="none" stroke="#e69f00" stroke-width="2" d="M388.62,-262C388.62,-262 453.63,-262 453.63,-262" style=""/>
<polygon fill="#e69f00" stroke="#e69f00" stroke-width="2" points="453.63,-265.5 463.63,-262 453.63,-258.5 453.63,-265.5" style=""/>
</g>
<!-- node_25805d7b -->
<g id="node7" class="node" pointer-events="visible" data-name="node_25805d7b">

<path fill="#6db33f" stroke="black" d="M570.06,-334C570.06,-334 497.14,-334 497.14,-334 491.14,-334 485.14,-328 485.14,-322 485.14,-322 485.14,-310 485.14,-310 485.14,-304 491.14,-298 497.14,-298 497.14,-298 570.06,-298 570.06,-298 576.06,-298 582.06,-304 582.06,-310 582.06,-310 582.06,-322 582.06,-322 582.06,-328 576.06,-334 570.06,-334" style=""/>
<text text-anchor="middle" x="533.6" y="-311.8" font-family="Times,serif" font-size="14.00" style="">94: read_file()</text>
</g>
<!-- node_c50cb9d9&#45;&gt;node_25805d7b -->
<g id="edge11" class="edge" data-name="node_c50cb9d9-&gt;node_25805d7b">

<path fill="none" stroke="#e69f00" stroke-width="2" d="M347.94,-280.28C347.94,-295.95 347.94,-316 347.94,-316 347.94,-316 471.79,-316 471.79,-316" style=""/>
<polygon fill="#e69f00" stroke="#e69f00" stroke-width="2" points="471.79,-319.5 481.79,-316 471.79,-312.5 471.79,-319.5" style=""/>
</g>
<!-- node_3ca93abe -->
<g id="node8" class="node" pointer-events="visible" data-name="node_3ca93abe">

<path fill="#6db33f" stroke="black" d="M606.16,-388C606.16,-388 461.04,-388 461.04,-388 455.04,-388 449.04,-382 449.04,-376 449.04,-376 449.04,-364 449.04,-364 449.04,-358 455.04,-352 461.04,-352 461.04,-352 606.16,-352 606.16,-352 612.16,-352 618.16,-358 618.16,-364 618.16,-364 618.16,-376 618.16,-376 618.16,-382 612.16,-388 606.16,-388" style=""/>
<text text-anchor="middle" x="533.6" y="-365.8" font-family="Times,serif" font-size="14.00" style="">70: select_threshold_func()</text>
</g>
<!-- node_c50cb9d9&#45;&gt;node_3ca93abe -->
<g id="edge13" class="edge" data-name="node_c50cb9d9-&gt;node_3ca93abe">

<path fill="none" stroke="#e69f00" stroke-width="2" d="M388.9,-271C420.55,-271 458.94,-271 458.94,-271 458.94,-271 458.94,-338.81 458.94,-338.81" style=""/>
<polygon fill="#e69f00" stroke="#e69f00" stroke-width="2" points="455.44,-338.81 458.94,-348.81 462.44,-338.81 455.44,-338.81" style=""/>
</g>
<!-- node_20917cfb -->
<g id="node10" class="node" pointer-events="visible" data-name="node_20917cfb">

<path fill="#966f33" stroke="black" d="M165.53,-954C165.53,-954 105.47,-954 105.47,-954 99.47,-954 93.47,-948 93.47,-942 93.47,-942 93.47,-930 93.47,-930 93.47,-924 99.47,-918 105.47,-918 105.47,-918 165.53,-918 165.53,-918 171.53,-918 177.53,-924 177.53,-930 177.53,-930 177.53,-942 177.53,-942 177.53,-948 171.53,-954 165.53,-954" style=""/>
<text text-anchor="middle" x="135.5" y="-931.8" font-family="Times,serif" font-size="14.00" style="">0: (global)()</text>
</g>
<!-- node_246a7c2d -->
<g id="node11" class="node" pointer-events="visible" data-name="node_246a7c2d">

<path fill="#cccccc" stroke="black" d="M373.06,-954C373.06,-954 322.65,-954 322.65,-954 316.65,-954 310.65,-948 310.65,-942 310.65,-942 310.65,-930 310.65,-930 310.65,-924 316.65,-918 322.65,-918 322.65,-918 373.06,-918 373.06,-918 379.06,-918 385.06,-924 385.06,-930 385.06,-930 385.06,-942 385.06,-942 385.06,-948 379.06,-954 373.06,-954" style=""/>
<text text-anchor="middle" x="347.85" y="-931.8" font-family="Times,serif" font-size="14.00" style="">85: main()</text>
</g>
<!-- node_20917cfb&#45;&gt;node_246a7c2d -->
<g id="edge14" class="edge" data-name="node_20917cfb-&gt;node_246a7c2d">

<path fill="none" stroke="#009e73" stroke-width="2" d="M177.96,-936C177.96,-936 297.41,-936 297.41,-936" style=""/>
<polygon fill="#009e73" stroke="#009e73" stroke-width="2" points="297.41,-939.5 307.41,-936 297.41,-932.5 297.41,-939.5" style=""/>
</g>
<!-- node_da68f859 -->
<g id="node12" class="node" pointer-events="visible" data-name="node_da68f859">

<path fill="#6db33f" stroke="black" d="M623.37,-900C623.37,-900 443.83,-900 443.83,-900 437.83,-900 431.83,-894 431.83,-888 431.83,-888 431.83,-876 431.83,-876 431.83,-870 437.83,-864 443.83,-864 443.83,-864 623.37,-864 623.37,-864 629.37,-864 635.37,-870 635.37,-876 635.37,-876 635.37,-888 635.37,-888 635.37,-894 629.37,-900 623.37,-900" style=""/>
<text text-anchor="middle" x="533.6" y="-877.8" font-family="Times,serif" font-size="14.00" style="">40: normalize_embedding_func()</text>
</g>
<!-- node_246a7c2d&#45;&gt;node_da68f859 -->
<g id="edge15" class="edge" data-name="node_246a7c2d-&gt;node_da68f859">

<path fill="none" stroke="#0072b2" stroke-width="2" d="M385.45,-930C411.28,-930 440.94,-930 440.94,-930 440.94,-930 440.94,-913.45 440.94,-913.45" style=""/>
<polygon fill="#0072b2" stroke="#0072b2" stroke-width="2" points="444.44,-913.45 440.94,-903.45 437.44,-913.45 444.44,-913.45" style=""/>
</g>
<!-- node_845895c5 -->
<g id="node13" class="node" pointer-events="visible" data-name="node_845895c5">

<path fill="#6db33f" stroke="black" d="M588.1,-954C588.1,-954 479.1,-954 479.1,-954 473.1,-954 467.1,-948 467.1,-942 467.1,-942 467.1,-930 467.1,-930 467.1,-924 473.1,-918 479.1,-918 479.1,-918 588.1,-918 588.1,-918 594.1,-918 600.1,-924 600.1,-930 600.1,-930 600.1,-942 600.1,-942 600.1,-948 594.1,-954 588.1,-954" style=""/>
<text text-anchor="middle" x="533.6" y="-931.8" font-family="Times,serif" font-size="14.00" style="">27: read_data_func()</text>
</g>
<!-- node_246a7c2d&#45;&gt;node_845895c5 -->
<g id="edge16" class="edge" data-name="node_246a7c2d-&gt;node_845895c5">

<path fill="none" stroke="#0072b2" stroke-width="2" d="M385.44,-942C385.44,-942 453.73,-942 453.73,-942" style=""/>
<polygon fill="#0072b2" stroke="#0072b2" stroke-width="2" points="453.73,-945.5 463.73,-942 453.73,-938.5 453.73,-945.5" style=""/>
</g>
<!-- node_747701b2 -->
<g id="node14" class="node" pointer-events="visible" data-name="node_747701b2">

<path fill="#6db33f" stroke="black" d="M570.06,-1008C570.06,-1008 497.14,-1008 497.14,-1008 491.14,-1008 485.14,-1002 485.14,-996 485.14,-996 485.14,-984 485.14,-984 485.14,-978 491.14,-972 497.14,-972 497.14,-972 570.06,-972 570.06,-972 576.06,-972 582.06,-978 582.06,-984 582.06,-984 582.06,-996 582.06,-996 582.06,-1002 576.06,-1008 570.06,-1008" style=""/>
<text text-anchor="middle" x="533.6" y="-985.8" font-family="Times,serif" font-size="14.00" style="">67: read_file()</text>
</g>
<!-- node_246a7c2d&#45;&gt;node_747701b2 -->
<g id="edge17" class="edge" data-name="node_246a7c2d-&gt;node_747701b2">

<path fill="none" stroke="#0072b2" stroke-width="2" d="M347.94,-954.28C347.94,-969.95 347.94,-990 347.94,-990 347.94,-990 471.79,-990 471.79,-990" style=""/>
<polygon fill="#0072b2" stroke="#0072b2" stroke-width="2" points="471.79,-993.5 481.79,-990 471.79,-986.5 471.79,-993.5" style=""/>
</g>
<!-- node_7acc17f0 -->
<g id="node15" class="node" pointer-events="visible" data-name="node_7acc17f0">

<path fill="#966f33" stroke="black" d="M165.53,-1134C165.53,-1134 105.47,-1134 105.47,-1134 99.47,-1134 93.47,-1128 93.47,-1122 93.47,-1122 93.47,-1110 93.47,-1110 93.47,-1104 99.47,-1098 105.47,-1098 105.47,-1098 165.53,-1098 165.53,-1098 171.53,-1098 177.53,-1104 177.53,-1110 177.53,-1110 177.53,-1122 177.53,-1122 177.53,-1128 171.53,-1134 165.53,-1134" style=""/>
<text text-anchor="middle" x="135.5" y="-1111.8" font-family="Times,serif" font-size="14.00" style="">0: (global)()</text>
</g>
<!-- node_c086c5b9 -->
<g id="node16" class="node" pointer-events="visible" data-name="node_c086c5b9">

<path fill="#6db33f" stroke="black" d="M373.06,-1134C373.06,-1134 322.65,-1134 322.65,-1134 316.65,-1134 310.65,-1128 310.65,-1122 310.65,-1122 310.65,-1110 310.65,-1110 310.65,-1104 316.65,-1098 322.65,-1098 322.65,-1098 373.06,-1098 373.06,-1098 379.06,-1098 385.06,-1104 385.06,-1110 385.06,-1110 385.06,-1122 385.06,-1122 385.06,-1128 379.06,-1134 373.06,-1134" style=""/>
<text text-anchor="middle" x="347.85" y="-1111.8" font-family="Times,serif" font-size="14.00" style="">20: main()</text>
</g>
<!-- node_7acc17f0&#45;&gt;node_c086c5b9 -->
<g id="edge18" class="edge" data-name="node_7acc17f0-&gt;node_c086c5b9">

<path fill="none" stroke="#000000" stroke-width="2" d="M177.96,-1116C177.96,-1116 297.41,-1116 297.41,-1116" style=""/>
<polygon fill="#000000" stroke="#000000" stroke-width="2" points="297.41,-1119.5 307.41,-1116 297.41,-1112.5 297.41,-1119.5" style=""/>
</g>
<!-- node_76570f0d -->
<g id="node17" class="node" pointer-events="visible" data-name="node_76570f0d">

<path fill="#966f33" stroke="black" d="M165.53,-1260C165.53,-1260 105.47,-1260 105.47,-1260 99.47,-1260 93.47,-1254 93.47,-1248 93.47,-1248 93.47,-1236 93.47,-1236 93.47,-1230 99.47,-1224 105.47,-1224 105.47,-1224 165.53,-1224 165.53,-1224 171.53,-1224 177.53,-1230 177.53,-1236 177.53,-1236 177.53,-1248 177.53,-1248 177.53,-1254 171.53,-1260 165.53,-1260" style=""/>
<text text-anchor="middle" x="135.5" y="-1237.8" font-family="Times,serif" font-size="14.00" style="">0: (global)()</text>
</g>
<!-- node_4a5280da -->
<g id="node18" class="node" pointer-events="visible" data-name="node_4a5280da">

<path fill="#cccccc" stroke="black" d="M373.06,-1260C373.06,-1260 322.65,-1260 322.65,-1260 316.65,-1260 310.65,-1254 310.65,-1248 310.65,-1248 310.65,-1236 310.65,-1236 310.65,-1230 316.65,-1224 322.65,-1224 322.65,-1224 373.06,-1224 373.06,-1224 379.06,-1224 385.06,-1230 385.06,-1236 385.06,-1236 385.06,-1248 385.06,-1248 385.06,-1254 379.06,-1260 373.06,-1260" style=""/>
<text text-anchor="middle" x="347.85" y="-1237.8" font-family="Times,serif" font-size="14.00" style="">47: main()</text>
</g>
<!-- node_76570f0d&#45;&gt;node_4a5280da -->
<g id="edge19" class="edge" data-name="node_76570f0d-&gt;node_4a5280da">

<path fill="none" stroke="#0072b2" stroke-width="2" d="M177.96,-1242C177.96,-1242 297.41,-1242 297.41,-1242" style=""/>
<polygon fill="#0072b2" stroke="#0072b2" stroke-width="2" points="297.41,-1245.5 307.41,-1242 297.41,-1238.5 297.41,-1245.5" style=""/>
</g>
<!-- node_192c0ce0 -->
<g id="node19" class="node" pointer-events="visible" data-name="node_192c0ce0">

<path fill="#6db33f" stroke="black" d="M606.16,-1260C606.16,-1260 461.04,-1260 461.04,-1260 455.04,-1260 449.04,-1254 449.04,-1248 449.04,-1248 449.04,-1236 449.04,-1236 449.04,-1230 455.04,-1224 461.04,-1224 461.04,-1224 606.16,-1224 606.16,-1224 612.16,-1224 618.16,-1230 618.16,-1236 618.16,-1236 618.16,-1248 618.16,-1248 618.16,-1254 612.16,-1260 606.16,-1260" style=""/>
<text text-anchor="middle" x="533.6" y="-1237.8" font-family="Times,serif" font-size="14.00" style="">25: select_threshold_func()</text>
</g>
<!-- node_4a5280da&#45;&gt;node_192c0ce0 -->
<g id="edge20" class="edge" data-name="node_4a5280da-&gt;node_192c0ce0">

<path fill="none" stroke="#56b4e9" stroke-width="2" d="M385.44,-1242C385.44,-1242 435.85,-1242 435.85,-1242" style=""/>
<polygon fill="#56b4e9" stroke="#56b4e9" stroke-width="2" points="435.85,-1245.5 445.85,-1242 435.85,-1238.5 435.85,-1245.5" style=""/>
</g>
<!-- node_bf4c323f -->
<g id="node20" class="node" pointer-events="visible" data-name="node_bf4c323f">

<path fill="#966f33" stroke="black" d="M165.53,-527C165.53,-527 105.47,-527 105.47,-527 99.47,-527 93.47,-521 93.47,-515 93.47,-515 93.47,-503 93.47,-503 93.47,-497 99.47,-491 105.47,-491 105.47,-491 165.53,-491 165.53,-491 171.53,-491 177.53,-497 177.53,-503 177.53,-503 177.53,-515 177.53,-515 177.53,-521 171.53,-527 165.53,-527" style=""/>
<text text-anchor="middle" x="135.5" y="-504.8" font-family="Times,serif" font-size="14.00" style="">0: (global)()</text>
</g>
<!-- node_6eea048a -->
<g id="node21" class="node" pointer-events="visible" data-name="node_6eea048a">

<path fill="#cccccc" stroke="black" d="M376.56,-527C376.56,-527 319.15,-527 319.15,-527 313.15,-527 307.15,-521 307.15,-515 307.15,-515 307.15,-503 307.15,-503 307.15,-497 313.15,-491 319.15,-491 319.15,-491 376.56,-491 376.56,-491 382.56,-491 388.56,-497 388.56,-503 388.56,-503 388.56,-515 388.56,-515 388.56,-521 382.56,-527 376.56,-527" style=""/>
<text text-anchor="middle" x="347.85" y="-504.8" font-family="Times,serif" font-size="14.00" style="">105: main()</text>
</g>
<!-- node_bf4c323f&#45;&gt;node_6eea048a -->
<g id="edge21" class="edge" data-name="node_bf4c323f-&gt;node_6eea048a">

<path fill="none" stroke="#cc79a7" stroke-width="2" d="M177.96,-509C177.96,-509 293.88,-509 293.88,-509" style=""/>
<polygon fill="#cc79a7" stroke="#cc79a7" stroke-width="2" points="293.88,-512.5 303.88,-509 293.88,-505.5 293.88,-512.5" style=""/>
</g>
<!-- node_40136ea7 -->
<g id="node22" class="node" pointer-events="visible" data-name="node_40136ea7">

<path fill="#6db33f" stroke="black" d="M588.1,-473C588.1,-473 479.1,-473 479.1,-473 473.1,-473 467.1,-467 467.1,-461 467.1,-461 467.1,-449 467.1,-449 467.1,-443 473.1,-437 479.1,-437 479.1,-437 588.1,-437 588.1,-437 594.1,-437 600.1,-443 600.1,-449 600.1,-449 600.1,-461 600.1,-461 600.1,-467 594.1,-473 588.1,-473" style=""/>
<text text-anchor="middle" x="533.6" y="-450.8" font-family="Times,serif" font-size="14.00" style="">31: read_data_func()</text>
</g>
<!-- node_6eea048a&#45;&gt;node_40136ea7 -->
<g id="edge22" class="edge" data-name="node_6eea048a-&gt;node_40136ea7">

<path fill="none" stroke="#56b4e9" stroke-width="2" d="M389.05,-500C426.83,-500 476.94,-500 476.94,-500 476.94,-500 476.94,-486.33 476.94,-486.33" style=""/>
<polygon fill="#56b4e9" stroke="#56b4e9" stroke-width="2" points="480.44,-486.33 476.94,-476.33 473.44,-486.33 480.44,-486.33" style=""/>
</g>
<!-- node_c4ecc4fe -->
<g id="node23" class="node" pointer-events="visible" data-name="node_c4ecc4fe">

<path fill="#6db33f" stroke="black" d="M570.06,-527C570.06,-527 497.14,-527 497.14,-527 491.14,-527 485.14,-521 485.14,-515 485.14,-515 485.14,-503 485.14,-503 485.14,-497 491.14,-491 497.14,-491 497.14,-491 570.06,-491 570.06,-491 576.06,-491 582.06,-497 582.06,-503 582.06,-503 582.06,-515 582.06,-515 582.06,-521 576.06,-527 570.06,-527" style=""/>
<text text-anchor="middle" x="533.6" y="-504.8" font-family="Times,serif" font-size="14.00" style="">67: read_file()</text>
</g>
<!-- node_6eea048a&#45;&gt;node_c4ecc4fe -->
<g id="edge23" class="edge" data-name="node_6eea048a-&gt;node_c4ecc4fe">

<path fill="none" stroke="#56b4e9" stroke-width="2" d="M388.62,-509C388.62,-509 471.66,-509 471.66,-509" style=""/>
<polygon fill="#56b4e9" stroke="#56b4e9" stroke-width="2" points="471.66,-512.5 481.66,-509 471.66,-505.5 471.66,-512.5" style=""/>
</g>
<!-- node_100e551b -->
<g id="node24" class="node" pointer-events="visible" data-name="node_100e551b">

<path fill="#6db33f" stroke="black" d="M630.38,-581C630.38,-581 436.82,-581 436.82,-581 430.82,-581 424.82,-575 424.82,-569 424.82,-569 424.82,-557 424.82,-557 424.82,-551 430.82,-545 436.82,-545 436.82,-545 630.38,-545 630.38,-545 636.38,-545 642.38,-551 642.38,-557 642.38,-557 642.38,-569 642.38,-569 642.38,-575 636.38,-581 630.38,-581" style=""/>
<text text-anchor="middle" x="533.6" y="-558.8" font-family="Times,serif" font-size="14.00" style="">85: save_embeddings_to_text_file()</text>
</g>
<!-- node_6eea048a&#45;&gt;node_100e551b -->
<g id="edge25" class="edge" data-name="node_6eea048a-&gt;node_100e551b">

<path fill="none" stroke="#56b4e9" stroke-width="2" d="M388.87,-518C408.99,-518 428.94,-518 428.94,-518 428.94,-518 428.94,-531.67 428.94,-531.67" style=""/>
<polygon fill="#56b4e9" stroke="#56b4e9" stroke-width="2" points="425.44,-531.67 428.94,-541.67 432.44,-531.67 425.44,-531.67" style=""/>
</g>
<!-- node_27841389 -->
<g id="node25" class="node" pointer-events="visible" data-name="node_27841389">

<path fill="#966f33" stroke="black" d="M165.53,-1440C165.53,-1440 105.47,-1440 105.47,-1440 99.47,-1440 93.47,-1434 93.47,-1428 93.47,-1428 93.47,-1416 93.47,-1416 93.47,-1410 99.47,-1404 105.47,-1404 105.47,-1404 165.53,-1404 165.53,-1404 171.53,-1404 177.53,-1410 177.53,-1416 177.53,-1416 177.53,-1428 177.53,-1428 177.53,-1434 171.53,-1440 165.53,-1440" style=""/>
<text text-anchor="middle" x="135.5" y="-1417.8" font-family="Times,serif" font-size="14.00" style="">0: (global)()</text>
</g>
<!-- node_2afad458 -->
<g id="node26" class="node" pointer-events="visible" data-name="node_2afad458">

<path fill="#cccccc" stroke="black" d="M373.06,-1440C373.06,-1440 322.65,-1440 322.65,-1440 316.65,-1440 310.65,-1434 310.65,-1428 310.65,-1428 310.65,-1416 310.65,-1416 310.65,-1410 316.65,-1404 322.65,-1404 322.65,-1404 373.06,-1404 373.06,-1404 379.06,-1404 385.06,-1410 385.06,-1416 385.06,-1416 385.06,-1428 385.06,-1428 385.06,-1434 379.06,-1440 373.06,-1440" style=""/>
<text text-anchor="middle" x="347.85" y="-1417.8" font-family="Times,serif" font-size="14.00" style="">82: main()</text>
</g>
<!-- node_27841389&#45;&gt;node_2afad458 -->
<g id="edge26" class="edge" data-name="node_27841389-&gt;node_2afad458">

<path fill="none" stroke="#e69f00" stroke-width="2" d="M177.96,-1422C177.96,-1422 297.41,-1422 297.41,-1422" style=""/>
<polygon fill="#e69f00" stroke="#e69f00" stroke-width="2" points="297.41,-1425.5 307.41,-1422 297.41,-1418.5 297.41,-1425.5" style=""/>
</g>
<!-- node_f1665eaa -->
<g id="node27" class="node" pointer-events="visible" data-name="node_f1665eaa">

<path fill="#6db33f" stroke="black" d="M623.37,-1386C623.37,-1386 443.83,-1386 443.83,-1386 437.83,-1386 431.83,-1380 431.83,-1374 431.83,-1374 431.83,-1362 431.83,-1362 431.83,-1356 437.83,-1350 443.83,-1350 443.83,-1350 623.37,-1350 623.37,-1350 629.37,-1350 635.37,-1356 635.37,-1362 635.37,-1362 635.37,-1374 635.37,-1374 635.37,-1380 629.37,-1386 623.37,-1386" style=""/>
<text text-anchor="middle" x="533.6" y="-1363.8" font-family="Times,serif" font-size="14.00" style="">41: normalize_embedding_func()</text>
</g>
<!-- node_2afad458&#45;&gt;node_f1665eaa -->
<g id="edge27" class="edge" data-name="node_2afad458-&gt;node_f1665eaa">

<path fill="none" stroke="#000000" stroke-width="2" d="M385.29,-1416C414.42,-1416 449.94,-1416 449.94,-1416 449.94,-1416 449.94,-1399.45 449.94,-1399.45" style=""/>
<polygon fill="#000000" stroke="#000000" stroke-width="2" points="453.44,-1399.45 449.94,-1389.45 446.44,-1399.45 453.44,-1399.45" style=""/>
</g>
<!-- node_b4de28d0 -->
<g id="node28" class="node" pointer-events="visible" data-name="node_b4de28d0">

<path fill="#6db33f" stroke="black" d="M588.1,-1440C588.1,-1440 479.1,-1440 479.1,-1440 473.1,-1440 467.1,-1434 467.1,-1428 467.1,-1428 467.1,-1416 467.1,-1416 467.1,-1410 473.1,-1404 479.1,-1404 479.1,-1404 588.1,-1404 588.1,-1404 594.1,-1404 600.1,-1410 600.1,-1416 600.1,-1416 600.1,-1428 600.1,-1428 600.1,-1434 594.1,-1440 588.1,-1440" style=""/>
<text text-anchor="middle" x="533.6" y="-1417.8" font-family="Times,serif" font-size="14.00" style="">28: read_data_func()</text>
</g>
<!-- node_2afad458&#45;&gt;node_b4de28d0 -->
<g id="edge29" class="edge" data-name="node_2afad458-&gt;node_b4de28d0">

<path fill="none" stroke="#000000" stroke-width="2" d="M385.44,-1428C385.44,-1428 453.73,-1428 453.73,-1428" style=""/>
<polygon fill="#000000" stroke="#000000" stroke-width="2" points="453.73,-1431.5 463.73,-1428 453.73,-1424.5 453.73,-1431.5" style=""/>
</g>
<!-- node_0e9dae23 -->
<g id="node29" class="node" pointer-events="visible" data-name="node_0e9dae23">

<path fill="#6db33f" stroke="black" d="M570.06,-1494C570.06,-1494 497.14,-1494 497.14,-1494 491.14,-1494 485.14,-1488 485.14,-1482 485.14,-1482 485.14,-1470 485.14,-1470 485.14,-1464 491.14,-1458 497.14,-1458 497.14,-1458 570.06,-1458 570.06,-1458 576.06,-1458 582.06,-1464 582.06,-1470 582.06,-1470 582.06,-1482 582.06,-1482 582.06,-1488 576.06,-1494 570.06,-1494" style=""/>
<text text-anchor="middle" x="533.6" y="-1471.8" font-family="Times,serif" font-size="14.00" style="">64: read_file()</text>
</g>
<!-- node_2afad458&#45;&gt;node_0e9dae23 -->
<g id="edge31" class="edge" data-name="node_2afad458-&gt;node_0e9dae23">

<path fill="none" stroke="#000000" stroke-width="2" d="M347.94,-1440.28C347.94,-1455.95 347.94,-1476 347.94,-1476 347.94,-1476 471.79,-1476 471.79,-1476" style=""/>
<polygon fill="#000000" stroke="#000000" stroke-width="2" points="471.79,-1479.5 481.79,-1476 471.79,-1472.5 471.79,-1479.5" style=""/>
</g>
<!-- node_c6c93c30 -->
<g id="node30" class="node" pointer-events="visible" data-name="node_c6c93c30">

<path fill="#966f33" stroke="black" d="M165.53,-1674C165.53,-1674 105.47,-1674 105.47,-1674 99.47,-1674 93.47,-1668 93.47,-1662 93.47,-1662 93.47,-1650 93.47,-1650 93.47,-1644 99.47,-1638 105.47,-1638 105.47,-1638 165.53,-1638 165.53,-1638 171.53,-1638 177.53,-1644 177.53,-1650 177.53,-1650 177.53,-1662 177.53,-1662 177.53,-1668 171.53,-1674 165.53,-1674" style=""/>
<text text-anchor="middle" x="135.5" y="-1651.8" font-family="Times,serif" font-size="14.00" style="">0: (global)()</text>
</g>
<!-- node_faf319ae -->
<g id="node31" class="node" pointer-events="visible" data-name="node_faf319ae">

<path fill="#cccccc" stroke="black" d="M373.06,-1674C373.06,-1674 322.65,-1674 322.65,-1674 316.65,-1674 310.65,-1668 310.65,-1662 310.65,-1662 310.65,-1650 310.65,-1650 310.65,-1644 316.65,-1638 322.65,-1638 322.65,-1638 373.06,-1638 373.06,-1638 379.06,-1638 385.06,-1644 385.06,-1650 385.06,-1650 385.06,-1662 385.06,-1662 385.06,-1668 379.06,-1674 373.06,-1674" style=""/>
<text text-anchor="middle" x="347.85" y="-1651.8" font-family="Times,serif" font-size="14.00" style="">84: main()</text>
</g>
<!-- node_c6c93c30&#45;&gt;node_faf319ae -->
<g id="edge33" class="edge" data-name="node_c6c93c30-&gt;node_faf319ae">

<path fill="none" stroke="#000000" stroke-width="2" d="M177.96,-1656C177.96,-1656 297.41,-1656 297.41,-1656" style=""/>
<polygon fill="#000000" stroke="#000000" stroke-width="2" points="297.41,-1659.5 307.41,-1656 297.41,-1652.5 297.41,-1659.5" style=""/>
</g>
<!-- node_099f601f -->
<g id="node32" class="node" pointer-events="visible" data-name="node_099f601f">

<path fill="#6db33f" stroke="black" d="M623.37,-1620C623.37,-1620 443.83,-1620 443.83,-1620 437.83,-1620 431.83,-1614 431.83,-1608 431.83,-1608 431.83,-1596 431.83,-1596 431.83,-1590 437.83,-1584 443.83,-1584 443.83,-1584 623.37,-1584 623.37,-1584 629.37,-1584 635.37,-1590 635.37,-1596 635.37,-1596 635.37,-1608 635.37,-1608 635.37,-1614 629.37,-1620 623.37,-1620" style=""/>
<text text-anchor="middle" x="533.6" y="-1597.8" font-family="Times,serif" font-size="14.00" style="">40: normalize_embedding_func()</text>
</g>
<!-- node_faf319ae&#45;&gt;node_099f601f -->
<g id="edge34" class="edge" data-name="node_faf319ae-&gt;node_099f601f">

<path fill="none" stroke="#d55e00" stroke-width="2" d="M385.45,-1647C411.28,-1647 440.94,-1647 440.94,-1647 440.94,-1647 440.94,-1633.33 440.94,-1633.33" style=""/>
<polygon fill="#d55e00" stroke="#d55e00" stroke-width="2" points="444.44,-1633.33 440.94,-1623.33 437.44,-1633.33 444.44,-1633.33" style=""/>
</g>
<!-- node_eedb4718 -->
<g id="node33" class="node" pointer-events="visible" data-name="node_eedb4718">

<path fill="#6db33f" stroke="black" d="M588.1,-1674C588.1,-1674 479.1,-1674 479.1,-1674 473.1,-1674 467.1,-1668 467.1,-1662 467.1,-1662 467.1,-1650 467.1,-1650 467.1,-1644 473.1,-1638 479.1,-1638 479.1,-1638 588.1,-1638 588.1,-1638 594.1,-1638 600.1,-1644 600.1,-1650 600.1,-1650 600.1,-1662 600.1,-1662 600.1,-1668 594.1,-1674 588.1,-1674" style=""/>
<text text-anchor="middle" x="533.6" y="-1651.8" font-family="Times,serif" font-size="14.00" style="">27: read_data_func()</text>
</g>
<!-- node_faf319ae&#45;&gt;node_eedb4718 -->
<g id="edge37" class="edge" data-name="node_faf319ae-&gt;node_eedb4718">

<path fill="none" stroke="#d55e00" stroke-width="2" d="M385.44,-1656C385.44,-1656 453.73,-1656 453.73,-1656" style=""/>
<polygon fill="#d55e00" stroke="#d55e00" stroke-width="2" points="453.73,-1659.5 463.73,-1656 453.73,-1652.5 453.73,-1659.5" style=""/>
</g>
<!-- node_f8566a84 -->
<g id="node34" class="node" pointer-events="visible" data-name="node_f8566a84">

<path fill="#6db33f" stroke="black" d="M606.16,-1728C606.16,-1728 461.04,-1728 461.04,-1728 455.04,-1728 449.04,-1722 449.04,-1716 449.04,-1716 449.04,-1704 449.04,-1704 449.04,-1698 455.04,-1692 461.04,-1692 461.04,-1692 606.16,-1692 606.16,-1692 612.16,-1692 618.16,-1698 618.16,-1704 618.16,-1704 618.16,-1716 618.16,-1716 618.16,-1722 612.16,-1728 606.16,-1728" style=""/>
<text text-anchor="middle" x="533.6" y="-1705.8" font-family="Times,serif" font-size="14.00" style="">63: select_threshold_func()</text>
</g>
<!-- node_faf319ae&#45;&gt;node_f8566a84 -->
<g id="edge40" class="edge" data-name="node_faf319ae-&gt;node_f8566a84">

<path fill="none" stroke="#d55e00" stroke-width="2" d="M385.46,-1665C417.69,-1665 458.94,-1665 458.94,-1665 458.94,-1665 458.94,-1678.67 458.94,-1678.67" style=""/>
<polygon fill="#d55e00" stroke="#d55e00" stroke-width="2" points="455.44,-1678.67 458.94,-1688.67 462.44,-1678.67 455.44,-1678.67" style=""/>
</g>
<!-- node_775b8548 -->
<g id="node35" class="node" pointer-events="visible" data-name="node_775b8548">

<path fill="#966f33" stroke="black" d="M165.53,-1908C165.53,-1908 105.47,-1908 105.47,-1908 99.47,-1908 93.47,-1902 93.47,-1896 93.47,-1896 93.47,-1884 93.47,-1884 93.47,-1878 99.47,-1872 105.47,-1872 105.47,-1872 165.53,-1872 165.53,-1872 171.53,-1872 177.53,-1878 177.53,-1884 177.53,-1884 177.53,-1896 177.53,-1896 177.53,-1902 171.53,-1908 165.53,-1908" style=""/>
<text text-anchor="middle" x="135.5" y="-1885.8" font-family="Times,serif" font-size="14.00" style="">0: (global)()</text>
</g>
<!-- node_b4f9b6f6 -->
<g id="node36" class="node" pointer-events="visible" data-name="node_b4f9b6f6">

<path fill="#cccccc" stroke="black" d="M373.06,-1908C373.06,-1908 322.65,-1908 322.65,-1908 316.65,-1908 310.65,-1902 310.65,-1896 310.65,-1896 310.65,-1884 310.65,-1884 310.65,-1878 316.65,-1872 322.65,-1872 322.65,-1872 373.06,-1872 373.06,-1872 379.06,-1872 385.06,-1878 385.06,-1884 385.06,-1884 385.06,-1896 385.06,-1896 385.06,-1902 379.06,-1908 373.06,-1908" style=""/>
<text text-anchor="middle" x="347.85" y="-1885.8" font-family="Times,serif" font-size="14.00" style="">81: main()</text>
</g>
<!-- node_775b8548&#45;&gt;node_b4f9b6f6 -->
<g id="edge41" class="edge" data-name="node_775b8548-&gt;node_b4f9b6f6">

<path fill="none" stroke="#000000" stroke-width="2" d="M177.96,-1890C177.96,-1890 297.41,-1890 297.41,-1890" style=""/>
<polygon fill="#000000" stroke="#000000" stroke-width="2" points="297.41,-1893.5 307.41,-1890 297.41,-1886.5 297.41,-1893.5" style=""/>
</g>
<!-- node_c336f15d -->
<g id="node37" class="node" pointer-events="visible" data-name="node_c336f15d">

<path fill="#6db33f" stroke="black" d="M623.37,-1854C623.37,-1854 443.83,-1854 443.83,-1854 437.83,-1854 431.83,-1848 431.83,-1842 431.83,-1842 431.83,-1830 431.83,-1830 431.83,-1824 437.83,-1818 443.83,-1818 443.83,-1818 623.37,-1818 623.37,-1818 629.37,-1818 635.37,-1824 635.37,-1830 635.37,-1830 635.37,-1842 635.37,-1842 635.37,-1848 629.37,-1854 623.37,-1854" style=""/>
<text text-anchor="middle" x="533.6" y="-1831.8" font-family="Times,serif" font-size="14.00" style="">40: normalize_embedding_func()</text>
</g>
<!-- node_b4f9b6f6&#45;&gt;node_c336f15d -->
<g id="edge42" class="edge" data-name="node_b4f9b6f6-&gt;node_c336f15d">

<path fill="none" stroke="#d55e00" stroke-width="2" d="M385.29,-1884C414.42,-1884 449.94,-1884 449.94,-1884 449.94,-1884 449.94,-1867.45 449.94,-1867.45" style=""/>
<polygon fill="#d55e00" stroke="#d55e00" stroke-width="2" points="453.44,-1867.45 449.94,-1857.45 446.44,-1867.45 453.44,-1867.45" style=""/>
</g>
<!-- node_8873501a -->
<g id="node38" class="node" pointer-events="visible" data-name="node_8873501a">

<path fill="#6db33f" stroke="black" d="M588.1,-1908C588.1,-1908 479.1,-1908 479.1,-1908 473.1,-1908 467.1,-1902 467.1,-1896 467.1,-1896 467.1,-1884 467.1,-1884 467.1,-1878 473.1,-1872 479.1,-1872 479.1,-1872 588.1,-1872 588.1,-1872 594.1,-1872 600.1,-1878 600.1,-1884 600.1,-1884 600.1,-1896 600.1,-1896 600.1,-1902 594.1,-1908 588.1,-1908" style=""/>
<text text-anchor="middle" x="533.6" y="-1885.8" font-family="Times,serif" font-size="14.00" style="">27: read_data_func()</text>
</g>
<!-- node_b4f9b6f6&#45;&gt;node_8873501a -->
<g id="edge44" class="edge" data-name="node_b4f9b6f6-&gt;node_8873501a">

<path fill="none" stroke="#d55e00" stroke-width="2" d="M385.44,-1896C385.44,-1896 453.73,-1896 453.73,-1896" style=""/>
<polygon fill="#d55e00" stroke="#d55e00" stroke-width="2" points="453.73,-1899.5 463.73,-1896 453.73,-1892.5 453.73,-1899.5" style=""/>
</g>
<!-- node_99f303f1 -->
<g id="node39" class="node" pointer-events="visible" data-name="node_99f303f1">

<path fill="#6db33f" stroke="black" d="M570.06,-1962C570.06,-1962 497.14,-1962 497.14,-1962 491.14,-1962 485.14,-1956 485.14,-1950 485.14,-1950 485.14,-1938 485.14,-1938 485.14,-1932 491.14,-1926 497.14,-1926 497.14,-1926 570.06,-1926 570.06,-1926 576.06,-1926 582.06,-1932 582.06,-1938 582.06,-1938 582.06,-1950 582.06,-1950 582.06,-1956 576.06,-1962 570.06,-1962" style=""/>
<text text-anchor="middle" x="533.6" y="-1939.8" font-family="Times,serif" font-size="14.00" style="">63: read_file()</text>
</g>
<!-- node_b4f9b6f6&#45;&gt;node_99f303f1 -->
<g id="edge46" class="edge" data-name="node_b4f9b6f6-&gt;node_99f303f1">

<path fill="none" stroke="#d55e00" stroke-width="2" d="M347.94,-1908.28C347.94,-1923.95 347.94,-1944 347.94,-1944 347.94,-1944 471.79,-1944 471.79,-1944" style=""/>
<polygon fill="#d55e00" stroke="#d55e00" stroke-width="2" points="471.79,-1947.5 481.79,-1944 471.79,-1940.5 471.79,-1947.5" style=""/>
</g>
<!-- node_27e7b6fc -->
<g id="node40" class="node" pointer-events="visible" data-name="node_27e7b6fc">

<path fill="#966f33" stroke="black" d="M165.53,-2088C165.53,-2088 105.47,-2088 105.47,-2088 99.47,-2088 93.47,-2082 93.47,-2076 93.47,-2076 93.47,-2064 93.47,-2064 93.47,-2058 99.47,-2052 105.47,-2052 105.47,-2052 165.53,-2052 165.53,-2052 171.53,-2052 177.53,-2058 177.53,-2064 177.53,-2064 177.53,-2076 177.53,-2076 177.53,-2082 171.53,-2088 165.53,-2088" style=""/>
<text text-anchor="middle" x="135.5" y="-2065.8" font-family="Times,serif" font-size="14.00" style="">0: (global)()</text>
</g>
<!-- node_190fa211 -->
<g id="node41" class="node" pointer-events="visible" data-name="node_190fa211">

<path fill="#6db33f" stroke="black" d="M373.06,-2088C373.06,-2088 322.65,-2088 322.65,-2088 316.65,-2088 310.65,-2082 310.65,-2076 310.65,-2076 310.65,-2064 310.65,-2064 310.65,-2058 316.65,-2052 322.65,-2052 322.65,-2052 373.06,-2052 373.06,-2052 379.06,-2052 385.06,-2058 385.06,-2064 385.06,-2064 385.06,-2076 385.06,-2076 385.06,-2082 379.06,-2088 373.06,-2088" style=""/>
<text text-anchor="middle" x="347.85" y="-2065.8" font-family="Times,serif" font-size="14.00" style="">20: main()</text>
</g>
<!-- node_27e7b6fc&#45;&gt;node_190fa211 -->
<g id="edge48" class="edge" data-name="node_27e7b6fc-&gt;node_190fa211">

<path fill="none" stroke="#000000" stroke-width="2" d="M177.96,-2070C177.96,-2070 297.41,-2070 297.41,-2070" style=""/>
<polygon fill="#000000" stroke="#000000" stroke-width="2" points="297.41,-2073.5 307.41,-2070 297.41,-2066.5 297.41,-2073.5" style=""/>
</g>
<!-- node_a0b11ec8 -->
<g id="node42" class="node" pointer-events="visible" data-name="node_a0b11ec8">

<path fill="#966f33" stroke="black" d="M165.53,-761C165.53,-761 105.47,-761 105.47,-761 99.47,-761 93.47,-755 93.47,-749 93.47,-749 93.47,-737 93.47,-737 93.47,-731 99.47,-725 105.47,-725 105.47,-725 165.53,-725 165.53,-725 171.53,-725 177.53,-731 177.53,-737 177.53,-737 177.53,-749 177.53,-749 177.53,-755 171.53,-761 165.53,-761" style=""/>
<text text-anchor="middle" x="135.5" y="-738.8" font-family="Times,serif" font-size="14.00" style="">0: (global)()</text>
</g>
<!-- node_0b7e8626 -->
<g id="node43" class="node" pointer-events="visible" data-name="node_0b7e8626">

<path fill="#cccccc" stroke="black" d="M373.06,-761C373.06,-761 322.65,-761 322.65,-761 316.65,-761 310.65,-755 310.65,-749 310.65,-749 310.65,-737 310.65,-737 310.65,-731 316.65,-725 322.65,-725 322.65,-725 373.06,-725 373.06,-725 379.06,-725 385.06,-731 385.06,-737 385.06,-737 385.06,-749 385.06,-749 385.06,-755 379.06,-761 373.06,-761" style=""/>
<text text-anchor="middle" x="347.85" y="-738.8" font-family="Times,serif" font-size="14.00" style="">83: main()</text>
</g>
<!-- node_a0b11ec8&#45;&gt;node_0b7e8626 -->
<g id="edge49" class="edge" data-name="node_a0b11ec8-&gt;node_0b7e8626">

<path fill="none" stroke="#000000" stroke-width="2" d="M177.96,-743C177.96,-743 297.41,-743 297.41,-743" style=""/>
<polygon fill="#000000" stroke="#000000" stroke-width="2" points="297.41,-746.5 307.41,-743 297.41,-739.5 297.41,-746.5" style=""/>
</g>
<!-- node_234de2a8 -->
<g id="node44" class="node" pointer-events="visible" data-name="node_234de2a8">

<path fill="#6db33f" stroke="black" d="M623.37,-707C623.37,-707 443.83,-707 443.83,-707 437.83,-707 431.83,-701 431.83,-695 431.83,-695 431.83,-683 431.83,-683 431.83,-677 437.83,-671 443.83,-671 443.83,-671 623.37,-671 623.37,-671 629.37,-671 635.37,-677 635.37,-683 635.37,-683 635.37,-695 635.37,-695 635.37,-701 629.37,-707 623.37,-707" style=""/>
<text text-anchor="middle" x="533.6" y="-684.8" font-family="Times,serif" font-size="14.00" style="">38: normalize_embedding_func()</text>
</g>
<!-- node_0b7e8626&#45;&gt;node_234de2a8 -->
<g id="edge50" class="edge" data-name="node_0b7e8626-&gt;node_234de2a8">

<path fill="none" stroke="#d55e00" stroke-width="2" d="M385.29,-737C414.42,-737 449.94,-737 449.94,-737 449.94,-737 449.94,-720.45 449.94,-720.45" style=""/>
<polygon fill="#d55e00" stroke="#d55e00" stroke-width="2" points="453.44,-720.45 449.94,-710.45 446.44,-720.45 453.44,-720.45" style=""/>
</g>
<!-- node_22d361d2 -->
<g id="node45" class="node" pointer-events="visible" data-name="node_22d361d2">

<path fill="#6db33f" stroke="black" d="M588.1,-761C588.1,-761 479.1,-761 479.1,-761 473.1,-761 467.1,-755 467.1,-749 467.1,-749 467.1,-737 467.1,-737 467.1,-731 473.1,-725 479.1,-725 479.1,-725 588.1,-725 588.1,-725 594.1,-725 600.1,-731 600.1,-737 600.1,-737 600.1,-749 600.1,-749 600.1,-755 594.1,-761 588.1,-761" style=""/>
<text text-anchor="middle" x="533.6" y="-738.8" font-family="Times,serif" font-size="14.00" style="">25: read_data_func()</text>
</g>
<!-- node_0b7e8626&#45;&gt;node_22d361d2 -->
<g id="edge51" class="edge" data-name="node_0b7e8626-&gt;node_22d361d2">

<path fill="none" stroke="#d55e00" stroke-width="2" d="M385.44,-749C385.44,-749 453.73,-749 453.73,-749" style=""/>
<polygon fill="#d55e00" stroke="#d55e00" stroke-width="2" points="453.73,-752.5 463.73,-749 453.73,-745.5 453.73,-752.5" style=""/>
</g>
<!-- node_c3c8b6b4 -->
<g id="node46" class="node" pointer-events="visible" data-name="node_c3c8b6b4">

<path fill="#6db33f" stroke="black" d="M570.06,-815C570.06,-815 497.14,-815 497.14,-815 491.14,-815 485.14,-809 485.14,-803 485.14,-803 485.14,-791 485.14,-791 485.14,-785 491.14,-779 497.14,-779 497.14,-779 570.06,-779 570.06,-779 576.06,-779 582.06,-785 582.06,-791 582.06,-791 582.06,-803 582.06,-803 582.06,-809 576.06,-815 570.06,-815" style=""/>
<text text-anchor="middle" x="533.6" y="-792.8" font-family="Times,serif" font-size="14.00" style="">65: read_file()</text>
</g>
<!-- node_0b7e8626&#45;&gt;node_c3c8b6b4 -->
<g id="edge52" class="edge" data-name="node_0b7e8626-&gt;node_c3c8b6b4">

<path fill="none" stroke="#d55e00" stroke-width="2" d="M347.94,-761.28C347.94,-776.95 347.94,-797 347.94,-797 347.94,-797 471.79,-797 471.79,-797" style=""/>
<polygon fill="#d55e00" stroke="#d55e00" stroke-width="2" points="471.79,-800.5 481.79,-797 471.79,-793.5 471.79,-800.5" style=""/>
</g>
<!-- node_47b76967 -->
<g id="node47" class="node" pointer-events="visible" data-name="node_47b76967">

<path fill="#966f33" stroke="black" d="M165.53,-2214C165.53,-2214 105.47,-2214 105.47,-2214 99.47,-2214 93.47,-2208 93.47,-2202 93.47,-2202 93.47,-2190 93.47,-2190 93.47,-2184 99.47,-2178 105.47,-2178 105.47,-2178 165.53,-2178 165.53,-2178 171.53,-2178 177.53,-2184 177.53,-2190 177.53,-2190 177.53,-2202 177.53,-2202 177.53,-2208 171.53,-2214 165.53,-2214" style=""/>
<text text-anchor="middle" x="135.5" y="-2191.8" font-family="Times,serif" font-size="14.00" style="">0: (global)()</text>
</g>
<!-- node_f360dbb6 -->
<g id="node48" class="node" pointer-events="visible" data-name="node_f360dbb6">

<path fill="#6db33f" stroke="black" d="M373.06,-2214C373.06,-2214 322.65,-2214 322.65,-2214 316.65,-2214 310.65,-2208 310.65,-2202 310.65,-2202 310.65,-2190 310.65,-2190 310.65,-2184 316.65,-2178 322.65,-2178 322.65,-2178 373.06,-2178 373.06,-2178 379.06,-2178 385.06,-2184 385.06,-2190 385.06,-2190 385.06,-2202 385.06,-2202 385.06,-2208 379.06,-2214 373.06,-2214" style=""/>
<text text-anchor="middle" x="347.85" y="-2191.8" font-family="Times,serif" font-size="14.00" style="">20: main()</text>
</g>
<!-- node_47b76967&#45;&gt;node_f360dbb6 -->
<g id="edge53" class="edge" data-name="node_47b76967-&gt;node_f360dbb6">

<path fill="none" stroke="#cc79a7" stroke-width="2" d="M177.96,-2196C177.96,-2196 297.41,-2196 297.41,-2196" style=""/>
<polygon fill="#cc79a7" stroke="#cc79a7" stroke-width="2" points="297.41,-2199.5 307.41,-2196 297.41,-2192.5 297.41,-2199.5" style=""/>
</g>
</g>
</svg>