<?xml version="1.0" standalone="no"?>
<svg xmlns="http://www.w3.org/2000/svg" xmlns:xlink="http://www.w3.org/1999/xlink" width="645pt" height="408pt" viewBox="0.00 0.00 645.48 408.00">
<g id="graph0" class="graph" transform="translate(4,404) scale(1)" data-name="G">

<polygon fill="white" stroke="none" points="-4,4 -4,-404 641.48,-404 641.48,4 -4,4" style=""/>
<g id="clust2" class="cluster" data-name="cluster_d0f71908">

<polygon fill="none" stroke="black" stroke-dasharray="1,5" points="85.48,-122 85.48,-199 389.71,-199 389.71,-122 85.48,-122" style=""/>
<text text-anchor="middle" x="237.6" y="-182.4" font-family="Times,serif" font-size="14.00" style="">File: evaluate</text>
</g>
<g id="clust3" class="cluster" data-name="cluster_fadcc684">

<polygon fill="none" stroke="black" stroke-dasharray="1,5" points="85.48,-207 85.48,-392 629.48,-392 629.48,-207 85.48,-207" style=""/>
<text text-anchor="middle" x="357.48" y="-375.4" font-family="Times,serif" font-size="14.00" style="">File: ood</text>
</g>
<!-- Legend -->
<g id="node1" class="node" pointer-events="visible" data-name="Legend">

<polygon fill="none" stroke="black" points="1.5,-93 1.5,-111 270.5,-111 270.5,-93 1.5,-93" style=""/>
<text text-anchor="start" x="82.15" y="-97.4" font-family="Times,serif" font-size="14.00" style="">Code2flow Legend</text>
<polygon fill="none" stroke="black" points="1.5,-1 1.5,-93 270.5,-93 270.5,-1 1.5,-1" style=""/>
<polygon fill="none" stroke="black" points="3.5,-69 3.5,-91 218.5,-91 218.5,-69 3.5,-69" style=""/>
<text text-anchor="start" x="63.76" y="-75.4" font-family="Times,serif" font-size="14.00" style="">Regular function</text>
<polygon fill="#cccccc" stroke="none" points="218.5,-69 218.5,-91 268.5,-91 268.5,-69 218.5,-69" style=""/>
<polygon fill="none" stroke="black" points="218.5,-69 218.5,-91 268.5,-91 268.5,-69 218.5,-69" style=""/>
<polygon fill="none" stroke="black" points="3.5,-47 3.5,-69 218.5,-69 218.5,-47 3.5,-47" style=""/>
<text text-anchor="start" x="14.57" y="-53.4" font-family="Times,serif" font-size="14.00" style="">Trunk function (nothing calls this)</text>
<polygon fill="#966f33" stroke="none" points="218.5,-47 218.5,-69 268.5,-69 268.5,-47 218.5,-47" style=""/>
<polygon fill="none" stroke="black" points="218.5,-47 218.5,-69 268.5,-69 268.5,-47 218.5,-47" style=""/>
<polygon fill="none" stroke="black" points="3.5,-25 3.5,-47 218.5,-47 218.5,-25 3.5,-25" style=""/>
<text text-anchor="start" x="6.23" y="-31.4" font-family="Times,serif" font-size="14.00" style="">Leaf function (this calls nothing else)</text>
<polygon fill="#6db33f" stroke="none" points="218.5,-25 218.5,-47 268.5,-47 268.5,-25 218.5,-25" style=""/>
<polygon fill="none" stroke="black" points="218.5,-25 218.5,-47 268.5,-47 268.5,-25 218.5,-25" style=""/>
<polygon fill="none" stroke="black" points="3.5,-3 3.5,-25 218.5,-25 218.5,-3 3.5,-3" style=""/>
<text text-anchor="start" x="74.26" y="-9.4" font-family="Times,serif" font-size="14.00" style="">Function call</text>
<polygon fill="none" stroke="black" points="218.5,-3 218.5,-25 268.5,-25 268.5,-3 218.5,-3" style=""/>
<text text-anchor="start" x="238.25" y="-9.4" font-family="Times,serif" font-size="14.00" style="">→</text>
<polygon fill="none" stroke="black" points="2.5,-2 2.5,-92 269.5,-92 269.5,-2 2.5,-2" style=""/>
<polygon fill="none" stroke="black" points="0,0 0,-112 271,-112 271,0 0,0" style=""/>
</g>
<!-- node_c9a65cf1 -->
<g id="node2" class="node" pointer-events="visible" data-name="node_c9a65cf1">

<path fill="#966f33" stroke="black" d="M165.53,-166C165.53,-166 105.47,-166 105.47,-166 99.47,-166 93.47,-160 93.47,-154 93.47,-154 93.47,-142 93.47,-142 93.47,-136 99.47,-130 105.47,-130 105.47,-130 165.53,-130 165.53,-130 171.53,-130 177.53,-136 177.53,-142 177.53,-142 177.53,-154 177.53,-154 177.53,-160 171.53,-166 165.53,-166" style=""/>
<text text-anchor="middle" x="135.5" y="-143.8" font-family="Times,serif" font-size="14.00" style="">0: (global)()</text>
</g>
<!-- node_c94befa4 -->
<g id="node3" class="node" pointer-events="visible" data-name="node_c94befa4">

<path fill="#6db33f" stroke="black" d="M369.56,-166C369.56,-166 319.15,-166 319.15,-166 313.15,-166 307.15,-160 307.15,-154 307.15,-154 307.15,-142 307.15,-142 307.15,-136 313.15,-130 319.15,-130 319.15,-130 369.56,-130 369.56,-130 375.56,-130 381.56,-136 381.56,-142 381.56,-142 381.56,-154 381.56,-154 381.56,-160 375.56,-166 369.56,-166" style=""/>
<text text-anchor="middle" x="344.35" y="-143.8" font-family="Times,serif" font-size="14.00" style="">16: main()</text>
</g>
<!-- node_c9a65cf1&#45;&gt;node_c94befa4 -->
<g id="edge1" class="edge" data-name="node_c9a65cf1-&gt;node_c94befa4">

<path fill="none" stroke="#e69f00" stroke-width="2" d="M178.02,-148C178.02,-148 293.77,-148 293.77,-148" style=""/>
<polygon fill="#e69f00" stroke="#e69f00" stroke-width="2" points="293.77,-151.5 303.77,-148 293.77,-144.5 293.77,-151.5" style=""/>
</g>
<!-- node_3408fc68 -->
<g id="node4" class="node" pointer-events="visible" data-name="node_3408fc68">

<path fill="#966f33" stroke="black" d="M165.53,-305C165.53,-305 105.47,-305 105.47,-305 99.47,-305 93.47,-299 93.47,-293 93.47,-293 93.47,-281 93.47,-281 93.47,-275 99.47,-269 105.47,-269 105.47,-269 165.53,-269 165.53,-269 171.53,-269 177.53,-275 177.53,-281 177.53,-281 177.53,-293 177.53,-293 177.53,-299 171.53,-305 165.53,-305" style=""/>
<text text-anchor="middle" x="135.5" y="-282.8" font-family="Times,serif" font-size="14.00" style="">0: (global)()</text>
</g>
<!-- node_4c4e7722 -->
<g id="node5" class="node" pointer-events="visible" data-name="node_4c4e7722">

<path fill="#cccccc" stroke="black" d="M369.56,-305C369.56,-305 319.15,-305 319.15,-305 313.15,-305 307.15,-299 307.15,-293 307.15,-293 307.15,-281 307.15,-281 307.15,-275 313.15,-269 319.15,-269 319.15,-269 369.56,-269 369.56,-269 375.56,-269 381.56,-275 381.56,-281 381.56,-281 381.56,-293 381.56,-293 381.56,-299 375.56,-305 369.56,-305" style=""/>
<text text-anchor="middle" x="344.35" y="-282.8" font-family="Times,serif" font-size="14.00" style="">82: main()</text>
</g>
<!-- node_3408fc68&#45;&gt;node_4c4e7722 -->
<g id="edge2" class="edge" data-name="node_3408fc68-&gt;node_4c4e7722">

<path fill="none" stroke="#000000" stroke-width="2" d="M178.02,-287C178.02,-287 293.77,-287 293.77,-287" style=""/>
<polygon fill="#000000" stroke="#000000" stroke-width="2" points="293.77,-290.5 303.77,-287 293.77,-283.5 293.77,-290.5" style=""/>
</g>
<!-- node_ccdedb8c -->
<g id="node6" class="node" pointer-events="visible" data-name="node_ccdedb8c">

<path fill="#6db33f" stroke="black" d="M609.36,-251C609.36,-251 429.82,-251 429.82,-251 423.82,-251 417.82,-245 417.82,-239 417.82,-239 417.82,-227 417.82,-227 417.82,-221 423.82,-215 429.82,-215 429.82,-215 609.36,-215 609.36,-215 615.36,-215 621.36,-221 621.36,-227 621.36,-227 621.36,-239 621.36,-239 621.36,-245 615.36,-251 609.36,-251" style=""/>
<text text-anchor="middle" x="519.59" y="-228.8" font-family="Times,serif" font-size="14.00" style="">47: normalize_embedding_func()</text>
</g>
<!-- node_4c4e7722&#45;&gt;node_ccdedb8c -->
<g id="edge3" class="edge" data-name="node_4c4e7722-&gt;node_ccdedb8c">

<path fill="none" stroke="#56b4e9" stroke-width="2" d="M382.05,-278C403.64,-278 426.48,-278 426.48,-278 426.48,-278 426.48,-264.33 426.48,-264.33" style=""/>
<polygon fill="#56b4e9" stroke="#56b4e9" stroke-width="2" points="429.98,-264.33 426.48,-254.33 422.98,-264.33 429.98,-264.33" style=""/>
</g>
<!-- node_ea966acc -->
<g id="node7" class="node" pointer-events="visible" data-name="node_ea966acc">

<path fill="#6db33f" stroke="black" d="M574.09,-305C574.09,-305 465.09,-305 465.09,-305 459.09,-305 453.09,-299 453.09,-293 453.09,-293 453.09,-281 453.09,-281 453.09,-275 459.09,-269 465.09,-269 465.09,-269 574.09,-269 574.09,-269 580.09,-269 586.09,-275 586.09,-281 586.09,-281 586.09,-293 586.09,-293 586.09,-299 580.09,-305 574.09,-305" style=""/>
<text text-anchor="middle" x="519.59" y="-282.8" font-family="Times,serif" font-size="14.00" style="">34: read_data_func()</text>
</g>
<!-- node_4c4e7722&#45;&gt;node_ea966acc -->
<g id="edge6" class="edge" data-name="node_4c4e7722-&gt;node_ea966acc">

<path fill="none" stroke="#56b4e9" stroke-width="2" d="M381.95,-287C381.95,-287 439.68,-287 439.68,-287" style=""/>
<polygon fill="#56b4e9" stroke="#56b4e9" stroke-width="2" points="439.68,-290.5 449.68,-287 439.68,-283.5 439.68,-290.5" style=""/>
</g>
<!-- node_c3f1c183 -->
<g id="node8" class="node" pointer-events="visible" data-name="node_c3f1c183">

<path fill="#6db33f" stroke="black" d="M592.15,-359C592.15,-359 447.03,-359 447.03,-359 441.03,-359 435.03,-353 435.03,-347 435.03,-347 435.03,-335 435.03,-335 435.03,-329 441.03,-323 447.03,-323 447.03,-323 592.15,-323 592.15,-323 598.15,-323 604.15,-329 604.15,-335 604.15,-335 604.15,-347 604.15,-347 604.15,-353 598.15,-359 592.15,-359" style=""/>
<text text-anchor="middle" x="519.59" y="-336.8" font-family="Times,serif" font-size="14.00" style="">63: select_threshold_func()</text>
</g>
<!-- node_4c4e7722&#45;&gt;node_c3f1c183 -->
<g id="edge9" class="edge" data-name="node_4c4e7722-&gt;node_c3f1c183">

<path fill="none" stroke="#56b4e9" stroke-width="2" d="M381.92,-296C410.33,-296 444.48,-296 444.48,-296 444.48,-296 444.48,-309.67 444.48,-309.67" style=""/>
<polygon fill="#56b4e9" stroke="#56b4e9" stroke-width="2" points="440.98,-309.67 444.48,-319.67 447.98,-309.67 440.98,-309.67" style=""/>
</g>
</g>
</svg>