<?xml version="1.0" standalone="no"?>
<svg xmlns="http://www.w3.org/2000/svg" xmlns:xlink="http://www.w3.org/1999/xlink" width="652pt" height="268pt" viewBox="0.00 0.00 652.48 268.00">
<g id="graph0" class="graph" transform="translate(4,264) scale(1)" data-name="G">

<polygon fill="white" stroke="none" points="-4,4 -4,-264 648.48,-264 648.48,4 -4,4" style=""/>
<g id="clust2" class="cluster" data-name="cluster_b6fe88fa">

<polygon fill="none" stroke="black" stroke-dasharray="1,5" points="85.48,-121 85.48,-252 636.48,-252 636.48,-121 85.48,-121" style=""/>
<text text-anchor="middle" x="360.98" y="-235.4" font-family="Times,serif" font-size="14.00" style="">File: jaccard</text>
</g>
<!-- Legend -->
<g id="node1" class="node" pointer-events="visible" data-name="Legend">

<polygon fill="none" stroke="black" points="1.5,-93 1.5,-111 270.5,-111 270.5,-93 1.5,-93" style=""/>
<text text-anchor="start" x="82.15" y="-97.4" font-family="Times,serif" font-size="14.00" style="">Code2flow Legend</text>
<polygon fill="none" stroke="black" points="1.5,-1 1.5,-93 270.5,-93 270.5,-1 1.5,-1" style=""/>
<polygon fill="none" stroke="black" points="3.5,-69 3.5,-91 218.5,-91 218.5,-69 3.5,-69" style=""/>
<text text-anchor="start" x="63.76" y="-75.4" font-family="Times,serif" font-size="14.00" style="">Regular function</text>
<polygon fill="#cccccc" stroke="none" points="218.5,-69 218.5,-91 268.5,-91 268.5,-69 218.5,-69" style=""/>
<polygon fill="none" stroke="black" points="218.5,-69 218.5,-91 268.5,-91 268.5,-69 218.5,-69" style=""/>
<polygon fill="none" stroke="black" points="3.5,-47 3.5,-69 218.5,-69 218.5,-47 3.5,-47" style=""/>
<text text-anchor="start" x="14.57" y="-53.4" font-family="Times,serif" font-size="14.00" style="">Trunk function (nothing calls this)</text>
<polygon fill="#966f33" stroke="none" points="218.5,-47 218.5,-69 268.5,-69 268.5,-47 218.5,-47" style=""/>
<polygon fill="none" stroke="black" points="218.5,-47 218.5,-69 268.5,-69 268.5,-47 218.5,-47" style=""/>
<polygon fill="none" stroke="black" points="3.5,-25 3.5,-47 218.5,-47 218.5,-25 3.5,-25" style=""/>
<text text-anchor="start" x="6.23" y="-31.4" font-family="Times,serif" font-size="14.00" style="">Leaf function (this calls nothing else)</text>
<polygon fill="#6db33f" stroke="none" points="218.5,-25 218.5,-47 268.5,-47 268.5,-25 218.5,-25" style=""/>
<polygon fill="none" stroke="black" points="218.5,-25 218.5,-47 268.5,-47 268.5,-25 218.5,-25" style=""/>
<polygon fill="none" stroke="black" points="3.5,-3 3.5,-25 218.5,-25 218.5,-3 3.5,-3" style=""/>
<text text-anchor="start" x="74.26" y="-9.4" font-family="Times,serif" font-size="14.00" style="">Function call</text>
<polygon fill="none" stroke="black" points="218.5,-3 218.5,-25 268.5,-25 268.5,-3 218.5,-3" style=""/>
<text text-anchor="start" x="238.25" y="-9.4" font-family="Times,serif" font-size="14.00" style="">→</text>
<polygon fill="none" stroke="black" points="2.5,-2 2.5,-92 269.5,-92 269.5,-2 2.5,-2" style=""/>
<polygon fill="none" stroke="black" points="0,0 0,-112 271,-112 271,0 0,0" style=""/>
</g>
<!-- node_122b68f4 -->
<g id="node2" class="node" pointer-events="visible" data-name="node_122b68f4">

<path fill="#966f33" stroke="black" d="M165.53,-166C165.53,-166 105.47,-166 105.47,-166 99.47,-166 93.47,-160 93.47,-154 93.47,-154 93.47,-142 93.47,-142 93.47,-136 99.47,-130 105.47,-130 105.47,-130 165.53,-130 165.53,-130 171.53,-130 177.53,-136 177.53,-142 177.53,-142 177.53,-154 177.53,-154 177.53,-160 171.53,-166 165.53,-166" style=""/>
<text text-anchor="middle" x="135.5" y="-143.8" font-family="Times,serif" font-size="14.00" style="">0: (global)()</text>
</g>
<!-- node_3798504e -->
<g id="node3" class="node" pointer-events="visible" data-name="node_3798504e">

<path fill="#cccccc" stroke="black" d="M376.56,-166C376.56,-166 319.15,-166 319.15,-166 313.15,-166 307.15,-160 307.15,-154 307.15,-154 307.15,-142 307.15,-142 307.15,-136 313.15,-130 319.15,-130 319.15,-130 376.56,-130 376.56,-130 382.56,-130 388.56,-136 388.56,-142 388.56,-142 388.56,-154 388.56,-154 388.56,-160 382.56,-166 376.56,-166" style=""/>
<text text-anchor="middle" x="347.85" y="-143.8" font-family="Times,serif" font-size="14.00" style="">144: main()</text>
</g>
<!-- node_122b68f4&#45;&gt;node_3798504e -->
<g id="edge1" class="edge" data-name="node_122b68f4-&gt;node_3798504e">

<path fill="none" stroke="#f0e442" stroke-width="2" d="M177.96,-148C177.96,-148 293.88,-148 293.88,-148" style=""/>
<polygon fill="#f0e442" stroke="#f0e442" stroke-width="2" points="293.88,-151.5 303.88,-148 293.88,-144.5 293.88,-151.5" style=""/>
</g>
<!-- node_c25b50aa -->
<g id="node4" class="node" pointer-events="visible" data-name="node_c25b50aa">

<path fill="#6db33f" stroke="black" d="M616.36,-165C616.36,-165 436.82,-165 436.82,-165 430.82,-165 424.82,-159 424.82,-153 424.82,-153 424.82,-141 424.82,-141 424.82,-135 430.82,-129 436.82,-129 436.82,-129 616.36,-129 616.36,-129 622.36,-129 628.36,-135 628.36,-141 628.36,-141 628.36,-153 628.36,-153 628.36,-159 622.36,-165 616.36,-165" style=""/>
<text text-anchor="middle" x="526.59" y="-142.8" font-family="Times,serif" font-size="14.00" style="">45: normalize_embedding_func()</text>
</g>
<!-- node_3798504e&#45;&gt;node_c25b50aa -->
<g id="edge2" class="edge" data-name="node_3798504e-&gt;node_c25b50aa">

<path fill="none" stroke="#d55e00" stroke-width="2" d="M388.86,-147.5C388.86,-147.5 411.35,-147.5 411.35,-147.5" style=""/>
<polygon fill="#d55e00" stroke="#d55e00" stroke-width="2" points="411.35,-151 421.35,-147.5 411.35,-144 411.35,-151" style=""/>
</g>
<!-- node_1216f052 -->
<g id="node5" class="node" pointer-events="visible" data-name="node_1216f052">

<path fill="#6db33f" stroke="black" d="M581.09,-219C581.09,-219 472.09,-219 472.09,-219 466.09,-219 460.09,-213 460.09,-207 460.09,-207 460.09,-195 460.09,-195 460.09,-189 466.09,-183 472.09,-183 472.09,-183 581.09,-183 581.09,-183 587.09,-183 593.09,-189 593.09,-195 593.09,-195 593.09,-207 593.09,-207 593.09,-213 587.09,-219 581.09,-219" style=""/>
<text text-anchor="middle" x="526.59" y="-196.8" font-family="Times,serif" font-size="14.00" style="">33: read_data_func()</text>
</g>
<!-- node_3798504e&#45;&gt;node_1216f052 -->
<g id="edge4" class="edge" data-name="node_3798504e-&gt;node_1216f052">

<path fill="none" stroke="#d55e00" stroke-width="2" d="M348.48,-166.24C348.48,-181.57 348.48,-201 348.48,-201 348.48,-201 446.73,-201 446.73,-201" style=""/>
<polygon fill="#d55e00" stroke="#d55e00" stroke-width="2" points="446.73,-204.5 456.73,-201 446.73,-197.5 446.73,-204.5" style=""/>
</g>
</g>
</svg>