<?xml version="1.0" standalone="no"?>
<svg xmlns="http://www.w3.org/2000/svg" xmlns:xlink="http://www.w3.org/1999/xlink" width="494pt" height="429pt" viewBox="0.00 0.00 494.35 429.00">
<g id="graph0" class="graph" transform="translate(4,425) scale(1)" data-name="G">

<polygon fill="white" stroke="none" points="-4,4 -4,-425 490.35,-425 490.35,4 -4,4" style=""/>
<g id="clust2" class="cluster" data-name="cluster_1067899e">

<polygon fill="none" stroke="black" stroke-dasharray="1,5" points="85.48,-120 85.48,-413 478.35,-413 478.35,-120 85.48,-120" style=""/>
<text text-anchor="middle" x="281.92" y="-396.4" font-family="Times,serif" font-size="14.00" style="">File: jaccard_coefficients</text>
</g>
<!-- Legend -->
<g id="node1" class="node" pointer-events="visible" data-name="Legend">

<polygon fill="none" stroke="black" points="1.5,-93 1.5,-111 270.5,-111 270.5,-93 1.5,-93" style=""/>
<text text-anchor="start" x="82.15" y="-97.4" font-family="Times,serif" font-size="14.00" style="">Code2flow Legend</text>
<polygon fill="none" stroke="black" points="1.5,-1 1.5,-93 270.5,-93 270.5,-1 1.5,-1" style=""/>
<polygon fill="none" stroke="black" points="3.5,-69 3.5,-91 218.5,-91 218.5,-69 3.5,-69" style=""/>
<text text-anchor="start" x="63.76" y="-75.4" font-family="Times,serif" font-size="14.00" style="">Regular function</text>
<polygon fill="#cccccc" stroke="none" points="218.5,-69 218.5,-91 268.5,-91 268.5,-69 218.5,-69" style=""/>
<polygon fill="none" stroke="black" points="218.5,-69 218.5,-91 268.5,-91 268.5,-69 218.5,-69" style=""/>
<polygon fill="none" stroke="black" points="3.5,-47 3.5,-69 218.5,-69 218.5,-47 3.5,-47" style=""/>
<text text-anchor="start" x="14.57" y="-53.4" font-family="Times,serif" font-size="14.00" style="">Trunk function (nothing calls this)</text>
<polygon fill="#966f33" stroke="none" points="218.5,-47 218.5,-69 268.5,-69 268.5,-47 218.5,-47" style=""/>
<polygon fill="none" stroke="black" points="218.5,-47 218.5,-69 268.5,-69 268.5,-47 218.5,-47" style=""/>
<polygon fill="none" stroke="black" points="3.5,-25 3.5,-47 218.5,-47 218.5,-25 3.5,-25" style=""/>
<text text-anchor="start" x="6.23" y="-31.4" font-family="Times,serif" font-size="14.00" style="">Leaf function (this calls nothing else)</text>
<polygon fill="#6db33f" stroke="none" points="218.5,-25 218.5,-47 268.5,-47 268.5,-25 218.5,-25" style=""/>
<polygon fill="none" stroke="black" points="218.5,-25 218.5,-47 268.5,-47 268.5,-25 218.5,-25" style=""/>
<polygon fill="none" stroke="black" points="3.5,-3 3.5,-25 218.5,-25 218.5,-3 3.5,-3" style=""/>
<text text-anchor="start" x="74.26" y="-9.4" font-family="Times,serif" font-size="14.00" style="">Function call</text>
<polygon fill="none" stroke="black" points="218.5,-3 218.5,-25 268.5,-25 268.5,-3 218.5,-3" style=""/>
<text text-anchor="start" x="238.25" y="-9.4" font-family="Times,serif" font-size="14.00" style="">→</text>
<polygon fill="none" stroke="black" points="2.5,-2 2.5,-92 269.5,-92 269.5,-2 2.5,-2" style=""/>
<polygon fill="none" stroke="black" points="0,0 0,-112 271,-112 271,0 0,0" style=""/>
</g>
<!-- node_a40ef9d6 -->
<g id="node2" class="node" pointer-events="visible" data-name="node_a40ef9d6">

<path fill="#966f33" stroke="black" d="M165.53,-272C165.53,-272 105.47,-272 105.47,-272 99.47,-272 93.47,-266 93.47,-260 93.47,-260 93.47,-248 93.47,-248 93.47,-242 99.47,-236 105.47,-236 105.47,-236 165.53,-236 165.53,-236 171.53,-236 177.53,-242 177.53,-248 177.53,-248 177.53,-260 177.53,-260 177.53,-266 171.53,-272 165.53,-272" style=""/>
<text text-anchor="middle" x="135.5" y="-249.8" font-family="Times,serif" font-size="14.00" style="">0: (global)()</text>
</g>
<!-- node_03cc216e -->
<g id="node3" class="node" pointer-events="visible" data-name="node_03cc216e">

<path fill="#6db33f" stroke="black" d="M437.52,-164C437.52,-164 339.83,-164 339.83,-164 333.83,-164 327.83,-158 327.83,-152 327.83,-152 327.83,-140 327.83,-140 327.83,-134 333.83,-128 339.83,-128 339.83,-128 437.52,-128 437.52,-128 443.52,-128 449.52,-134 449.52,-140 449.52,-140 449.52,-152 449.52,-152 449.52,-158 443.52,-164 437.52,-164" style=""/>
<text text-anchor="middle" x="388.67" y="-141.8" font-family="Times,serif" font-size="14.00" style="">59: calculate_iou()</text>
</g>
<!-- node_a40ef9d6&#45;&gt;node_03cc216e -->
<g id="edge1" class="edge" data-name="node_a40ef9d6-&gt;node_03cc216e">

<path fill="none" stroke="#d55e00" stroke-width="2" d="M122.35,-235.68C122.35,-204.87 122.35,-146 122.35,-146 122.35,-146 314.55,-146 314.55,-146" style=""/>
<polygon fill="#d55e00" stroke="#d55e00" stroke-width="2" points="314.55,-149.5 324.55,-146 314.55,-142.5 314.55,-149.5" style=""/>
</g>
<!-- node_7984ac35 -->
<g id="node4" class="node" pointer-events="visible" data-name="node_7984ac35">

<path fill="#6db33f" stroke="black" d="M437.53,-218C437.53,-218 339.82,-218 339.82,-218 333.82,-218 327.82,-212 327.82,-206 327.82,-206 327.82,-194 327.82,-194 327.82,-188 333.82,-182 339.82,-182 339.82,-182 437.53,-182 437.53,-182 443.53,-182 449.53,-188 449.53,-194 449.53,-194 449.53,-206 449.53,-206 449.53,-212 443.53,-218 437.53,-218" style=""/>
<text text-anchor="middle" x="388.67" y="-195.8" font-family="Times,serif" font-size="14.00" style="">93: filter_entities()</text>
</g>
<!-- node_a40ef9d6&#45;&gt;node_7984ac35 -->
<g id="edge2" class="edge" data-name="node_a40ef9d6-&gt;node_7984ac35">

<path fill="none" stroke="#d55e00" stroke-width="2" d="M150.35,-235.72C150.35,-220.05 150.35,-200 150.35,-200 150.35,-200 314.58,-200 314.58,-200" style=""/>
<polygon fill="#d55e00" stroke="#d55e00" stroke-width="2" points="314.58,-203.5 324.58,-200 314.58,-196.5 314.58,-203.5" style=""/>
</g>
<!-- node_423e6bed -->
<g id="node5" class="node" pointer-events="visible" data-name="node_423e6bed">

<path fill="#6db33f" stroke="black" d="M458.52,-272C458.52,-272 318.83,-272 318.83,-272 312.83,-272 306.83,-266 306.83,-260 306.83,-260 306.83,-248 306.83,-248 306.83,-242 312.83,-236 318.83,-236 318.83,-236 458.52,-236 458.52,-236 464.52,-236 470.52,-242 470.52,-248 470.52,-248 470.52,-260 470.52,-260 470.52,-266 464.52,-272 458.52,-272" style=""/>
<text text-anchor="middle" x="388.67" y="-249.8" font-family="Times,serif" font-size="14.00" style="">42: find_correct_outputs()</text>
</g>
<!-- node_a40ef9d6&#45;&gt;node_423e6bed -->
<g id="edge3" class="edge" data-name="node_a40ef9d6-&gt;node_423e6bed">

<path fill="none" stroke="#d55e00" stroke-width="2" d="M177.88,-254C177.88,-254 293.41,-254 293.41,-254" style=""/>
<polygon fill="#d55e00" stroke="#d55e00" stroke-width="2" points="293.41,-257.5 303.41,-254 293.41,-250.5 293.41,-257.5" style=""/>
</g>
<!-- node_3ebfdde4 -->
<g id="node6" class="node" pointer-events="visible" data-name="node_3ebfdde4">

<path fill="#6db33f" stroke="black" d="M439.99,-326C439.99,-326 337.36,-326 337.36,-326 331.36,-326 325.36,-320 325.36,-314 325.36,-314 325.36,-302 325.36,-302 325.36,-296 331.36,-290 337.36,-290 337.36,-290 439.99,-290 439.99,-290 445.99,-290 451.99,-296 451.99,-302 451.99,-302 451.99,-314 451.99,-314 451.99,-320 445.99,-326 439.99,-326" style=""/>
<text text-anchor="middle" x="388.67" y="-303.8" font-family="Times,serif" font-size="14.00" style="">77: load_mapping()</text>
</g>
<!-- node_a40ef9d6&#45;&gt;node_3ebfdde4 -->
<g id="edge5" class="edge" data-name="node_a40ef9d6-&gt;node_3ebfdde4">

<path fill="none" stroke="#d55e00" stroke-width="2" d="M150.35,-272.28C150.35,-287.95 150.35,-308 150.35,-308 150.35,-308 312.09,-308 312.09,-308" style=""/>
<polygon fill="#d55e00" stroke="#d55e00" stroke-width="2" points="312.09,-311.5 322.09,-308 312.09,-304.5 312.09,-311.5" style=""/>
</g>
<!-- node_bacb8bbe -->
<g id="node7" class="node" pointer-events="visible" data-name="node_bacb8bbe">

<path fill="#6db33f" stroke="black" d="M425.13,-380C425.13,-380 352.21,-380 352.21,-380 346.21,-380 340.21,-374 340.21,-368 340.21,-368 340.21,-356 340.21,-356 340.21,-350 346.21,-344 352.21,-344 352.21,-344 425.13,-344 425.13,-344 431.13,-344 437.13,-350 437.13,-356 437.13,-356 437.13,-368 437.13,-368 437.13,-374 431.13,-380 425.13,-380" style=""/>
<text text-anchor="middle" x="388.67" y="-357.8" font-family="Times,serif" font-size="14.00" style="">26: read_file()</text>
</g>
<!-- node_a40ef9d6&#45;&gt;node_bacb8bbe -->
<g id="edge6" class="edge" data-name="node_a40ef9d6-&gt;node_bacb8bbe">

<path fill="none" stroke="#d55e00" stroke-width="2" d="M122.35,-272.32C122.35,-303.13 122.35,-362 122.35,-362 122.35,-362 326.8,-362 326.8,-362" style=""/>
<polygon fill="#d55e00" stroke="#d55e00" stroke-width="2" points="326.8,-365.5 336.8,-362 326.8,-358.5 326.8,-365.5" style=""/>
</g>
</g>
</svg>