<svg xmlns="http://www.w3.org/2000/svg" xmlns:xlink="http://www.w3.org/1999/xlink" xmlns:lucid="lucid" width="1823" height="1762.5"><g transform="translate(-170.41666666666674 410.66666666666674)" lucid:page-tab-id="0_0"><path d="M0-500h2000v2000H0z" fill="#fff"/><path d="M191.92-89.17v-294a6 6 0 0 1 6-6h41v300z" stroke="#3a414a" stroke-width="3" fill="#cbc2a3"/><path d="M191.92-89.17h47v480h-47z" stroke="#3a414a" stroke-width="3" fill="#6db1ff"/><path d="M238.92 910.83h-41a6 6 0 0 1-6-6v-514h47z" stroke="#3a414a" stroke-width="3" fill="#00c2a8"/><path d="M238.92-389.17h1727a6 6 0 0 1 6 6v294h-1733zM238.92-89.17h1733v480h-1733z" stroke="#3a414a" stroke-width="3" fill="none"/><path d="M1971.92 390.83v514a6 6 0 0 1-6 6h-1727v-520z" stroke="#3a414a" stroke-width="3" fill="none"/><use xlink:href="#a" transform="matrix(-1.8369701987210297e-16,-1,1,-1.8369701987210297e-16,191.91666666666674,-89.16666666666674) translate(33.074074074074105 28.833333333333332)"/><use xlink:href="#b" transform="matrix(-1.8369701987210297e-16,-1,1,-1.8369701987210297e-16,191.91666666666674,-89.16666666666674) translate(175.14814814814815 28.833333333333332)"/><use xlink:href="#c" transform="matrix(-1.8369701987210297e-16,-1,1,-1.8369701987210297e-16,191.91666666666674,390.83333333333326) translate(106.7777777777778 29.333333333333332)"/><use xlink:href="#d" transform="matrix(-1.8369701987210297e-16,-1,1,-1.8369701987210297e-16,191.91666666666674,390.83333333333326) translate(225.22222222222223 29.333333333333332)"/><use xlink:href="#e" transform="matrix(-1.8369701987210297e-16,-1,1,-1.8369701987210297e-16,191.91666666666674,910.8333333333333) translate(170.51851851851853 28.833333333333332)"/><use xlink:href="#f" transform="matrix(-1.8369701987210297e-16,-1,1,-1.8369701987210297e-16,191.91666666666674,910.8333333333333) translate(250.37037037037038 28.833333333333332)"/><path d="M891.92 1026.83a16 16 0 0 1 16-16h421.9a16 16 0 0 1 16 16v288a16 16 0 0 1-16 16H907.9a16 16 0 0 1-16-16z" stroke="#4c535d" stroke-width="2" fill="#fff"/><path d="M986.17 1125.28c0 11.15-9.05 20.2-20.2 20.2-11.15 0-20.2-9.05-20.2-20.2 0-11.15 9.05-20.2 20.2-20.2 11.15 0 20.2 9.05 20.2 20.2z" stroke="#000" stroke-opacity=".25" fill="#6db1ff"/><path d="M986.17 1188.1c0 11.17-9.05 20.2-20.2 20.2-11.15 0-20.2-9.03-20.2-20.2 0-11.14 9.05-20.18 20.2-20.18 11.15 0 20.2 9.04 20.2 20.2z" stroke="#000" stroke-opacity=".25" fill="#00c2a8"/><path d="M986.17 1250.95c0 11.15-9.05 20.2-20.2 20.2-11.15 0-20.2-9.05-20.2-20.2 0-11.16 9.05-20.2 20.2-20.2 11.15 0 20.2 9.04 20.2 20.2z" stroke="#000" stroke-opacity=".25" fill="#cbc2a3"/><use xlink:href="#g" transform="matrix(1,0,0,1,945.7736091631605,1051.2260402057036) translate(0 19.555555555555557)"/><use xlink:href="#h" transform="matrix(1,0,0,1,945.7736091631605,1051.2260402057036) translate(101.78395061728398 19.555555555555557)"/><use xlink:href="#i" transform="matrix(1,0,0,1,945.7736091631605,1051.2260402057036) translate(157.3271604938272 19.555555555555557)"/><use xlink:href="#j" transform="matrix(1,0,0,1,1006.3626694717159,1105.0829827021973) translate(0 29.88888888888889)"/><use xlink:href="#k" transform="matrix(1,0,0,1,1006.3626694717159,1105.0829827021973) translate(122.15432098765436 29.88888888888889)"/><use xlink:href="#l" transform="matrix(1,0,0,1,1006.3626694717159,1167.91608228144) translate(0 29.88888888888889)"/><use xlink:href="#m" transform="matrix(1,0,0,1,1006.3626694717159,1167.91608228144) translate(73.19753086419755 29.88888888888889)"/><use xlink:href="#n" transform="matrix(1,0,0,1,1006.3626694717159,1230.7491818606827) translate(0 30.522222222222222)"/><use xlink:href="#o" transform="matrix(1,0,0,1,1006.3626694717159,1230.7491818606827) translate(133.78641975308642 30.522222222222222)"/><path d="M632.3 154.17a8 8 0 0 1 8-8h144.37a8 8 0 0 1 8 8v104a8 8 0 0 1-8 8H640.3a8 8 0 0 1-8-8z" stroke="#3a414a" stroke-width="2" fill="#cfe4ff"/><use xlink:href="#p" transform="matrix(1,0,0,1,637.851752603589,151.72798119925287) translate(45.22222222222223 45.47883333333333)"/><use xlink:href="#q" transform="matrix(1,0,0,1,637.851752603589,151.72798119925287) translate(38.777777777777786 77.47883333333333)"/><path d="M1351.92-25.83a8 8 0 0 1 8-8h144.37a8 8 0 0 1 8 8v104a8 8 0 0 1-8 8H1359.9a8 8 0 0 1-8-8z" stroke="#3a414a" stroke-width="2" fill="#cfe4ff"/><use xlink:href="#r" transform="matrix(1,0,0,1,1357.4776666666667,-28.27201880074714) translate(50.592592592592595 45.47883333333333)"/><use xlink:href="#s" transform="matrix(1,0,0,1,1357.4776666666667,-28.27201880074714) translate(38.777777777777786 77.47883333333333)"/><path d="M1351.92 154.17a8 8 0 0 1 8-8h144.37a8 8 0 0 1 8 8v104a8 8 0 0 1-8 8H1359.9a8 8 0 0 1-8-8z" stroke="#3a414a" stroke-width="2" fill="#cfe4ff"/><use xlink:href="#t" transform="matrix(1,0,0,1,1357.4776666666667,151.72798119925287) translate(19.48148148148149 45.68733333333333)"/><use xlink:href="#u" transform="matrix(1,0,0,1,1357.4776666666667,151.72798119925287) translate(1.0000000000000107 77.68733333333333)"/><path d="M475.3 150.64h8a12 12 0 0 1 12 12v31.53a12 12 0 0 0 12 12h101.25" stroke="#008573" stroke-width="4" fill="none"/><path d="M475.34 152.6h-2.05v-3.94h2.04z" stroke="#008573" stroke-width=".05" fill="#008573"/><path d="M624.82 206.17l-14.27 4.63v-9.27z" stroke="#008573" stroke-width="4" fill="#008573"/><path d="M291.92 87.97a8 8 0 0 1 8-8h146.33a8 8 0 0 1 8 8V200.1c-27.1-20.06-44-20.06-54.22-20.06-16.23 0-37.82 20.06-54.05 20.06-10.07 0-27.12 0-54.06-20.06z" stroke="#3a414a" stroke-width="2" fill="#fff7a1"/><path d="M300.94 98.57a8 8 0 0 1 8-8h146.33a8 8 0 0 1 8 8V210.7c-27.1-20.06-44-20.06-54.22-20.06-16.23 0-37.82 20.07-54.06 20.07-10.07 0-27.12 0-54.06-20.06z" stroke="#3a414a" stroke-width="2" fill="#fff7a1"/><path d="M309.95 109.17a8 8 0 0 1 8-8H464.3a8 8 0 0 1 8 8V221.3c-27.12-20.06-44-20.06-54.23-20.06-16.23 0-37.82 20.06-54.06 20.06-10.05 0-27.1 0-54.05-20.06z" stroke="#3a414a" stroke-width="2" fill="#fff7a1"/><use xlink:href="#v" transform="matrix(1,0,0,1,314.954075260359,106.17286574397738) translate(36.469444444444456 50.66041666666666)"/><path d="M851.92 76.9a8 8 0 0 1 8-8h303.62a8 8 0 0 1 8 8v266.04c-53.38-45.76-86.62-45.76-106.75-45.76-31.97 0-74.48 45.76-106.45 45.76-19.82 0-53.38 0-106.43-45.76z" stroke="#3a414a" stroke-width="2" fill="#ffd9d9"/><use xlink:href="#w" transform="matrix(1,0,0,1,857.477666666667,74.46805360075766) translate(13.314814814814863 52.29133333333333)"/><use xlink:href="#x" transform="matrix(1,0,0,1,857.477666666667,74.46805360075766) translate(109.90740740740743 52.29133333333333)"/><use xlink:href="#y" transform="matrix(1,0,0,1,857.477666666667,74.46805360075766) translate(210.5 52.29133333333333)"/><use xlink:href="#z" transform="matrix(1,0,0,1,857.477666666667,74.46805360075766) translate(24.425925925925977 84.29133333333333)"/><use xlink:href="#A" transform="matrix(1,0,0,1,857.477666666667,74.46805360075766) translate(135.3888888888889 84.29133333333333)"/><use xlink:href="#B" transform="matrix(1,0,0,1,857.477666666667,74.46805360075766) translate(195.9814814814815 84.29133333333333)"/><use xlink:href="#C" transform="matrix(1,0,0,1,857.477666666667,74.46805360075766) translate(45.72222222222226 116.29133333333333)"/><use xlink:href="#D" transform="matrix(1,0,0,1,857.477666666667,74.46805360075766) translate(144.83333333333334 116.29133333333333)"/><use xlink:href="#E" transform="matrix(1,0,0,1,857.477666666667,74.46805360075766) translate(218.83333333333331 116.29133333333333)"/><use xlink:href="#F" transform="matrix(1,0,0,1,857.477666666667,74.46805360075766) translate(27.277777777777825 148.29133333333334)"/><use xlink:href="#G" transform="matrix(1,0,0,1,857.477666666667,74.46805360075766) translate(190.01851851851853 148.29133333333334)"/><use xlink:href="#H" transform="matrix(1,0,0,1,857.477666666667,74.46805360075766) translate(72.35185185185189 180.29133333333334)"/><path d="M795.66 206.17h26.5a.12.12 0 0 0 .13-.13.12.12 0 0 1 .1-.12h5.78" stroke="#008573" stroke-width="4" fill="none"/><path d="M795.72 208.14h-2.06v-3.95h2.06z" stroke="#008573" stroke-width=".05" fill="#008573"/><path d="M844.45 205.92l-14.27 4.64v-9.27z" stroke="#008573" stroke-width="4" fill="#008573"/><path d="M1174.54 206.17h153.64" stroke="#008573" stroke-width="4" fill="none"/><path d="M1174.6 208.14h-2.06v-3.95h2.05z" stroke="#008573" stroke-width=".05" fill="#008573"/><path d="M1344.44 206.17l-14.26 4.63v-9.27z" stroke="#008573" stroke-width="4" fill="#008573"/><path d="M1591.92-25.83a8 8 0 0 1 8-8h182a8 8 0 0 1 8 8v128c-33.07-22.72-53.66-22.72-66.13-22.72-19.82 0-46.15 22.72-65.95 22.72-12.27 0-33.06 0-65.93-22.72z" stroke="#3a414a" stroke-width="2" fill="#fff7a1"/><path d="M1602.92-13.83a8 8 0 0 1 8-8h182a8 8 0 0 1 8 8v128c-33.07-22.72-53.66-22.72-66.13-22.72-19.82 0-46.15 22.72-65.95 22.72-12.27 0-33.06 0-65.93-22.72z" stroke="#3a414a" stroke-width="2" fill="#fff7a1"/><path d="M1613.92-1.83a8 8 0 0 1 8-8h182a8 8 0 0 1 8 8v128c-33.07-22.72-53.66-22.72-66.13-22.72-19.82 0-46.15 22.72-65.95 22.72-12.27 0-33.06 0-65.93-22.72z" stroke="#3a414a" stroke-width="2" fill="#fff7a1"/><use xlink:href="#I" transform="matrix(1,0,0,1,1618.9166666666667,-4.833018800747137) translate(24.500925925925955 25.066666666666663)"/><use xlink:href="#J" transform="matrix(1,0,0,1,1618.9166666666667,-4.833018800747137) translate(8.747222222222248 62.66666666666666)"/><use xlink:href="#K" transform="matrix(1,0,0,1,1618.9166666666667,-4.833018800747137) translate(69.67314814814816 62.66666666666666)"/><use xlink:href="#L" transform="matrix(1,0,0,1,1618.9166666666667,-4.833018800747137) translate(23.630555555555574 100.26666666666665)"/><use xlink:href="#M" transform="matrix(1,0,0,1,1618.9166666666667,-4.833018800747137) translate(108.8398148148148 100.26666666666665)"/><path d="M1591.92 154.17a8 8 0 0 1 8-8h182a8 8 0 0 1 8 8V267.7c-33.07-20.3-53.66-20.3-66.13-20.3-19.82 0-46.15 20.3-65.95 20.3-12.27 0-33.06 0-65.93-20.3z" stroke="#3a414a" stroke-width="2" fill="#fff7a1"/><path d="M1602.92 164.9a8 8 0 0 1 8-8h182a8 8 0 0 1 8 8V278.4c-33.07-20.3-53.66-20.3-66.13-20.3-19.82 0-46.15 20.3-65.95 20.3-12.27 0-33.06 0-65.93-20.3z" stroke="#3a414a" stroke-width="2" fill="#fff7a1"/><path d="M1613.92 175.6a8 8 0 0 1 8-8h182a8 8 0 0 1 8 8v113.55c-33.07-20.3-53.66-20.3-66.13-20.3-19.82 0-46.15 20.3-65.95 20.3-12.27 0-33.06 0-65.93-20.3z" stroke="#3a414a" stroke-width="2" fill="#fff7a1"/><use xlink:href="#N" transform="matrix(1,0,0,1,1618.9166666666667,172.61391323440463) translate(7.050000000000026 52.266666666666666)"/><path d="M293.42-223.6a8 8 0 0 1 8-8h144a8 8 0 0 1 8 8v50.2a8 8 0 0 1-8 8h-144a8 8 0 0 1-8-8z" stroke="#3a414a" stroke-width="2" fill="#e8e2c8"/><use xlink:href="#O" transform="matrix(1,0,0,1,298.9800708005833,-226.03672573005107) translate(7.166666666666682 35.187333333333335)"/><path d="M373.42-162.4V56.22" stroke="#008573" stroke-width="4" fill="none"/><path d="M375.4-162.35h-3.96v-2.05h3.95z" stroke="#008573" stroke-width=".05" fill="#008573"/><path d="M373.42 72.5l-4.64-14.27h9.27z" stroke="#008573" stroke-width="4" fill="#008573"/><path d="M1515.3 206.17h36.78a.03.03 0 0 0 .02-.03.03.03 0 0 1 .03-.02h16.05" stroke="#008573" stroke-width="4" fill="none"/><path d="M1515.34 208.14h-2.05v-3.95h2.04z" stroke="#008573" stroke-width=".05" fill="#008573"/><path d="M1584.44 206.12l-14.26 4.63v-9.27z" stroke="#008573" stroke-width="4" fill="#008573"/><path d="M1174.54 206.17h75.2a12 12 0 0 0 12-12V35.27a12 12 0 0 1 12-12h54.44" stroke="#008573" stroke-width="4" fill="none"/><path d="M1174.6 208.14h-2.06v-3.95h2.05z" stroke="#008573" stroke-width=".05" fill="#008573"/><path d="M1344.44 23.28l-14.26 4.63v-9.26z" stroke="#008573" stroke-width="4" fill="#008573"/><path d="M1515.3 26.17h36.76a.04.04 0 0 0 .04-.05.04.04 0 0 1 .05-.04h16.03" stroke="#008573" stroke-width="4" fill="none"/><path d="M1515.34 28.14h-2.05V24.2h2.04z" stroke="#008573" stroke-width=".05" fill="#008573"/><path d="M1584.44 26.08l-14.26 4.63v-9.26z" stroke="#008573" stroke-width="4" fill="#008573"/><path d="M475.3 150.84h7a12 12 0 0 0 12-12V4.1a12 12 0 0 1 12-12h821.88" stroke="#008573" stroke-width="4" fill="none"/><path d="M475.34 152.8h-2.05v-3.94h2.04z" stroke="#008573" stroke-width=".05" fill="#008573"/><path d="M1344.44-7.9l-14.26 4.64v-9.27z" stroke="#008573" stroke-width="4" fill="#008573"/><path d="M851.92-261.17a8 8 0 0 1 8-8h146.33a8 8 0 0 1 8 8v112.14c-27.1-20.07-44-20.07-54.22-20.07-16.23 0-37.82 20.06-54.05 20.06-10.07 0-27.12 0-54.06-20.06z" stroke="#3a414a" stroke-width="2" fill="#fff7a1"/><path d="M860.93-250.57a8 8 0 0 1 8-8h146.34a8 8 0 0 1 8 8v112.13c-27.1-20.06-44-20.06-54.22-20.06-16.23 0-37.82 20.06-54.06 20.06-10.07 0-27.12 0-54.07-20.06z" stroke="#3a414a" stroke-width="2" fill="#fff7a1"/><path d="M869.95-239.97a8 8 0 0 1 8-8h146.34a8 8 0 0 1 8 8v112.14c-27.12-20.07-44-20.07-54.23-20.07-16.23 0-37.82 20.07-54.06 20.07-10.05 0-27.1 0-54.05-20.07z" stroke="#3a414a" stroke-width="2" fill="#fff7a1"/><use xlink:href="#P" transform="matrix(1,0,0,1,874.9540752603592,-242.96690243222432) translate(0.8712962962963218 50.66041666666666)"/><use xlink:href="#Q" transform="matrix(1,0,0,1,874.9540752603592,-242.96690243222432) translate(72.06759259259259 50.66041666666666)"/><path d="M848.92-198.3H477.16" stroke="#008a0e" stroke-width="4" fill="none"/><path d="M850.92-196.33h-2.05v-3.95h2.05z" stroke="#008a0e" stroke-width=".05" fill="#008a0e"/><path d="M460.9-198.3l14.26-4.64v9.27z" stroke="#008a0e" stroke-width="4" fill="#008a0e"/><path d="M551.92-361.17a8 8 0 0 1 8-8h1184a8 8 0 0 1 8 8v44a8 8 0 0 1-8 8h-1184a8 8 0 0 1-8-8z" fill="none"/><use xlink:href="#R" transform="matrix(1,0,0,1,551.9166666666667,-369.16666666666674) translate(3.127777777777779 36.71111111111111)"/><use xlink:href="#S" transform="matrix(1,0,0,1,551.9166666666667,-369.16666666666674) translate(23.68987654320987 36.71111111111111)"/><use xlink:href="#T" transform="matrix(1,0,0,1,551.9166666666667,-369.16666666666674) translate(105.52814814814812 36.71111111111111)"/><use xlink:href="#U" transform="matrix(1,0,0,1,551.9166666666667,-369.16666666666674) translate(345.5435802469135 36.71111111111111)"/><use xlink:href="#V" transform="matrix(1,0,0,1,551.9166666666667,-369.16666666666674) translate(382.82753086419746 36.71111111111111)"/><use xlink:href="#W" transform="matrix(1,0,0,1,551.9166666666667,-369.16666666666674) translate(526.091111111111 36.71111111111111)"/><use xlink:href="#X" transform="matrix(1,0,0,1,551.9166666666667,-369.16666666666674) translate(604.2009876543209 36.71111111111111)"/><use xlink:href="#Y" transform="matrix(1,0,0,1,551.9166666666667,-369.16666666666674) translate(658.0762962962962 36.71111111111111)"/><use xlink:href="#Z" transform="matrix(1,0,0,1,551.9166666666667,-369.16666666666674) translate(760.3275308641973 36.71111111111111)"/><use xlink:href="#aa" transform="matrix(1,0,0,1,551.9166666666667,-369.16666666666674) translate(987.2935802469133 36.71111111111111)"/><path d="M531.92 498.83a8 8 0 0 1 8-8h204a8 8 0 0 1 8 8v124a8 8 0 0 1-8 8h-204a8 8 0 0 1-8-8z" stroke="#3a414a" stroke-width="2" fill="#b8f5ed"/><g><use xlink:href="#ab" transform="matrix(1,0,0,1,537.4776666666668,496.39433333333324) translate(76.38888888888889 53.26008333333333)"/><use xlink:href="#ac" transform="matrix(1,0,0,1,537.4776666666668,496.39433333333324) translate(14.240740740740744 85.26008333333333)"/></g><path d="M991.92 498.83a8 8 0 0 1 8-8h204a8 8 0 0 1 8 8v124a8 8 0 0 1-8 8h-204a8 8 0 0 1-8-8z" stroke="#3a414a" stroke-width="2" fill="#b8f5ed"/><g><use xlink:href="#ab" transform="matrix(1,0,0,1,997.4776666666668,496.39433333333324) translate(76.38888888888889 53.26008333333333)"/><use xlink:href="#ad" transform="matrix(1,0,0,1,997.4776666666668,496.39433333333324) translate(38.01851851851853 85.26008333333333)"/></g><path d="M1431.92 498.83a8 8 0 0 1 8-8h204a8 8 0 0 1 8 8v124a8 8 0 0 1-8 8h-204a8 8 0 0 1-8-8z" stroke="#3a414a" stroke-width="2" fill="#b8f5ed"/><g><use xlink:href="#ae" transform="matrix(1,0,0,1,1437.4776666666667,496.39433333333324) translate(21.722222222222225 69.38508333333333)"/><use xlink:href="#af" transform="matrix(1,0,0,1,1437.4776666666667,496.39433333333324) translate(88.16666666666669 69.38508333333333)"/></g><path d="M756.46 730.63c32.9 0 59.6 26.7 59.6 59.6 0 32.92-26.7 59.6-59.6 59.6H542.14c-32.92 0-59.6-26.68-59.6-59.6 0-32.9 26.68-59.6 59.6-59.6z" stroke="#3a414a" stroke-width="3" fill="#c3f7c8"/><g><use xlink:href="#ag" transform="matrix(1,0,0,1,487.53774757644055,735.6333333333332) translate(26.50962962962965 30.04583333333333)"/><use xlink:href="#ah" transform="matrix(1,0,0,1,487.53774757644055,735.6333333333332) translate(116.68 30.04583333333333)"/><use xlink:href="#ai" transform="matrix(1,0,0,1,487.53774757644055,735.6333333333332) translate(209.79666666666665 30.04583333333333)"/><use xlink:href="#aj" transform="matrix(1,0,0,1,487.53774757644055,735.6333333333332) translate(276.9448148148148 30.04583333333333)"/><use xlink:href="#ak" transform="matrix(1,0,0,1,487.53774757644055,735.6333333333332) translate(19.618518518518556 59.64583333333333)"/><use xlink:href="#al" transform="matrix(1,0,0,1,487.53774757644055,735.6333333333332) translate(74.43333333333337 59.64583333333333)"/><use xlink:href="#am" transform="matrix(1,0,0,1,487.53774757644055,735.6333333333332) translate(238.6722222222222 59.64583333333333)"/><use xlink:href="#an" transform="matrix(1,0,0,1,487.53774757644055,735.6333333333332) translate(266.0796296296296 59.64583333333333)"/><use xlink:href="#ao" transform="matrix(1,0,0,1,487.53774757644055,735.6333333333332) translate(67.82629629629632 89.24583333333332)"/><use xlink:href="#ap" transform="matrix(1,0,0,1,487.53774757644055,735.6333333333332) translate(176.83925925925925 89.24583333333332)"/></g><path d="M1216.75 730.83c32.86 0 59.5 26.64 59.5 59.5s-26.64 59.5-59.5 59.5h-214.9c-32.85 0-59.5-26.64-59.5-59.5s26.65-59.5 59.5-59.5z" stroke="#3a414a" stroke-width="3" fill="#c3f7c8"/><g><use xlink:href="#ag" transform="matrix(1,0,0,1,947.3592880661588,735.8333333333333) translate(26.50962962962965 30.04583333333333)"/><use xlink:href="#ah" transform="matrix(1,0,0,1,947.3592880661588,735.8333333333333) translate(116.68 30.04583333333333)"/><use xlink:href="#ai" transform="matrix(1,0,0,1,947.3592880661588,735.8333333333333) translate(209.79666666666665 30.04583333333333)"/><use xlink:href="#aj" transform="matrix(1,0,0,1,947.3592880661588,735.8333333333333) translate(276.9448148148148 30.04583333333333)"/><use xlink:href="#ak" transform="matrix(1,0,0,1,947.3592880661588,735.8333333333333) translate(38.837962962963005 59.64583333333333)"/><use xlink:href="#aq" transform="matrix(1,0,0,1,947.3592880661588,735.8333333333333) translate(93.6527777777778 59.64583333333333)"/><use xlink:href="#am" transform="matrix(1,0,0,1,947.3592880661588,735.8333333333333) translate(219.45277777777778 59.64583333333333)"/><use xlink:href="#an" transform="matrix(1,0,0,1,947.3592880661588,735.8333333333333) translate(246.86018518518517 59.64583333333333)"/><use xlink:href="#ao" transform="matrix(1,0,0,1,947.3592880661588,735.8333333333333) translate(67.82629629629632 89.24583333333332)"/><use xlink:href="#ap" transform="matrix(1,0,0,1,947.3592880661588,735.8333333333333) translate(176.83925925925925 89.24583333333332)"/></g><path d="M1663.04 730.63c32.86 0 59.5 26.64 59.5 59.5s-26.64 59.5-59.5 59.5h-221c-32.86 0-59.5-26.64-59.5-59.5s26.64-59.5 59.5-59.5z" stroke="#3a414a" stroke-width="3" fill="#c3f7c8"/><g><use xlink:href="#ag" transform="matrix(1,0,0,1,1387.541226835562,735.6333333333332) translate(29.50962962962965 30.04583333333333)"/><use xlink:href="#ah" transform="matrix(1,0,0,1,1387.541226835562,735.6333333333332) translate(119.68 30.04583333333333)"/><use xlink:href="#ai" transform="matrix(1,0,0,1,1387.541226835562,735.6333333333332) translate(212.79666666666665 30.04583333333333)"/><use xlink:href="#aj" transform="matrix(1,0,0,1,1387.541226835562,735.6333333333332) translate(279.9448148148148 30.04583333333333)"/><use xlink:href="#ar" transform="matrix(1,0,0,1,1387.541226835562,735.6333333333332) translate(32.27962962962968 59.64583333333333)"/><use xlink:href="#as" transform="matrix(1,0,0,1,1387.541226835562,735.6333333333332) translate(106.14259259259262 59.64583333333333)"/><use xlink:href="#am" transform="matrix(1,0,0,1,1387.541226835562,735.6333333333332) translate(232.0111111111111 59.64583333333333)"/><use xlink:href="#an" transform="matrix(1,0,0,1,1387.541226835562,735.6333333333332) translate(259.41851851851845 59.64583333333333)"/><use xlink:href="#ao" transform="matrix(1,0,0,1,1387.541226835562,735.6333333333332) translate(70.82629629629632 89.24583333333332)"/><use xlink:href="#ap" transform="matrix(1,0,0,1,1387.541226835562,735.6333333333332) translate(179.83925925925925 89.24583333333332)"/></g><path d="M1701.92 286.34v122.5a12 12 0 0 1-12 12h-1036a12 12 0 0 0-12 12v34.26" stroke="#008a0e" stroke-width="4" fill="none"/><path d="M1703.9 286.4h-3.96v-1.25l3.95-1.6z" stroke="#008a0e" stroke-width=".05" fill="#008a0e"/><path d="M641.92 483.36l-4.64-14.26h9.27z" stroke="#008a0e" stroke-width="4" fill="#008a0e"/><path d="M1701.92 286.34v122.5a12 12 0 0 1-12 12h-576a12 12 0 0 0-12 12v34.26" stroke="#008a0e" stroke-width="4" fill="none"/><path d="M1703.9 286.4h-3.96v-1.25l3.95-1.6z" stroke="#008a0e" stroke-width=".05" fill="#008a0e"/><path d="M1101.92 483.36l-4.64-14.26h9.27z" stroke="#008a0e" stroke-width="4" fill="#008a0e"/><path d="M1814.92 46.33h26a12 12 0 0 1 12 12v490.5a12 12 0 0 1-12 12h-165.27" stroke="#008a0e" stroke-width="4" fill="none"/><path d="M1814.97 48.3h-2.05v-3.94h2.05z" stroke="#008a0e" stroke-width=".05" fill="#008a0e"/><path d="M1659.4 560.83l14.25-4.63v9.27z" stroke="#008a0e" stroke-width="4" fill="#008a0e"/><path d="M641.92 633.83v72.56" stroke="#008a0e" stroke-width="4" fill="none"/><path d="M643.9 633.9h-3.96v-2.07h3.95z" stroke="#008a0e" stroke-width=".05" fill="#008a0e"/><path d="M641.92 722.66l-4.64-14.26h9.27z" stroke="#008a0e" stroke-width="4" fill="#008a0e"/><path d="M1101.92 633.83v72.75" stroke="#008a0e" stroke-width="4" fill="none"/><path d="M1103.9 633.9h-3.96v-2.07h3.95z" stroke="#008a0e" stroke-width=".05" fill="#008a0e"/><path d="M1101.92 722.86l-4.64-14.27h9.27z" stroke="#008a0e" stroke-width="4" fill="#008a0e"/><path d="M1541.92 633.83v72.56" stroke="#008a0e" stroke-width="4" fill="none"/><path d="M1543.9 633.9h-3.96v-2.07h3.95z" stroke="#008a0e" stroke-width=".05" fill="#008a0e"/><path d="M1541.92 722.66l-4.64-14.26h9.27z" stroke="#008a0e" stroke-width="4" fill="#008a0e"/><defs><path d="M30-248c87 1 191-15 191 75 0 78-77 80-158 76V0H30v-248zm33 125c57 0 124 11 124-50 0-59-68-47-124-48v98" id="at"/><path d="M114-163C36-179 61-72 57 0H25l-1-190h30c1 12-1 29 2 39 6-27 23-49 58-41v29" id="au"/><path d="M100-194c63 0 86 42 84 106H49c0 40 14 67 53 68 26 1 43-12 49-29l28 8c-11 28-37 45-77 45C44 4 14-33 15-96c1-61 26-98 85-98zm52 81c6-60-76-77-97-28-3 7-6 17-6 28h103" id="av"/><path d="M115-194c55 1 70 41 70 98S169 2 115 4C84 4 66-9 55-30l1 105H24l-1-265h31l2 30c10-21 28-34 59-34zm-8 174c40 0 45-34 45-75s-6-73-45-74c-42 0-51 32-51 76 0 43 10 73 51 73" id="aw"/><path d="M100-194c62-1 85 37 85 99 1 63-27 99-86 99S16-35 15-95c0-66 28-99 85-99zM99-20c44 1 53-31 53-75 0-43-8-75-51-75s-53 32-53 75 10 74 51 75" id="ax"/><path d="M96-169c-40 0-48 33-48 73s9 75 48 75c24 0 41-14 43-38l32 2c-6 37-31 61-74 61-59 0-76-41-82-99-10-93 101-131 147-64 4 7 5 14 7 22l-32 3c-4-21-16-35-41-35" id="ay"/><path d="M135-143c-3-34-86-38-87 0 15 53 115 12 119 90S17 21 10-45l28-5c4 36 97 45 98 0-10-56-113-15-118-90-4-57 82-63 122-42 12 7 21 19 24 35" id="az"/><g id="a"><use transform="matrix(0.07407407407407406,0,0,0.07407407407407406,0,0)" xlink:href="#at"/><use transform="matrix(0.07407407407407406,0,0,0.07407407407407406,17.777777777777775,0)" xlink:href="#au"/><use transform="matrix(0.07407407407407406,0,0,0.07407407407407406,26.592592592592585,0)" xlink:href="#av"/><use transform="matrix(0.07407407407407406,0,0,0.07407407407407406,41.4074074074074,0)" xlink:href="#aw"/><use transform="matrix(0.07407407407407406,0,0,0.07407407407407406,56.22222222222221,0)" xlink:href="#au"/><use transform="matrix(0.07407407407407406,0,0,0.07407407407407406,65.03703703703702,0)" xlink:href="#ax"/><use transform="matrix(0.07407407407407406,0,0,0.07407407407407406,79.85185185185183,0)" xlink:href="#ay"/><use transform="matrix(0.07407407407407406,0,0,0.07407407407407406,93.18518518518516,0)" xlink:href="#av"/><use transform="matrix(0.07407407407407406,0,0,0.07407407407407406,107.99999999999997,0)" xlink:href="#az"/><use transform="matrix(0.07407407407407406,0,0,0.07407407407407406,121.3333333333333,0)" xlink:href="#az"/></g><path d="M30-248c118-7 216 8 213 122C240-48 200 0 122 0H30v-248zM63-27c89 8 146-16 146-99s-60-101-146-95v194" id="aA"/><path d="M141-36C126-15 110 5 73 4 37 3 15-17 15-53c-1-64 63-63 125-63 3-35-9-54-41-54-24 1-41 7-42 31l-33-3c5-37 33-52 76-52 45 0 72 20 72 64v82c-1 20 7 32 28 27v20c-31 9-61-2-59-35zM48-53c0 20 12 33 32 33 41-3 63-29 60-74-43 2-92-5-92 41" id="aB"/><path d="M59-47c-2 24 18 29 38 22v24C64 9 27 4 27-40v-127H5v-23h24l9-43h21v43h35v23H59v120" id="aC"/><g id="b"><use transform="matrix(0.07407407407407406,0,0,0.07407407407407406,0,0)" xlink:href="#aA"/><use transform="matrix(0.07407407407407406,0,0,0.07407407407407406,19.18518518518518,0)" xlink:href="#aB"/><use transform="matrix(0.07407407407407406,0,0,0.07407407407407406,33.99999999999999,0)" xlink:href="#aC"/><use transform="matrix(0.07407407407407406,0,0,0.07407407407407406,41.4074074074074,0)" xlink:href="#aB"/><use transform="matrix(0.07407407407407406,0,0,0.07407407407407406,56.22222222222221,0)" xlink:href="#az"/><use transform="matrix(0.07407407407407406,0,0,0.07407407407407406,69.55555555555554,0)" xlink:href="#av"/><use transform="matrix(0.07407407407407406,0,0,0.07407407407407406,84.37037037037035,0)" xlink:href="#aC"/></g><path d="M143 4C61 4 22-44 18-125c-5-107 100-154 193-111 17 8 29 25 37 43l-32 9c-13-25-37-40-76-40-61 0-88 39-88 99 0 61 29 100 91 101 35 0 62-11 79-27v-45h-74v-28h105v86C228-13 192 4 143 4" id="aD"/><path d="M117-194c89-4 53 116 60 194h-32v-121c0-31-8-49-39-48C34-167 62-67 57 0H25l-1-190h30c1 10-1 24 2 32 11-22 29-35 61-36" id="aE"/><g id="c"><use transform="matrix(0.07407407407407406,0,0,0.07407407407407406,0,0)" xlink:href="#aD"/><use transform="matrix(0.07407407407407406,0,0,0.07407407407407406,20.740740740740737,0)" xlink:href="#av"/><use transform="matrix(0.07407407407407406,0,0,0.07407407407407406,35.55555555555555,0)" xlink:href="#aE"/><use transform="matrix(0.07407407407407406,0,0,0.07407407407407406,50.37037037037036,0)" xlink:href="#av"/><use transform="matrix(0.07407407407407406,0,0,0.07407407407407406,65.18518518518518,0)" xlink:href="#au"/><use transform="matrix(0.07407407407407406,0,0,0.07407407407407406,73.99999999999999,0)" xlink:href="#aB"/><use transform="matrix(0.07407407407407406,0,0,0.07407407407407406,88.8148148148148,0)" xlink:href="#aC"/><use transform="matrix(0.07407407407407406,0,0,0.07407407407407406,96.2222222222222,0)" xlink:href="#av"/></g><path d="M30 0v-248h187v28H63v79h144v27H63v87h162V0H30" id="aF"/><path d="M210-169c-67 3-38 105-44 169h-31v-121c0-29-5-50-35-48C34-165 62-65 56 0H25l-1-190h30c1 10-1 24 2 32 10-44 99-50 107 0 11-21 27-35 58-36 85-2 47 119 55 194h-31v-121c0-29-5-49-35-48" id="aG"/><path d="M115-194c53 0 69 39 70 98 0 66-23 100-70 100C84 3 66-7 56-30L54 0H23l1-261h32v101c10-23 28-34 59-34zm-8 174c40 0 45-34 45-75 0-40-5-75-45-74-42 0-51 32-51 76 0 43 10 73 51 73" id="aH"/><path d="M85-194c31 0 48 13 60 33l-1-100h32l1 261h-30c-2-10 0-23-3-31C134-8 116 4 85 4 32 4 16-35 15-94c0-66 23-100 70-100zm9 24c-40 0-46 34-46 75 0 40 6 74 45 74 42 0 51-32 51-76 0-42-9-74-50-73" id="aI"/><path d="M24-231v-30h32v30H24zM24 0v-190h32V0H24" id="aJ"/><path d="M177-190C167-65 218 103 67 71c-23-6-38-20-44-43l32-5c15 47 100 32 89-28v-30C133-14 115 1 83 1 29 1 15-40 15-95c0-56 16-97 71-98 29-1 48 16 59 35 1-10 0-23 2-32h30zM94-22c36 0 50-32 50-73 0-42-14-75-50-75-39 0-46 34-46 75s6 73 46 73" id="aK"/><g id="d"><use transform="matrix(0.07407407407407406,0,0,0.07407407407407406,0,0)" xlink:href="#aF"/><use transform="matrix(0.07407407407407406,0,0,0.07407407407407406,17.777777777777775,0)" xlink:href="#aG"/><use transform="matrix(0.07407407407407406,0,0,0.07407407407407406,39.92592592592592,0)" xlink:href="#aH"/><use transform="matrix(0.07407407407407406,0,0,0.07407407407407406,54.740740740740726,0)" xlink:href="#av"/><use transform="matrix(0.07407407407407406,0,0,0.07407407407407406,69.55555555555554,0)" xlink:href="#aI"/><use transform="matrix(0.07407407407407406,0,0,0.07407407407407406,84.37037037037035,0)" xlink:href="#aI"/><use transform="matrix(0.07407407407407406,0,0,0.07407407407407406,99.18518518518516,0)" xlink:href="#aJ"/><use transform="matrix(0.07407407407407406,0,0,0.07407407407407406,105.03703703703701,0)" xlink:href="#aE"/><use transform="matrix(0.07407407407407406,0,0,0.07407407407407406,119.85185185185182,0)" xlink:href="#aK"/><use transform="matrix(0.07407407407407406,0,0,0.07407407407407406,134.66666666666663,0)" xlink:href="#az"/></g><path d="M240 0l2-218c-23 76-54 145-80 218h-23L58-218 59 0H30v-248h44l77 211c21-75 51-140 76-211h43V0h-30" id="aL"/><path d="M24 0v-261h32V0H24" id="aM"/><g id="e"><use transform="matrix(0.07407407407407406,0,0,0.07407407407407406,0,0)" xlink:href="#aL"/><use transform="matrix(0.07407407407407406,0,0,0.07407407407407406,22.14814814814814,0)" xlink:href="#ax"/><use transform="matrix(0.07407407407407406,0,0,0.07407407407407406,36.962962962962955,0)" xlink:href="#aI"/><use transform="matrix(0.07407407407407406,0,0,0.07407407407407406,51.777777777777764,0)" xlink:href="#av"/><use transform="matrix(0.07407407407407406,0,0,0.07407407407407406,66.59259259259258,0)" xlink:href="#aM"/></g><path d="M205 0l-28-72H64L36 0H1l101-248h38L239 0h-34zm-38-99l-47-123c-12 45-31 82-46 123h93" id="aN"/><path d="M179-190L93 31C79 59 56 82 12 73V49c39 6 53-20 64-50L1-190h34L92-34l54-156h33" id="aO"/><g id="f"><use transform="matrix(0.07407407407407406,0,0,0.07407407407407406,0,0)" xlink:href="#aN"/><use transform="matrix(0.07407407407407406,0,0,0.07407407407407406,17.777777777777775,0)" xlink:href="#aE"/><use transform="matrix(0.07407407407407406,0,0,0.07407407407407406,32.59259259259259,0)" xlink:href="#aB"/><use transform="matrix(0.07407407407407406,0,0,0.07407407407407406,47.4074074074074,0)" xlink:href="#aM"/><use transform="matrix(0.07407407407407406,0,0,0.07407407407407406,53.259259259259245,0)" xlink:href="#aO"/><use transform="matrix(0.07407407407407406,0,0,0.07407407407407406,66.59259259259258,0)" xlink:href="#az"/><use transform="matrix(0.07407407407407406,0,0,0.07407407407407406,79.92592592592591,0)" xlink:href="#aJ"/><use transform="matrix(0.07407407407407406,0,0,0.07407407407407406,85.77777777777776,0)" xlink:href="#az"/></g><path d="M24-248c93 1 206-16 204 79-1 75-69 88-152 82V0H24v-248zm52 121c47 0 100 7 100-41 0-47-54-39-100-39v80" id="aP"/><path d="M135-150c-39-12-60 13-60 57V0H25l-1-190h47c2 13-1 29 3 40 6-28 27-53 61-41v41" id="aQ"/><path d="M110-194c64 0 96 36 96 99 0 64-35 99-97 99-61 0-95-36-95-99 0-62 34-99 96-99zm-1 164c35 0 45-28 45-65 0-40-10-65-43-65-34 0-45 26-45 65 0 36 10 65 43 65" id="aR"/><path d="M190-63c-7 42-38 67-86 67-59 0-84-38-90-98-12-110 154-137 174-36l-49 2c-2-19-15-32-35-32-30 0-35 28-38 64-6 74 65 87 74 30" id="aS"/><path d="M185-48c-13 30-37 53-82 52C43 2 14-33 14-96s30-98 90-98c62 0 83 45 84 108H66c0 31 8 55 39 56 18 0 30-7 34-22zm-45-69c5-46-57-63-70-21-2 6-4 13-4 21h74" id="aT"/><path d="M137-138c1-29-70-34-71-4 15 46 118 7 119 86 1 83-164 76-172 9l43-7c4 19 20 25 44 25 33 8 57-30 24-41C81-84 22-81 20-136c-2-80 154-74 161-7" id="aU"/><g id="g"><use transform="matrix(0.06790123456790124,0,0,0.06790123456790124,0,0)" xlink:href="#aP"/><use transform="matrix(0.06790123456790124,0,0,0.06790123456790124,16.296296296296298,0)" xlink:href="#aQ"/><use transform="matrix(0.06790123456790124,0,0,0.06790123456790124,25.802469135802472,0)" xlink:href="#aR"/><use transform="matrix(0.06790123456790124,0,0,0.06790123456790124,40.67283950617284,0)" xlink:href="#aS"/><use transform="matrix(0.06790123456790124,0,0,0.06790123456790124,54.25308641975309,0)" xlink:href="#aT"/><use transform="matrix(0.06790123456790124,0,0,0.06790123456790124,67.83333333333334,0)" xlink:href="#aU"/><use transform="matrix(0.06790123456790124,0,0,0.06790123456790124,81.4135802469136,0)" xlink:href="#aU"/></g><path d="M121-226c-27-7-43 5-38 36h38v33H83V0H34v-157H6v-33h28c-9-59 32-81 87-68v32" id="aV"/><path d="M25 0v-261h50V0H25" id="aW"/><path d="M231 0h-52l-39-155L100 0H48L-1-190h46L77-45c9-52 24-97 36-145h53l37 145 32-145h46" id="aX"/><g id="h"><use transform="matrix(0.06790123456790124,0,0,0.06790123456790124,0,0)" xlink:href="#aV"/><use transform="matrix(0.06790123456790124,0,0,0.06790123456790124,8.080246913580249,0)" xlink:href="#aW"/><use transform="matrix(0.06790123456790124,0,0,0.06790123456790124,14.870370370370374,0)" xlink:href="#aR"/><use transform="matrix(0.06790123456790124,0,0,0.06790123456790124,29.740740740740748,0)" xlink:href="#aX"/></g><path d="M114-157C55-157 80-60 75 0H25v-261h50l-1 109c12-26 28-41 61-42 86-1 58 113 63 194h-50c-7-57 23-157-34-157" id="aY"/><path d="M133-34C117-15 103 5 69 4 32 3 11-16 11-54c-1-60 55-63 116-61 1-26-3-47-28-47-18 1-26 9-28 27l-52-2c7-38 36-58 82-57s74 22 75 68l1 82c-1 14 12 18 25 15v27c-30 8-71 5-69-32zm-48 3c29 0 43-24 42-57-32 0-66-3-65 30 0 17 8 27 23 27" id="aZ"/><path d="M135-194c53 0 70 44 70 98 0 56-19 98-73 100-31 1-45-17-59-34 3 33 2 69 2 105H25l-1-265h48c2 10 0 23 3 31 11-24 29-35 60-35zM114-30c33 0 39-31 40-66 0-38-9-64-40-64-56 0-55 130 0 130" id="ba"/><g id="i"><use transform="matrix(0.06790123456790124,0,0,0.06790123456790124,0,0)" xlink:href="#aU"/><use transform="matrix(0.06790123456790124,0,0,0.06790123456790124,13.580246913580249,0)" xlink:href="#aY"/><use transform="matrix(0.06790123456790124,0,0,0.06790123456790124,28.45061728395062,0)" xlink:href="#aZ"/><use transform="matrix(0.06790123456790124,0,0,0.06790123456790124,42.03086419753087,0)" xlink:href="#ba"/><use transform="matrix(0.06790123456790124,0,0,0.06790123456790124,56.90123456790124,0)" xlink:href="#aT"/><use transform="matrix(0.06790123456790124,0,0,0.06790123456790124,70.4814814814815,0)" xlink:href="#aU"/></g><g id="j"><use transform="matrix(0.06790123456790124,0,0,0.06790123456790124,0,0)" xlink:href="#aD"/><use transform="matrix(0.06790123456790124,0,0,0.06790123456790124,19.01234567901235,0)" xlink:href="#av"/><use transform="matrix(0.06790123456790124,0,0,0.06790123456790124,32.592592592592595,0)" xlink:href="#aE"/><use transform="matrix(0.06790123456790124,0,0,0.06790123456790124,46.17283950617284,0)" xlink:href="#av"/><use transform="matrix(0.06790123456790124,0,0,0.06790123456790124,59.75308641975309,0)" xlink:href="#au"/><use transform="matrix(0.06790123456790124,0,0,0.06790123456790124,67.83333333333334,0)" xlink:href="#aB"/><use transform="matrix(0.06790123456790124,0,0,0.06790123456790124,81.4135802469136,0)" xlink:href="#aC"/><use transform="matrix(0.06790123456790124,0,0,0.06790123456790124,88.20370370370372,0)" xlink:href="#av"/><use transform="matrix(0.06790123456790124,0,0,0.06790123456790124,101.78395061728398,0)" xlink:href="#aI"/></g><g id="k"><use transform="matrix(0.06790123456790124,0,0,0.06790123456790124,0,0)" xlink:href="#aF"/><use transform="matrix(0.06790123456790124,0,0,0.06790123456790124,16.296296296296298,0)" xlink:href="#aG"/><use transform="matrix(0.06790123456790124,0,0,0.06790123456790124,36.59876543209877,0)" xlink:href="#aH"/><use transform="matrix(0.06790123456790124,0,0,0.06790123456790124,50.17901234567902,0)" xlink:href="#av"/><use transform="matrix(0.06790123456790124,0,0,0.06790123456790124,63.75925925925927,0)" xlink:href="#aI"/><use transform="matrix(0.06790123456790124,0,0,0.06790123456790124,77.33950617283952,0)" xlink:href="#aI"/><use transform="matrix(0.06790123456790124,0,0,0.06790123456790124,90.91975308641979,0)" xlink:href="#aJ"/><use transform="matrix(0.06790123456790124,0,0,0.06790123456790124,96.28395061728398,0)" xlink:href="#aE"/><use transform="matrix(0.06790123456790124,0,0,0.06790123456790124,109.86419753086423,0)" xlink:href="#aK"/><use transform="matrix(0.06790123456790124,0,0,0.06790123456790124,123.44444444444447,0)" xlink:href="#az"/></g><g id="l"><use transform="matrix(0.06790123456790124,0,0,0.06790123456790124,0,0)" xlink:href="#aL"/><use transform="matrix(0.06790123456790124,0,0,0.06790123456790124,20.302469135802472,0)" xlink:href="#ax"/><use transform="matrix(0.06790123456790124,0,0,0.06790123456790124,33.88271604938272,0)" xlink:href="#aI"/><use transform="matrix(0.06790123456790124,0,0,0.06790123456790124,47.46296296296297,0)" xlink:href="#av"/><use transform="matrix(0.06790123456790124,0,0,0.06790123456790124,61.043209876543216,0)" xlink:href="#aM"/></g><g id="m"><use transform="matrix(0.06790123456790124,0,0,0.06790123456790124,0,0)" xlink:href="#aN"/><use transform="matrix(0.06790123456790124,0,0,0.06790123456790124,16.296296296296298,0)" xlink:href="#aE"/><use transform="matrix(0.06790123456790124,0,0,0.06790123456790124,29.876543209876544,0)" xlink:href="#aB"/><use transform="matrix(0.06790123456790124,0,0,0.06790123456790124,43.45679012345679,0)" xlink:href="#aM"/><use transform="matrix(0.06790123456790124,0,0,0.06790123456790124,48.82098765432099,0)" xlink:href="#aO"/><use transform="matrix(0.06790123456790124,0,0,0.06790123456790124,61.04320987654321,0)" xlink:href="#az"/><use transform="matrix(0.06790123456790124,0,0,0.06790123456790124,73.26543209876543,0)" xlink:href="#aJ"/><use transform="matrix(0.06790123456790124,0,0,0.06790123456790124,78.62962962962962,0)" xlink:href="#az"/></g><g id="n"><use transform="matrix(0.06975308641975307,0,0,0.06975308641975307,0,0)" xlink:href="#at"/><use transform="matrix(0.06975308641975307,0,0,0.06975308641975307,16.740740740740737,0)" xlink:href="#au"/><use transform="matrix(0.06975308641975307,0,0,0.06975308641975307,25.041358024691352,0)" xlink:href="#av"/><use transform="matrix(0.06975308641975307,0,0,0.06975308641975307,38.99197530864197,0)" xlink:href="#aw"/><use transform="matrix(0.06975308641975307,0,0,0.06975308641975307,52.94259259259258,0)" xlink:href="#au"/><use transform="matrix(0.06975308641975307,0,0,0.06975308641975307,61.2432098765432,0)" xlink:href="#ax"/><use transform="matrix(0.06975308641975307,0,0,0.06975308641975307,75.19382716049381,0)" xlink:href="#ay"/><use transform="matrix(0.06975308641975307,0,0,0.06975308641975307,87.74938271604937,0)" xlink:href="#av"/><use transform="matrix(0.06975308641975307,0,0,0.06975308641975307,101.69999999999999,0)" xlink:href="#az"/><use transform="matrix(0.06975308641975307,0,0,0.06975308641975307,114.25555555555555,0)" xlink:href="#az"/></g><g id="o"><use transform="matrix(0.06975308641975307,0,0,0.06975308641975307,0,0)" xlink:href="#aI"/><use transform="matrix(0.06975308641975307,0,0,0.06975308641975307,13.950617283950614,0)" xlink:href="#aB"/><use transform="matrix(0.06975308641975307,0,0,0.06975308641975307,27.901234567901227,0)" xlink:href="#aC"/><use transform="matrix(0.06975308641975307,0,0,0.06975308641975307,34.87654320987653,0)" xlink:href="#aB"/><use transform="matrix(0.06975308641975307,0,0,0.06975308641975307,48.827160493827144,0)" xlink:href="#az"/><use transform="matrix(0.06975308641975307,0,0,0.06975308641975307,61.382716049382694,0)" xlink:href="#av"/><use transform="matrix(0.06975308641975307,0,0,0.06975308641975307,75.33333333333331,0)" xlink:href="#aC"/><use transform="matrix(0.06975308641975307,0,0,0.06975308641975307,82.30864197530862,0)" xlink:href="#az"/></g><path d="M127-220V0H93v-220H8v-28h204v28h-85" id="bb"/><g id="p"><use transform="matrix(0.07407407407407407,0,0,0.07407407407407407,0,0)" xlink:href="#bb"/><use transform="matrix(0.07407407407407407,0,0,0.07407407407407407,15.259259259259258,0)" xlink:href="#au"/><use transform="matrix(0.07407407407407407,0,0,0.07407407407407407,24.074074074074073,0)" xlink:href="#aB"/><use transform="matrix(0.07407407407407407,0,0,0.07407407407407407,38.888888888888886,0)" xlink:href="#aJ"/><use transform="matrix(0.07407407407407407,0,0,0.07407407407407407,44.74074074074073,0)" xlink:href="#aE"/></g><g id="q"><use transform="matrix(0.07407407407407407,0,0,0.07407407407407407,0,0)" xlink:href="#aL"/><use transform="matrix(0.07407407407407407,0,0,0.07407407407407407,22.148148148148145,0)" xlink:href="#ax"/><use transform="matrix(0.07407407407407407,0,0,0.07407407407407407,36.96296296296296,0)" xlink:href="#aI"/><use transform="matrix(0.07407407407407407,0,0,0.07407407407407407,51.77777777777777,0)" xlink:href="#av"/><use transform="matrix(0.07407407407407407,0,0,0.07407407407407407,66.59259259259258,0)" xlink:href="#aM"/></g><g id="r"><use transform="matrix(0.07407407407407407,0,0,0.07407407407407407,0,0)" xlink:href="#bb"/><use transform="matrix(0.07407407407407407,0,0,0.07407407407407407,13.259259259259258,0)" xlink:href="#av"/><use transform="matrix(0.07407407407407407,0,0,0.07407407407407407,28.074074074074073,0)" xlink:href="#az"/><use transform="matrix(0.07407407407407407,0,0,0.07407407407407407,41.407407407407405,0)" xlink:href="#aC"/></g><g id="s"><use transform="matrix(0.07407407407407407,0,0,0.07407407407407407,0,0)" xlink:href="#aG"/><use transform="matrix(0.07407407407407407,0,0,0.07407407407407407,22.148148148148145,0)" xlink:href="#ax"/><use transform="matrix(0.07407407407407407,0,0,0.07407407407407407,36.96296296296296,0)" xlink:href="#aI"/><use transform="matrix(0.07407407407407407,0,0,0.07407407407407407,51.77777777777777,0)" xlink:href="#av"/><use transform="matrix(0.07407407407407407,0,0,0.07407407407407407,66.59259259259258,0)" xlink:href="#aM"/></g><g id="t"><use transform="matrix(0.07407407407407407,0,0,0.07407407407407407,0,0)" xlink:href="#aD"/><use transform="matrix(0.07407407407407407,0,0,0.07407407407407407,20.74074074074074,0)" xlink:href="#av"/><use transform="matrix(0.07407407407407407,0,0,0.07407407407407407,35.55555555555556,0)" xlink:href="#aE"/><use transform="matrix(0.07407407407407407,0,0,0.07407407407407407,50.37037037037037,0)" xlink:href="#av"/><use transform="matrix(0.07407407407407407,0,0,0.07407407407407407,65.18518518518518,0)" xlink:href="#au"/><use transform="matrix(0.07407407407407407,0,0,0.07407407407407407,73.99999999999999,0)" xlink:href="#aB"/><use transform="matrix(0.07407407407407407,0,0,0.07407407407407407,88.8148148148148,0)" xlink:href="#aC"/><use transform="matrix(0.07407407407407407,0,0,0.07407407407407407,96.2222222222222,0)" xlink:href="#av"/></g><g id="u"><use transform="matrix(0.07407407407407407,0,0,0.07407407407407407,0,0)" xlink:href="#aF"/><use transform="matrix(0.07407407407407407,0,0,0.07407407407407407,17.77777777777778,0)" xlink:href="#aG"/><use transform="matrix(0.07407407407407407,0,0,0.07407407407407407,39.925925925925924,0)" xlink:href="#aH"/><use transform="matrix(0.07407407407407407,0,0,0.07407407407407407,54.740740740740726,0)" xlink:href="#av"/><use transform="matrix(0.07407407407407407,0,0,0.07407407407407407,69.55555555555554,0)" xlink:href="#aI"/><use transform="matrix(0.07407407407407407,0,0,0.07407407407407407,84.37037037037035,0)" xlink:href="#aI"/><use transform="matrix(0.07407407407407407,0,0,0.07407407407407407,99.18518518518516,0)" xlink:href="#aJ"/><use transform="matrix(0.07407407407407407,0,0,0.07407407407407407,105.03703703703701,0)" xlink:href="#aE"/><use transform="matrix(0.07407407407407407,0,0,0.07407407407407407,119.8518518518518,0)" xlink:href="#aK"/><use transform="matrix(0.07407407407407407,0,0,0.07407407407407407,134.66666666666663,0)" xlink:href="#az"/></g><path fill="#3a414a" d="M30-248c118-7 216 8 213 122C240-48 200 0 122 0H30v-248zM63-27c89 8 146-16 146-99s-60-101-146-95v194" id="bc"/><path fill="#3a414a" d="M141-36C126-15 110 5 73 4 37 3 15-17 15-53c-1-64 63-63 125-63 3-35-9-54-41-54-24 1-41 7-42 31l-33-3c5-37 33-52 76-52 45 0 72 20 72 64v82c-1 20 7 32 28 27v20c-31 9-61-2-59-35zM48-53c0 20 12 33 32 33 41-3 63-29 60-74-43 2-92-5-92 41" id="bd"/><path fill="#3a414a" d="M59-47c-2 24 18 29 38 22v24C64 9 27 4 27-40v-127H5v-23h24l9-43h21v43h35v23H59v120" id="be"/><g id="v"><use transform="matrix(0.08703703703703701,0,0,0.08703703703703701,0,0)" xlink:href="#bc"/><use transform="matrix(0.08703703703703701,0,0,0.08703703703703701,22.542592592592584,0)" xlink:href="#bd"/><use transform="matrix(0.08703703703703701,0,0,0.08703703703703701,39.94999999999999,0)" xlink:href="#be"/><use transform="matrix(0.08703703703703701,0,0,0.08703703703703701,48.65370370370369,0)" xlink:href="#bd"/></g><g id="w"><use transform="matrix(0.07407407407407407,0,0,0.07407407407407407,0,0)" xlink:href="#bb"/><use transform="matrix(0.07407407407407407,0,0,0.07407407407407407,15.259259259259258,0)" xlink:href="#au"/><use transform="matrix(0.07407407407407407,0,0,0.07407407407407407,24.074074074074073,0)" xlink:href="#aB"/><use transform="matrix(0.07407407407407407,0,0,0.07407407407407407,38.888888888888886,0)" xlink:href="#aJ"/><use transform="matrix(0.07407407407407407,0,0,0.07407407407407407,44.74074074074073,0)" xlink:href="#aE"/><use transform="matrix(0.07407407407407407,0,0,0.07407407407407407,59.55555555555554,0)" xlink:href="#av"/><use transform="matrix(0.07407407407407407,0,0,0.07407407407407407,74.37037037037035,0)" xlink:href="#aI"/></g><path d="M33-154v-36h34v36H33zM33 0v-36h34V0H33" id="bf"/><g id="x"><use transform="matrix(0.07407407407407407,0,0,0.07407407407407407,0,0)" xlink:href="#aL"/><use transform="matrix(0.07407407407407407,0,0,0.07407407407407407,22.148148148148145,0)" xlink:href="#ax"/><use transform="matrix(0.07407407407407407,0,0,0.07407407407407407,36.96296296296296,0)" xlink:href="#aI"/><use transform="matrix(0.07407407407407407,0,0,0.07407407407407407,51.77777777777777,0)" xlink:href="#av"/><use transform="matrix(0.07407407407407407,0,0,0.07407407407407407,66.59259259259258,0)" xlink:href="#aM"/><use transform="matrix(0.07407407407407407,0,0,0.07407407407407407,72.44444444444443,0)" xlink:href="#az"/><use transform="matrix(0.07407407407407407,0,0,0.07407407407407407,85.77777777777776,0)" xlink:href="#bf"/></g><path d="M137 0h-34L2-248h35l83 218 83-218h36" id="bg"/><path d="M68-38c1 34 0 65-14 84H32c9-13 17-26 17-46H33v-38h35" id="bh"/><g id="y"><use transform="matrix(0.07407407407407407,0,0,0.07407407407407407,0,0)" xlink:href="#bg"/><use transform="matrix(0.07407407407407407,0,0,0.07407407407407407,15.777777777777779,0)" xlink:href="#aB"/><use transform="matrix(0.07407407407407407,0,0,0.07407407407407407,30.59259259259259,0)" xlink:href="#aE"/><use transform="matrix(0.07407407407407407,0,0,0.07407407407407407,45.407407407407405,0)" xlink:href="#aJ"/><use transform="matrix(0.07407407407407407,0,0,0.07407407407407407,51.25925925925926,0)" xlink:href="#aM"/><use transform="matrix(0.07407407407407407,0,0,0.07407407407407407,57.1111111111111,0)" xlink:href="#aM"/><use transform="matrix(0.07407407407407407,0,0,0.07407407407407407,62.96296296296295,0)" xlink:href="#aB"/><use transform="matrix(0.07407407407407407,0,0,0.07407407407407407,77.77777777777776,0)" xlink:href="#bh"/></g><path d="M30 0v-248h33v221h125V0H30" id="bi"/><g id="z"><use transform="matrix(0.07407407407407407,0,0,0.07407407407407407,0,0)" xlink:href="#bi"/><use transform="matrix(0.07407407407407407,0,0,0.07407407407407407,14.814814814814813,0)" xlink:href="#av"/><use transform="matrix(0.07407407407407407,0,0,0.07407407407407407,29.629629629629626,0)" xlink:href="#aB"/><use transform="matrix(0.07407407407407407,0,0,0.07407407407407407,44.44444444444444,0)" xlink:href="#au"/><use transform="matrix(0.07407407407407407,0,0,0.07407407407407407,53.25925925925926,0)" xlink:href="#aE"/><use transform="matrix(0.07407407407407407,0,0,0.07407407407407407,68.07407407407408,0)" xlink:href="#aJ"/><use transform="matrix(0.07407407407407407,0,0,0.07407407407407407,73.92592592592592,0)" xlink:href="#aE"/><use transform="matrix(0.07407407407407407,0,0,0.07407407407407407,88.74074074074073,0)" xlink:href="#aK"/></g><path d="M101-234c-31-9-42 10-38 44h38v23H63V0H32v-167H5v-23h27c-7-52 17-82 69-68v24" id="bj"/><g id="A"><use transform="matrix(0.07407407407407407,0,0,0.07407407407407407,0,0)" xlink:href="#bj"/><use transform="matrix(0.07407407407407407,0,0,0.07407407407407407,7.4074074074074066,0)" xlink:href="#au"/><use transform="matrix(0.07407407407407407,0,0,0.07407407407407407,16.22222222222222,0)" xlink:href="#ax"/><use transform="matrix(0.07407407407407407,0,0,0.07407407407407407,31.037037037037035,0)" xlink:href="#aG"/></g><path d="M63-220v92h138v28H63V0H30v-248h175v28H63" id="bk"/><path d="M84 4C-5 8 30-112 23-190h32v120c0 31 7 50 39 49 72-2 45-101 50-169h31l1 190h-30c-1-10 1-25-2-33-11 22-28 36-60 37" id="bl"/><g id="B"><use transform="matrix(0.07407407407407407,0,0,0.07407407407407407,0,0)" xlink:href="#bk"/><use transform="matrix(0.07407407407407407,0,0,0.07407407407407407,16.22222222222222,0)" xlink:href="#aB"/><use transform="matrix(0.07407407407407407,0,0,0.07407407407407407,31.037037037037035,0)" xlink:href="#aJ"/><use transform="matrix(0.07407407407407407,0,0,0.07407407407407407,36.888888888888886,0)" xlink:href="#aM"/><use transform="matrix(0.07407407407407407,0,0,0.07407407407407407,42.74074074074073,0)" xlink:href="#bl"/><use transform="matrix(0.07407407407407407,0,0,0.07407407407407407,57.55555555555554,0)" xlink:href="#au"/><use transform="matrix(0.07407407407407407,0,0,0.07407407407407407,66.37037037037035,0)" xlink:href="#av"/><use transform="matrix(0.07407407407407407,0,0,0.07407407407407407,81.18518518518516,0)" xlink:href="#bh"/></g><g id="C"><use transform="matrix(0.07407407407407407,0,0,0.07407407407407407,0,0)" xlink:href="#bk"/><use transform="matrix(0.07407407407407407,0,0,0.07407407407407407,16.22222222222222,0)" xlink:href="#av"/><use transform="matrix(0.07407407407407407,0,0,0.07407407407407407,31.037037037037035,0)" xlink:href="#aB"/><use transform="matrix(0.07407407407407407,0,0,0.07407407407407407,45.85185185185185,0)" xlink:href="#aC"/><use transform="matrix(0.07407407407407407,0,0,0.07407407407407407,53.25925925925926,0)" xlink:href="#bl"/><use transform="matrix(0.07407407407407407,0,0,0.07407407407407407,68.07407407407406,0)" xlink:href="#au"/><use transform="matrix(0.07407407407407407,0,0,0.07407407407407407,76.88888888888887,0)" xlink:href="#av"/></g><path d="M185-189c-5-48-123-54-124 2 14 75 158 14 163 119 3 78-121 87-175 55-17-10-28-26-33-46l33-7c5 56 141 63 141-1 0-78-155-14-162-118-5-82 145-84 179-34 5 7 8 16 11 25" id="bm"/><path d="M108 0H70L1-190h34L89-25l56-165h34" id="bn"/><g id="D"><use transform="matrix(0.07407407407407407,0,0,0.07407407407407407,0,0)" xlink:href="#bm"/><use transform="matrix(0.07407407407407407,0,0,0.07407407407407407,17.77777777777778,0)" xlink:href="#aJ"/><use transform="matrix(0.07407407407407407,0,0,0.07407407407407407,23.62962962962963,0)" xlink:href="#av"/><use transform="matrix(0.07407407407407407,0,0,0.07407407407407407,38.44444444444444,0)" xlink:href="#bn"/><use transform="matrix(0.07407407407407407,0,0,0.07407407407407407,51.77777777777777,0)" xlink:href="#av"/></g><g id="E"><use transform="matrix(0.07407407407407407,0,0,0.07407407407407407,0,0)" xlink:href="#aB"/><use transform="matrix(0.07407407407407407,0,0,0.07407407407407407,14.814814814814813,0)" xlink:href="#aE"/><use transform="matrix(0.07407407407407407,0,0,0.07407407407407407,29.629629629629626,0)" xlink:href="#aI"/></g><g id="F"><use transform="matrix(0.07407407407407407,0,0,0.07407407407407407,0,0)" xlink:href="#aA"/><use transform="matrix(0.07407407407407407,0,0,0.07407407407407407,19.185185185185183,0)" xlink:href="#aJ"/><use transform="matrix(0.07407407407407407,0,0,0.07407407407407407,25.037037037037035,0)" xlink:href="#az"/><use transform="matrix(0.07407407407407407,0,0,0.07407407407407407,38.37037037037037,0)" xlink:href="#av"/><use transform="matrix(0.07407407407407407,0,0,0.07407407407407407,53.185185185185176,0)" xlink:href="#aE"/><use transform="matrix(0.07407407407407407,0,0,0.07407407407407407,67.99999999999999,0)" xlink:href="#aC"/><use transform="matrix(0.07407407407407407,0,0,0.07407407407407407,75.40740740740739,0)" xlink:href="#aB"/><use transform="matrix(0.07407407407407407,0,0,0.07407407407407407,90.2222222222222,0)" xlink:href="#aE"/><use transform="matrix(0.07407407407407407,0,0,0.07407407407407407,105.03703703703701,0)" xlink:href="#aK"/><use transform="matrix(0.07407407407407407,0,0,0.07407407407407407,119.8518518518518,0)" xlink:href="#aM"/><use transform="matrix(0.07407407407407407,0,0,0.07407407407407407,125.70370370370367,0)" xlink:href="#av"/><use transform="matrix(0.07407407407407407,0,0,0.07407407407407407,140.51851851851848,0)" xlink:href="#aI"/></g><g id="G"><use transform="matrix(0.07407407407407407,0,0,0.07407407407407407,0,0)" xlink:href="#bk"/><use transform="matrix(0.07407407407407407,0,0,0.07407407407407407,16.22222222222222,0)" xlink:href="#av"/><use transform="matrix(0.07407407407407407,0,0,0.07407407407407407,31.037037037037035,0)" xlink:href="#aB"/><use transform="matrix(0.07407407407407407,0,0,0.07407407407407407,45.85185185185185,0)" xlink:href="#aC"/><use transform="matrix(0.07407407407407407,0,0,0.07407407407407407,53.25925925925926,0)" xlink:href="#bl"/><use transform="matrix(0.07407407407407407,0,0,0.07407407407407407,68.07407407407406,0)" xlink:href="#au"/><use transform="matrix(0.07407407407407407,0,0,0.07407407407407407,76.88888888888887,0)" xlink:href="#av"/></g><g id="H"><use transform="matrix(0.07407407407407407,0,0,0.07407407407407407,0,0)" xlink:href="#aN"/><use transform="matrix(0.07407407407407407,0,0,0.07407407407407407,17.77777777777778,0)" xlink:href="#bl"/><use transform="matrix(0.07407407407407407,0,0,0.07407407407407407,32.592592592592595,0)" xlink:href="#aK"/><use transform="matrix(0.07407407407407407,0,0,0.07407407407407407,47.407407407407405,0)" xlink:href="#aG"/><use transform="matrix(0.07407407407407407,0,0,0.07407407407407407,69.55555555555554,0)" xlink:href="#av"/><use transform="matrix(0.07407407407407407,0,0,0.07407407407407407,84.37037037037035,0)" xlink:href="#aE"/><use transform="matrix(0.07407407407407407,0,0,0.07407407407407407,99.18518518518516,0)" xlink:href="#aC"/><use transform="matrix(0.07407407407407407,0,0,0.07407407407407407,106.59259259259257,0)" xlink:href="#aB"/><use transform="matrix(0.07407407407407407,0,0,0.07407407407407407,121.40740740740739,0)" xlink:href="#aC"/><use transform="matrix(0.07407407407407407,0,0,0.07407407407407407,128.81481481481478,0)" xlink:href="#aJ"/><use transform="matrix(0.07407407407407407,0,0,0.07407407407407407,134.66666666666663,0)" xlink:href="#ax"/><use transform="matrix(0.07407407407407407,0,0,0.07407407407407407,149.48148148148144,0)" xlink:href="#aE"/></g><path fill="#3a414a" d="M30-248c87 1 191-15 191 75 0 78-77 80-158 76V0H30v-248zm33 125c57 0 124 11 124-50 0-59-68-47-124-48v98" id="bo"/><path fill="#3a414a" d="M114-163C36-179 61-72 57 0H25l-1-190h30c1 12-1 29 2 39 6-27 23-49 58-41v29" id="bp"/><path fill="#3a414a" d="M100-194c63 0 86 42 84 106H49c0 40 14 67 53 68 26 1 43-12 49-29l28 8c-11 28-37 45-77 45C44 4 14-33 15-96c1-61 26-98 85-98zm52 81c6-60-76-77-97-28-3 7-6 17-6 28h103" id="bq"/><path fill="#3a414a" d="M85-194c31 0 48 13 60 33l-1-100h32l1 261h-30c-2-10 0-23-3-31C134-8 116 4 85 4 32 4 16-35 15-94c0-66 23-100 70-100zm9 24c-40 0-46 34-46 75 0 40 6 74 45 74 42 0 51-32 51-76 0-42-9-74-50-73" id="br"/><path fill="#3a414a" d="M24-231v-30h32v30H24zM24 0v-190h32V0H24" id="bs"/><path fill="#3a414a" d="M96-169c-40 0-48 33-48 73s9 75 48 75c24 0 41-14 43-38l32 2c-6 37-31 61-74 61-59 0-76-41-82-99-10-93 101-131 147-64 4 7 5 14 7 22l-32 3c-4-21-16-35-41-35" id="bt"/><path fill="#3a414a" d="M100-194c62-1 85 37 85 99 1 63-27 99-86 99S16-35 15-95c0-66 28-99 85-99zM99-20c44 1 53-31 53-75 0-43-8-75-51-75s-53 32-53 75 10 74 51 75" id="bu"/><path fill="#3a414a" d="M117-194c89-4 53 116 60 194h-32v-121c0-31-8-49-39-48C34-167 62-67 57 0H25l-1-190h30c1 10-1 24 2 32 11-22 29-35 61-36" id="bv"/><g id="I"><use transform="matrix(0.08703703703703701,0,0,0.08703703703703701,0,0)" xlink:href="#bo"/><use transform="matrix(0.08703703703703701,0,0,0.08703703703703701,20.888888888888882,0)" xlink:href="#bp"/><use transform="matrix(0.08703703703703701,0,0,0.08703703703703701,31.246296296296286,0)" xlink:href="#bq"/><use transform="matrix(0.08703703703703701,0,0,0.08703703703703701,48.65370370370369,0)" xlink:href="#br"/><use transform="matrix(0.08703703703703701,0,0,0.08703703703703701,66.06111111111109,0)" xlink:href="#bs"/><use transform="matrix(0.08703703703703701,0,0,0.08703703703703701,72.93703703703702,0)" xlink:href="#bt"/><use transform="matrix(0.08703703703703701,0,0,0.08703703703703701,88.60370370370367,0)" xlink:href="#be"/><use transform="matrix(0.08703703703703701,0,0,0.08703703703703701,97.30740740740738,0)" xlink:href="#bs"/><use transform="matrix(0.08703703703703701,0,0,0.08703703703703701,104.1833333333333,0)" xlink:href="#bu"/><use transform="matrix(0.08703703703703701,0,0,0.08703703703703701,121.5907407407407,0)" xlink:href="#bv"/></g><g id="J"><use transform="matrix(0.08703703703703701,0,0,0.08703703703703701,0,0)" xlink:href="#bd"/><use transform="matrix(0.08703703703703701,0,0,0.08703703703703701,17.4074074074074,0)" xlink:href="#bv"/><use transform="matrix(0.08703703703703701,0,0,0.08703703703703701,34.8148148148148,0)" xlink:href="#br"/></g><path fill="#3a414a" d="M135-143c-3-34-86-38-87 0 15 53 115 12 119 90S17 21 10-45l28-5c4 36 97 45 98 0-10-56-113-15-118-90-4-57 82-63 122-42 12 7 21 19 24 35" id="bw"/><path fill="#3a414a" d="M101-234c-31-9-42 10-38 44h38v23H63V0H32v-167H5v-23h27c-7-52 17-82 69-68v24" id="bx"/><path fill="#3a414a" d="M210-169c-67 3-38 105-44 169h-31v-121c0-29-5-50-35-48C34-165 62-65 56 0H25l-1-190h30c1 10-1 24 2 32 10-44 99-50 107 0 11-21 27-35 58-36 85-2 47 119 55 194h-31v-121c0-29-5-49-35-48" id="by"/><path fill="#3a414a" d="M141 0L90-78 38 0H4l68-98-65-92h35l48 74 47-74h35l-64 92 68 98h-35" id="bz"/><g id="K"><use transform="matrix(0.08703703703703701,0,0,0.08703703703703701,0,0)" xlink:href="#bw"/><use transform="matrix(0.08703703703703701,0,0,0.08703703703703701,15.666666666666663,0)" xlink:href="#bu"/><use transform="matrix(0.08703703703703701,0,0,0.08703703703703701,33.07407407407406,0)" xlink:href="#bx"/><use transform="matrix(0.08703703703703701,0,0,0.08703703703703701,41.777777777777764,0)" xlink:href="#be"/><use transform="matrix(0.08703703703703701,0,0,0.08703703703703701,50.48148148148147,0)" xlink:href="#by"/><use transform="matrix(0.08703703703703701,0,0,0.08703703703703701,76.50555555555553,0)" xlink:href="#bd"/><use transform="matrix(0.08703703703703701,0,0,0.08703703703703701,93.91296296296294,0)" xlink:href="#bz"/></g><g id="L"><use transform="matrix(0.08703703703703701,0,0,0.08703703703703701,0,0)" xlink:href="#bw"/><use transform="matrix(0.08703703703703701,0,0,0.08703703703703701,15.666666666666663,0)" xlink:href="#bt"/><use transform="matrix(0.08703703703703701,0,0,0.08703703703703701,31.333333333333325,0)" xlink:href="#bu"/><use transform="matrix(0.08703703703703701,0,0,0.08703703703703701,48.740740740740726,0)" xlink:href="#bp"/><use transform="matrix(0.08703703703703701,0,0,0.08703703703703701,59.09814814814813,0)" xlink:href="#bq"/></g><path fill="#3a414a" d="M24 0v-261h32V0H24" id="bA"/><g id="M"><use transform="matrix(0.08703703703703701,0,0,0.08703703703703701,0,0)" xlink:href="#bx"/><use transform="matrix(0.08703703703703701,0,0,0.08703703703703701,8.7037037037037,0)" xlink:href="#bs"/><use transform="matrix(0.08703703703703701,0,0,0.08703703703703701,15.579629629629625,0)" xlink:href="#bA"/><use transform="matrix(0.08703703703703701,0,0,0.08703703703703701,22.45555555555555,0)" xlink:href="#bq"/><use transform="matrix(0.08703703703703701,0,0,0.08703703703703701,39.86296296296295,0)" xlink:href="#bw"/></g><path fill="#3a414a" d="M30 0v-248h187v28H63v79h144v27H63v87h162V0H30" id="bB"/><path fill="#3a414a" d="M115-194c53 0 69 39 70 98 0 66-23 100-70 100C84 3 66-7 56-30L54 0H23l1-261h32v101c10-23 28-34 59-34zm-8 174c40 0 45-34 45-75 0-40-5-75-45-74-42 0-51 32-51 76 0 43 10 73 51 73" id="bC"/><path fill="#3a414a" d="M177-190C167-65 218 103 67 71c-23-6-38-20-44-43l32-5c15 47 100 32 89-28v-30C133-14 115 1 83 1 29 1 15-40 15-95c0-56 16-97 71-98 29-1 48 16 59 35 1-10 0-23 2-32h30zM94-22c36 0 50-32 50-73 0-42-14-75-50-75-39 0-46 34-46 75s6 73 46 73" id="bD"/><g id="N"><use transform="matrix(0.08703703703703701,0,0,0.08703703703703701,0,0)" xlink:href="#bB"/><use transform="matrix(0.08703703703703701,0,0,0.08703703703703701,20.888888888888882,0)" xlink:href="#by"/><use transform="matrix(0.08703703703703701,0,0,0.08703703703703701,46.91296296296295,0)" xlink:href="#bC"/><use transform="matrix(0.08703703703703701,0,0,0.08703703703703701,64.32037037037036,0)" xlink:href="#bq"/><use transform="matrix(0.08703703703703701,0,0,0.08703703703703701,81.72777777777776,0)" xlink:href="#br"/><use transform="matrix(0.08703703703703701,0,0,0.08703703703703701,99.13518518518518,0)" xlink:href="#br"/><use transform="matrix(0.08703703703703701,0,0,0.08703703703703701,116.54259259259257,0)" xlink:href="#bs"/><use transform="matrix(0.08703703703703701,0,0,0.08703703703703701,123.4185185185185,0)" xlink:href="#bv"/><use transform="matrix(0.08703703703703701,0,0,0.08703703703703701,140.8259259259259,0)" xlink:href="#bD"/><use transform="matrix(0.08703703703703701,0,0,0.08703703703703701,158.2333333333333,0)" xlink:href="#bw"/></g><g id="O"><use transform="matrix(0.07407407407407407,0,0,0.07407407407407407,0,0)" xlink:href="#at"/><use transform="matrix(0.07407407407407407,0,0,0.07407407407407407,17.77777777777778,0)" xlink:href="#au"/><use transform="matrix(0.07407407407407407,0,0,0.07407407407407407,26.592592592592595,0)" xlink:href="#av"/><use transform="matrix(0.07407407407407407,0,0,0.07407407407407407,41.407407407407405,0)" xlink:href="#aw"/><use transform="matrix(0.07407407407407407,0,0,0.07407407407407407,56.22222222222221,0)" xlink:href="#au"/><use transform="matrix(0.07407407407407407,0,0,0.07407407407407407,65.03703703703702,0)" xlink:href="#ax"/><use transform="matrix(0.07407407407407407,0,0,0.07407407407407407,79.85185185185183,0)" xlink:href="#ay"/><use transform="matrix(0.07407407407407407,0,0,0.07407407407407407,93.18518518518516,0)" xlink:href="#av"/><use transform="matrix(0.07407407407407407,0,0,0.07407407407407407,107.99999999999997,0)" xlink:href="#az"/><use transform="matrix(0.07407407407407407,0,0,0.07407407407407407,121.33333333333329,0)" xlink:href="#az"/></g><path fill="#3a414a" d="M233-177c-1 41-23 64-60 70L243 0h-38l-65-103H63V0H30v-248c88 3 205-21 203 71zM63-129c60-2 137 13 137-47 0-61-80-42-137-45v92" id="bE"/><path fill="#3a414a" d="M206 0h-36l-40-164L89 0H53L-1-190h32L70-26l43-164h34l41 164 42-164h31" id="bF"/><g id="P"><use transform="matrix(0.08703703703703701,0,0,0.08703703703703701,0,0)" xlink:href="#bE"/><use transform="matrix(0.08703703703703701,0,0,0.08703703703703701,22.542592592592584,0)" xlink:href="#bd"/><use transform="matrix(0.08703703703703701,0,0,0.08703703703703701,39.94999999999999,0)" xlink:href="#bF"/></g><g id="Q"><use transform="matrix(0.08703703703703701,0,0,0.08703703703703701,0,0)" xlink:href="#bc"/><use transform="matrix(0.08703703703703701,0,0,0.08703703703703701,22.542592592592584,0)" xlink:href="#bd"/><use transform="matrix(0.08703703703703701,0,0,0.08703703703703701,39.94999999999999,0)" xlink:href="#be"/><use transform="matrix(0.08703703703703701,0,0,0.08703703703703701,48.65370370370369,0)" xlink:href="#bd"/></g><path d="M63-170c30 0 51 21 51 51 0 31-20 52-51 52s-52-21-52-52 21-51 52-51" id="bG"/><use transform="matrix(0.09320987654320984,0,0,0.09320987654320984,0,0)" xlink:href="#bG" id="R"/><path d="M24-248c120-7 223 5 221 122C244-46 201 0 124 0H24v-248zM76-40c74 7 117-18 117-86 0-67-45-88-117-82v168" id="bH"/><path d="M115-3C79 11 28 4 28-45v-112H4v-33h27l15-45h31v45h36v33H77v99c-1 23 16 31 38 25v30" id="bI"/><g id="S"><use transform="matrix(0.09320987654320984,0,0,0.09320987654320984,0,0)" xlink:href="#bH"/><use transform="matrix(0.09320987654320984,0,0,0.09320987654320984,24.141358024691346,0)" xlink:href="#aZ"/><use transform="matrix(0.09320987654320984,0,0,0.09320987654320984,42.78333333333332,0)" xlink:href="#bI"/><use transform="matrix(0.09320987654320984,0,0,0.09320987654320984,53.87530864197529,0)" xlink:href="#aZ"/></g><path d="M25-224v-37h50v37H25zM25 0v-190h50V0H25" id="bJ"/><path d="M135-194c87-1 58 113 63 194h-50c-7-57 23-157-34-157-59 0-34 97-39 157H25l-1-190h47c2 12-1 28 3 38 12-26 28-41 61-42" id="bK"/><path d="M195-6C206 82 75 100 31 46c-4-6-6-13-8-21l49-6c3 16 16 24 34 25 40 0 42-37 40-79-11 22-30 35-61 35-53 0-70-43-70-97 0-56 18-96 73-97 30 0 46 14 59 34l2-30h47zm-90-29c32 0 41-27 41-63 0-35-9-62-40-62-32 0-39 29-40 63 0 36 9 62 39 62" id="bL"/><g id="T"><use transform="matrix(0.09320987654320984,0,0,0.09320987654320984,0,0)" xlink:href="#ba"/><use transform="matrix(0.09320987654320984,0,0,0.09320987654320984,20.412962962962954,0)" xlink:href="#aQ"/><use transform="matrix(0.09320987654320984,0,0,0.09320987654320984,33.46234567901233,0)" xlink:href="#aT"/><use transform="matrix(0.09320987654320984,0,0,0.09320987654320984,52.1043209876543,0)" xlink:href="#ba"/><use transform="matrix(0.09320987654320984,0,0,0.09320987654320984,72.51728395061726,0)" xlink:href="#aQ"/><use transform="matrix(0.09320987654320984,0,0,0.09320987654320984,85.56666666666663,0)" xlink:href="#aR"/><use transform="matrix(0.09320987654320984,0,0,0.09320987654320984,105.97962962962958,0)" xlink:href="#aS"/><use transform="matrix(0.09320987654320984,0,0,0.09320987654320984,124.62160493827155,0)" xlink:href="#aT"/><use transform="matrix(0.09320987654320984,0,0,0.09320987654320984,143.26358024691353,0)" xlink:href="#aU"/><use transform="matrix(0.09320987654320984,0,0,0.09320987654320984,161.9055555555555,0)" xlink:href="#aU"/><use transform="matrix(0.09320987654320984,0,0,0.09320987654320984,180.54753086419748,0)" xlink:href="#bJ"/><use transform="matrix(0.09320987654320984,0,0,0.09320987654320984,189.86851851851847,0)" xlink:href="#bK"/><use transform="matrix(0.09320987654320984,0,0,0.09320987654320984,210.28148148148142,0)" xlink:href="#bL"/></g><g id="U"><use transform="matrix(0.09320987654320984,0,0,0.09320987654320984,0,0)" xlink:href="#bJ"/><use transform="matrix(0.09320987654320984,0,0,0.09320987654320984,9.320987654320984,0)" xlink:href="#aU"/></g><path d="M84 4C32 4 15-41 15-95c0-55 18-99 73-99 29 0 47 12 58 34l2-30h48l-1 265h-49V-32C136-9 114 4 84 4zm21-34c32 0 41-29 41-66 0-36-9-64-40-64-33 0-39 30-40 65 0 43 13 65 39 65" id="bM"/><path d="M85 4C-2 5 27-109 22-190h50c7 57-23 150 33 157 60-5 35-97 40-157h50l1 190h-47c-2-12 1-28-3-38-12 25-28 42-61 42" id="bN"/><path d="M88-194c31-1 46 15 58 34l-1-101h50l1 261h-48c-2-10 0-23-3-31C134-8 116 4 84 4 32 4 16-41 15-95c0-56 19-97 73-99zm17 164c33 0 40-30 41-66 1-37-9-64-41-64s-38 30-39 65c0 43 13 65 39 65" id="bO"/><g id="V"><use transform="matrix(0.09320987654320984,0,0,0.09320987654320984,0,0)" xlink:href="#aQ"/><use transform="matrix(0.09320987654320984,0,0,0.09320987654320984,13.049382716049378,0)" xlink:href="#aT"/><use transform="matrix(0.09320987654320984,0,0,0.09320987654320984,31.69135802469135,0)" xlink:href="#bM"/><use transform="matrix(0.09320987654320984,0,0,0.09320987654320984,52.10432098765431,0)" xlink:href="#bN"/><use transform="matrix(0.09320987654320984,0,0,0.09320987654320984,72.51728395061726,0)" xlink:href="#bJ"/><use transform="matrix(0.09320987654320984,0,0,0.09320987654320984,81.83827160493824,0)" xlink:href="#aQ"/><use transform="matrix(0.09320987654320984,0,0,0.09320987654320984,94.88765432098762,0)" xlink:href="#aT"/><use transform="matrix(0.09320987654320984,0,0,0.09320987654320984,113.5296296296296,0)" xlink:href="#bO"/></g><path d="M123 10C108 53 80 86 19 72V37c35 8 53-11 59-39L3-190h52l48 148c12-52 28-100 44-148h51" id="bP"/><g id="W"><use transform="matrix(0.09320987654320984,0,0,0.09320987654320984,0,0)" xlink:href="#aR"/><use transform="matrix(0.09320987654320984,0,0,0.09320987654320984,20.412962962962954,0)" xlink:href="#bK"/><use transform="matrix(0.09320987654320984,0,0,0.09320987654320984,40.82592592592591,0)" xlink:href="#aW"/><use transform="matrix(0.09320987654320984,0,0,0.09320987654320984,50.14691358024689,0)" xlink:href="#bP"/></g><g id="X"><use transform="matrix(0.09320987654320984,0,0,0.09320987654320984,0,0)" xlink:href="#aV"/><use transform="matrix(0.09320987654320984,0,0,0.09320987654320984,11.09197530864197,0)" xlink:href="#aR"/><use transform="matrix(0.09320987654320984,0,0,0.09320987654320984,31.504938271604924,0)" xlink:href="#aQ"/></g><path d="M24 0v-248h195v40H76v63h132v40H76v65h150V0H24" id="bQ"/><g id="Y"><use transform="matrix(0.09320987654320984,0,0,0.09320987654320984,0,0)" xlink:href="#bQ"/><use transform="matrix(0.09320987654320984,0,0,0.09320987654320984,22.37037037037036,0)" xlink:href="#bK"/><use transform="matrix(0.09320987654320984,0,0,0.09320987654320984,42.78333333333332,0)" xlink:href="#bI"/><use transform="matrix(0.09320987654320984,0,0,0.09320987654320984,53.87530864197529,0)" xlink:href="#bJ"/><use transform="matrix(0.09320987654320984,0,0,0.09320987654320984,63.19629629629627,0)" xlink:href="#bI"/><use transform="matrix(0.09320987654320984,0,0,0.09320987654320984,74.28827160493825,0)" xlink:href="#bP"/></g><path d="M67-125c0 53 21 87 73 88 37 1 54-22 65-47l45 17C233-25 199 4 140 4 58 4 20-42 15-125 8-235 124-281 211-232c18 10 29 29 36 50l-46 12c-8-25-30-41-62-41-52 0-71 34-72 86" id="bR"/><g id="Z"><use transform="matrix(0.09320987654320984,0,0,0.09320987654320984,0,0)" xlink:href="#bR"/><use transform="matrix(0.09320987654320984,0,0,0.09320987654320984,24.141358024691346,0)" xlink:href="#aW"/><use transform="matrix(0.09320987654320984,0,0,0.09320987654320984,33.46234567901233,0)" xlink:href="#aZ"/><use transform="matrix(0.09320987654320984,0,0,0.09320987654320984,52.1043209876543,0)" xlink:href="#aU"/><use transform="matrix(0.09320987654320984,0,0,0.09320987654320984,70.74629629629626,0)" xlink:href="#aU"/><use transform="matrix(0.09320987654320984,0,0,0.09320987654320984,89.38827160493824,0)" xlink:href="#bJ"/><use transform="matrix(0.09320987654320984,0,0,0.09320987654320984,98.70925925925924,0)" xlink:href="#aV"/><use transform="matrix(0.09320987654320984,0,0,0.09320987654320984,109.80123456790119,0)" xlink:href="#bJ"/><use transform="matrix(0.09320987654320984,0,0,0.09320987654320984,119.12222222222216,0)" xlink:href="#aS"/><use transform="matrix(0.09320987654320984,0,0,0.09320987654320984,137.76419753086415,0)" xlink:href="#aZ"/><use transform="matrix(0.09320987654320984,0,0,0.09320987654320984,156.40617283950613,0)" xlink:href="#bI"/><use transform="matrix(0.09320987654320984,0,0,0.09320987654320984,167.4981481481481,0)" xlink:href="#bJ"/><use transform="matrix(0.09320987654320984,0,0,0.09320987654320984,176.81913580246908,0)" xlink:href="#aR"/><use transform="matrix(0.09320987654320984,0,0,0.09320987654320984,197.232098765432,0)" xlink:href="#bK"/></g><path d="M147 0L96-86 75-71V0H25v-261h50v150l67-79h53l-66 74L201 0h-54" id="bS"/><g id="aa"><use transform="matrix(0.09320987654320984,0,0,0.09320987654320984,0,0)" xlink:href="#bI"/><use transform="matrix(0.09320987654320984,0,0,0.09320987654320984,11.09197530864197,0)" xlink:href="#aZ"/><use transform="matrix(0.09320987654320984,0,0,0.09320987654320984,29.733950617283938,0)" xlink:href="#aU"/><use transform="matrix(0.09320987654320984,0,0,0.09320987654320984,48.375925925925905,0)" xlink:href="#bS"/></g><g id="ab"><use transform="matrix(0.07407407407407407,0,0,0.07407407407407407,0,0)" xlink:href="#aA"/><use transform="matrix(0.07407407407407407,0,0,0.07407407407407407,19.185185185185183,0)" xlink:href="#aB"/><use transform="matrix(0.07407407407407407,0,0,0.07407407407407407,34,0)" xlink:href="#aC"/><use transform="matrix(0.07407407407407407,0,0,0.07407407407407407,41.407407407407405,0)" xlink:href="#aB"/></g><path d="M233-177c-1 41-23 64-60 70L243 0h-38l-65-103H63V0H30v-248c88 3 205-21 203 71zM63-129c60-2 137 13 137-47 0-61-80-42-137-45v92" id="bT"/><g id="ac"><use transform="matrix(0.07407407407407407,0,0,0.07407407407407407,0,0)" xlink:href="#bT"/><use transform="matrix(0.07407407407407407,0,0,0.07407407407407407,19.185185185185183,0)" xlink:href="#av"/><use transform="matrix(0.07407407407407407,0,0,0.07407407407407407,34,0)" xlink:href="#aw"/><use transform="matrix(0.07407407407407407,0,0,0.07407407407407407,48.81481481481481,0)" xlink:href="#au"/><use transform="matrix(0.07407407407407407,0,0,0.07407407407407407,57.629629629629626,0)" xlink:href="#av"/><use transform="matrix(0.07407407407407407,0,0,0.07407407407407407,72.44444444444444,0)" xlink:href="#az"/><use transform="matrix(0.07407407407407407,0,0,0.07407407407407407,85.77777777777777,0)" xlink:href="#av"/><use transform="matrix(0.07407407407407407,0,0,0.07407407407407407,100.59259259259258,0)" xlink:href="#aE"/><use transform="matrix(0.07407407407407407,0,0,0.07407407407407407,115.40740740740739,0)" xlink:href="#aC"/><use transform="matrix(0.07407407407407407,0,0,0.07407407407407407,122.8148148148148,0)" xlink:href="#aB"/><use transform="matrix(0.07407407407407407,0,0,0.07407407407407407,137.62962962962962,0)" xlink:href="#aC"/><use transform="matrix(0.07407407407407407,0,0,0.07407407407407407,145.03703703703704,0)" xlink:href="#aJ"/><use transform="matrix(0.07407407407407407,0,0,0.07407407407407407,150.88888888888889,0)" xlink:href="#ax"/><use transform="matrix(0.07407407407407407,0,0,0.07407407407407407,165.7037037037037,0)" xlink:href="#aE"/></g><g id="ad"><use transform="matrix(0.07407407407407407,0,0,0.07407407407407407,0,0)" xlink:href="#aA"/><use transform="matrix(0.07407407407407407,0,0,0.07407407407407407,19.185185185185183,0)" xlink:href="#aJ"/><use transform="matrix(0.07407407407407407,0,0,0.07407407407407407,25.037037037037035,0)" xlink:href="#az"/><use transform="matrix(0.07407407407407407,0,0,0.07407407407407407,38.37037037037037,0)" xlink:href="#aC"/><use transform="matrix(0.07407407407407407,0,0,0.07407407407407407,45.77777777777778,0)" xlink:href="#au"/><use transform="matrix(0.07407407407407407,0,0,0.07407407407407407,54.59259259259259,0)" xlink:href="#aJ"/><use transform="matrix(0.07407407407407407,0,0,0.07407407407407407,60.44444444444444,0)" xlink:href="#aH"/><use transform="matrix(0.07407407407407407,0,0,0.07407407407407407,75.25925925925925,0)" xlink:href="#bl"/><use transform="matrix(0.07407407407407407,0,0,0.07407407407407407,90.07407407407408,0)" xlink:href="#aC"/><use transform="matrix(0.07407407407407407,0,0,0.07407407407407407,97.48148148148145,0)" xlink:href="#aJ"/><use transform="matrix(0.07407407407407407,0,0,0.07407407407407407,103.33333333333331,0)" xlink:href="#ax"/><use transform="matrix(0.07407407407407407,0,0,0.07407407407407407,118.14814814814812,0)" xlink:href="#aE"/></g><g id="ae"><use transform="matrix(0.07407407407407407,0,0,0.07407407407407407,0,0)" xlink:href="#aF"/><use transform="matrix(0.07407407407407407,0,0,0.07407407407407407,17.77777777777778,0)" xlink:href="#au"/><use transform="matrix(0.07407407407407407,0,0,0.07407407407407407,26.592592592592595,0)" xlink:href="#au"/><use transform="matrix(0.07407407407407407,0,0,0.07407407407407407,35.40740740740741,0)" xlink:href="#ax"/><use transform="matrix(0.07407407407407407,0,0,0.07407407407407407,50.22222222222223,0)" xlink:href="#au"/></g><g id="af"><use transform="matrix(0.07407407407407407,0,0,0.07407407407407407,0,0)" xlink:href="#aN"/><use transform="matrix(0.07407407407407407,0,0,0.07407407407407407,17.77777777777778,0)" xlink:href="#aE"/><use transform="matrix(0.07407407407407407,0,0,0.07407407407407407,32.592592592592595,0)" xlink:href="#aB"/><use transform="matrix(0.07407407407407407,0,0,0.07407407407407407,47.407407407407405,0)" xlink:href="#aM"/><use transform="matrix(0.07407407407407407,0,0,0.07407407407407407,53.25925925925926,0)" xlink:href="#aO"/><use transform="matrix(0.07407407407407407,0,0,0.07407407407407407,66.59259259259258,0)" xlink:href="#az"/><use transform="matrix(0.07407407407407407,0,0,0.07407407407407407,79.92592592592591,0)" xlink:href="#aJ"/><use transform="matrix(0.07407407407407407,0,0,0.07407407407407407,85.77777777777776,0)" xlink:href="#az"/></g><path fill="#3a414a" d="M240-174c0 40-23 61-54 70L253 0h-59l-57-94H76V0H24v-248c93 4 217-23 216 74zM76-134c48-2 112 12 112-38 0-48-66-32-112-35v73" id="bU"/><path fill="#3a414a" d="M185-48c-13 30-37 53-82 52C43 2 14-33 14-96s30-98 90-98c62 0 83 45 84 108H66c0 31 8 55 39 56 18 0 30-7 34-22zm-45-69c5-46-57-63-70-21-2 6-4 13-4 21h74" id="bV"/><path fill="#3a414a" d="M137-138c1-29-70-34-71-4 15 46 118 7 119 86 1 83-164 76-172 9l43-7c4 19 20 25 44 25 33 8 57-30 24-41C81-84 22-81 20-136c-2-80 154-74 161-7" id="bW"/><path fill="#3a414a" d="M85 4C-2 5 27-109 22-190h50c7 57-23 150 33 157 60-5 35-97 40-157h50l1 190h-47c-2-12 1-28-3-38-12 25-28 42-61 42" id="bX"/><path fill="#3a414a" d="M25 0v-261h50V0H25" id="bY"/><path fill="#3a414a" d="M115-3C79 11 28 4 28-45v-112H4v-33h27l15-45h31v45h36v33H77v99c-1 23 16 31 38 25v30" id="bZ"/><path fill="#3a414a" d="M35-132v-50h50v50H35zM35 0v-49h50V0H35" id="ca"/><g id="ag"><use transform="matrix(0.0685185185185185,0,0,0.0685185185185185,0,0)" xlink:href="#bU"/><use transform="matrix(0.0685185185185185,0,0,0.0685185185185185,17.746296296296293,0)" xlink:href="#bV"/><use transform="matrix(0.0685185185185185,0,0,0.0685185185185185,31.449999999999996,0)" xlink:href="#bW"/><use transform="matrix(0.0685185185185185,0,0,0.0685185185185185,45.1537037037037,0)" xlink:href="#bX"/><use transform="matrix(0.0685185185185185,0,0,0.0685185185185185,60.15925925925925,0)" xlink:href="#bY"/><use transform="matrix(0.0685185185185185,0,0,0.0685185185185185,67.0111111111111,0)" xlink:href="#bZ"/><use transform="matrix(0.0685185185185185,0,0,0.0685185185185185,75.1648148148148,0)" xlink:href="#ca"/></g><path fill="#3a414a" d="M153-248C145-148 188 4 80 4 36 3 13-21 6-62l32-5c4 25 16 42 43 43 27 0 39-20 39-49v-147H72v-28h81" id="cb"/><g id="ah"><use transform="matrix(0.0685185185185185,0,0,0.0685185185185185,0,0)" xlink:href="#cb"/><use transform="matrix(0.0685185185185185,0,0,0.0685185185185185,12.33333333333333,0)" xlink:href="#bd"/><use transform="matrix(0.0685185185185185,0,0,0.0685185185185185,26.03703703703703,0)" xlink:href="#bt"/><use transform="matrix(0.0685185185185185,0,0,0.0685185185185185,38.37037037037035,0)" xlink:href="#bt"/><use transform="matrix(0.0685185185185185,0,0,0.0685185185185185,50.70370370370369,0)" xlink:href="#bd"/><use transform="matrix(0.0685185185185185,0,0,0.0685185185185185,64.40740740740739,0)" xlink:href="#bp"/><use transform="matrix(0.0685185185185185,0,0,0.0685185185185185,72.56111111111109,0)" xlink:href="#br"/></g><path fill="#3a414a" d="M33 0v-248h34V0H33" id="cc"/><g id="ai"><use transform="matrix(0.0685185185185185,0,0,0.0685185185185185,0,0)" xlink:href="#cc"/><use transform="matrix(0.0685185185185185,0,0,0.0685185185185185,6.85185185185185,0)" xlink:href="#bv"/><use transform="matrix(0.0685185185185185,0,0,0.0685185185185185,20.555555555555554,0)" xlink:href="#br"/><use transform="matrix(0.0685185185185185,0,0,0.0685185185185185,34.25925925925925,0)" xlink:href="#bq"/><use transform="matrix(0.0685185185185185,0,0,0.0685185185185185,47.962962962962955,0)" xlink:href="#bz"/></g><g id="aj"><use transform="matrix(0.0685185185185185,0,0,0.0685185185185185,0,0)" xlink:href="#bu"/><use transform="matrix(0.0685185185185185,0,0,0.0685185185185185,13.7037037037037,0)" xlink:href="#bx"/></g><g id="ak"><use transform="matrix(0.0685185185185185,0,0,0.0685185185185185,0,0)" xlink:href="#br"/><use transform="matrix(0.0685185185185185,0,0,0.0685185185185185,13.7037037037037,0)" xlink:href="#bd"/><use transform="matrix(0.0685185185185185,0,0,0.0685185185185185,27.4074074074074,0)" xlink:href="#be"/><use transform="matrix(0.0685185185185185,0,0,0.0685185185185185,34.25925925925925,0)" xlink:href="#bd"/></g><path fill="#3a414a" d="M115-194c55 1 70 41 70 98S169 2 115 4C84 4 66-9 55-30l1 105H24l-1-265h31l2 30c10-21 28-34 59-34zm-8 174c40 0 45-34 45-75s-6-73-45-74c-42 0-51 32-51 76 0 43 10 73 51 73" id="cd"/><g id="al"><use transform="matrix(0.0685185185185185,0,0,0.0685185185185185,0,0)" xlink:href="#bp"/><use transform="matrix(0.0685185185185185,0,0,0.0685185185185185,8.153703703703702,0)" xlink:href="#bq"/><use transform="matrix(0.0685185185185185,0,0,0.0685185185185185,21.8574074074074,0)" xlink:href="#cd"/><use transform="matrix(0.0685185185185185,0,0,0.0685185185185185,35.5611111111111,0)" xlink:href="#bp"/><use transform="matrix(0.0685185185185185,0,0,0.0685185185185185,43.7148148148148,0)" xlink:href="#bq"/><use transform="matrix(0.0685185185185185,0,0,0.0685185185185185,57.4185185185185,0)" xlink:href="#bw"/><use transform="matrix(0.0685185185185185,0,0,0.0685185185185185,69.75185185185184,0)" xlink:href="#bq"/><use transform="matrix(0.0685185185185185,0,0,0.0685185185185185,83.45555555555553,0)" xlink:href="#bv"/><use transform="matrix(0.0685185185185185,0,0,0.0685185185185185,97.15925925925923,0)" xlink:href="#be"/><use transform="matrix(0.0685185185185185,0,0,0.0685185185185185,104.01111111111108,0)" xlink:href="#bd"/><use transform="matrix(0.0685185185185185,0,0,0.0685185185185185,117.71481481481477,0)" xlink:href="#be"/><use transform="matrix(0.0685185185185185,0,0,0.0685185185185185,124.56666666666662,0)" xlink:href="#bs"/><use transform="matrix(0.0685185185185185,0,0,0.0685185185185185,129.97962962962958,0)" xlink:href="#bu"/><use transform="matrix(0.0685185185185185,0,0,0.0685185185185185,143.68333333333328,0)" xlink:href="#bv"/></g><g id="am"><use transform="matrix(0.0685185185185185,0,0,0.0685185185185185,0,0)" xlink:href="#bu"/><use transform="matrix(0.0685185185185185,0,0,0.0685185185185185,13.7037037037037,0)" xlink:href="#bx"/></g><g id="an"><use transform="matrix(0.0685185185185185,0,0,0.0685185185185185,0,0)" xlink:href="#be"/><use transform="matrix(0.0685185185185185,0,0,0.0685185185185185,6.85185185185185,0)" xlink:href="#bF"/><use transform="matrix(0.0685185185185185,0,0,0.0685185185185185,24.598148148148145,0)" xlink:href="#bu"/></g><g id="ao"><use transform="matrix(0.0685185185185185,0,0,0.0685185185185185,0,0)" xlink:href="#br"/><use transform="matrix(0.0685185185185185,0,0,0.0685185185185185,13.7037037037037,0)" xlink:href="#bs"/><use transform="matrix(0.0685185185185185,0,0,0.0685185185185185,19.116666666666664,0)" xlink:href="#bx"/><use transform="matrix(0.0685185185185185,0,0,0.0685185185185185,25.488888888888884,0)" xlink:href="#bx"/><use transform="matrix(0.0685185185185185,0,0,0.0685185185185185,32.340740740740735,0)" xlink:href="#bq"/><use transform="matrix(0.0685185185185185,0,0,0.0685185185185185,46.04444444444444,0)" xlink:href="#bv"/><use transform="matrix(0.0685185185185185,0,0,0.0685185185185185,59.74814814814814,0)" xlink:href="#bp"/><use transform="matrix(0.0685185185185185,0,0,0.0685185185185185,67.90185185185184,0)" xlink:href="#bq"/><use transform="matrix(0.0685185185185185,0,0,0.0685185185185185,81.60555555555554,0)" xlink:href="#bv"/><use transform="matrix(0.0685185185185185,0,0,0.0685185185185185,95.30925925925924,0)" xlink:href="#be"/></g><g id="ap"><use transform="matrix(0.0685185185185185,0,0,0.0685185185185185,0,0)" xlink:href="#by"/><use transform="matrix(0.0685185185185185,0,0,0.0685185185185185,20.487037037037034,0)" xlink:href="#bu"/><use transform="matrix(0.0685185185185185,0,0,0.0685185185185185,34.190740740740736,0)" xlink:href="#br"/><use transform="matrix(0.0685185185185185,0,0,0.0685185185185185,47.89444444444444,0)" xlink:href="#bq"/><use transform="matrix(0.0685185185185185,0,0,0.0685185185185185,61.598148148148134,0)" xlink:href="#bA"/><use transform="matrix(0.0685185185185185,0,0,0.0685185185185185,67.0111111111111,0)" xlink:href="#bw"/></g><path fill="#3a414a" d="M84 4C-5 8 30-112 23-190h32v120c0 31 7 50 39 49 72-2 45-101 50-169h31l1 190h-30c-1-10 1-25-2-33-11 22-28 36-60 37" id="ce"/><g id="aq"><use transform="matrix(0.0685185185185185,0,0,0.0685185185185185,0,0)" xlink:href="#br"/><use transform="matrix(0.0685185185185185,0,0,0.0685185185185185,13.7037037037037,0)" xlink:href="#bs"/><use transform="matrix(0.0685185185185185,0,0,0.0685185185185185,19.116666666666664,0)" xlink:href="#bw"/><use transform="matrix(0.0685185185185185,0,0,0.0685185185185185,31.449999999999996,0)" xlink:href="#be"/><use transform="matrix(0.0685185185185185,0,0,0.0685185185185185,38.30185185185184,0)" xlink:href="#bp"/><use transform="matrix(0.0685185185185185,0,0,0.0685185185185185,46.45555555555555,0)" xlink:href="#bs"/><use transform="matrix(0.0685185185185185,0,0,0.0685185185185185,51.86851851851852,0)" xlink:href="#bC"/><use transform="matrix(0.0685185185185185,0,0,0.0685185185185185,65.57222222222221,0)" xlink:href="#ce"/><use transform="matrix(0.0685185185185185,0,0,0.0685185185185185,79.27592592592589,0)" xlink:href="#be"/><use transform="matrix(0.0685185185185185,0,0,0.0685185185185185,86.12777777777775,0)" xlink:href="#bs"/><use transform="matrix(0.0685185185185185,0,0,0.0685185185185185,91.5407407407407,0)" xlink:href="#bu"/><use transform="matrix(0.0685185185185185,0,0,0.0685185185185185,105.24444444444441,0)" xlink:href="#bv"/></g><g id="ar"><use transform="matrix(0.0685185185185185,0,0,0.0685185185185185,0,0)" xlink:href="#bF"/><use transform="matrix(0.0685185185185185,0,0,0.0685185185185185,17.746296296296293,0)" xlink:href="#bp"/><use transform="matrix(0.0685185185185185,0,0,0.0685185185185185,25.899999999999995,0)" xlink:href="#bu"/><use transform="matrix(0.0685185185185185,0,0,0.0685185185185185,39.603703703703694,0)" xlink:href="#bv"/><use transform="matrix(0.0685185185185185,0,0,0.0685185185185185,53.307407407407396,0)" xlink:href="#bD"/></g><g id="as"><use transform="matrix(0.0685185185185185,0,0,0.0685185185185185,0,0)" xlink:href="#cd"/><use transform="matrix(0.0685185185185185,0,0,0.0685185185185185,13.7037037037037,0)" xlink:href="#bp"/><use transform="matrix(0.0685185185185185,0,0,0.0685185185185185,21.8574074074074,0)" xlink:href="#bq"/><use transform="matrix(0.0685185185185185,0,0,0.0685185185185185,35.5611111111111,0)" xlink:href="#br"/><use transform="matrix(0.0685185185185185,0,0,0.0685185185185185,49.264814814814805,0)" xlink:href="#bs"/><use transform="matrix(0.0685185185185185,0,0,0.0685185185185185,54.67777777777777,0)" xlink:href="#bt"/><use transform="matrix(0.0685185185185185,0,0,0.0685185185185185,67.0111111111111,0)" xlink:href="#be"/><use transform="matrix(0.0685185185185185,0,0,0.0685185185185185,73.86296296296295,0)" xlink:href="#bs"/><use transform="matrix(0.0685185185185185,0,0,0.0685185185185185,79.27592592592592,0)" xlink:href="#bu"/><use transform="matrix(0.0685185185185185,0,0,0.0685185185185185,92.97962962962961,0)" xlink:href="#bv"/><use transform="matrix(0.0685185185185185,0,0,0.0685185185185185,106.68333333333331,0)" xlink:href="#bw"/></g></defs></g></svg>