<?xml version="1.0" standalone="no"?>
<svg xmlns="http://www.w3.org/2000/svg" xmlns:xlink="http://www.w3.org/1999/xlink" width="1100pt" height="891pt" viewBox="0.00 0.00 1100.13 891">
<g id="graph0" class="graph" transform="translate(16.237212808606444,873.8069108023869) scale(0.9605948639534799)" data-name="G">

<polygon fill="white" stroke="none" points="-4,4 -4,-887 1096.13,-887 1096.13,4 -4,4"/>
<g id="clust2" class="cluster" data-name="cluster_d5a95f44">

<polygon fill="none" stroke="black" stroke-dasharray="1,5" points="454.4,-744 454.4,-875 1077.14,-875 1077.14,-744 454.4,-744"/>
<text text-anchor="middle" x="765.77" y="-858.4" font-family="Times,serif" font-size="14.00">File: cross_eval</text>
</g>
<g id="clust3" class="cluster" data-name="cluster_594fe504">

<polygon fill="none" stroke="black" stroke-dasharray="1,5" points="659.55,-412 659.55,-736 1082.94,-736 1082.94,-412 659.55,-412"/>
<text text-anchor="middle" x="871.25" y="-719.4" font-family="Times,serif" font-size="14.00">File: data_loader</text>
</g>
<g id="clust4" class="cluster" data-name="cluster_d4a354e7">

<polygon fill="none" stroke="black" stroke-dasharray="1,5" points="897.38,-420 897.38,-551 1037.08,-551 1037.08,-420 897.38,-420"/>
<text text-anchor="middle" x="967.23" y="-534.4" font-family="Times,serif" font-size="14.00">Class: dataset</text>
</g>
<g id="clust5" class="cluster" data-name="cluster_cc742002">

<polygon fill="none" stroke="black" stroke-dasharray="1,5" points="299,-188 299,-404 1084.13,-404 1084.13,-188 299,-188"/>
<text text-anchor="middle" x="691.56" y="-387.4" font-family="Times,serif" font-size="14.00">File: generate_embeddings</text>
</g>
<g id="clust6" class="cluster" data-name="cluster_642b89ge">

<polygon fill="none" stroke="black" stroke-dasharray="1,5" points="907.73,-196 907.73,-327 1026.74,-327 1026.74,-196 907.73,-196"/>
<text text-anchor="middle" x="967.23" y="-310.4" font-family="Times,serif" font-size="14.00">Class: MainModel</text>
</g>
<g id="clust7" class="cluster" data-name="cluster_e2f26d58">

<polygon fill="none" stroke="black" stroke-dasharray="1,5" points="85.48,-412 85.48,-597 618.57,-597 618.57,-412 85.48,-412"/>
<text text-anchor="middle" x="352.03" y="-580.4" font-family="Times,serif" font-size="14.00">File: test</text>
</g>
<g id="clust8" class="cluster" data-name="cluster_c46f7c72">

<polygon fill="none" stroke="black" stroke-dasharray="1,5" points="299,-8 299,-180 1034.74,-180 1034.74,-8 299,-8"/>
<text text-anchor="middle" x="666.87" y="-163.4" font-family="Times,serif" font-size="14.00">File: train</text>
</g>
<g id="clust9" class="cluster" data-name="cluster_642b8910">

<polygon fill="none" stroke="black" stroke-dasharray="1,5" points="907.73,-16 907.73,-147 1026.74,-147 1026.74,-16 907.73,-16"/>
<text text-anchor="middle" x="967.23" y="-130.4" font-family="Times,serif" font-size="14.00">Class: MainModel</text>
</g>
<!-- Legend -->
<g id="node1" class="node" pointer-events="visible" data-name="Legend">

<polygon fill="none" stroke="black" points="1.5,-385 1.5,-403 270.5,-403 270.5,-385 1.5,-385"/>
<text text-anchor="start" x="82.15" y="-389.4" font-family="Times,serif" font-size="14.00">Code2flow Legend</text>
<polygon fill="none" stroke="black" points="1.5,-293 1.5,-385 270.5,-385 270.5,-293 1.5,-293"/>
<polygon fill="none" stroke="black" points="3.5,-361 3.5,-383 218.5,-383 218.5,-361 3.5,-361"/>
<text text-anchor="start" x="63.76" y="-367.4" font-family="Times,serif" font-size="14.00">Regular function</text>
<polygon fill="#cccccc" stroke="none" points="218.5,-361 218.5,-383 268.5,-383 268.5,-361 218.5,-361"/>
<polygon fill="none" stroke="black" points="218.5,-361 218.5,-383 268.5,-383 268.5,-361 218.5,-361"/>
<polygon fill="none" stroke="black" points="3.5,-339 3.5,-361 218.5,-361 218.5,-339 3.5,-339"/>
<text text-anchor="start" x="14.57" y="-345.4" font-family="Times,serif" font-size="14.00">Trunk function (nothing calls this)</text>
<polygon fill="#966f33" stroke="none" points="218.5,-339 218.5,-361 268.5,-361 268.5,-339 218.5,-339"/>
<polygon fill="none" stroke="black" points="218.5,-339 218.5,-361 268.5,-361 268.5,-339 218.5,-339"/>
<polygon fill="none" stroke="black" points="3.5,-317 3.5,-339 218.5,-339 218.5,-317 3.5,-317"/>
<text text-anchor="start" x="6.23" y="-323.4" font-family="Times,serif" font-size="14.00">Leaf function (this calls nothing else)</text>
<polygon fill="#6db33f" stroke="none" points="218.5,-317 218.5,-339 268.5,-339 268.5,-317 218.5,-317"/>
<polygon fill="none" stroke="black" points="218.5,-317 218.5,-339 268.5,-339 268.5,-317 218.5,-317"/>
<polygon fill="none" stroke="black" points="3.5,-295 3.5,-317 218.5,-317 218.5,-295 3.5,-295"/>
<text text-anchor="start" x="74.26" y="-301.4" font-family="Times,serif" font-size="14.00">Function call</text>
<polygon fill="none" stroke="black" points="218.5,-295 218.5,-317 268.5,-317 268.5,-295 218.5,-295"/>
<text text-anchor="start" x="238.25" y="-301.4" font-family="Times,serif" font-size="14.00">→</text>
<polygon fill="none" stroke="black" points="2.5,-294 2.5,-384 269.5,-384 269.5,-294 2.5,-294"/>
<polygon fill="none" stroke="black" points="0,-292 0,-404 271,-404 271,-292 0,-292"/>
</g>
<!-- node_f30bfaf9 -->
<g id="node2" class="node" pointer-events="visible" data-name="node_f30bfaf9">

<path fill="#cccccc" stroke="black" d="M563.1,-788C563.1,-788 474.49,-788 474.49,-788 468.49,-788 462.49,-782 462.49,-776 462.49,-776 462.49,-764 462.49,-764 462.49,-758 468.49,-752 474.49,-752 474.49,-752 563.1,-752 563.1,-752 569.1,-752 575.1,-758 575.1,-764 575.1,-764 575.1,-776 575.1,-776 575.1,-782 569.1,-788 563.1,-788"/>
<text text-anchor="middle" x="518.8" y="-765.8" font-family="Times,serif" font-size="14.00">158: cross_eval()</text>
</g>
<!-- node_dd5a91a8 -->
<g id="node5" class="node" pointer-events="visible" data-name="node_dd5a91a8">

<path fill="#cccccc" stroke="black" d="M807.81,-788C807.81,-788 661.1,-788 661.1,-788 655.1,-788 649.1,-782 649.1,-776 649.1,-776 649.1,-764 649.1,-764 649.1,-758 655.1,-752 661.1,-752 661.1,-752 807.81,-752 807.81,-752 813.81,-752 819.81,-758 819.81,-764 819.81,-764 819.81,-776 819.81,-776 819.81,-782 813.81,-788 807.81,-788"/>
<text text-anchor="middle" x="734.45" y="-765.8" font-family="Times,serif" font-size="14.00">101: inference_MM_BC5()</text>
</g>
<!-- node_f30bfaf9&#45;&gt;node_dd5a91a8 -->
<g id="edge1" class="edge" data-name="node_f30bfaf9-&gt;node_dd5a91a8">

<path fill="none" stroke="#e69f00" stroke-width="2" d="M575.46,-779C575.46,-779 635.9,-779 635.9,-779"/>
<polygon fill="#e69f00" stroke="#e69f00" stroke-width="2" points="635.9,-782.5 645.9,-779 635.9,-775.5 635.9,-782.5"/>
</g>
<!-- node_2a8f0838 -->
<g id="node6" class="node" pointer-events="visible" data-name="node_2a8f0838">

<path fill="#6db33f" stroke="black" d="M794.07,-842C794.07,-842 674.84,-842 674.84,-842 668.84,-842 662.84,-836 662.84,-830 662.84,-830 662.84,-818 662.84,-818 662.84,-812 668.84,-806 674.84,-806 674.84,-806 794.07,-806 794.07,-806 800.07,-806 806.07,-812 806.07,-818 806.07,-818 806.07,-830 806.07,-830 806.07,-836 800.07,-842 794.07,-842"/>
<text text-anchor="middle" x="734.45" y="-819.8" font-family="Times,serif" font-size="14.00">26: read_train_labels()</text>
</g>
<!-- node_f30bfaf9&#45;&gt;node_2a8f0838 -->
<g id="edge3" class="edge" data-name="node_f30bfaf9-&gt;node_2a8f0838">

<path fill="none" stroke="#e69f00" stroke-width="2" d="M519.13,-788.28C519.13,-803.95 519.13,-824 519.13,-824 519.13,-824 649.43,-824 649.43,-824"/>
<polygon fill="#e69f00" stroke="#e69f00" stroke-width="2" points="649.43,-827.5 659.43,-824 649.43,-820.5 649.43,-827.5"/>
</g>
<!-- node_1c74032f -->
<g id="node7" class="node" pointer-events="visible" data-name="node_1c74032f">

<path fill="#6db33f" stroke="black" d="M1051.06,-703C1051.06,-703 883.41,-703 883.41,-703 877.41,-703 871.41,-697 871.41,-691 871.41,-691 871.41,-679 871.41,-679 871.41,-673 877.41,-667 883.41,-667 883.41,-667 1051.06,-667 1051.06,-667 1057.06,-667 1063.06,-673 1063.06,-679 1063.06,-679 1063.06,-691 1063.06,-691 1063.06,-697 1057.06,-703 1051.06,-703"/>
<text text-anchor="middle" x="967.23" y="-680.8" font-family="Times,serif" font-size="14.00">102: IdToLabelAndLabeltoId()</text>
</g>
<!-- node_f30bfaf9&#45;&gt;node_1c74032f -->
<g id="edge4" class="edge" data-name="node_f30bfaf9-&gt;node_1c74032f">

<path fill="none" stroke="#e69f00" stroke-width="2" d="M519.13,-751.68C519.13,-728.34 519.13,-691 519.13,-691 519.13,-691 858.08,-691 858.08,-691"/>
<polygon fill="#e69f00" stroke="#e69f00" stroke-width="2" points="858.08,-694.5 868.08,-691 858.08,-687.5 858.08,-694.5"/>
</g>
<!-- node_a201eddf -->
<g id="node10" class="node" pointer-events="visible" data-name="node_a201eddf">

<path fill="#cccccc" stroke="black" d="M776.59,-487C776.59,-487 692.32,-487 692.32,-487 686.32,-487 680.32,-481 680.32,-475 680.32,-475 680.32,-463 680.32,-463 680.32,-457 686.32,-451 692.32,-451 692.32,-451 776.59,-451 776.59,-451 782.59,-451 788.59,-457 788.59,-463 788.59,-463 788.59,-475 788.59,-475 788.59,-481 782.59,-487 776.59,-487"/>
<text text-anchor="middle" x="734.45" y="-464.8" font-family="Times,serif" font-size="14.00">207: load_data()</text>
</g>
<!-- node_f30bfaf9&#45;&gt;node_a201eddf -->
<g id="edge6" class="edge" data-name="node_f30bfaf9-&gt;node_a201eddf">

<path fill="none" stroke="#e69f00" stroke-width="2" d="M575.54,-770C600.01,-770 623.13,-770 623.13,-770 623.13,-770 623.13,-480.5 623.13,-480.5 623.13,-480.5 667.07,-480.5 667.07,-480.5"/>
<polygon fill="#e69f00" stroke="#e69f00" stroke-width="2" points="667.07,-484 677.07,-480.5 667.07,-477 667.07,-484"/>
</g>
<!-- node_63011c16 -->
<g id="node11" class="node" pointer-events="visible" data-name="node_63011c16">

<path fill="#6db33f" stroke="black" d="M789.27,-541C789.27,-541 679.64,-541 679.64,-541 673.64,-541 667.64,-535 667.64,-529 667.64,-529 667.64,-517 667.64,-517 667.64,-511 673.64,-505 679.64,-505 679.64,-505 789.27,-505 789.27,-505 795.27,-505 801.27,-511 801.27,-517 801.27,-517 801.27,-529 801.27,-529 801.27,-535 795.27,-541 789.27,-541"/>
<text text-anchor="middle" x="734.45" y="-518.8" font-family="Times,serif" font-size="14.00">189: load_mapping()</text>
</g>
<!-- node_f30bfaf9&#45;&gt;node_63011c16 -->
<g id="edge8" class="edge" data-name="node_f30bfaf9-&gt;node_63011c16">

<path fill="none" stroke="#e69f00" stroke-width="2" d="M575.42,-761C591.69,-761 605.13,-761 605.13,-761 605.13,-761 605.13,-534.5 605.13,-534.5 605.13,-534.5 654.49,-534.5 654.49,-534.5"/>
<polygon fill="#e69f00" stroke="#e69f00" stroke-width="2" points="654.49,-538 664.49,-534.5 654.49,-531 654.49,-538"/>
</g>
<!-- node_0462a7ff -->
<g id="node3" class="node" pointer-events="visible" data-name="node_0462a7ff">

<path fill="#6db33f" stroke="black" d="M1057.05,-788C1057.05,-788 877.42,-788 877.42,-788 871.42,-788 865.42,-782 865.42,-776 865.42,-776 865.42,-764 865.42,-764 865.42,-758 871.42,-752 877.42,-752 877.42,-752 1057.05,-752 1057.05,-752 1063.05,-752 1069.05,-758 1069.05,-764 1069.05,-764 1069.05,-776 1069.05,-776 1069.05,-782 1063.05,-788 1057.05,-788"/>
<text text-anchor="middle" x="967.23" y="-765.8" font-family="Times,serif" font-size="14.00">46: find_new_labels_MM_BC5()</text>
</g>
<!-- node_80ebf2ee -->
<g id="node4" class="node" pointer-events="visible" data-name="node_80ebf2ee">

<path fill="#6db33f" stroke="black" d="M1024.69,-842C1024.69,-842 909.77,-842 909.77,-842 903.77,-842 897.77,-836 897.77,-830 897.77,-830 897.77,-818 897.77,-818 897.77,-812 903.77,-806 909.77,-806 909.77,-806 1024.69,-806 1024.69,-806 1030.69,-806 1036.69,-812 1036.69,-818 1036.69,-818 1036.69,-830 1036.69,-830 1036.69,-836 1030.69,-842 1024.69,-842"/>
<text text-anchor="middle" x="967.23" y="-819.8" font-family="Times,serif" font-size="14.00">77: find_new_target()</text>
</g>
<!-- node_dd5a91a8&#45;&gt;node_0462a7ff -->
<g id="edge9" class="edge" data-name="node_dd5a91a8-&gt;node_0462a7ff">

<path fill="none" stroke="#000000" stroke-width="2" d="M820.14,-770C820.14,-770 852.14,-770 852.14,-770"/>
<polygon fill="#000000" stroke="#000000" stroke-width="2" points="852.14,-773.5 862.14,-770 852.14,-766.5 852.14,-773.5"/>
</g>
<!-- node_dd5a91a8&#45;&gt;node_80ebf2ee -->
<g id="edge10" class="edge" data-name="node_dd5a91a8-&gt;node_80ebf2ee">

<path fill="none" stroke="#000000" stroke-width="2" d="M813.13,-788.28C813.13,-803.95 813.13,-824 813.13,-824 813.13,-824 884.37,-824 884.37,-824"/>
<polygon fill="#000000" stroke="#000000" stroke-width="2" points="884.37,-827.5 894.37,-824 884.37,-820.5 884.37,-827.5"/>
</g>
<!-- node_7f2bec5e -->
<g id="node8" class="node" pointer-events="visible" data-name="node_7f2bec5e">

<path fill="#6db33f" stroke="black" d="M1005.62,-518C1005.62,-518 928.85,-518 928.85,-518 922.85,-518 916.85,-512 916.85,-506 916.85,-506 916.85,-494 916.85,-494 916.85,-488 922.85,-482 928.85,-482 928.85,-482 1005.62,-482 1005.62,-482 1011.62,-482 1017.62,-488 1017.62,-494 1017.62,-494 1017.62,-506 1017.62,-506 1017.62,-512 1011.62,-518 1005.62,-518"/>
<text text-anchor="middle" x="967.23" y="-495.8" font-family="Times,serif" font-size="14.00">123: __init__()</text>
</g>
<!-- node_7f2becgi -->
<g id="node9" class="node" pointer-events="visible" data-name="node_7f2becgi">

<path fill="#6db33f" stroke="black" d="M1016.93,-464C1016.93,-464 917.53,-464 917.53,-464 911.53,-464 905.53,-458 905.53,-452 905.53,-452 905.53,-440 905.53,-440 905.53,-434 911.53,-428 917.53,-428 917.53,-428 1016.93,-428 1016.93,-428 1022.93,-428 1028.93,-434 1028.93,-440 1028.93,-440 1028.93,-452 1028.93,-452 1028.93,-458 1022.93,-464 1016.93,-464"/>
<text text-anchor="middle" x="967.23" y="-441.8" font-family="Times,serif" font-size="14.00">123: __getitem__()</text>
</g>
<!-- node_a201eddf&#45;&gt;node_1c74032f -->
<g id="edge11" class="edge" data-name="node_a201eddf-&gt;node_1c74032f">

<path fill="none" stroke="#cc79a7" stroke-width="2" d="M788.78,-478.4C798.77,-478.4 806.13,-478.4 806.13,-478.4 806.13,-478.4 806.13,-679 806.13,-679 806.13,-679 858.16,-679 858.16,-679"/>
<polygon fill="#cc79a7" stroke="#cc79a7" stroke-width="2" points="858.16,-682.5 868.16,-679 858.16,-675.5 858.16,-682.5"/>
</g>
<!-- node_a201eddf&#45;&gt;node_7f2bec5e -->
<g id="edge12" class="edge" data-name="node_a201eddf-&gt;node_7f2bec5e">

<path fill="none" stroke="#cc79a7" stroke-width="2" d="M788.95,-467.6C857.99,-467.6 968.13,-467.6 968.13,-467.6 968.13,-467.6 968.13,-468.99 968.13,-468.99"/>
<polygon fill="#cc79a7" stroke="#cc79a7" stroke-width="2" points="964.63,-468.5 968.13,-478.5 971.63,-468.5 964.63,-468.5"/>
</g>
<!-- node_b9875fb5 -->
<g id="node12" class="node" pointer-events="visible" data-name="node_b9875fb5">

<path fill="#6db33f" stroke="black" d="M1005.86,-649C1005.86,-649 928.61,-649 928.61,-649 922.61,-649 916.61,-643 916.61,-637 916.61,-637 916.61,-625 916.61,-625 916.61,-619 922.61,-613 928.61,-613 928.61,-613 1005.86,-613 1005.86,-613 1011.86,-613 1017.86,-619 1017.86,-625 1017.86,-625 1017.86,-637 1017.86,-637 1017.86,-643 1011.86,-649 1005.86,-649"/>
<text text-anchor="middle" x="967.23" y="-626.8" font-family="Times,serif" font-size="14.00">31: read_data()</text>
</g>
<!-- node_a201eddf&#45;&gt;node_b9875fb5 -->
<g id="edge13" class="edge" data-name="node_a201eddf-&gt;node_b9875fb5">

<path fill="none" stroke="#cc79a7" stroke-width="2" d="M788.95,-474.8C801.44,-474.8 811.13,-474.8 811.13,-474.8 811.13,-474.8 811.13,-631 811.13,-631 811.13,-631 903.09,-631 903.09,-631"/>
<polygon fill="#cc79a7" stroke="#cc79a7" stroke-width="2" points="903.09,-634.5 913.09,-631 903.09,-627.5 903.09,-634.5"/>
</g>
<!-- node_a73470d7 -->
<g id="node13" class="node" pointer-events="visible" data-name="node_a73470d7">

<path fill="#6db33f" stroke="black" d="M1063.15,-595C1063.15,-595 871.32,-595 871.32,-595 865.32,-595 859.32,-589 859.32,-583 859.32,-583 859.32,-571 859.32,-571 859.32,-565 865.32,-559 871.32,-559 871.32,-559 1063.15,-559 1063.15,-559 1069.15,-559 1075.15,-565 1075.15,-571 1075.15,-571 1075.15,-583 1075.15,-583 1075.15,-589 1069.15,-595 1063.15,-595"/>
<text text-anchor="middle" x="967.23" y="-572.8" font-family="Times,serif" font-size="14.00">71: tokenize_and_preserve_labels()</text>
</g>
<!-- node_a201eddf&#45;&gt;node_a73470d7 -->
<g id="edge14" class="edge" data-name="node_a201eddf-&gt;node_a73470d7">

<path fill="none" stroke="#cc79a7" stroke-width="2" d="M788.97,-471.2C831.4,-471.2 883.13,-471.2 883.13,-471.2 883.13,-471.2 883.13,-545.54 883.13,-545.54"/>
<polygon fill="#cc79a7" stroke="#cc79a7" stroke-width="2" points="879.63,-545.54 883.13,-555.54 886.63,-545.54 879.63,-545.54"/>
</g>
<!-- node_0e10e230 -->
<g id="node14" class="node" pointer-events="visible" data-name="node_0e10e230">

<path fill="#966f33" stroke="black" d="M379.05,-371C379.05,-371 318.98,-371 318.98,-371 312.98,-371 306.98,-365 306.98,-359 306.98,-359 306.98,-347 306.98,-347 306.98,-341 312.98,-335 318.98,-335 318.98,-335 379.05,-335 379.05,-335 385.05,-335 391.05,-341 391.05,-347 391.05,-347 391.05,-359 391.05,-359 391.05,-365 385.05,-371 379.05,-371"/>
<text text-anchor="middle" x="349.02" y="-348.8" font-family="Times,serif" font-size="14.00">0: (global)()</text>
</g>
<!-- node_1882ca76 -->
<g id="node16" class="node" pointer-events="visible" data-name="node_1882ca76">

<path fill="#cccccc" stroke="black" d="M547.51,-371C547.51,-371 490.09,-371 490.09,-371 484.09,-371 478.09,-365 478.09,-359 478.09,-359 478.09,-347 478.09,-347 478.09,-341 484.09,-335 490.09,-335 490.09,-335 547.51,-335 547.51,-335 553.51,-335 559.51,-341 559.51,-347 559.51,-347 559.51,-359 559.51,-359 559.51,-365 553.51,-371 547.51,-371"/>
<text text-anchor="middle" x="518.8" y="-348.8" font-family="Times,serif" font-size="14.00">141: main()</text>
</g>
<!-- node_0e10e230&#45;&gt;node_1882ca76 -->
<g id="edge15" class="edge" data-name="node_0e10e230-&gt;node_1882ca76">

<path fill="none" stroke="#000000" stroke-width="2" d="M391.42,-353C391.42,-353 464.78,-353 464.78,-353"/>
<polygon fill="#000000" stroke="#000000" stroke-width="2" points="464.78,-356.5 474.78,-353 464.78,-349.5 464.78,-356.5"/>
</g>
<!-- node_3a431b14 -->
<g id="node15" class="node" pointer-events="visible" data-name="node_3a431b14">

<path fill="#cccccc" stroke="black" d="M810.23,-371C810.23,-371 658.68,-371 658.68,-371 652.68,-371 646.68,-365 646.68,-359 646.68,-359 646.68,-347 646.68,-347 646.68,-341 652.68,-335 658.68,-335 658.68,-335 810.23,-335 810.23,-335 816.23,-335 822.23,-341 822.23,-347 822.23,-347 822.23,-359 822.23,-359 822.23,-365 816.23,-371 810.23,-371"/>
<text text-anchor="middle" x="734.45" y="-348.8" font-family="Times,serif" font-size="14.00">113: generate_embeddings()</text>
</g>
<!-- node_3a431b14&#45;&gt;node_7f2becgi -->
<g id="edge50" class="edge" data-name="node_3a431b14-&gt;node_7f2becgi">

<path fill="none" stroke="#000000" stroke-width="2" d="M815.13,-371.4C815.13,-397.41 815.13,-441.8 815.13,-441.8 815.13,-441.8 892.34,-441.8 892.34,-441.8"/>
<polygon fill="#000000" stroke="#000000" stroke-width="2" points="892.34,-445.3 902.34,-441.8 892.34,-438.3 892.34,-445.3"/>
</g>
<!-- node_456cedge -->
<g id="node17" class="node" pointer-events="visible" data-name="node_456cedge">

<path fill="#6db33f" stroke="black" d="M1000.75,-294C1000.75,-294 933.72,-294 933.72,-294 927.72,-294 921.72,-288 921.72,-282 921.72,-282 921.72,-270 921.72,-270 921.72,-264 927.72,-258 933.72,-258 933.72,-258 1000.75,-258 1000.75,-258 1006.75,-258 1012.75,-264 1012.75,-270 1012.75,-270 1012.75,-282 1012.75,-282 1012.75,-288 1006.75,-294 1000.75,-294"/>
<text text-anchor="middle" x="967.23" y="-271.8" font-family="Times,serif" font-size="14.00">98: features()</text>
</g>
<!-- node_3a431b14&#45;&gt;node_456cedge -->
<g id="edge51" class="edge" data-name="node_3a431b14-&gt;node_456cedge">

<path fill="none" stroke="#000000" stroke-width="2" d="M799.13,-334.52C799.13,-311.45 799.13,-275 799.13,-275 799.13,-275 908.27,-275 908.27,-275"/>
<polygon fill="#000000" stroke="#000000" stroke-width="2" points="908.27,-278.5 918.27,-275 908.27,-271.5 908.27,-278.5"/>
</g>
<!-- node_78c04396 -->
<g id="node19" class="node" pointer-events="visible" data-name="node_78c04396">

<path fill="#6db33f" stroke="black" d="M1064.02,-371C1064.02,-371 870.45,-371 870.45,-371 864.45,-371 858.45,-365 858.45,-359 858.45,-359 858.45,-347 858.45,-347 858.45,-341 864.45,-335 870.45,-335 870.45,-335 1064.02,-335 1064.02,-335 1070.02,-335 1076.02,-341 1076.02,-347 1076.02,-347 1076.02,-359 1076.02,-359 1076.02,-365 1070.02,-371 1064.02,-371"/>
<text text-anchor="middle" x="967.23" y="-348.8" font-family="Times,serif" font-size="14.00">93: save_embeddings_to_text_file()</text>
</g>
<!-- node_3a431b14&#45;&gt;node_78c04396 -->
<g id="edge16" class="edge" data-name="node_3a431b14-&gt;node_78c04396">

<path fill="none" stroke="#000000" stroke-width="2" d="M822.46,-353C822.46,-353 845.29,-353 845.29,-353"/>
<polygon fill="#000000" stroke="#000000" stroke-width="2" points="845.29,-356.5 855.29,-353 845.29,-349.5 845.29,-356.5"/>
</g><g id="edge17" class="edge" data-name="node_3a431b14-&gt;node_456cedle" data-comment="node_3a431b14-&gt;node_78c04396">

<path fill="none" stroke="#000000" stroke-width="2" d="M787.13,-334.51C787.13,-298.4 787.13,-222 787.13,-222 787.13,-222 914.68,-222 914.68,-222"/>
<polygon fill="#000000" stroke="#000000" stroke-width="2" points="914.68,-225.5 924.68,-222 914.68,-218.5 914.68,-225.5"/>
</g>
<!-- node_1882ca76&#45;&gt;node_a201eddf -->
<g id="edge18" class="edge" data-name="node_1882ca76-&gt;node_a201eddf">

<path fill="none" stroke="#d55e00" stroke-width="2" d="M559.9,-362C572.51,-362 583.13,-362 583.13,-362 583.13,-362 583.13,-465 583.13,-465 583.13,-465 666.79,-465 666.79,-465"/>
<polygon fill="#d55e00" stroke="#d55e00" stroke-width="2" points="666.79,-468.5 676.79,-465 666.79,-461.5 666.79,-468.5"/>
</g>
<!-- node_1882ca76&#45;&gt;node_63011c16 -->
<g id="edge22" class="edge" data-name="node_1882ca76-&gt;node_63011c16">

<path fill="none" stroke="#d55e00" stroke-width="2" d="M559.81,-353C593.3,-353 635.13,-353 635.13,-353 635.13,-353 635.13,-519 635.13,-519 635.13,-519 654.35,-519 654.35,-519"/>
<polygon fill="#d55e00" stroke="#d55e00" stroke-width="2" points="654.35,-522.5 664.35,-519 654.35,-515.5 654.35,-522.5"/>
</g>
<!-- node_1882ca76&#45;&gt;node_3a431b14 -->
<g id="edge23" class="edge" data-name="node_1882ca76-&gt;node_3a431b14">

<path fill="none" stroke="#d55e00" stroke-width="2" d="M559.87,-344C559.87,-344 633.18,-344 633.18,-344"/>
<polygon fill="#d55e00" stroke="#d55e00" stroke-width="2" points="633.18,-347.5 643.18,-344 633.18,-340.5 633.18,-347.5"/>
</g>
<!-- node_5e14ab04 -->
<g id="node20" class="node" pointer-events="visible" data-name="node_5e14ab04">

<path fill="#966f33" stroke="black" d="M165.53,-564C165.53,-564 105.47,-564 105.47,-564 99.47,-564 93.47,-558 93.47,-552 93.47,-552 93.47,-540 93.47,-540 93.47,-534 99.47,-528 105.47,-528 105.47,-528 165.53,-528 165.53,-528 171.53,-528 177.53,-534 177.53,-540 177.53,-540 177.53,-552 177.53,-552 177.53,-558 171.53,-564 165.53,-564"/>
<text text-anchor="middle" x="135.5" y="-541.8" font-family="Times,serif" font-size="14.00">0: (global)()</text>
</g><g id="node18" class="node" pointer-events="visible" data-name="node_456cedle" data-comment="node_5e14ab04">

<path fill="#6db33f" stroke="black" d="M994.32,-240C994.32,-240 940.15,-240 940.15,-240 934.15,-240 928.15,-234 928.15,-228 928.15,-228 928.15,-216 928.15,-216 928.15,-210 934.15,-204 940.15,-204 940.15,-204 994.32,-204 994.32,-204 1000.32,-204 1006.32,-210 1006.32,-216 1006.32,-216 1006.32,-228 1006.32,-228 1006.32,-234 1000.32,-240 994.32,-240"/>
<text text-anchor="middle" x="967.23" y="-217.8" font-family="Times,serif" font-size="14.00">98: linear()</text>
</g>
<!-- node_ff1eb7bb -->
<g id="node24" class="node" pointer-events="visible" data-name="node_ff1eb7bb">

<path fill="#cccccc" stroke="black" d="M377.72,-564C377.72,-564 320.31,-564 320.31,-564 314.31,-564 308.31,-558 308.31,-552 308.31,-552 308.31,-540 308.31,-540 308.31,-534 314.31,-528 320.31,-528 320.31,-528 377.72,-528 377.72,-528 383.72,-528 389.72,-534 389.72,-540 389.72,-540 389.72,-552 389.72,-552 389.72,-558 383.72,-564 377.72,-564"/>
<text text-anchor="middle" x="349.02" y="-541.8" font-family="Times,serif" font-size="14.00">130: main()</text>
</g>
<!-- node_5e14ab04&#45;&gt;node_ff1eb7bb -->
<g id="edge26" class="edge" data-name="node_5e14ab04-&gt;node_ff1eb7bb">

<path fill="none" stroke="#f0e442" stroke-width="2" d="M177.94,-546C177.94,-546 295.08,-546 295.08,-546"/>
<polygon fill="#f0e442" stroke="#f0e442" stroke-width="2" points="295.08,-549.5 305.08,-546 295.08,-542.5 295.08,-549.5"/>
</g>
<!-- node_5a6d272c -->
<g id="node21" class="node" pointer-events="visible" data-name="node_5a6d272c">

<path fill="#6db33f" stroke="black" d="M598.33,-510C598.33,-510 439.26,-510 439.26,-510 433.26,-510 427.26,-504 427.26,-498 427.26,-498 427.26,-486 427.26,-486 427.26,-480 433.26,-474 439.26,-474 439.26,-474 598.33,-474 598.33,-474 604.33,-474 610.33,-480 610.33,-486 610.33,-486 610.33,-498 610.33,-498 610.33,-504 604.33,-510 598.33,-510"/>
<text text-anchor="middle" x="518.8" y="-487.8" font-family="Times,serif" font-size="14.00">96: generate_prediction_file()</text>
</g>
<!-- node_3bdb5476 -->
<g id="node22" class="node" pointer-events="visible" data-name="node_3bdb5476">

<path fill="#6db33f" stroke="black" d="M586.74,-564C586.74,-564 450.86,-564 450.86,-564 444.86,-564 438.86,-558 438.86,-552 438.86,-552 438.86,-540 438.86,-540 438.86,-534 444.86,-528 450.86,-528 450.86,-528 586.74,-528 586.74,-528 592.74,-528 598.74,-534 598.74,-540 598.74,-540 598.74,-552 598.74,-552 598.74,-558 592.74,-564 586.74,-564"/>
<text text-anchor="middle" x="518.8" y="-541.8" font-family="Times,serif" font-size="14.00">112: generate_prob_file()</text>
</g>
<!-- node_d9bf0bc3 -->
<g id="node23" class="node" pointer-events="visible" data-name="node_d9bf0bc3">

<path fill="#cccccc" stroke="black" d="M556.08,-456C556.08,-456 481.52,-456 481.52,-456 475.52,-456 469.52,-450 469.52,-444 469.52,-444 469.52,-432 469.52,-432 469.52,-426 475.52,-420 481.52,-420 481.52,-420 556.08,-420 556.08,-420 562.08,-420 568.08,-426 568.08,-432 568.08,-432 568.08,-444 568.08,-444 568.08,-450 562.08,-456 556.08,-456"/>
<text text-anchor="middle" x="518.8" y="-433.8" font-family="Times,serif" font-size="14.00">52: inference()</text>
</g>
<!-- node_d9bf0bc3&#45;&gt;node_7f2becgi -->
<g id="edge47" class="edge" data-name="node_d9bf0bc3-&gt;node_7f2becgi">

<path fill="none" stroke="#8b8000" stroke-width="2" d="M568.5,-446.4C568.5,-446.4 892.1,-446.4 892.1,-446.4"/>
<polygon fill="#8b8000" stroke="#8b8000" stroke-width="2" points="892.1,-449.9 902.1,-446.4 892.1,-442.9 892.1,-449.9"/>
</g>
<!-- node_456ced50 -->
<g id="node26" class="node" pointer-events="visible" data-name="node_456ced50">

<path fill="#6db33f" stroke="black" d="M1000.75,-114C1000.75,-114 933.72,-114 933.72,-114 927.72,-114 921.72,-108 921.72,-102 921.72,-102 921.72,-90 921.72,-90 921.72,-84 927.72,-78 933.72,-78 933.72,-78 1000.75,-78 1000.75,-78 1006.75,-78 1012.75,-84 1012.75,-90 1012.75,-90 1012.75,-102 1012.75,-102 1012.75,-108 1006.75,-114 1000.75,-114"/>
<text text-anchor="middle" x="967.23" y="-91.8" font-family="Times,serif" font-size="14.00">98: features()</text>
</g>
<!-- node_d9bf0bc3&#45;&gt;node_456ced50 -->
<g id="edge48" class="edge" data-name="node_d9bf0bc3-&gt;node_456ced50">

<path fill="none" stroke="#8b8000" stroke-width="2" d="M566.13,-419.64C566.13,-347.49 566.13,-87.33 566.13,-87.33 566.13,-87.33 908.2,-87.33 908.2,-87.33"/>
<polygon fill="#8b8000" stroke="#8b8000" stroke-width="2" points="908.2,-90.83 918.2,-87.33 908.2,-83.83 908.2,-90.83"/>
</g>
<!-- node_ff1eb7bb&#45;&gt;node_f30bfaf9 -->
<g id="edge27" class="edge" data-name="node_ff1eb7bb-&gt;node_f30bfaf9">

<path fill="none" stroke="#009e73" stroke-width="2" d="M349.13,-564.33C349.13,-617.83 349.13,-770 349.13,-770 349.13,-770 449.27,-770 449.27,-770"/>
<polygon fill="#009e73" stroke="#009e73" stroke-width="2" points="449.27,-773.5 459.27,-770 449.27,-766.5 449.27,-773.5"/>
</g>
<!-- node_ff1eb7bb&#45;&gt;node_a201eddf -->
<g id="edge28" class="edge" data-name="node_ff1eb7bb-&gt;node_a201eddf">

<path fill="none" stroke="#009e73" stroke-width="2" d="M363.13,-527.87C363.13,-505.25 363.13,-469.5 363.13,-469.5 363.13,-469.5 667.04,-469.5 667.04,-469.5"/>
<polygon fill="#009e73" stroke="#009e73" stroke-width="2" points="667.04,-473 677.04,-469.5 667.04,-466 667.04,-473"/>
</g>
<!-- node_ff1eb7bb&#45;&gt;node_5a6d272c -->
<g id="edge30" class="edge" data-name="node_ff1eb7bb-&gt;node_5a6d272c">

<path fill="none" stroke="#009e73" stroke-width="2" d="M390.09,-540C411.44,-540 433.13,-540 433.13,-540 433.13,-540 433.13,-523.45 433.13,-523.45"/>
<polygon fill="#009e73" stroke="#009e73" stroke-width="2" points="436.63,-523.45 433.13,-513.45 429.63,-523.45 436.63,-523.45"/>
</g>
<!-- node_ff1eb7bb&#45;&gt;node_3bdb5476 -->
<g id="edge32" class="edge" data-name="node_ff1eb7bb-&gt;node_3bdb5476">

<path fill="none" stroke="#009e73" stroke-width="2" d="M390.12,-552C390.12,-552 425.49,-552 425.49,-552"/>
<polygon fill="#009e73" stroke="#009e73" stroke-width="2" points="425.49,-555.5 435.49,-552 425.49,-548.5 425.49,-555.5"/>
</g><g id="edge49" class="edge" data-name="node_d9bf0bc3-&gt;node_456c0le" data-comment="node_ff1eb7bb-&gt;node_3bdb5476">

<path fill="none" stroke="#8b8000" stroke-width="2" d="M563.13,-419.72C563.13,-340.53 563.13,-31 563.13,-31 563.13,-31 914.72,-31 914.72,-31"/>
<polygon fill="#8b8000" stroke="#8b8000" stroke-width="2" points="914.72,-34.5 924.72,-31 914.72,-27.5 914.72,-34.5"/>
</g>
<!-- node_ff1eb7bb&#45;&gt;node_d9bf0bc3 -->
<g id="edge34" class="edge" data-name="node_ff1eb7bb-&gt;node_d9bf0bc3">

<path fill="none" stroke="#009e73" stroke-width="2" d="M336.13,-527.68C336.13,-496.87 336.13,-438 336.13,-438 336.13,-438 456.34,-438 456.34,-438"/>
<polygon fill="#009e73" stroke="#009e73" stroke-width="2" points="456.34,-441.5 466.34,-438 456.34,-434.5 456.34,-441.5"/>
</g>
<!-- node_4993e438 -->
<g id="node25" class="node" pointer-events="visible" data-name="node_4993e438">

<path fill="#966f33" stroke="black" d="M379.05,-137C379.05,-137 318.98,-137 318.98,-137 312.98,-137 306.98,-131 306.98,-125 306.98,-125 306.98,-113 306.98,-113 306.98,-107 312.98,-101 318.98,-101 318.98,-101 379.05,-101 379.05,-101 385.05,-101 391.05,-107 391.05,-113 391.05,-113 391.05,-125 391.05,-125 391.05,-131 385.05,-137 379.05,-137"/>
<text text-anchor="middle" x="349.02" y="-114.8" font-family="Times,serif" font-size="14.00">0: (global)()</text>
</g>
<!-- node_7195cb12 -->
<g id="node28" class="node" pointer-events="visible" data-name="node_7195cb12">

<path fill="#cccccc" stroke="black" d="M547.51,-137C547.51,-137 490.09,-137 490.09,-137 484.09,-137 478.09,-131 478.09,-125 478.09,-125 478.09,-113 478.09,-113 478.09,-107 484.09,-101 490.09,-101 490.09,-101 547.51,-101 547.51,-101 553.51,-101 559.51,-107 559.51,-113 559.51,-113 559.51,-125 559.51,-125 559.51,-131 553.51,-137 547.51,-137"/>
<text text-anchor="middle" x="518.8" y="-114.8" font-family="Times,serif" font-size="14.00">215: main()</text>
</g>
<!-- node_4993e438&#45;&gt;node_7195cb12 -->
<g id="edge36" class="edge" data-name="node_4993e438-&gt;node_7195cb12">

<path fill="none" stroke="#000000" stroke-width="2" d="M391.42,-119C391.42,-119 464.78,-119 464.78,-119"/>
<polygon fill="#000000" stroke="#000000" stroke-width="2" points="464.78,-122.5 474.78,-119 464.78,-115.5 464.78,-122.5"/>
</g>
<!-- node_7195cb12&#45;&gt;node_a201eddf -->
<g id="edge37" class="edge" data-name="node_7195cb12-&gt;node_a201eddf">

<path fill="none" stroke="#56b4e9" stroke-width="2" d="M559.8,-132.5C578.75,-132.5 597.13,-132.5 597.13,-132.5 597.13,-132.5 597.13,-460.5 597.13,-460.5 597.13,-460.5 667.15,-460.5 667.15,-460.5"/>
<polygon fill="#56b4e9" stroke="#56b4e9" stroke-width="2" points="667.15,-464 677.15,-460.5 667.15,-457 667.15,-464"/>
</g>
<!-- node_70a87134 -->
<g id="node29" class="node" pointer-events="visible" data-name="node_70a87134">

<path fill="#cccccc" stroke="black" d="M762.32,-74C762.32,-74 706.58,-74 706.58,-74 700.58,-74 694.58,-68 694.58,-62 694.58,-62 694.58,-50 694.58,-50 694.58,-44 700.58,-38 706.58,-38 706.58,-38 762.32,-38 762.32,-38 768.32,-38 774.32,-44 774.32,-50 774.32,-50 774.32,-62 774.32,-62 774.32,-68 768.32,-74 762.32,-74"/>
<text text-anchor="middle" x="734.45" y="-51.8" font-family="Times,serif" font-size="14.00">121: train()</text>
</g>
<!-- node_7195cb12&#45;&gt;node_70a87134 -->
<g id="edge39" class="edge" data-name="node_7195cb12-&gt;node_70a87134">

<path fill="none" stroke="#56b4e9" stroke-width="2" d="M519.13,-100.78C519.13,-82.17 519.13,-56 519.13,-56 519.13,-56 681.18,-56 681.18,-56"/>
<polygon fill="#56b4e9" stroke="#56b4e9" stroke-width="2" points="681.18,-59.5 691.18,-56 681.18,-52.5 681.18,-59.5"/>
</g>
<!-- node_2fcc9fe7 -->
<g id="node30" class="node" pointer-events="visible" data-name="node_2fcc9fe7">

<path fill="#cccccc" stroke="black" d="M763.16,-128C763.16,-128 705.75,-128 705.75,-128 699.75,-128 693.75,-122 693.75,-116 693.75,-116 693.75,-104 693.75,-104 693.75,-98 699.75,-92 705.75,-92 705.75,-92 763.16,-92 763.16,-92 769.16,-92 775.16,-98 775.16,-104 775.16,-104 775.16,-116 775.16,-116 775.16,-122 769.16,-128 763.16,-128"/>
<text text-anchor="middle" x="734.45" y="-105.8" font-family="Times,serif" font-size="14.00">176: valid()</text>
</g>
<!-- node_7195cb12&#45;&gt;node_2fcc9fe7 -->
<g id="edge40" class="edge" data-name="node_7195cb12-&gt;node_2fcc9fe7">

<path fill="none" stroke="#56b4e9" stroke-width="2" d="M559.87,-114.5C559.87,-114.5 680.51,-114.5 680.51,-114.5"/>
<polygon fill="#56b4e9" stroke="#56b4e9" stroke-width="2" points="680.51,-118 690.51,-114.5 680.51,-111 680.51,-118"/>
</g>
<!-- node_70a87134&#45;&gt;node_7f2becgi -->
<g id="edge41" class="edge" data-name="node_70a87134-&gt;node_7f2becgi">

<path fill="none" stroke="#54b409" stroke-width="2" d="M774.81,-67C807.14,-67 847.13,-67 847.13,-67 847.13,-67 847.13,-432.6 847.13,-432.6 847.13,-432.6 892.04,-432.6 892.04,-432.6"/>
<polygon fill="#54b409" stroke="#54b409" stroke-width="2" points="892.04,-436.1 902.04,-432.6 892.04,-429.1 892.04,-436.1"/>
</g>
<!-- node_70a87134&#45;&gt;node_456ced50 -->
<g id="edge43" class="edge" data-name="node_70a87134-&gt;node_456ced50">

<path fill="none" stroke="#54b409" stroke-width="2" d="M735.13,-74.23C735.13,-78.92 735.13,-82.67 735.13,-82.67 735.13,-82.67 908.35,-82.67 908.35,-82.67"/>
<polygon fill="#54b409" stroke="#54b409" stroke-width="2" points="908.35,-86.17 918.35,-82.67 908.35,-79.17 908.35,-86.17"/>
</g>
<!-- node_2fcc9fe7&#45;&gt;node_7f2becgi -->
<g id="edge42" class="edge" data-name="node_2fcc9fe7-&gt;node_7f2becgi">

<path fill="none" stroke="#0000ff" stroke-width="2" d="M775.4,-121C803.27,-121 835.13,-121 835.13,-121 835.13,-121 835.13,-437.2 835.13,-437.2 835.13,-437.2 892.02,-437.2 892.02,-437.2"/>
<polygon fill="#0000ff" stroke="#0000ff" stroke-width="2" points="892.02,-440.7 902.02,-437.2 892.02,-433.7 892.02,-440.7"/>
</g>
<!-- node_2fcc9fe7&#45;&gt;node_456ced50 -->
<!-- node_2fcc9fe7&#45;&gt;node_456ced50 -->
<!-- node_2fcc9fe7&#45;&gt;node_456ced50 -->
<!-- node_2fcc9fe7&#45;&gt;node_456ced50 -->
<g id="edge45" class="edge" data-name="node_2fcc9fe7-&gt;node_456ced50">

<path fill="none" stroke="#0000ff" stroke-width="2" d="M775.54,-106.67C775.54,-106.67 908.36,-106.67 908.36,-106.67"/>
<polygon fill="#0000ff" stroke="#0000ff" stroke-width="2" points="908.36,-110.17 918.36,-106.67 908.36,-103.17 908.36,-110.17"/>
</g>

<!-- node_456cele -->
<g id="node27" class="node" pointer-events="visible" data-name="node_456c0le" data-comment="node_456cele">

<path fill="rgb(109, 179, 63)" stroke="black" d="M994.32,-60C994.32,-60 940.15,-60 940.15,-60 934.15,-60 928.15,-54 928.15,-48 928.15,-48 928.15,-36 928.15,-36 928.15,-30 934.15,-24 940.15,-24 940.15,-24 994.32,-24 994.32,-24 1000.32,-24 1006.32,-30 1006.32,-36 1006.32,-36 1006.32,-48 1006.32,-48 1006.32,-54 1000.32,-60 994.32,-60"/>
<text text-anchor="middle" x="967.23" y="-37.8" font-family="Times,serif" font-size="14.00">98: linear()</text>
</g><g id="edge44" class="edge" data-name="node_70a87134-&gt;node_456c0le" data-comment="node_456cele">

<path fill="none" stroke="#54b409" stroke-width="2" d="M774.74,-45.33C774.74,-45.33 914.81,-45.33 914.81,-45.33"/>
<polygon fill="#54b409" stroke="#54b409" stroke-width="2" points="914.81,-48.83 924.81,-45.33 914.81,-41.83 914.81,-48.83"/>
</g>


<!-- node_2fcc9fe7&#45;&gt;node_456c0le -->
<!-- node_2fcc9fe7&#45;&gt;node_456c0le -->
<g id="edge46" class="edge" data-name="node_2fcc9fe7-&gt;node_456c0le">

<path fill="none" stroke="#0000ff" stroke-width="2" d="M775.48,-99.33C793.71,-99.33 811.13,-99.33 811.13,-99.33 811.13,-99.33 811.13,-52.67 811.13,-52.67 811.13,-52.67 914.81,-52.67 914.81,-52.67"/>
<polygon fill="#0000ff" stroke="#0000ff" stroke-width="2" points="914.81,-56.17 924.81,-52.67 914.81,-49.17 914.81,-56.17"/>
</g>

</g>
</svg>