<?xml version="1.0" standalone="no"?>
<svg xmlns="http://www.w3.org/2000/svg" xmlns:xlink="http://www.w3.org/1999/xlink" width="1100pt" height="801pt" viewBox="0.00 0.00 1100.13 801.00">
<g id="graph0" class="graph" transform="translate(4,797) scale(1)" data-name="G">

<polygon fill="white" stroke="none" points="-4,4 -4,-797 1096.13,-797 1096.13,4 -4,4" style=""/>
<g id="clust2" class="cluster" data-name="cluster_d5a95f44">

<polygon fill="none" stroke="black" stroke-dasharray="1,5" points="454.4,-654 454.4,-785 1077.14,-785 1077.14,-654 454.4,-654" style=""/>
<text text-anchor="middle" x="765.77" y="-768.4" font-family="Times,serif" font-size="14.00" style="">File: cross_eval</text>
</g>
<g id="clust3" class="cluster" data-name="cluster_594fe504">

<polygon fill="none" stroke="black" stroke-dasharray="1,5" points="659.55,-322 659.55,-646 1082.94,-646 1082.94,-322 659.55,-322" style=""/>
<text text-anchor="middle" x="871.25" y="-629.4" font-family="Times,serif" font-size="14.00" style="">File: data_loader</text>
</g>
<g id="clust4" class="cluster" data-name="cluster_d4a354e7">

<polygon fill="none" stroke="black" stroke-dasharray="1,5" points="897.38,-330 897.38,-461 1037.08,-461 1037.08,-330 897.38,-330" style=""/>
<text text-anchor="middle" x="967.23" y="-444.4" font-family="Times,serif" font-size="14.00" style="">Class: dataset</text>
</g>
<g id="clust5" class="cluster" data-name="cluster_cc742002">

<polygon fill="none" stroke="black" stroke-dasharray="1,5" points="299,-152 299,-314 1084.13,-314 1084.13,-152 299,-152" style=""/>
<text text-anchor="middle" x="691.56" y="-297.4" font-family="Times,serif" font-size="14.00" style="">File: generate_embeddings</text>
</g>
<g id="clust6" class="cluster" data-name="cluster_642b89ge">

<polygon fill="none" stroke="black" stroke-dasharray="1,5" points="907.72,-160 907.72,-237 1026.75,-237 1026.75,-160 907.72,-160" style=""/>
<text text-anchor="middle" x="967.23" y="-220.4" font-family="Times,serif" font-size="14.00" style="">Class: MainModel</text>
</g>
<g id="clust7" class="cluster" data-name="cluster_e2f26d58">

<polygon fill="none" stroke="black" stroke-dasharray="1,5" points="85.48,-322 85.48,-507 618.57,-507 618.57,-322 85.48,-322" style=""/>
<text text-anchor="middle" x="352.03" y="-490.4" font-family="Times,serif" font-size="14.00" style="">File: test</text>
</g>
<g id="clust8" class="cluster" data-name="cluster_c46f7c72">

<polygon fill="none" stroke="black" stroke-dasharray="1,5" points="299,-8 299,-139 1034.75,-139 1034.75,-8 299,-8" style=""/>
<text text-anchor="middle" x="666.87" y="-122.4" font-family="Times,serif" font-size="14.00" style="">File: train</text>
</g>
<g id="clust9" class="cluster" data-name="cluster_642b8910">

<polygon fill="none" stroke="black" stroke-dasharray="1,5" points="907.72,-29 907.72,-106 1026.75,-106 1026.75,-29 907.72,-29" style=""/>
<text text-anchor="middle" x="967.23" y="-89.4" font-family="Times,serif" font-size="14.00" style="">Class: MainModel</text>
</g>
<!-- Legend -->
<g id="node1" class="node" pointer-events="visible" data-name="Legend">

<polygon fill="none" stroke="black" points="1.5,-295 1.5,-313 270.5,-313 270.5,-295 1.5,-295" style=""/>
<text text-anchor="start" x="82.15" y="-299.4" font-family="Times,serif" font-size="14.00" style="">Code2flow Legend</text>
<polygon fill="none" stroke="black" points="1.5,-203 1.5,-295 270.5,-295 270.5,-203 1.5,-203" style=""/>
<polygon fill="none" stroke="black" points="3.5,-271 3.5,-293 218.5,-293 218.5,-271 3.5,-271" style=""/>
<text text-anchor="start" x="63.76" y="-277.4" font-family="Times,serif" font-size="14.00" style="">Regular function</text>
<polygon fill="#cccccc" stroke="none" points="218.5,-271 218.5,-293 268.5,-293 268.5,-271 218.5,-271" style=""/>
<polygon fill="none" stroke="black" points="218.5,-271 218.5,-293 268.5,-293 268.5,-271 218.5,-271" style=""/>
<polygon fill="none" stroke="black" points="3.5,-249 3.5,-271 218.5,-271 218.5,-249 3.5,-249" style=""/>
<text text-anchor="start" x="14.57" y="-255.4" font-family="Times,serif" font-size="14.00" style="">Trunk function (nothing calls this)</text>
<polygon fill="#966f33" stroke="none" points="218.5,-249 218.5,-271 268.5,-271 268.5,-249 218.5,-249" style=""/>
<polygon fill="none" stroke="black" points="218.5,-249 218.5,-271 268.5,-271 268.5,-249 218.5,-249" style=""/>
<polygon fill="none" stroke="black" points="3.5,-227 3.5,-249 218.5,-249 218.5,-227 3.5,-227" style=""/>
<text text-anchor="start" x="6.23" y="-233.4" font-family="Times,serif" font-size="14.00" style="">Leaf function (this calls nothing else)</text>
<polygon fill="#6db33f" stroke="none" points="218.5,-227 218.5,-249 268.5,-249 268.5,-227 218.5,-227" style=""/>
<polygon fill="none" stroke="black" points="218.5,-227 218.5,-249 268.5,-249 268.5,-227 218.5,-227" style=""/>
<polygon fill="none" stroke="black" points="3.5,-205 3.5,-227 218.5,-227 218.5,-205 3.5,-205" style=""/>
<text text-anchor="start" x="74.26" y="-211.4" font-family="Times,serif" font-size="14.00" style="">Function call</text>
<polygon fill="none" stroke="black" points="218.5,-205 218.5,-227 268.5,-227 268.5,-205 218.5,-205" style=""/>
<text text-anchor="start" x="238.25" y="-211.4" font-family="Times,serif" font-size="14.00" style="">→</text>
<polygon fill="none" stroke="black" points="2.5,-204 2.5,-294 269.5,-294 269.5,-204 2.5,-204" style=""/>
<polygon fill="none" stroke="black" points="0,-202 0,-314 271,-314 271,-202 0,-202" style=""/>
</g>
<!-- node_f30bfaf9 -->
<g id="node2" class="node" pointer-events="visible" data-name="node_f30bfaf9">

<path fill="#cccccc" stroke="black" d="M563.1,-698C563.1,-698 474.49,-698 474.49,-698 468.49,-698 462.49,-692 462.49,-686 462.49,-686 462.49,-674 462.49,-674 462.49,-668 468.49,-662 474.49,-662 474.49,-662 563.1,-662 563.1,-662 569.1,-662 575.1,-668 575.1,-674 575.1,-674 575.1,-686 575.1,-686 575.1,-692 569.1,-698 563.1,-698" style=""/>
<text text-anchor="middle" x="518.8" y="-675.8" font-family="Times,serif" font-size="14.00" style="">158: cross_eval()</text>
</g>
<!-- node_dd5a91a8 -->
<g id="node5" class="node" pointer-events="visible" data-name="node_dd5a91a8">

<path fill="#cccccc" stroke="black" d="M807.81,-698C807.81,-698 661.1,-698 661.1,-698 655.1,-698 649.1,-692 649.1,-686 649.1,-686 649.1,-674 649.1,-674 649.1,-668 655.1,-662 661.1,-662 661.1,-662 807.81,-662 807.81,-662 813.81,-662 819.81,-668 819.81,-674 819.81,-674 819.81,-686 819.81,-686 819.81,-692 813.81,-698 807.81,-698" style=""/>
<text text-anchor="middle" x="734.45" y="-675.8" font-family="Times,serif" font-size="14.00" style="">101: inference_MM_BC5()</text>
</g>
<!-- node_f30bfaf9&#45;&gt;node_dd5a91a8 -->
<g id="edge1" class="edge" data-name="node_f30bfaf9-&gt;node_dd5a91a8">

<path fill="none" stroke="#e69f00" stroke-width="2" d="M575.46,-686C575.46,-686 635.9,-686 635.9,-686" style=""/>
<polygon fill="#e69f00" stroke="#e69f00" stroke-width="2" points="635.9,-689.5 645.9,-686 635.9,-682.5 635.9,-689.5" style=""/>
</g>
<!-- node_2a8f0838 -->
<g id="node6" class="node" pointer-events="visible" data-name="node_2a8f0838">

<path fill="#6db33f" stroke="black" d="M794.07,-752C794.07,-752 674.84,-752 674.84,-752 668.84,-752 662.84,-746 662.84,-740 662.84,-740 662.84,-728 662.84,-728 662.84,-722 668.84,-716 674.84,-716 674.84,-716 794.07,-716 794.07,-716 800.07,-716 806.07,-722 806.07,-728 806.07,-728 806.07,-740 806.07,-740 806.07,-746 800.07,-752 794.07,-752" style=""/>
<text text-anchor="middle" x="734.45" y="-729.8" font-family="Times,serif" font-size="14.00" style="">26: read_train_labels()</text>
</g>
<!-- node_f30bfaf9&#45;&gt;node_2a8f0838 -->
<g id="edge3" class="edge" data-name="node_f30bfaf9-&gt;node_2a8f0838">

<path fill="none" stroke="#e69f00" stroke-width="2" d="M519.13,-698.28C519.13,-713.95 519.13,-734 519.13,-734 519.13,-734 649.43,-734 649.43,-734" style=""/>
<polygon fill="#e69f00" stroke="#e69f00" stroke-width="2" points="649.43,-737.5 659.43,-734 649.43,-730.5 649.43,-737.5" style=""/>
</g>
<!-- node_1c74032f -->
<g id="node7" class="node" pointer-events="visible" data-name="node_1c74032f">

<path fill="#6db33f" stroke="black" d="M1051.06,-613C1051.06,-613 883.41,-613 883.41,-613 877.41,-613 871.41,-607 871.41,-601 871.41,-601 871.41,-589 871.41,-589 871.41,-583 877.41,-577 883.41,-577 883.41,-577 1051.06,-577 1051.06,-577 1057.06,-577 1063.06,-583 1063.06,-589 1063.06,-589 1063.06,-601 1063.06,-601 1063.06,-607 1057.06,-613 1051.06,-613" style=""/>
<text text-anchor="middle" x="967.23" y="-590.8" font-family="Times,serif" font-size="14.00" style="">102: IdToLabelAndLabeltoId()</text>
</g>
<!-- node_f30bfaf9&#45;&gt;node_1c74032f -->
<g id="edge4" class="edge" data-name="node_f30bfaf9-&gt;node_1c74032f">

<path fill="none" stroke="#e69f00" stroke-width="2" d="M538.13,-661.68C538.13,-638.34 538.13,-601 538.13,-601 538.13,-601 857.91,-601 857.91,-601" style=""/>
<polygon fill="#e69f00" stroke="#e69f00" stroke-width="2" points="857.91,-604.5 867.91,-601 857.91,-597.5 857.91,-604.5" style=""/>
</g>
<!-- node_a201eddf -->
<g id="node10" class="node" pointer-events="visible" data-name="node_a201eddf">

<path fill="#cccccc" stroke="black" d="M776.59,-428C776.59,-428 692.32,-428 692.32,-428 686.32,-428 680.32,-422 680.32,-416 680.32,-416 680.32,-404 680.32,-404 680.32,-398 686.32,-392 692.32,-392 692.32,-392 776.59,-392 776.59,-392 782.59,-392 788.59,-398 788.59,-404 788.59,-404 788.59,-416 788.59,-416 788.59,-422 782.59,-428 776.59,-428" style=""/>
<text text-anchor="middle" x="734.45" y="-405.8" font-family="Times,serif" font-size="14.00" style="">207: load_data()</text>
</g>
<!-- node_f30bfaf9&#45;&gt;node_a201eddf -->
<g id="edge6" class="edge" data-name="node_f30bfaf9-&gt;node_a201eddf">

<path fill="none" stroke="#e69f00" stroke-width="2" d="M575.42,-674C591.69,-674 605.13,-674 605.13,-674 605.13,-674 605.13,-425.33 605.13,-425.33 605.13,-425.33 666.96,-425.33 666.96,-425.33" style=""/>
<polygon fill="#e69f00" stroke="#e69f00" stroke-width="2" points="666.96,-428.83 676.96,-425.33 666.96,-421.83 666.96,-428.83" style=""/>
</g>
<!-- node_63011c16 -->
<g id="node11" class="node" pointer-events="visible" data-name="node_63011c16">

<path fill="#6db33f" stroke="black" d="M789.27,-482C789.27,-482 679.64,-482 679.64,-482 673.64,-482 667.64,-476 667.64,-470 667.64,-470 667.64,-458 667.64,-458 667.64,-452 673.64,-446 679.64,-446 679.64,-446 789.27,-446 789.27,-446 795.27,-446 801.27,-452 801.27,-458 801.27,-458 801.27,-470 801.27,-470 801.27,-476 795.27,-482 789.27,-482" style=""/>
<text text-anchor="middle" x="734.45" y="-459.8" font-family="Times,serif" font-size="14.00" style="">189: load_mapping()</text>
</g>
<!-- node_f30bfaf9&#45;&gt;node_63011c16 -->
<g id="edge8" class="edge" data-name="node_f30bfaf9-&gt;node_63011c16">

<path fill="none" stroke="#e69f00" stroke-width="2" d="M500.13,-661.72C500.13,-611.99 500.13,-478 500.13,-478 500.13,-478 654.28,-478 654.28,-478" style=""/>
<polygon fill="#e69f00" stroke="#e69f00" stroke-width="2" points="654.28,-481.5 664.28,-478 654.28,-474.5 654.28,-481.5" style=""/>
</g>
<!-- node_0462a7ff -->
<g id="node3" class="node" pointer-events="visible" data-name="node_0462a7ff">

<path fill="#6db33f" stroke="black" d="M1057.05,-698C1057.05,-698 877.42,-698 877.42,-698 871.42,-698 865.42,-692 865.42,-686 865.42,-686 865.42,-674 865.42,-674 865.42,-668 871.42,-662 877.42,-662 877.42,-662 1057.05,-662 1057.05,-662 1063.05,-662 1069.05,-668 1069.05,-674 1069.05,-674 1069.05,-686 1069.05,-686 1069.05,-692 1063.05,-698 1057.05,-698" style=""/>
<text text-anchor="middle" x="967.23" y="-675.8" font-family="Times,serif" font-size="14.00" style="">46: find_new_labels_MM_BC5()</text>
</g>
<!-- node_80ebf2ee -->
<g id="node4" class="node" pointer-events="visible" data-name="node_80ebf2ee">

<path fill="#6db33f" stroke="black" d="M1024.69,-752C1024.69,-752 909.77,-752 909.77,-752 903.77,-752 897.77,-746 897.77,-740 897.77,-740 897.77,-728 897.77,-728 897.77,-722 903.77,-716 909.77,-716 909.77,-716 1024.69,-716 1024.69,-716 1030.69,-716 1036.69,-722 1036.69,-728 1036.69,-728 1036.69,-740 1036.69,-740 1036.69,-746 1030.69,-752 1024.69,-752" style=""/>
<text text-anchor="middle" x="967.23" y="-729.8" font-family="Times,serif" font-size="14.00" style="">77: find_new_target()</text>
</g>
<!-- node_dd5a91a8&#45;&gt;node_0462a7ff -->
<g id="edge9" class="edge" data-name="node_dd5a91a8-&gt;node_0462a7ff">

<path fill="none" stroke="#000000" stroke-width="2" d="M820.14,-680C820.14,-680 852.14,-680 852.14,-680" style=""/>
<polygon fill="#000000" stroke="#000000" stroke-width="2" points="852.14,-683.5 862.14,-680 852.14,-676.5 852.14,-683.5" style=""/>
</g>
<!-- node_dd5a91a8&#45;&gt;node_80ebf2ee -->
<g id="edge10" class="edge" data-name="node_dd5a91a8-&gt;node_80ebf2ee">

<path fill="none" stroke="#000000" stroke-width="2" d="M813.13,-698.28C813.13,-713.95 813.13,-734 813.13,-734 813.13,-734 884.37,-734 884.37,-734" style=""/>
<polygon fill="#000000" stroke="#000000" stroke-width="2" points="884.37,-737.5 894.37,-734 884.37,-730.5 884.37,-737.5" style=""/>
</g>
<!-- node_7f2bec5e -->
<g id="node8" class="node" pointer-events="visible" data-name="node_7f2bec5e">

<path fill="#6db33f" stroke="black" d="M1005.62,-428C1005.62,-428 928.85,-428 928.85,-428 922.85,-428 916.85,-422 916.85,-416 916.85,-416 916.85,-404 916.85,-404 916.85,-398 922.85,-392 928.85,-392 928.85,-392 1005.62,-392 1005.62,-392 1011.62,-392 1017.62,-398 1017.62,-404 1017.62,-404 1017.62,-416 1017.62,-416 1017.62,-422 1011.62,-428 1005.62,-428" style=""/>
<text text-anchor="middle" x="967.23" y="-405.8" font-family="Times,serif" font-size="14.00" style="">123: __init__()</text>
</g>
<!-- node_7f2becgi -->
<g id="node9" class="node" pointer-events="visible" data-name="node_7f2becgi">

<path fill="#6db33f" stroke="black" d="M1016.93,-374C1016.93,-374 917.53,-374 917.53,-374 911.53,-374 905.53,-368 905.53,-362 905.53,-362 905.53,-350 905.53,-350 905.53,-344 911.53,-338 917.53,-338 917.53,-338 1016.93,-338 1016.93,-338 1022.93,-338 1028.93,-344 1028.93,-350 1028.93,-350 1028.93,-362 1028.93,-362 1028.93,-368 1022.93,-374 1016.93,-374" style=""/>
<text text-anchor="middle" x="967.23" y="-351.8" font-family="Times,serif" font-size="14.00" style="">123: __getitem__()</text>
</g>
<!-- node_a201eddf&#45;&gt;node_1c74032f -->
<g id="edge11" class="edge" data-name="node_a201eddf-&gt;node_1c74032f">

<path fill="none" stroke="#cc79a7" stroke-width="2" d="M788.78,-420.8C798.77,-420.8 806.13,-420.8 806.13,-420.8 806.13,-420.8 806.13,-589 806.13,-589 806.13,-589 858.16,-589 858.16,-589" style=""/>
<polygon fill="#cc79a7" stroke="#cc79a7" stroke-width="2" points="858.16,-592.5 868.16,-589 858.16,-585.5 858.16,-592.5" style=""/>
</g>
<!-- node_a201eddf&#45;&gt;node_7f2bec5e -->
<g id="edge12" class="edge" data-name="node_a201eddf-&gt;node_7f2bec5e">

<path fill="none" stroke="#cc79a7" stroke-width="2" d="M789.03,-399.2C789.03,-399.2 903.56,-399.2 903.56,-399.2" style=""/>
<polygon fill="#cc79a7" stroke="#cc79a7" stroke-width="2" points="903.56,-402.7 913.56,-399.2 903.56,-395.7 903.56,-402.7" style=""/>
</g>
<!-- node_b9875fb5 -->
<g id="node12" class="node" pointer-events="visible" data-name="node_b9875fb5">

<path fill="#6db33f" stroke="black" d="M1005.86,-559C1005.86,-559 928.61,-559 928.61,-559 922.61,-559 916.61,-553 916.61,-547 916.61,-547 916.61,-535 916.61,-535 916.61,-529 922.61,-523 928.61,-523 928.61,-523 1005.86,-523 1005.86,-523 1011.86,-523 1017.86,-529 1017.86,-535 1017.86,-535 1017.86,-547 1017.86,-547 1017.86,-553 1011.86,-559 1005.86,-559" style=""/>
<text text-anchor="middle" x="967.23" y="-536.8" font-family="Times,serif" font-size="14.00" style="">31: read_data()</text>
</g>
<!-- node_a201eddf&#45;&gt;node_b9875fb5 -->
<g id="edge13" class="edge" data-name="node_a201eddf-&gt;node_b9875fb5">

<path fill="none" stroke="#cc79a7" stroke-width="2" d="M788.95,-413.6C801.44,-413.6 811.13,-413.6 811.13,-413.6 811.13,-413.6 811.13,-541 811.13,-541 811.13,-541 903.09,-541 903.09,-541" style=""/>
<polygon fill="#cc79a7" stroke="#cc79a7" stroke-width="2" points="903.09,-544.5 913.09,-541 903.09,-537.5 903.09,-544.5" style=""/>
</g>
<!-- node_a73470d7 -->
<g id="node13" class="node" pointer-events="visible" data-name="node_a73470d7">

<path fill="#6db33f" stroke="black" d="M1063.15,-505C1063.15,-505 871.32,-505 871.32,-505 865.32,-505 859.32,-499 859.32,-493 859.32,-493 859.32,-481 859.32,-481 859.32,-475 865.32,-469 871.32,-469 871.32,-469 1063.15,-469 1063.15,-469 1069.15,-469 1075.15,-475 1075.15,-481 1075.15,-481 1075.15,-493 1075.15,-493 1075.15,-499 1069.15,-505 1063.15,-505" style=""/>
<text text-anchor="middle" x="967.23" y="-482.8" font-family="Times,serif" font-size="14.00" style="">71: tokenize_and_preserve_labels()</text>
</g>
<!-- node_a201eddf&#45;&gt;node_a73470d7 -->
<g id="edge14" class="edge" data-name="node_a201eddf-&gt;node_a73470d7">

<path fill="none" stroke="#cc79a7" stroke-width="2" d="M788.97,-406.4C831.4,-406.4 883.13,-406.4 883.13,-406.4 883.13,-406.4 883.13,-455.68 883.13,-455.68" style=""/>
<polygon fill="#cc79a7" stroke="#cc79a7" stroke-width="2" points="879.63,-455.68 883.13,-465.68 886.63,-455.68 879.63,-455.68" style=""/>
</g>
<!-- node_0e10e230 -->
<g id="node14" class="node" pointer-events="visible" data-name="node_0e10e230">

<path fill="#966f33" stroke="black" d="M379.05,-281C379.05,-281 318.98,-281 318.98,-281 312.98,-281 306.98,-275 306.98,-269 306.98,-269 306.98,-257 306.98,-257 306.98,-251 312.98,-245 318.98,-245 318.98,-245 379.05,-245 379.05,-245 385.05,-245 391.05,-251 391.05,-257 391.05,-257 391.05,-269 391.05,-269 391.05,-275 385.05,-281 379.05,-281" style=""/>
<text text-anchor="middle" x="349.02" y="-258.8" font-family="Times,serif" font-size="14.00" style="">0: (global)()</text>
</g>
<!-- node_1882ca76 -->
<g id="node16" class="node" pointer-events="visible" data-name="node_1882ca76">

<path fill="#cccccc" stroke="black" d="M547.51,-281C547.51,-281 490.09,-281 490.09,-281 484.09,-281 478.09,-275 478.09,-269 478.09,-269 478.09,-257 478.09,-257 478.09,-251 484.09,-245 490.09,-245 490.09,-245 547.51,-245 547.51,-245 553.51,-245 559.51,-251 559.51,-257 559.51,-257 559.51,-269 559.51,-269 559.51,-275 553.51,-281 547.51,-281" style=""/>
<text text-anchor="middle" x="518.8" y="-258.8" font-family="Times,serif" font-size="14.00" style="">141: main()</text>
</g>
<!-- node_0e10e230&#45;&gt;node_1882ca76 -->
<g id="edge15" class="edge" data-name="node_0e10e230-&gt;node_1882ca76">

<path fill="none" stroke="#000000" stroke-width="2" d="M391.42,-263C391.42,-263 464.78,-263 464.78,-263" style=""/>
<polygon fill="#000000" stroke="#000000" stroke-width="2" points="464.78,-266.5 474.78,-263 464.78,-259.5 464.78,-266.5" style=""/>
</g>
<!-- node_3a431b14 -->
<g id="node15" class="node" pointer-events="visible" data-name="node_3a431b14">

<path fill="#cccccc" stroke="black" d="M810.23,-281C810.23,-281 658.68,-281 658.68,-281 652.68,-281 646.68,-275 646.68,-269 646.68,-269 646.68,-257 646.68,-257 646.68,-251 652.68,-245 658.68,-245 658.68,-245 810.23,-245 810.23,-245 816.23,-245 822.23,-251 822.23,-257 822.23,-257 822.23,-269 822.23,-269 822.23,-275 816.23,-281 810.23,-281" style=""/>
<text text-anchor="middle" x="734.45" y="-258.8" font-family="Times,serif" font-size="14.00" style="">113: generate_embeddings()</text>
</g>
<!-- node_3a431b14&#45;&gt;node_7f2becgi -->
<g id="edge46" class="edge" data-name="node_3a431b14-&gt;node_7f2becgi">

<path fill="none" stroke="#000000" stroke-width="2" d="M815.13,-281.14C815.13,-307.89 815.13,-354.8 815.13,-354.8 815.13,-354.8 892.34,-354.8 892.34,-354.8" style=""/>
<polygon fill="#000000" stroke="#000000" stroke-width="2" points="892.34,-358.3 902.34,-354.8 892.34,-351.3 892.34,-358.3" style=""/>
</g>
<!-- node_456cedge -->
<g id="node17" class="node" pointer-events="visible" data-name="node_456cedge">

<path fill="#6db33f" stroke="black" d="M1000.76,-204C1000.76,-204 933.71,-204 933.71,-204 927.71,-204 921.71,-198 921.71,-192 921.71,-192 921.71,-180 921.71,-180 921.71,-174 927.71,-168 933.71,-168 933.71,-168 1000.76,-168 1000.76,-168 1006.76,-168 1012.76,-174 1012.76,-180 1012.76,-180 1012.76,-192 1012.76,-192 1012.76,-198 1006.76,-204 1000.76,-204" style=""/>
<text text-anchor="middle" x="967.23" y="-181.8" font-family="Times,serif" font-size="14.00" style="">98: forward()</text>
</g>
<!-- node_3a431b14&#45;&gt;node_456cedge -->
<g id="edge47" class="edge" data-name="node_3a431b14-&gt;node_456cedge">

<path fill="none" stroke="#000000" stroke-width="2" d="M799.13,-244.52C799.13,-221.45 799.13,-185 799.13,-185 799.13,-185 908.27,-185 908.27,-185" style=""/>
<polygon fill="#000000" stroke="#000000" stroke-width="2" points="908.27,-188.5 918.27,-185 908.27,-181.5 908.27,-188.5" style=""/>
</g>
<!-- node_78c04396 -->
<g id="node18" class="node" pointer-events="visible" data-name="node_78c04396">

<path fill="#6db33f" stroke="black" d="M1064.02,-281C1064.02,-281 870.45,-281 870.45,-281 864.45,-281 858.45,-275 858.45,-269 858.45,-269 858.45,-257 858.45,-257 858.45,-251 864.45,-245 870.45,-245 870.45,-245 1064.02,-245 1064.02,-245 1070.02,-245 1076.02,-251 1076.02,-257 1076.02,-257 1076.02,-269 1076.02,-269 1076.02,-275 1070.02,-281 1064.02,-281" style=""/>
<text text-anchor="middle" x="967.23" y="-258.8" font-family="Times,serif" font-size="14.00" style="">93: save_embeddings_to_text_file()</text>
</g>
<!-- node_3a431b14&#45;&gt;node_78c04396 -->
<g id="edge16" class="edge" data-name="node_3a431b14-&gt;node_78c04396">

<path fill="none" stroke="#000000" stroke-width="2" d="M822.46,-263C822.46,-263 845.29,-263 845.29,-263" style=""/>
<polygon fill="#000000" stroke="#000000" stroke-width="2" points="845.29,-266.5 855.29,-263 845.29,-259.5 845.29,-266.5" style=""/>
</g>
<!-- node_1882ca76&#45;&gt;node_a201eddf -->
<g id="edge17" class="edge" data-name="node_1882ca76-&gt;node_a201eddf">

<path fill="none" stroke="#d55e00" stroke-width="2" d="M559.88,-263C591.25,-263 629.13,-263 629.13,-263 629.13,-263 629.13,-410.67 629.13,-410.67 629.13,-410.67 666.91,-410.67 666.91,-410.67" style=""/>
<polygon fill="#d55e00" stroke="#d55e00" stroke-width="2" points="666.91,-414.17 676.91,-410.67 666.91,-407.17 666.91,-414.17" style=""/>
</g>
<!-- node_1882ca76&#45;&gt;node_63011c16 -->
<g id="edge21" class="edge" data-name="node_1882ca76-&gt;node_63011c16">

<path fill="none" stroke="#d55e00" stroke-width="2" d="M559.72,-272C587.84,-272 620.13,-272 620.13,-272 620.13,-272 620.13,-460 620.13,-460 620.13,-460 654.26,-460 654.26,-460" style=""/>
<polygon fill="#d55e00" stroke="#d55e00" stroke-width="2" points="654.26,-463.5 664.26,-460 654.26,-456.5 654.26,-463.5" style=""/>
</g>
<!-- node_1882ca76&#45;&gt;node_3a431b14 -->
<g id="edge22" class="edge" data-name="node_1882ca76-&gt;node_3a431b14">

<path fill="none" stroke="#d55e00" stroke-width="2" d="M559.87,-254C559.87,-254 633.18,-254 633.18,-254" style=""/>
<polygon fill="#d55e00" stroke="#d55e00" stroke-width="2" points="633.18,-257.5 643.18,-254 633.18,-250.5 633.18,-257.5" style=""/>
</g>
<!-- node_5e14ab04 -->
<g id="node19" class="node" pointer-events="visible" data-name="node_5e14ab04">

<path fill="#966f33" stroke="black" d="M165.53,-474C165.53,-474 105.47,-474 105.47,-474 99.47,-474 93.47,-468 93.47,-462 93.47,-462 93.47,-450 93.47,-450 93.47,-444 99.47,-438 105.47,-438 105.47,-438 165.53,-438 165.53,-438 171.53,-438 177.53,-444 177.53,-450 177.53,-450 177.53,-462 177.53,-462 177.53,-468 171.53,-474 165.53,-474" style=""/>
<text text-anchor="middle" x="135.5" y="-451.8" font-family="Times,serif" font-size="14.00" style="">0: (global)()</text>
</g>
<!-- node_ff1eb7bb -->
<g id="node23" class="node" pointer-events="visible" data-name="node_ff1eb7bb">

<path fill="#cccccc" stroke="black" d="M377.72,-474C377.72,-474 320.31,-474 320.31,-474 314.31,-474 308.31,-468 308.31,-462 308.31,-462 308.31,-450 308.31,-450 308.31,-444 314.31,-438 320.31,-438 320.31,-438 377.72,-438 377.72,-438 383.72,-438 389.72,-444 389.72,-450 389.72,-450 389.72,-462 389.72,-462 389.72,-468 383.72,-474 377.72,-474" style=""/>
<text text-anchor="middle" x="349.02" y="-451.8" font-family="Times,serif" font-size="14.00" style="">130: main()</text>
</g>
<!-- node_5e14ab04&#45;&gt;node_ff1eb7bb -->
<g id="edge25" class="edge" data-name="node_5e14ab04-&gt;node_ff1eb7bb">

<path fill="none" stroke="#f0e442" stroke-width="2" d="M177.94,-456C177.94,-456 295.08,-456 295.08,-456" style=""/>
<polygon fill="#f0e442" stroke="#f0e442" stroke-width="2" points="295.08,-459.5 305.08,-456 295.08,-452.5 295.08,-459.5" style=""/>
</g>
<!-- node_5a6d272c -->
<g id="node20" class="node" pointer-events="visible" data-name="node_5a6d272c">

<path fill="#6db33f" stroke="black" d="M598.33,-420C598.33,-420 439.26,-420 439.26,-420 433.26,-420 427.26,-414 427.26,-408 427.26,-408 427.26,-396 427.26,-396 427.26,-390 433.26,-384 439.26,-384 439.26,-384 598.33,-384 598.33,-384 604.33,-384 610.33,-390 610.33,-396 610.33,-396 610.33,-408 610.33,-408 610.33,-414 604.33,-420 598.33,-420" style=""/>
<text text-anchor="middle" x="518.8" y="-397.8" font-family="Times,serif" font-size="14.00" style="">96: generate_prediction_file()</text>
</g>
<!-- node_3bdb5476 -->
<g id="node21" class="node" pointer-events="visible" data-name="node_3bdb5476">

<path fill="#6db33f" stroke="black" d="M586.74,-474C586.74,-474 450.86,-474 450.86,-474 444.86,-474 438.86,-468 438.86,-462 438.86,-462 438.86,-450 438.86,-450 438.86,-444 444.86,-438 450.86,-438 450.86,-438 586.74,-438 586.74,-438 592.74,-438 598.74,-444 598.74,-450 598.74,-450 598.74,-462 598.74,-462 598.74,-468 592.74,-474 586.74,-474" style=""/>
<text text-anchor="middle" x="518.8" y="-451.8" font-family="Times,serif" font-size="14.00" style="">112: generate_prob_file()</text>
</g>
<!-- node_d9bf0bc3 -->
<g id="node22" class="node" pointer-events="visible" data-name="node_d9bf0bc3">

<path fill="#cccccc" stroke="black" d="M556.08,-366C556.08,-366 481.52,-366 481.52,-366 475.52,-366 469.52,-360 469.52,-354 469.52,-354 469.52,-342 469.52,-342 469.52,-336 475.52,-330 481.52,-330 481.52,-330 556.08,-330 556.08,-330 562.08,-330 568.08,-336 568.08,-342 568.08,-342 568.08,-354 568.08,-354 568.08,-360 562.08,-366 556.08,-366" style=""/>
<text text-anchor="middle" x="518.8" y="-343.8" font-family="Times,serif" font-size="14.00" style="">52: inference()</text>
</g>
<!-- node_d9bf0bc3&#45;&gt;node_7f2becgi -->
<g id="edge44" class="edge" data-name="node_d9bf0bc3-&gt;node_7f2becgi">

<path fill="none" stroke="#8b8000" stroke-width="2" d="M568.5,-360.4C568.5,-360.4 892.1,-360.4 892.1,-360.4" style=""/>
<polygon fill="#8b8000" stroke="#8b8000" stroke-width="2" points="892.1,-363.9 902.1,-360.4 892.1,-356.9 892.1,-363.9" style=""/>
</g>
<!-- node_456ced50 -->
<g id="node25" class="node" pointer-events="visible" data-name="node_456ced50">

<path fill="#6db33f" stroke="black" d="M1000.76,-73C1000.76,-73 933.71,-73 933.71,-73 927.71,-73 921.71,-67 921.71,-61 921.71,-61 921.71,-49 921.71,-49 921.71,-43 927.71,-37 933.71,-37 933.71,-37 1000.76,-37 1000.76,-37 1006.76,-37 1012.76,-43 1012.76,-49 1012.76,-49 1012.76,-61 1012.76,-61 1012.76,-67 1006.76,-73 1000.76,-73" style=""/>
<text text-anchor="middle" x="967.23" y="-50.8" font-family="Times,serif" font-size="14.00" style="">98: forward()</text>
</g>
<!-- node_d9bf0bc3&#45;&gt;node_456ced50 -->
<g id="edge45" class="edge" data-name="node_d9bf0bc3-&gt;node_456ced50">

<path fill="none" stroke="#8b8000" stroke-width="2" d="M564.13,-329.86C564.13,-266.37 564.13,-58 564.13,-58 564.13,-58 908.36,-58 908.36,-58" style=""/>
<polygon fill="#8b8000" stroke="#8b8000" stroke-width="2" points="908.36,-61.5 918.36,-58 908.36,-54.5 908.36,-61.5" style=""/>
</g>
<!-- node_ff1eb7bb&#45;&gt;node_f30bfaf9 -->
<g id="edge26" class="edge" data-name="node_ff1eb7bb-&gt;node_f30bfaf9">

<path fill="none" stroke="#009e73" stroke-width="2" d="M349.13,-474.33C349.13,-527.83 349.13,-680 349.13,-680 349.13,-680 449.27,-680 449.27,-680" style=""/>
<polygon fill="#009e73" stroke="#009e73" stroke-width="2" points="449.27,-683.5 459.27,-680 449.27,-676.5 449.27,-683.5" style=""/>
</g>
<!-- node_ff1eb7bb&#45;&gt;node_a201eddf -->
<g id="edge27" class="edge" data-name="node_ff1eb7bb-&gt;node_a201eddf">

<path fill="none" stroke="#009e73" stroke-width="2" d="M363.13,-437.77C363.13,-429.99 363.13,-422.67 363.13,-422.67 363.13,-422.67 667.04,-422.67 667.04,-422.67" style=""/>
<polygon fill="#009e73" stroke="#009e73" stroke-width="2" points="667.04,-426.17 677.04,-422.67 667.04,-419.17 667.04,-426.17" style=""/>
</g>
<!-- node_ff1eb7bb&#45;&gt;node_5a6d272c -->
<g id="edge29" class="edge" data-name="node_ff1eb7bb-&gt;node_5a6d272c">

<path fill="none" stroke="#009e73" stroke-width="2" d="M390.09,-450C411.44,-450 433.13,-450 433.13,-450 433.13,-450 433.13,-433.45 433.13,-433.45" style=""/>
<polygon fill="#009e73" stroke="#009e73" stroke-width="2" points="436.63,-433.45 433.13,-423.45 429.63,-433.45 436.63,-433.45" style=""/>
</g>
<!-- node_ff1eb7bb&#45;&gt;node_3bdb5476 -->
<g id="edge31" class="edge" data-name="node_ff1eb7bb-&gt;node_3bdb5476">

<path fill="none" stroke="#009e73" stroke-width="2" d="M390.12,-462C390.12,-462 425.49,-462 425.49,-462" style=""/>
<polygon fill="#009e73" stroke="#009e73" stroke-width="2" points="425.49,-465.5 435.49,-462 425.49,-458.5 425.49,-465.5" style=""/>
</g>
<!-- node_ff1eb7bb&#45;&gt;node_d9bf0bc3 -->
<g id="edge33" class="edge" data-name="node_ff1eb7bb-&gt;node_d9bf0bc3">

<path fill="none" stroke="#009e73" stroke-width="2" d="M336.13,-437.68C336.13,-406.87 336.13,-348 336.13,-348 336.13,-348 456.34,-348 456.34,-348" style=""/>
<polygon fill="#009e73" stroke="#009e73" stroke-width="2" points="456.34,-351.5 466.34,-348 456.34,-344.5 456.34,-351.5" style=""/>
</g>
<!-- node_4993e438 -->
<g id="node24" class="node" pointer-events="visible" data-name="node_4993e438">

<path fill="#966f33" stroke="black" d="M379.05,-106C379.05,-106 318.98,-106 318.98,-106 312.98,-106 306.98,-100 306.98,-94 306.98,-94 306.98,-82 306.98,-82 306.98,-76 312.98,-70 318.98,-70 318.98,-70 379.05,-70 379.05,-70 385.05,-70 391.05,-76 391.05,-82 391.05,-82 391.05,-94 391.05,-94 391.05,-100 385.05,-106 379.05,-106" style=""/>
<text text-anchor="middle" x="349.02" y="-83.8" font-family="Times,serif" font-size="14.00" style="">0: (global)()</text>
</g>
<!-- node_7195cb12 -->
<g id="node26" class="node" pointer-events="visible" data-name="node_7195cb12">

<path fill="#cccccc" stroke="black" d="M547.51,-106C547.51,-106 490.09,-106 490.09,-106 484.09,-106 478.09,-100 478.09,-94 478.09,-94 478.09,-82 478.09,-82 478.09,-76 484.09,-70 490.09,-70 490.09,-70 547.51,-70 547.51,-70 553.51,-70 559.51,-76 559.51,-82 559.51,-82 559.51,-94 559.51,-94 559.51,-100 553.51,-106 547.51,-106" style=""/>
<text text-anchor="middle" x="518.8" y="-83.8" font-family="Times,serif" font-size="14.00" style="">215: main()</text>
</g>
<!-- node_4993e438&#45;&gt;node_7195cb12 -->
<g id="edge35" class="edge" data-name="node_4993e438-&gt;node_7195cb12">

<path fill="none" stroke="#000000" stroke-width="2" d="M391.42,-88C391.42,-88 464.78,-88 464.78,-88" style=""/>
<polygon fill="#000000" stroke="#000000" stroke-width="2" points="464.78,-91.5 474.78,-88 464.78,-84.5 464.78,-91.5" style=""/>
</g>
<!-- node_7195cb12&#45;&gt;node_a201eddf -->
<g id="edge36" class="edge" data-name="node_7195cb12-&gt;node_a201eddf">

<path fill="none" stroke="#56b4e9" stroke-width="2" d="M559.86,-94C594.38,-94 638.13,-94 638.13,-94 638.13,-94 638.13,-401.33 638.13,-401.33 638.13,-401.33 667.07,-401.33 667.07,-401.33" style=""/>
<polygon fill="#56b4e9" stroke="#56b4e9" stroke-width="2" points="667.07,-404.83 677.07,-401.33 667.07,-397.83 667.07,-404.83" style=""/>
</g>
<!-- node_70a87134 -->
<g id="node27" class="node" pointer-events="visible" data-name="node_70a87134">

<path fill="#cccccc" stroke="black" d="M762.32,-52C762.32,-52 706.58,-52 706.58,-52 700.58,-52 694.58,-46 694.58,-40 694.58,-40 694.58,-28 694.58,-28 694.58,-22 700.58,-16 706.58,-16 706.58,-16 762.32,-16 762.32,-16 768.32,-16 774.32,-22 774.32,-28 774.32,-28 774.32,-40 774.32,-40 774.32,-46 768.32,-52 762.32,-52" style=""/>
<text text-anchor="middle" x="734.45" y="-29.8" font-family="Times,serif" font-size="14.00" style="">121: train()</text>
</g>
<!-- node_7195cb12&#45;&gt;node_70a87134 -->
<g id="edge38" class="edge" data-name="node_7195cb12-&gt;node_70a87134">

<path fill="none" stroke="#56b4e9" stroke-width="2" d="M519.13,-69.72C519.13,-54.05 519.13,-34 519.13,-34 519.13,-34 681.18,-34 681.18,-34" style=""/>
<polygon fill="#56b4e9" stroke="#56b4e9" stroke-width="2" points="681.18,-37.5 691.18,-34 681.18,-30.5 681.18,-37.5" style=""/>
</g>
<!-- node_2fcc9fe7 -->
<g id="node28" class="node" pointer-events="visible" data-name="node_2fcc9fe7">

<path fill="#cccccc" stroke="black" d="M763.16,-106C763.16,-106 705.75,-106 705.75,-106 699.75,-106 693.75,-100 693.75,-94 693.75,-94 693.75,-82 693.75,-82 693.75,-76 699.75,-70 705.75,-70 705.75,-70 763.16,-70 763.16,-70 769.16,-70 775.16,-76 775.16,-82 775.16,-82 775.16,-94 775.16,-94 775.16,-100 769.16,-106 763.16,-106" style=""/>
<text text-anchor="middle" x="734.45" y="-83.8" font-family="Times,serif" font-size="14.00" style="">176: valid()</text>
</g>
<!-- node_7195cb12&#45;&gt;node_2fcc9fe7 -->
<g id="edge39" class="edge" data-name="node_7195cb12-&gt;node_2fcc9fe7">

<path fill="none" stroke="#56b4e9" stroke-width="2" d="M559.87,-82C559.87,-82 680.51,-82 680.51,-82" style=""/>
<polygon fill="#56b4e9" stroke="#56b4e9" stroke-width="2" points="680.51,-85.5 690.51,-82 680.51,-78.5 680.51,-85.5" style=""/>
</g>
<!-- node_70a87134&#45;&gt;node_7f2becgi -->
<g id="edge40" class="edge" data-name="node_70a87134-&gt;node_7f2becgi">

<path fill="none" stroke="#54b409" stroke-width="2" d="M774.81,-47C807.14,-47 847.13,-47 847.13,-47 847.13,-47 847.13,-343.6 847.13,-343.6 847.13,-343.6 892.04,-343.6 892.04,-343.6" style=""/>
<polygon fill="#54b409" stroke="#54b409" stroke-width="2" points="892.04,-347.1 902.04,-343.6 892.04,-340.1 892.04,-347.1" style=""/>
</g>
<!-- node_70a87134&#45;&gt;node_456ced50 -->
<g id="edge42" class="edge" data-name="node_70a87134-&gt;node_456ced50">

<path fill="none" stroke="#54b409" stroke-width="2" d="M774.74,-42C774.74,-42 908.44,-42 908.44,-42" style=""/>
<polygon fill="#54b409" stroke="#54b409" stroke-width="2" points="908.44,-45.5 918.44,-42 908.44,-38.5 908.44,-45.5" style=""/>
</g>
<!-- node_2fcc9fe7&#45;&gt;node_7f2becgi -->
<g id="edge41" class="edge" data-name="node_2fcc9fe7-&gt;node_7f2becgi">

<path fill="none" stroke="#0000ff" stroke-width="2" d="M775.4,-89.5C803.27,-89.5 835.13,-89.5 835.13,-89.5 835.13,-89.5 835.13,-349.2 835.13,-349.2 835.13,-349.2 892.02,-349.2 892.02,-349.2" style=""/>
<polygon fill="#0000ff" stroke="#0000ff" stroke-width="2" points="892.02,-352.7 902.02,-349.2 892.02,-345.7 892.02,-352.7" style=""/>
</g>
<!-- node_2fcc9fe7&#45;&gt;node_456ced50 -->
<g id="edge43" class="edge" data-name="node_2fcc9fe7-&gt;node_456ced50">

<path fill="none" stroke="#0000ff" stroke-width="2" d="M735.13,-69.57C735.13,-66.34 735.13,-64 735.13,-64 735.13,-64 908.35,-64 908.35,-64" style=""/>
<polygon fill="#0000ff" stroke="#0000ff" stroke-width="2" points="908.35,-67.5 918.35,-64 908.35,-60.5 908.35,-67.5" style=""/>
</g>
</g>
</svg>