<svg xmlns="http://www.w3.org/2000/svg" xmlns:xlink="http://www.w3.org/1999/xlink" xmlns:lucid="lucid" width="1723" height="1602.5"><g transform="translate(-1158.5 -158.5)" lucid:page-tab-id="m-5o7ONTd-nK"><path d="M1000 0h2000v2000H1000z" fill="#fff"/><path d="M1180 720V186a6 6 0 0 1 6-6h41v540z" stroke="#3a414a" stroke-width="3" fill="#6db1ff"/><path d="M1180 720h47v400h-47z" stroke="#3a414a" stroke-width="3" fill="#00c2a8"/><path d="M1227 1400h-41a6 6 0 0 1-6-6v-274h47z" stroke="#3a414a" stroke-width="3" fill="#9391ff"/><path d="M1227 180h1627a6 6 0 0 1 6 6v534H1227zM1227 720h1633v400H1227zM2860 1120v274a6 6 0 0 1-6 6H1227v-280z" stroke="#3a414a" stroke-width="3" fill="none"/><use xlink:href="#a" transform="matrix(-1.8369701987210297e-16,-1,1,-1.8369701987210297e-16,1180,719.9999999999999) translate(136.7777777777778 28.833333333333332)"/><use xlink:href="#b" transform="matrix(-1.8369701987210297e-16,-1,1,-1.8369701987210297e-16,1180,719.9999999999999) translate(255.22222222222223 28.833333333333332)"/><use xlink:href="#c" transform="matrix(-1.8369701987210297e-16,-1,1,-1.8369701987210297e-16,1180,1120) translate(111.92592592592595 28.833333333333332)"/><use xlink:href="#d" transform="matrix(-1.8369701987210297e-16,-1,1,-1.8369701987210297e-16,1180,1120) translate(180 28.833333333333332)"/><use xlink:href="#e" transform="matrix(-1.8369701987210297e-16,-1,1,-1.8369701987210297e-16,1180,1400.0000000000002) translate(58.703703703703724 28.833333333333332)"/><use xlink:href="#f" transform="matrix(-1.8369701987210297e-16,-1,1,-1.8369701987210297e-16,1180,1400.0000000000002) translate(125.14814814814815 28.833333333333332)"/><path d="M1813.05 1436a16 16 0 0 1 16-16h421.9a16 16 0 0 1 16 16v288a16 16 0 0 1-16 16h-421.9a16 16 0 0 1-16-16z" stroke="#4c535d" stroke-width="2" fill="#fff"/><path d="M1907.7 1534.93c0 11.2-9.08 20.28-20.28 20.28-11.2 0-20.28-9.07-20.28-20.27s9.08-20.28 20.28-20.28c11.2 0 20.28 9.08 20.28 20.28z" stroke="#000" stroke-opacity=".25" fill="#6db1ff"/><path d="M1907.7 1598.03c0 11.2-9.08 20.28-20.28 20.28-11.2 0-20.28-9.07-20.28-20.27s9.08-20.28 20.28-20.28c11.2 0 20.28 9.08 20.28 20.28z" stroke="#000" stroke-opacity=".25" fill="#00c2a8"/><path d="M1907.7 1661.13c0 11.2-9.08 20.28-20.28 20.28-11.2 0-20.28-9.07-20.28-20.27s9.08-20.3 20.28-20.3c11.2.02 20.28 9.1 20.28 20.3z" stroke="#000" stroke-opacity=".25" fill="#9391ff"/><use xlink:href="#g" transform="matrix(1,0,0,1,1867.1377057592897,1460.5633802816901) translate(0 19.555555555555557)"/><use xlink:href="#h" transform="matrix(1,0,0,1,1867.1377057592897,1460.5633802816901) translate(101.78395061728398 19.555555555555557)"/><use xlink:href="#i" transform="matrix(1,0,0,1,1867.1377057592897,1460.5633802816901) translate(157.3271604938272 19.555555555555557)"/><use xlink:href="#j" transform="matrix(1,0,0,1,1927.9827761818249,1514.6478873239437) translate(0 29.88888888888889)"/><use xlink:href="#k" transform="matrix(1,0,0,1,1927.9827761818249,1514.6478873239437) translate(122.15432098765436 29.88888888888889)"/><use xlink:href="#l" transform="matrix(1,0,0,1,1927.9827761818249,1577.7464788732395) translate(0 29.88888888888889)"/><use xlink:href="#m" transform="matrix(1,0,0,1,1927.9827761818249,1577.7464788732395) translate(62.40123456790124 29.88888888888889)"/><use xlink:href="#n" transform="matrix(1,0,0,1,1927.9827761818249,1640.8450704225352) translate(0 29.88888888888889)"/><use xlink:href="#o" transform="matrix(1,0,0,1,1927.9827761818249,1640.8450704225352) translate(60.90740740740741 29.88888888888889)"/><path d="M1640.37 550.98a8 8 0 0 1 8-8h144.38a8 8 0 0 1 8 8v104a8 8 0 0 1-8 8h-144.38a8 8 0 0 1-8-8z" stroke="#3a414a" stroke-width="2" fill="#cfe4ff"/><use xlink:href="#p" transform="matrix(1,0,0,1,1645.9350859369222,548.5405469010119) translate(45.22222222222223 45.47883333333333)"/><use xlink:href="#q" transform="matrix(1,0,0,1,1645.9350859369222,548.5405469010119) translate(38.777777777777786 77.47883333333333)"/><path d="M2161.56 370.98a8 8 0 0 1 8-8h144.38a8 8 0 0 1 8 8v104a8 8 0 0 1-8 8h-144.38a8 8 0 0 1-8-8z" stroke="#3a414a" stroke-width="2" fill="#cfe4ff"/><use xlink:href="#r" transform="matrix(1,0,0,1,2167.1239953389095,368.54054690101185) translate(50.592592592592595 45.47883333333333)"/><use xlink:href="#s" transform="matrix(1,0,0,1,2167.1239953389095,368.54054690101185) translate(38.777777777777786 77.47883333333333)"/><path d="M2161.56 550.98a8 8 0 0 1 8-8h144.38a8 8 0 0 1 8 8v104a8 8 0 0 1-8 8h-144.38a8 8 0 0 1-8-8z" stroke="#3a414a" stroke-width="2" fill="#cfe4ff"/><use xlink:href="#t" transform="matrix(1,0,0,1,2167.1239953389095,548.5405469010119) translate(19.48148148148149 45.68733333333333)"/><use xlink:href="#u" transform="matrix(1,0,0,1,2167.1239953389095,548.5405469010119) translate(1.0000000000000107 77.68733333333333)"/><path d="M1483.37 547.45h8a12 12 0 0 1 12 12v31.53a12 12 0 0 0 12 12h101.27" stroke="#008573" stroke-width="4" fill="none"/><path d="M1483.42 549.43h-2.05v-3.95h2.06z" stroke="#008573" stroke-width=".05" fill="#008573"/><path d="M1632.9 602.98l-14.26 4.63v-9.26z" stroke="#008573" stroke-width="4" fill="#008573"/><path d="M1300 484.8a8 8 0 0 1 8-8h146.34a8 8 0 0 1 8 8V596.9c-27.1-20.06-44-20.06-54.22-20.06-16.24 0-37.83 20.06-54.06 20.06-10.07 0-27.1 0-54.06-20.06z" stroke="#3a414a" stroke-width="2" fill="#fff7a1"/><path d="M1309.02 495.4a8 8 0 0 1 8-8h146.34a8 8 0 0 1 8 8V607.5c-27.12-20.06-44-20.06-54.22-20.06-16.24 0-37.83 20.06-54.06 20.06-10.07 0-27.1 0-54.06-20.06z" stroke="#3a414a" stroke-width="2" fill="#fff7a1"/><path d="M1318.04 506a8 8 0 0 1 8-8h146.33a8 8 0 0 1 8 8V618.1c-27.1-20.07-44-20.07-54.22-20.07-16.23 0-37.82 20.07-54.05 20.07-10.07 0-27.12 0-54.06-20.07z" stroke="#3a414a" stroke-width="2" fill="#fff7a1"/><use xlink:href="#v" transform="matrix(1,0,0,1,1323.0374085936921,502.9854314457364) translate(36.469444444444456 50.66041666666666)"/><path d="M1860.37 550.98a8 8 0 0 1 8-8h144.38a8 8 0 0 1 8 8v112c-26.78-20.04-43.46-20.04-53.57-20.04-16.03 0-37.36 20.04-53.4 20.04-9.94 0-26.78 0-53.4-20.04z" stroke="#3a414a" stroke-width="2" fill="#ffd9d9"/><use xlink:href="#w" transform="matrix(1,0,0,1,1865.935085936922,548.5405469010119) translate(30.407407407407415 33.385083333333334)"/><use xlink:href="#q" transform="matrix(1,0,0,1,1865.935085936922,548.5405469010119) translate(38.777777777777786 65.38508333333333)"/><path d="M1803.75 602.98h32.9" stroke="#008573" stroke-width="4" fill="none"/><path d="M1803.8 604.96h-2.05V601h2.05z" stroke="#008573" stroke-width=".05" fill="#008573"/><path d="M1852.9 602.98l-14.26 4.63v-9.26z" stroke="#008573" stroke-width="4" fill="#008573"/><path d="M2023.75 603.1h58.63a.05.05 0 0 0 .06-.07.05.05 0 0 1 .05-.05h55.32" stroke="#008573" stroke-width="4" fill="none"/><path d="M2023.8 605.06h-2.05v-3.95h2.05z" stroke="#008573" stroke-width=".05" fill="#008573"/><path d="M2154.1 602.98l-14.28 4.63v-9.26z" stroke="#008573" stroke-width="4" fill="#008573"/><path d="M2401.56 370.98a8 8 0 0 1 8-8h182a8 8 0 0 1 8 8v128c-33.06-22.7-53.65-22.7-66.13-22.7-19.8 0-46.13 22.7-65.93 22.7-12.28 0-33.07 0-65.94-22.7z" stroke="#3a414a" stroke-width="2" fill="#fff7a1"/><path d="M2412.56 382.98a8 8 0 0 1 8-8h182a8 8 0 0 1 8 8v128c-33.06-22.7-53.65-22.7-66.13-22.7-19.8 0-46.13 22.7-65.93 22.7-12.28 0-33.07 0-65.94-22.7z" stroke="#3a414a" stroke-width="2" fill="#fff7a1"/><path d="M2423.56 394.98a8 8 0 0 1 8-8h182a8 8 0 0 1 8 8v128c-33.06-22.7-53.65-22.7-66.13-22.7-19.8 0-46.13 22.7-65.93 22.7-12.28 0-33.07 0-65.94-22.7z" stroke="#3a414a" stroke-width="2" fill="#fff7a1"/><use xlink:href="#x" transform="matrix(1,0,0,1,2428.5629953389093,391.9795469010119) translate(24.500925925925955 25.066666666666663)"/><use xlink:href="#y" transform="matrix(1,0,0,1,2428.5629953389093,391.9795469010119) translate(8.747222222222248 62.66666666666666)"/><use xlink:href="#z" transform="matrix(1,0,0,1,2428.5629953389093,391.9795469010119) translate(69.67314814814816 62.66666666666666)"/><use xlink:href="#A" transform="matrix(1,0,0,1,2428.5629953389093,391.9795469010119) translate(23.630555555555574 100.26666666666665)"/><use xlink:href="#B" transform="matrix(1,0,0,1,2428.5629953389093,391.9795469010119) translate(108.8398148148148 100.26666666666665)"/><path d="M2401.56 550.98a8 8 0 0 1 8-8h182a8 8 0 0 1 8 8V664.5c-33.06-20.28-53.65-20.28-66.13-20.28-19.8 0-46.13 20.3-65.93 20.3-12.28 0-33.07 0-65.94-20.3z" stroke="#3a414a" stroke-width="2" fill="#fff7a1"/><path d="M2412.56 561.7a8 8 0 0 1 8-8h182a8 8 0 0 1 8 8v113.54c-33.06-20.3-53.65-20.3-66.13-20.3-19.8 0-46.13 20.3-65.93 20.3-12.28 0-33.07 0-65.94-20.3z" stroke="#3a414a" stroke-width="2" fill="#fff7a1"/><path d="M2423.56 572.43a8 8 0 0 1 8-8h182a8 8 0 0 1 8 8v113.53c-33.06-20.3-53.65-20.3-66.13-20.3-19.8 0-46.13 20.3-65.93 20.3-12.28 0-33.07 0-65.94-20.3z" stroke="#3a414a" stroke-width="2" fill="#fff7a1"/><use xlink:href="#C" transform="matrix(1,0,0,1,2428.5629953389093,569.4264789361637) translate(7.050000000000026 52.266666666666666)"/><path d="M1280 850.98a8 8 0 0 1 8-8h1164a8 8 0 0 1 8 8v184a8 8 0 0 1-8 8H1288a8 8 0 0 1-8-8z" stroke="#3a414a" stroke-width="2" fill="#dfe3e8"/><use xlink:href="#D" transform="matrix(1,0,0,1,1292,854.9795469010119) translate(422.05339506172845 23.288888888888884)"/><use xlink:href="#E" transform="matrix(1,0,0,1,1292,854.9795469010119) translate(496.36759259259264 23.288888888888884)"/><use xlink:href="#F" transform="matrix(1,0,0,1,1292,854.9795469010119) translate(636.9904320987655 23.288888888888884)"/><path d="M2520 891.04a8 8 0 0 1 8-8h146.34a8 8 0 0 1 8 8v112.13c-27.1-20.06-44-20.06-54.22-20.06-16.24 0-37.83 20.07-54.06 20.07-10.07 0-27.1 0-54.06-20.06z" stroke="#3a414a" stroke-width="2" fill="#fff7a1"/><path d="M2529.02 901.64a8 8 0 0 1 8-8h146.34a8 8 0 0 1 8 8v112.13c-27.12-20.06-44-20.06-54.22-20.06-16.24 0-37.83 20.07-54.06 20.07-10.07 0-27.1 0-54.06-20.06z" stroke="#3a414a" stroke-width="2" fill="#fff7a1"/><path d="M2538.04 912.24a8 8 0 0 1 8-8h146.33a8 8 0 0 1 8 8v112.13c-27.1-20.06-44-20.06-54.22-20.06-16.23 0-37.82 20.07-54.05 20.07-10.07 0-27.1 0-54.06-20.06z" stroke="#3a414a" stroke-width="2" fill="#fff7a1"/><use xlink:href="#G" transform="matrix(1,0,0,1,2543.0374085936924,909.2381171149655) translate(20.056481481481498 32.96666666666667)"/><use xlink:href="#H" transform="matrix(1,0,0,1,2543.0374085936924,909.2381171149655) translate(11.396296296296313 70.56666666666666)"/><use xlink:href="#B" transform="matrix(1,0,0,1,2543.0374085936924,909.2381171149655) translate(86.07407407407406 70.56666666666666)"/><path d="M2463 942.98h33.26" stroke="#008573" stroke-width="4" fill="none"/><path d="M2463.05 944.96H2461V941h2.05z" stroke="#008573" stroke-width=".05" fill="#008573"/><path d="M2512.53 942.98l-14.27 4.63v-9.26z" stroke="#008573" stroke-width="4" fill="#008573"/><path d="M2511.56 683.15v66.42a12 12 0 0 1-12 12H1882a12 12 0 0 0-12 12v45.67" stroke="#008573" stroke-width="4" fill="none"/><path d="M2513.54 683.2h-3.95v-1.24l3.94-1.6z" stroke="#008573" stroke-width=".05" fill="#008573"/><path d="M1870 835.5l-4.63-14.26h9.27z" stroke="#008573" stroke-width="4" fill="#008573"/><path d="M1880 1208a8 8 0 0 1 8-8h144.37a8 8 0 0 1 8 8v104a8 8 0 0 1-8 8H1888a8 8 0 0 1-8-8z" stroke="#3a414a" stroke-width="2" fill="#dedeff"/><use xlink:href="#I" transform="matrix(1,0,0,1,1885.5609999999997,1205.561) translate(43.02160493827161 43.85036111111111)"/><use xlink:href="#J" transform="matrix(1,0,0,1,1885.5609999999997,1205.561) translate(22.91975308641975 78.51702777777777)"/><path d="M2624.56 443.06h155a12 12 0 0 1 12 12v821.48a12 12 0 0 1-12 12H2064.1" stroke="#008573" stroke-width="4" fill="none"/><path d="M2624.6 445.04h-2.04v-3.96h2.05z" stroke="#008573" stroke-width=".05" fill="#008573"/><path d="M2047.85 1288.54l14.26-4.64v9.27z" stroke="#008573" stroke-width="4" fill="#008573"/><path d="M1685.28 1205.65c30 0 54.35 24.33 54.35 54.35 0 30.02-24.34 54.35-54.35 54.35h-190.93c-30.02 0-54.35-24.33-54.35-54.35 0-30.02 24.33-54.35 54.35-54.35z" stroke="#3a414a" stroke-width="2" fill="#dedeff"/><use xlink:href="#K" transform="matrix(1,0,0,1,1445,1210.65) translate(29.83956790123461 38.757638888888884)"/><use xlink:href="#L" transform="matrix(1,0,0,1,1445,1210.65) translate(142.8068518518519 38.757638888888884)"/><use xlink:href="#M" transform="matrix(1,0,0,1,1445,1210.65) translate(109.00561728395063 73.6909722222222)"/><path d="M1877 1260h-113.64" stroke="#008573" stroke-width="4" fill="none"/><path d="M1879 1261.97h-2.05v-3.94h2.05z" stroke="#008573" stroke-width=".05" fill="#008573"/><path d="M1747.1 1260l14.26-4.63v9.27z" stroke="#008573" stroke-width="4" fill="#008573"/><path d="M1301.56 368a8 8 0 0 1 8-8h144a8 8 0 0 1 8 8v50.2a8 8 0 0 1-8 8h-144a8 8 0 0 1-8-8z" stroke="#3a414a" stroke-width="2" fill="#cfe4ff"/><use xlink:href="#N" transform="matrix(1,0,0,1,1307.1239953389093,365.561) translate(7.166666666666682 35.187333333333335)"/><path d="M1381.56 429.2v22.26a.03.03 0 0 1-.03.03.03.03 0 0 0-.03.02v1.53" stroke="#008573" stroke-width="4" fill="none"/><path d="M1383.54 429.25h-3.95v-2.06h3.94z" stroke="#008573" stroke-width=".05" fill="#008573"/><path d="M1381.5 469.3l-4.63-14.25h9.27z" stroke="#008573" stroke-width="4" fill="#008573"/><path d="M2324.94 602.98h36.78a.03.03 0 0 0 .03-.03.03.03 0 0 1 .03-.02h16.04" stroke="#008573" stroke-width="4" fill="none"/><path d="M2325 604.96h-2.06V601h2.05z" stroke="#008573" stroke-width=".05" fill="#008573"/><path d="M2394.1 602.93l-14.28 4.63v-9.27z" stroke="#008573" stroke-width="4" fill="#008573"/><path d="M2023.75 603.1h55.4a12 12 0 0 0 12-12v-159a12 12 0 0 1 12-12h34.67" stroke="#008573" stroke-width="4" fill="none"/><path d="M2023.8 605.06h-2.05v-3.95h2.05z" stroke="#008573" stroke-width=".05" fill="#008573"/><path d="M2154.1 420.1l-14.28 4.62v-9.27z" stroke="#008573" stroke-width="4" fill="#008573"/><path d="M2324.94 422.98h36.76a.04.04 0 0 0 .05-.05.04.04 0 0 1 .05-.04h16.02" stroke="#008573" stroke-width="4" fill="none"/><path d="M2325 424.95h-2.06V421h2.05z" stroke="#008573" stroke-width=".05" fill="#008573"/><path d="M2394.1 422.9l-14.28 4.62v-9.27z" stroke="#008573" stroke-width="4" fill="#008573"/><path d="M2624.56 443.14h155a12 12 0 0 1 12 12v294.43a12 12 0 0 1-12 12H1882a12 12 0 0 0-12 12v45.67" stroke="#008573" stroke-width="4" fill="none"/><path d="M2624.6 445.12h-2.04v-3.95h2.05z" stroke="#008573" stroke-width=".05" fill="#008573"/><path d="M1870 835.5l-4.63-14.26h9.27z" stroke="#008573" stroke-width="4" fill="#008573"/><path d="M1483.37 547.65h7a12 12 0 0 0 12-12V400.92a12 12 0 0 1 12-12h623.45" stroke="#008573" stroke-width="4" fill="none"/><path d="M1483.42 549.62h-2.05v-3.95h2.06z" stroke="#008573" stroke-width=".05" fill="#008573"/><path d="M2154.1 388.92l-14.28 4.64v-9.27z" stroke="#008573" stroke-width="4" fill="#008573"/><path d="M1861.56 208a8 8 0 0 1 8-8h146.34a8 8 0 0 1 8 8v112.13c-27.1-20.06-44-20.06-54.22-20.06-16.23 0-37.83 20.06-54.06 20.06-10.06 0-27.1 0-54.06-20.06z" stroke="#3a414a" stroke-width="2" fill="#fff7a1"/><path d="M1870.58 218.6a8 8 0 0 1 8-8h146.34a8 8 0 0 1 8 8v112.13c-27.1-20.06-44-20.06-54.22-20.06-16.24 0-37.83 20.06-54.06 20.06-10.07 0-27.1 0-54.06-20.06z" stroke="#3a414a" stroke-width="2" fill="#fff7a1"/><path d="M1879.6 229.2a8 8 0 0 1 8-8h146.34a8 8 0 0 1 8 8v112.13c-27.1-20.06-44-20.06-54.22-20.06-16.24 0-37.83 20.06-54.06 20.06-10.07 0-27.1 0-54.06-20.06z" stroke="#3a414a" stroke-width="2" fill="#fff7a1"/><use xlink:href="#O" transform="matrix(1,0,0,1,1884.6004039326012,226.19976423444237) translate(0.8712962962963218 50.66041666666666)"/><use xlink:href="#P" transform="matrix(1,0,0,1,1884.6004039326012,226.19976423444237) translate(72.06759259259259 50.66041666666666)"/><path d="M1858.56 270.86h-465a12 12 0 0 0-12 12v53.4" stroke="#008573" stroke-width="4" fill="none"/><path d="M1860.56 272.84h-2.05v-3.95h2.06z" stroke="#008573" stroke-width=".05" fill="#008573"/><path d="M1381.56 352.53l-4.63-14.27h9.27z" stroke="#008573" stroke-width="4" fill="#008573"/><path d="M1300 904a8 8 0 0 1 8-8h104a8 8 0 0 1 8 8v94.83a8 8 0 0 1-8 8h-104a8 8 0 0 1-8-8z" stroke="#3a414a" stroke-width="2" fill="#b8f5ed"/><g><use xlink:href="#Q" transform="matrix(1,0,0,1,1305.561,901.5610000000003) translate(25.722222222222225 56.29133333333333)"/></g><path d="M1720 904a8 8 0 0 1 8-8h104a8 8 0 0 1 8 8v94.83a8 8 0 0 1-8 8h-104a8 8 0 0 1-8-8z" stroke="#3a414a" stroke-width="2" fill="#b8f5ed"/><g><use xlink:href="#R" transform="matrix(1,0,0,1,1725.561,901.5610000000005) translate(14.240740740740737 25.187333333333335)"/><use xlink:href="#S" transform="matrix(1,0,0,1,1725.561,901.5610000000005) translate(79.2037037037037 25.187333333333335)"/><use xlink:href="#T" transform="matrix(1,0,0,1,1725.561,901.5610000000005) translate(35.27777777777777 57.18733333333333)"/><use xlink:href="#U" transform="matrix(1,0,0,1,1725.561,901.5610000000005) translate(10.092592592592599 89.18733333333333)"/></g><path d="M1440 909.4a8 8 0 0 1 8-8h104a8 8 0 0 1 8 8v84a8 8 0 0 1-8 8h-104a8 8 0 0 1-8-8z" stroke="#3a414a" stroke-width="2" fill="#b8f5ed"/><g><use xlink:href="#V" transform="matrix(1,0,0,1,1445.561,906.9760000000002) translate(25.64814814814815 50.07258333333333)"/></g><path d="M1860 904a8 8 0 0 1 8-8h104a8 8 0 0 1 8 8v94.83a8 8 0 0 1-8 8h-104a8 8 0 0 1-8-8z" stroke="#3a414a" stroke-width="2" fill="#b8f5ed"/><g><use xlink:href="#W" transform="matrix(1,0,0,1,1865.561,901.5610000000005) translate(14.42592592592592 25.187333333333335)"/><use xlink:href="#S" transform="matrix(1,0,0,1,1865.561,901.5610000000005) translate(79.01851851851852 25.187333333333335)"/><use xlink:href="#T" transform="matrix(1,0,0,1,1865.561,901.5610000000005) translate(35.27777777777777 57.18733333333333)"/><use xlink:href="#U" transform="matrix(1,0,0,1,1865.561,901.5610000000005) translate(10.092592592592599 89.18733333333333)"/></g><path d="M1580 909.4a8 8 0 0 1 8-8h104a8 8 0 0 1 8 8v84a8 8 0 0 1-8 8h-104a8 8 0 0 1-8-8z" stroke="#3a414a" stroke-width="2" fill="#b8f5ed"/><g><use xlink:href="#X" transform="matrix(1,0,0,1,1585.561,906.9760000000002) translate(27.12962962962963 50.07258333333333)"/></g><path d="M2000 904a8 8 0 0 1 8-8h104a8 8 0 0 1 8 8v94.83a8 8 0 0 1-8 8h-104a8 8 0 0 1-8-8z" stroke="#3a414a" stroke-width="2" fill="#b8f5ed"/><g><use xlink:href="#Y" transform="matrix(1,0,0,1,2005.561,901.561) translate(15.648148148148149 25.187333333333335)"/><use xlink:href="#S" transform="matrix(1,0,0,1,2005.561,901.561) translate(77.79629629629629 25.187333333333335)"/><use xlink:href="#T" transform="matrix(1,0,0,1,2005.561,901.561) translate(35.27777777777777 57.18733333333333)"/><use xlink:href="#U" transform="matrix(1,0,0,1,2005.561,901.561) translate(10.092592592592599 89.18733333333333)"/></g><path d="M2140 909.4a8 8 0 0 1 8-8h104a8 8 0 0 1 8 8v84a8 8 0 0 1-8 8h-104a8 8 0 0 1-8-8z" stroke="#3a414a" stroke-width="2" fill="#b8f5ed"/><g><use xlink:href="#Z" transform="matrix(1,0,0,1,2145.561,906.9760000000002) translate(32.31481481481481 35.687333333333335)"/><use xlink:href="#U" transform="matrix(1,0,0,1,2145.561,906.9760000000002) translate(10.092592592592599 67.68733333333333)"/></g><path d="M2280 888a8 8 0 0 1 8-8h144a8 8 0 0 1 8 8v126.83a8 8 0 0 1-8 8h-144a8 8 0 0 1-8-8z" stroke="#3a414a" stroke-width="2" fill="#b8f5ed"/><g><use xlink:href="#Z" transform="matrix(1,0,0,1,2285.561,885.561) translate(52.31481481481481 29.166333333333334)"/><use xlink:href="#aa" transform="matrix(1,0,0,1,2285.561,885.561) translate(30.0925925925926 61.16633333333333)"/><use xlink:href="#ab" transform="matrix(1,0,0,1,2285.561,885.561) translate(19.79629629629631 93.16633333333333)"/><use xlink:href="#ac" transform="matrix(1,0,0,1,2285.561,885.561) translate(56.833333333333336 93.16633333333333)"/><use xlink:href="#ad" transform="matrix(1,0,0,1,2285.561,885.561) translate(19.018518518518523 125.16633333333333)"/><use xlink:href="#ae" transform="matrix(1,0,0,1,2285.561,885.561) translate(78.12962962962962 125.16633333333333)"/></g><path d="M2610.2 1021.7v202.27a12 12 0 0 1-12 12h-534.1" stroke="#008573" stroke-width="4" fill="none"/><path d="M2612.16 1021.76h-3.95v-1.07l3.96-1.97z" stroke="#008573" stroke-width=".05" fill="#008573"/><path d="M2047.85 1235.97l14.26-4.64v9.27z" stroke="#008573" stroke-width="4" fill="#008573"/><defs><path d="M143 4C61 4 22-44 18-125c-5-107 100-154 193-111 17 8 29 25 37 43l-32 9c-13-25-37-40-76-40-61 0-88 39-88 99 0 61 29 100 91 101 35 0 62-11 79-27v-45h-74v-28h105v86C228-13 192 4 143 4" id="af"/><path d="M100-194c63 0 86 42 84 106H49c0 40 14 67 53 68 26 1 43-12 49-29l28 8c-11 28-37 45-77 45C44 4 14-33 15-96c1-61 26-98 85-98zm52 81c6-60-76-77-97-28-3 7-6 17-6 28h103" id="ag"/><path d="M117-194c89-4 53 116 60 194h-32v-121c0-31-8-49-39-48C34-167 62-67 57 0H25l-1-190h30c1 10-1 24 2 32 11-22 29-35 61-36" id="ah"/><path d="M114-163C36-179 61-72 57 0H25l-1-190h30c1 12-1 29 2 39 6-27 23-49 58-41v29" id="ai"/><path d="M141-36C126-15 110 5 73 4 37 3 15-17 15-53c-1-64 63-63 125-63 3-35-9-54-41-54-24 1-41 7-42 31l-33-3c5-37 33-52 76-52 45 0 72 20 72 64v82c-1 20 7 32 28 27v20c-31 9-61-2-59-35zM48-53c0 20 12 33 32 33 41-3 63-29 60-74-43 2-92-5-92 41" id="aj"/><path d="M59-47c-2 24 18 29 38 22v24C64 9 27 4 27-40v-127H5v-23h24l9-43h21v43h35v23H59v120" id="ak"/><g id="a"><use transform="matrix(0.07407407407407406,0,0,0.07407407407407406,0,0)" xlink:href="#af"/><use transform="matrix(0.07407407407407406,0,0,0.07407407407407406,20.740740740740737,0)" xlink:href="#ag"/><use transform="matrix(0.07407407407407406,0,0,0.07407407407407406,35.55555555555555,0)" xlink:href="#ah"/><use transform="matrix(0.07407407407407406,0,0,0.07407407407407406,50.37037037037036,0)" xlink:href="#ag"/><use transform="matrix(0.07407407407407406,0,0,0.07407407407407406,65.18518518518518,0)" xlink:href="#ai"/><use transform="matrix(0.07407407407407406,0,0,0.07407407407407406,73.99999999999999,0)" xlink:href="#aj"/><use transform="matrix(0.07407407407407406,0,0,0.07407407407407406,88.8148148148148,0)" xlink:href="#ak"/><use transform="matrix(0.07407407407407406,0,0,0.07407407407407406,96.2222222222222,0)" xlink:href="#ag"/></g><path d="M30 0v-248h187v28H63v79h144v27H63v87h162V0H30" id="al"/><path d="M210-169c-67 3-38 105-44 169h-31v-121c0-29-5-50-35-48C34-165 62-65 56 0H25l-1-190h30c1 10-1 24 2 32 10-44 99-50 107 0 11-21 27-35 58-36 85-2 47 119 55 194h-31v-121c0-29-5-49-35-48" id="am"/><path d="M115-194c53 0 69 39 70 98 0 66-23 100-70 100C84 3 66-7 56-30L54 0H23l1-261h32v101c10-23 28-34 59-34zm-8 174c40 0 45-34 45-75 0-40-5-75-45-74-42 0-51 32-51 76 0 43 10 73 51 73" id="an"/><path d="M85-194c31 0 48 13 60 33l-1-100h32l1 261h-30c-2-10 0-23-3-31C134-8 116 4 85 4 32 4 16-35 15-94c0-66 23-100 70-100zm9 24c-40 0-46 34-46 75 0 40 6 74 45 74 42 0 51-32 51-76 0-42-9-74-50-73" id="ao"/><path d="M24-231v-30h32v30H24zM24 0v-190h32V0H24" id="ap"/><path d="M177-190C167-65 218 103 67 71c-23-6-38-20-44-43l32-5c15 47 100 32 89-28v-30C133-14 115 1 83 1 29 1 15-40 15-95c0-56 16-97 71-98 29-1 48 16 59 35 1-10 0-23 2-32h30zM94-22c36 0 50-32 50-73 0-42-14-75-50-75-39 0-46 34-46 75s6 73 46 73" id="aq"/><path d="M135-143c-3-34-86-38-87 0 15 53 115 12 119 90S17 21 10-45l28-5c4 36 97 45 98 0-10-56-113-15-118-90-4-57 82-63 122-42 12 7 21 19 24 35" id="ar"/><g id="b"><use transform="matrix(0.07407407407407406,0,0,0.07407407407407406,0,0)" xlink:href="#al"/><use transform="matrix(0.07407407407407406,0,0,0.07407407407407406,17.777777777777775,0)" xlink:href="#am"/><use transform="matrix(0.07407407407407406,0,0,0.07407407407407406,39.92592592592592,0)" xlink:href="#an"/><use transform="matrix(0.07407407407407406,0,0,0.07407407407407406,54.740740740740726,0)" xlink:href="#ag"/><use transform="matrix(0.07407407407407406,0,0,0.07407407407407406,69.55555555555554,0)" xlink:href="#ao"/><use transform="matrix(0.07407407407407406,0,0,0.07407407407407406,84.37037037037035,0)" xlink:href="#ao"/><use transform="matrix(0.07407407407407406,0,0,0.07407407407407406,99.18518518518516,0)" xlink:href="#ap"/><use transform="matrix(0.07407407407407406,0,0,0.07407407407407406,105.03703703703701,0)" xlink:href="#ah"/><use transform="matrix(0.07407407407407406,0,0,0.07407407407407406,119.85185185185182,0)" xlink:href="#aq"/><use transform="matrix(0.07407407407407406,0,0,0.07407407407407406,134.66666666666663,0)" xlink:href="#ar"/></g><path d="M140-251c81 0 123 46 123 126C263-46 219 4 140 4 59 4 17-45 17-125s42-126 123-126zm0 227c63 0 89-41 89-101s-29-99-89-99c-61 0-89 39-89 99S79-25 140-24" id="as"/><path d="M30-248c118-7 216 8 213 122C240-48 200 0 122 0H30v-248zM63-27c89 8 146-16 146-99s-60-101-146-95v194" id="at"/><g id="c"><use transform="matrix(0.07407407407407406,0,0,0.07407407407407406,0,0)" xlink:href="#as"/><use transform="matrix(0.07407407407407406,0,0,0.07407407407407406,20.740740740740737,0)" xlink:href="#as"/><use transform="matrix(0.07407407407407406,0,0,0.07407407407407406,41.481481481481474,0)" xlink:href="#at"/></g><path d="M96-169c-40 0-48 33-48 73s9 75 48 75c24 0 41-14 43-38l32 2c-6 37-31 61-74 61-59 0-76-41-82-99-10-93 101-131 147-64 4 7 5 14 7 22l-32 3c-4-21-16-35-41-35" id="au"/><path d="M100-194c62-1 85 37 85 99 1 63-27 99-86 99S16-35 15-95c0-66 28-99 85-99zM99-20c44 1 53-31 53-75 0-43-8-75-51-75s-53 32-53 75 10 74 51 75" id="av"/><g id="d"><use transform="matrix(0.07407407407407406,0,0,0.07407407407407406,0,0)" xlink:href="#ao"/><use transform="matrix(0.07407407407407406,0,0,0.07407407407407406,14.814814814814811,0)" xlink:href="#ag"/><use transform="matrix(0.07407407407407406,0,0,0.07407407407407406,29.629629629629623,0)" xlink:href="#ak"/><use transform="matrix(0.07407407407407406,0,0,0.07407407407407406,37.03703703703703,0)" xlink:href="#ag"/><use transform="matrix(0.07407407407407406,0,0,0.07407407407407406,51.85185185185184,0)" xlink:href="#au"/><use transform="matrix(0.07407407407407406,0,0,0.07407407407407406,65.18518518518518,0)" xlink:href="#ak"/><use transform="matrix(0.07407407407407406,0,0,0.07407407407407406,72.59259259259258,0)" xlink:href="#ap"/><use transform="matrix(0.07407407407407406,0,0,0.07407407407407406,78.44444444444443,0)" xlink:href="#av"/><use transform="matrix(0.07407407407407406,0,0,0.07407407407407406,93.25925925925924,0)" xlink:href="#ah"/></g><g id="e"><use transform="matrix(0.07407407407407406,0,0,0.07407407407407406,0,0)" xlink:href="#al"/><use transform="matrix(0.07407407407407406,0,0,0.07407407407407406,17.777777777777775,0)" xlink:href="#ai"/><use transform="matrix(0.07407407407407406,0,0,0.07407407407407406,26.592592592592585,0)" xlink:href="#ai"/><use transform="matrix(0.07407407407407406,0,0,0.07407407407407406,35.407407407407405,0)" xlink:href="#av"/><use transform="matrix(0.07407407407407406,0,0,0.07407407407407406,50.22222222222222,0)" xlink:href="#ai"/></g><path d="M24 0v-261h32V0H24" id="aw"/><path d="M179-190L93 31C79 59 56 82 12 73V49c39 6 53-20 64-50L1-190h34L92-34l54-156h33" id="ax"/><g id="f"><use transform="matrix(0.07407407407407406,0,0,0.07407407407407406,0,0)" xlink:href="#aj"/><use transform="matrix(0.07407407407407406,0,0,0.07407407407407406,14.814814814814811,0)" xlink:href="#ah"/><use transform="matrix(0.07407407407407406,0,0,0.07407407407407406,29.629629629629623,0)" xlink:href="#aj"/><use transform="matrix(0.07407407407407406,0,0,0.07407407407407406,44.444444444444436,0)" xlink:href="#aw"/><use transform="matrix(0.07407407407407406,0,0,0.07407407407407406,50.29629629629628,0)" xlink:href="#ax"/><use transform="matrix(0.07407407407407406,0,0,0.07407407407407406,63.62962962962961,0)" xlink:href="#ar"/><use transform="matrix(0.07407407407407406,0,0,0.07407407407407406,76.96296296296295,0)" xlink:href="#ap"/><use transform="matrix(0.07407407407407406,0,0,0.07407407407407406,82.8148148148148,0)" xlink:href="#ar"/></g><path d="M24-248c93 1 206-16 204 79-1 75-69 88-152 82V0H24v-248zm52 121c47 0 100 7 100-41 0-47-54-39-100-39v80" id="ay"/><path d="M135-150c-39-12-60 13-60 57V0H25l-1-190h47c2 13-1 29 3 40 6-28 27-53 61-41v41" id="az"/><path d="M110-194c64 0 96 36 96 99 0 64-35 99-97 99-61 0-95-36-95-99 0-62 34-99 96-99zm-1 164c35 0 45-28 45-65 0-40-10-65-43-65-34 0-45 26-45 65 0 36 10 65 43 65" id="aA"/><path d="M190-63c-7 42-38 67-86 67-59 0-84-38-90-98-12-110 154-137 174-36l-49 2c-2-19-15-32-35-32-30 0-35 28-38 64-6 74 65 87 74 30" id="aB"/><path d="M185-48c-13 30-37 53-82 52C43 2 14-33 14-96s30-98 90-98c62 0 83 45 84 108H66c0 31 8 55 39 56 18 0 30-7 34-22zm-45-69c5-46-57-63-70-21-2 6-4 13-4 21h74" id="aC"/><path d="M137-138c1-29-70-34-71-4 15 46 118 7 119 86 1 83-164 76-172 9l43-7c4 19 20 25 44 25 33 8 57-30 24-41C81-84 22-81 20-136c-2-80 154-74 161-7" id="aD"/><g id="g"><use transform="matrix(0.06790123456790124,0,0,0.06790123456790124,0,0)" xlink:href="#ay"/><use transform="matrix(0.06790123456790124,0,0,0.06790123456790124,16.296296296296298,0)" xlink:href="#az"/><use transform="matrix(0.06790123456790124,0,0,0.06790123456790124,25.802469135802472,0)" xlink:href="#aA"/><use transform="matrix(0.06790123456790124,0,0,0.06790123456790124,40.67283950617284,0)" xlink:href="#aB"/><use transform="matrix(0.06790123456790124,0,0,0.06790123456790124,54.25308641975309,0)" xlink:href="#aC"/><use transform="matrix(0.06790123456790124,0,0,0.06790123456790124,67.83333333333334,0)" xlink:href="#aD"/><use transform="matrix(0.06790123456790124,0,0,0.06790123456790124,81.4135802469136,0)" xlink:href="#aD"/></g><path d="M121-226c-27-7-43 5-38 36h38v33H83V0H34v-157H6v-33h28c-9-59 32-81 87-68v32" id="aE"/><path d="M25 0v-261h50V0H25" id="aF"/><path d="M231 0h-52l-39-155L100 0H48L-1-190h46L77-45c9-52 24-97 36-145h53l37 145 32-145h46" id="aG"/><g id="h"><use transform="matrix(0.06790123456790124,0,0,0.06790123456790124,0,0)" xlink:href="#aE"/><use transform="matrix(0.06790123456790124,0,0,0.06790123456790124,8.080246913580249,0)" xlink:href="#aF"/><use transform="matrix(0.06790123456790124,0,0,0.06790123456790124,14.870370370370374,0)" xlink:href="#aA"/><use transform="matrix(0.06790123456790124,0,0,0.06790123456790124,29.740740740740748,0)" xlink:href="#aG"/></g><path d="M114-157C55-157 80-60 75 0H25v-261h50l-1 109c12-26 28-41 61-42 86-1 58 113 63 194h-50c-7-57 23-157-34-157" id="aH"/><path d="M133-34C117-15 103 5 69 4 32 3 11-16 11-54c-1-60 55-63 116-61 1-26-3-47-28-47-18 1-26 9-28 27l-52-2c7-38 36-58 82-57s74 22 75 68l1 82c-1 14 12 18 25 15v27c-30 8-71 5-69-32zm-48 3c29 0 43-24 42-57-32 0-66-3-65 30 0 17 8 27 23 27" id="aI"/><path d="M135-194c53 0 70 44 70 98 0 56-19 98-73 100-31 1-45-17-59-34 3 33 2 69 2 105H25l-1-265h48c2 10 0 23 3 31 11-24 29-35 60-35zM114-30c33 0 39-31 40-66 0-38-9-64-40-64-56 0-55 130 0 130" id="aJ"/><g id="i"><use transform="matrix(0.06790123456790124,0,0,0.06790123456790124,0,0)" xlink:href="#aD"/><use transform="matrix(0.06790123456790124,0,0,0.06790123456790124,13.580246913580249,0)" xlink:href="#aH"/><use transform="matrix(0.06790123456790124,0,0,0.06790123456790124,28.45061728395062,0)" xlink:href="#aI"/><use transform="matrix(0.06790123456790124,0,0,0.06790123456790124,42.03086419753087,0)" xlink:href="#aJ"/><use transform="matrix(0.06790123456790124,0,0,0.06790123456790124,56.90123456790124,0)" xlink:href="#aC"/><use transform="matrix(0.06790123456790124,0,0,0.06790123456790124,70.4814814814815,0)" xlink:href="#aD"/></g><g id="j"><use transform="matrix(0.06790123456790124,0,0,0.06790123456790124,0,0)" xlink:href="#af"/><use transform="matrix(0.06790123456790124,0,0,0.06790123456790124,19.01234567901235,0)" xlink:href="#ag"/><use transform="matrix(0.06790123456790124,0,0,0.06790123456790124,32.592592592592595,0)" xlink:href="#ah"/><use transform="matrix(0.06790123456790124,0,0,0.06790123456790124,46.17283950617284,0)" xlink:href="#ag"/><use transform="matrix(0.06790123456790124,0,0,0.06790123456790124,59.75308641975309,0)" xlink:href="#ai"/><use transform="matrix(0.06790123456790124,0,0,0.06790123456790124,67.83333333333334,0)" xlink:href="#aj"/><use transform="matrix(0.06790123456790124,0,0,0.06790123456790124,81.4135802469136,0)" xlink:href="#ak"/><use transform="matrix(0.06790123456790124,0,0,0.06790123456790124,88.20370370370372,0)" xlink:href="#ag"/><use transform="matrix(0.06790123456790124,0,0,0.06790123456790124,101.78395061728398,0)" xlink:href="#ao"/></g><g id="k"><use transform="matrix(0.06790123456790124,0,0,0.06790123456790124,0,0)" xlink:href="#al"/><use transform="matrix(0.06790123456790124,0,0,0.06790123456790124,16.296296296296298,0)" xlink:href="#am"/><use transform="matrix(0.06790123456790124,0,0,0.06790123456790124,36.59876543209877,0)" xlink:href="#an"/><use transform="matrix(0.06790123456790124,0,0,0.06790123456790124,50.17901234567902,0)" xlink:href="#ag"/><use transform="matrix(0.06790123456790124,0,0,0.06790123456790124,63.75925925925927,0)" xlink:href="#ao"/><use transform="matrix(0.06790123456790124,0,0,0.06790123456790124,77.33950617283952,0)" xlink:href="#ao"/><use transform="matrix(0.06790123456790124,0,0,0.06790123456790124,90.91975308641979,0)" xlink:href="#ap"/><use transform="matrix(0.06790123456790124,0,0,0.06790123456790124,96.28395061728398,0)" xlink:href="#ah"/><use transform="matrix(0.06790123456790124,0,0,0.06790123456790124,109.86419753086423,0)" xlink:href="#aq"/><use transform="matrix(0.06790123456790124,0,0,0.06790123456790124,123.44444444444447,0)" xlink:href="#ar"/></g><g id="l"><use transform="matrix(0.06790123456790124,0,0,0.06790123456790124,0,0)" xlink:href="#as"/><use transform="matrix(0.06790123456790124,0,0,0.06790123456790124,19.01234567901235,0)" xlink:href="#as"/><use transform="matrix(0.06790123456790124,0,0,0.06790123456790124,38.0246913580247,0)" xlink:href="#at"/></g><g id="m"><use transform="matrix(0.06790123456790124,0,0,0.06790123456790124,0,0)" xlink:href="#ao"/><use transform="matrix(0.06790123456790124,0,0,0.06790123456790124,13.580246913580249,0)" xlink:href="#ag"/><use transform="matrix(0.06790123456790124,0,0,0.06790123456790124,27.160493827160497,0)" xlink:href="#ak"/><use transform="matrix(0.06790123456790124,0,0,0.06790123456790124,33.95061728395062,0)" xlink:href="#ag"/><use transform="matrix(0.06790123456790124,0,0,0.06790123456790124,47.530864197530875,0)" xlink:href="#au"/><use transform="matrix(0.06790123456790124,0,0,0.06790123456790124,59.75308641975309,0)" xlink:href="#ak"/><use transform="matrix(0.06790123456790124,0,0,0.06790123456790124,66.54320987654322,0)" xlink:href="#ap"/><use transform="matrix(0.06790123456790124,0,0,0.06790123456790124,71.90740740740742,0)" xlink:href="#av"/><use transform="matrix(0.06790123456790124,0,0,0.06790123456790124,85.48765432098767,0)" xlink:href="#ah"/></g><g id="n"><use transform="matrix(0.06790123456790124,0,0,0.06790123456790124,0,0)" xlink:href="#al"/><use transform="matrix(0.06790123456790124,0,0,0.06790123456790124,16.296296296296298,0)" xlink:href="#ai"/><use transform="matrix(0.06790123456790124,0,0,0.06790123456790124,24.376543209876544,0)" xlink:href="#ai"/><use transform="matrix(0.06790123456790124,0,0,0.06790123456790124,32.45679012345679,0)" xlink:href="#av"/><use transform="matrix(0.06790123456790124,0,0,0.06790123456790124,46.03703703703704,0)" xlink:href="#ai"/></g><g id="o"><use transform="matrix(0.06790123456790124,0,0,0.06790123456790124,0,0)" xlink:href="#aj"/><use transform="matrix(0.06790123456790124,0,0,0.06790123456790124,13.580246913580249,0)" xlink:href="#ah"/><use transform="matrix(0.06790123456790124,0,0,0.06790123456790124,27.160493827160497,0)" xlink:href="#aj"/><use transform="matrix(0.06790123456790124,0,0,0.06790123456790124,40.74074074074075,0)" xlink:href="#aw"/><use transform="matrix(0.06790123456790124,0,0,0.06790123456790124,46.104938271604944,0)" xlink:href="#ax"/><use transform="matrix(0.06790123456790124,0,0,0.06790123456790124,58.32716049382716,0)" xlink:href="#ar"/><use transform="matrix(0.06790123456790124,0,0,0.06790123456790124,70.5493827160494,0)" xlink:href="#ap"/><use transform="matrix(0.06790123456790124,0,0,0.06790123456790124,75.9135802469136,0)" xlink:href="#ar"/></g><path d="M127-220V0H93v-220H8v-28h204v28h-85" id="aK"/><g id="p"><use transform="matrix(0.07407407407407407,0,0,0.07407407407407407,0,0)" xlink:href="#aK"/><use transform="matrix(0.07407407407407407,0,0,0.07407407407407407,15.259259259259258,0)" xlink:href="#ai"/><use transform="matrix(0.07407407407407407,0,0,0.07407407407407407,24.074074074074073,0)" xlink:href="#aj"/><use transform="matrix(0.07407407407407407,0,0,0.07407407407407407,38.888888888888886,0)" xlink:href="#ap"/><use transform="matrix(0.07407407407407407,0,0,0.07407407407407407,44.74074074074073,0)" xlink:href="#ah"/></g><path d="M240 0l2-218c-23 76-54 145-80 218h-23L58-218 59 0H30v-248h44l77 211c21-75 51-140 76-211h43V0h-30" id="aL"/><g id="q"><use transform="matrix(0.07407407407407407,0,0,0.07407407407407407,0,0)" xlink:href="#aL"/><use transform="matrix(0.07407407407407407,0,0,0.07407407407407407,22.148148148148145,0)" xlink:href="#av"/><use transform="matrix(0.07407407407407407,0,0,0.07407407407407407,36.96296296296296,0)" xlink:href="#ao"/><use transform="matrix(0.07407407407407407,0,0,0.07407407407407407,51.77777777777777,0)" xlink:href="#ag"/><use transform="matrix(0.07407407407407407,0,0,0.07407407407407407,66.59259259259258,0)" xlink:href="#aw"/></g><g id="r"><use transform="matrix(0.07407407407407407,0,0,0.07407407407407407,0,0)" xlink:href="#aK"/><use transform="matrix(0.07407407407407407,0,0,0.07407407407407407,13.259259259259258,0)" xlink:href="#ag"/><use transform="matrix(0.07407407407407407,0,0,0.07407407407407407,28.074074074074073,0)" xlink:href="#ar"/><use transform="matrix(0.07407407407407407,0,0,0.07407407407407407,41.407407407407405,0)" xlink:href="#ak"/></g><g id="s"><use transform="matrix(0.07407407407407407,0,0,0.07407407407407407,0,0)" xlink:href="#am"/><use transform="matrix(0.07407407407407407,0,0,0.07407407407407407,22.148148148148145,0)" xlink:href="#av"/><use transform="matrix(0.07407407407407407,0,0,0.07407407407407407,36.96296296296296,0)" xlink:href="#ao"/><use transform="matrix(0.07407407407407407,0,0,0.07407407407407407,51.77777777777777,0)" xlink:href="#ag"/><use transform="matrix(0.07407407407407407,0,0,0.07407407407407407,66.59259259259258,0)" xlink:href="#aw"/></g><g id="t"><use transform="matrix(0.07407407407407407,0,0,0.07407407407407407,0,0)" xlink:href="#af"/><use transform="matrix(0.07407407407407407,0,0,0.07407407407407407,20.74074074074074,0)" xlink:href="#ag"/><use transform="matrix(0.07407407407407407,0,0,0.07407407407407407,35.55555555555556,0)" xlink:href="#ah"/><use transform="matrix(0.07407407407407407,0,0,0.07407407407407407,50.37037037037037,0)" xlink:href="#ag"/><use transform="matrix(0.07407407407407407,0,0,0.07407407407407407,65.18518518518518,0)" xlink:href="#ai"/><use transform="matrix(0.07407407407407407,0,0,0.07407407407407407,73.99999999999999,0)" xlink:href="#aj"/><use transform="matrix(0.07407407407407407,0,0,0.07407407407407407,88.8148148148148,0)" xlink:href="#ak"/><use transform="matrix(0.07407407407407407,0,0,0.07407407407407407,96.2222222222222,0)" xlink:href="#ag"/></g><g id="u"><use transform="matrix(0.07407407407407407,0,0,0.07407407407407407,0,0)" xlink:href="#al"/><use transform="matrix(0.07407407407407407,0,0,0.07407407407407407,17.77777777777778,0)" xlink:href="#am"/><use transform="matrix(0.07407407407407407,0,0,0.07407407407407407,39.925925925925924,0)" xlink:href="#an"/><use transform="matrix(0.07407407407407407,0,0,0.07407407407407407,54.740740740740726,0)" xlink:href="#ag"/><use transform="matrix(0.07407407407407407,0,0,0.07407407407407407,69.55555555555554,0)" xlink:href="#ao"/><use transform="matrix(0.07407407407407407,0,0,0.07407407407407407,84.37037037037035,0)" xlink:href="#ao"/><use transform="matrix(0.07407407407407407,0,0,0.07407407407407407,99.18518518518516,0)" xlink:href="#ap"/><use transform="matrix(0.07407407407407407,0,0,0.07407407407407407,105.03703703703701,0)" xlink:href="#ah"/><use transform="matrix(0.07407407407407407,0,0,0.07407407407407407,119.8518518518518,0)" xlink:href="#aq"/><use transform="matrix(0.07407407407407407,0,0,0.07407407407407407,134.66666666666663,0)" xlink:href="#ar"/></g><path fill="#3a414a" d="M30-248c118-7 216 8 213 122C240-48 200 0 122 0H30v-248zM63-27c89 8 146-16 146-99s-60-101-146-95v194" id="aM"/><path fill="#3a414a" d="M141-36C126-15 110 5 73 4 37 3 15-17 15-53c-1-64 63-63 125-63 3-35-9-54-41-54-24 1-41 7-42 31l-33-3c5-37 33-52 76-52 45 0 72 20 72 64v82c-1 20 7 32 28 27v20c-31 9-61-2-59-35zM48-53c0 20 12 33 32 33 41-3 63-29 60-74-43 2-92-5-92 41" id="aN"/><path fill="#3a414a" d="M59-47c-2 24 18 29 38 22v24C64 9 27 4 27-40v-127H5v-23h24l9-43h21v43h35v23H59v120" id="aO"/><g id="v"><use transform="matrix(0.08703703703703701,0,0,0.08703703703703701,0,0)" xlink:href="#aM"/><use transform="matrix(0.08703703703703701,0,0,0.08703703703703701,22.542592592592584,0)" xlink:href="#aN"/><use transform="matrix(0.08703703703703701,0,0,0.08703703703703701,39.94999999999999,0)" xlink:href="#aO"/><use transform="matrix(0.08703703703703701,0,0,0.08703703703703701,48.65370370370369,0)" xlink:href="#aN"/></g><g id="w"><use transform="matrix(0.07407407407407407,0,0,0.07407407407407407,0,0)" xlink:href="#aK"/><use transform="matrix(0.07407407407407407,0,0,0.07407407407407407,15.259259259259258,0)" xlink:href="#ai"/><use transform="matrix(0.07407407407407407,0,0,0.07407407407407407,24.074074074074073,0)" xlink:href="#aj"/><use transform="matrix(0.07407407407407407,0,0,0.07407407407407407,38.888888888888886,0)" xlink:href="#ap"/><use transform="matrix(0.07407407407407407,0,0,0.07407407407407407,44.74074074074073,0)" xlink:href="#ah"/><use transform="matrix(0.07407407407407407,0,0,0.07407407407407407,59.55555555555554,0)" xlink:href="#ag"/><use transform="matrix(0.07407407407407407,0,0,0.07407407407407407,74.37037037037035,0)" xlink:href="#ao"/></g><path fill="#3a414a" d="M30-248c87 1 191-15 191 75 0 78-77 80-158 76V0H30v-248zm33 125c57 0 124 11 124-50 0-59-68-47-124-48v98" id="aP"/><path fill="#3a414a" d="M114-163C36-179 61-72 57 0H25l-1-190h30c1 12-1 29 2 39 6-27 23-49 58-41v29" id="aQ"/><path fill="#3a414a" d="M100-194c63 0 86 42 84 106H49c0 40 14 67 53 68 26 1 43-12 49-29l28 8c-11 28-37 45-77 45C44 4 14-33 15-96c1-61 26-98 85-98zm52 81c6-60-76-77-97-28-3 7-6 17-6 28h103" id="aR"/><path fill="#3a414a" d="M85-194c31 0 48 13 60 33l-1-100h32l1 261h-30c-2-10 0-23-3-31C134-8 116 4 85 4 32 4 16-35 15-94c0-66 23-100 70-100zm9 24c-40 0-46 34-46 75 0 40 6 74 45 74 42 0 51-32 51-76 0-42-9-74-50-73" id="aS"/><path fill="#3a414a" d="M24-231v-30h32v30H24zM24 0v-190h32V0H24" id="aT"/><path fill="#3a414a" d="M96-169c-40 0-48 33-48 73s9 75 48 75c24 0 41-14 43-38l32 2c-6 37-31 61-74 61-59 0-76-41-82-99-10-93 101-131 147-64 4 7 5 14 7 22l-32 3c-4-21-16-35-41-35" id="aU"/><path fill="#3a414a" d="M100-194c62-1 85 37 85 99 1 63-27 99-86 99S16-35 15-95c0-66 28-99 85-99zM99-20c44 1 53-31 53-75 0-43-8-75-51-75s-53 32-53 75 10 74 51 75" id="aV"/><path fill="#3a414a" d="M117-194c89-4 53 116 60 194h-32v-121c0-31-8-49-39-48C34-167 62-67 57 0H25l-1-190h30c1 10-1 24 2 32 11-22 29-35 61-36" id="aW"/><g id="x"><use transform="matrix(0.08703703703703701,0,0,0.08703703703703701,0,0)" xlink:href="#aP"/><use transform="matrix(0.08703703703703701,0,0,0.08703703703703701,20.888888888888882,0)" xlink:href="#aQ"/><use transform="matrix(0.08703703703703701,0,0,0.08703703703703701,31.246296296296286,0)" xlink:href="#aR"/><use transform="matrix(0.08703703703703701,0,0,0.08703703703703701,48.65370370370369,0)" xlink:href="#aS"/><use transform="matrix(0.08703703703703701,0,0,0.08703703703703701,66.06111111111109,0)" xlink:href="#aT"/><use transform="matrix(0.08703703703703701,0,0,0.08703703703703701,72.93703703703702,0)" xlink:href="#aU"/><use transform="matrix(0.08703703703703701,0,0,0.08703703703703701,88.60370370370367,0)" xlink:href="#aO"/><use transform="matrix(0.08703703703703701,0,0,0.08703703703703701,97.30740740740738,0)" xlink:href="#aT"/><use transform="matrix(0.08703703703703701,0,0,0.08703703703703701,104.1833333333333,0)" xlink:href="#aV"/><use transform="matrix(0.08703703703703701,0,0,0.08703703703703701,121.5907407407407,0)" xlink:href="#aW"/></g><g id="y"><use transform="matrix(0.08703703703703701,0,0,0.08703703703703701,0,0)" xlink:href="#aN"/><use transform="matrix(0.08703703703703701,0,0,0.08703703703703701,17.4074074074074,0)" xlink:href="#aW"/><use transform="matrix(0.08703703703703701,0,0,0.08703703703703701,34.8148148148148,0)" xlink:href="#aS"/></g><path fill="#3a414a" d="M135-143c-3-34-86-38-87 0 15 53 115 12 119 90S17 21 10-45l28-5c4 36 97 45 98 0-10-56-113-15-118-90-4-57 82-63 122-42 12 7 21 19 24 35" id="aX"/><path fill="#3a414a" d="M101-234c-31-9-42 10-38 44h38v23H63V0H32v-167H5v-23h27c-7-52 17-82 69-68v24" id="aY"/><path fill="#3a414a" d="M210-169c-67 3-38 105-44 169h-31v-121c0-29-5-50-35-48C34-165 62-65 56 0H25l-1-190h30c1 10-1 24 2 32 10-44 99-50 107 0 11-21 27-35 58-36 85-2 47 119 55 194h-31v-121c0-29-5-49-35-48" id="aZ"/><path fill="#3a414a" d="M141 0L90-78 38 0H4l68-98-65-92h35l48 74 47-74h35l-64 92 68 98h-35" id="ba"/><g id="z"><use transform="matrix(0.08703703703703701,0,0,0.08703703703703701,0,0)" xlink:href="#aX"/><use transform="matrix(0.08703703703703701,0,0,0.08703703703703701,15.666666666666663,0)" xlink:href="#aV"/><use transform="matrix(0.08703703703703701,0,0,0.08703703703703701,33.07407407407406,0)" xlink:href="#aY"/><use transform="matrix(0.08703703703703701,0,0,0.08703703703703701,41.777777777777764,0)" xlink:href="#aO"/><use transform="matrix(0.08703703703703701,0,0,0.08703703703703701,50.48148148148147,0)" xlink:href="#aZ"/><use transform="matrix(0.08703703703703701,0,0,0.08703703703703701,76.50555555555553,0)" xlink:href="#aN"/><use transform="matrix(0.08703703703703701,0,0,0.08703703703703701,93.91296296296294,0)" xlink:href="#ba"/></g><g id="A"><use transform="matrix(0.08703703703703701,0,0,0.08703703703703701,0,0)" xlink:href="#aX"/><use transform="matrix(0.08703703703703701,0,0,0.08703703703703701,15.666666666666663,0)" xlink:href="#aU"/><use transform="matrix(0.08703703703703701,0,0,0.08703703703703701,31.333333333333325,0)" xlink:href="#aV"/><use transform="matrix(0.08703703703703701,0,0,0.08703703703703701,48.740740740740726,0)" xlink:href="#aQ"/><use transform="matrix(0.08703703703703701,0,0,0.08703703703703701,59.09814814814813,0)" xlink:href="#aR"/></g><path fill="#3a414a" d="M24 0v-261h32V0H24" id="bb"/><g id="B"><use transform="matrix(0.08703703703703701,0,0,0.08703703703703701,0,0)" xlink:href="#aY"/><use transform="matrix(0.08703703703703701,0,0,0.08703703703703701,8.7037037037037,0)" xlink:href="#aT"/><use transform="matrix(0.08703703703703701,0,0,0.08703703703703701,15.579629629629625,0)" xlink:href="#bb"/><use transform="matrix(0.08703703703703701,0,0,0.08703703703703701,22.45555555555555,0)" xlink:href="#aR"/><use transform="matrix(0.08703703703703701,0,0,0.08703703703703701,39.86296296296295,0)" xlink:href="#aX"/></g><path fill="#3a414a" d="M30 0v-248h187v28H63v79h144v27H63v87h162V0H30" id="bc"/><path fill="#3a414a" d="M115-194c53 0 69 39 70 98 0 66-23 100-70 100C84 3 66-7 56-30L54 0H23l1-261h32v101c10-23 28-34 59-34zm-8 174c40 0 45-34 45-75 0-40-5-75-45-74-42 0-51 32-51 76 0 43 10 73 51 73" id="bd"/><path fill="#3a414a" d="M177-190C167-65 218 103 67 71c-23-6-38-20-44-43l32-5c15 47 100 32 89-28v-30C133-14 115 1 83 1 29 1 15-40 15-95c0-56 16-97 71-98 29-1 48 16 59 35 1-10 0-23 2-32h30zM94-22c36 0 50-32 50-73 0-42-14-75-50-75-39 0-46 34-46 75s6 73 46 73" id="be"/><g id="C"><use transform="matrix(0.08703703703703701,0,0,0.08703703703703701,0,0)" xlink:href="#bc"/><use transform="matrix(0.08703703703703701,0,0,0.08703703703703701,20.888888888888882,0)" xlink:href="#aZ"/><use transform="matrix(0.08703703703703701,0,0,0.08703703703703701,46.91296296296295,0)" xlink:href="#bd"/><use transform="matrix(0.08703703703703701,0,0,0.08703703703703701,64.32037037037036,0)" xlink:href="#aR"/><use transform="matrix(0.08703703703703701,0,0,0.08703703703703701,81.72777777777776,0)" xlink:href="#aS"/><use transform="matrix(0.08703703703703701,0,0,0.08703703703703701,99.13518518518518,0)" xlink:href="#aS"/><use transform="matrix(0.08703703703703701,0,0,0.08703703703703701,116.54259259259257,0)" xlink:href="#aT"/><use transform="matrix(0.08703703703703701,0,0,0.08703703703703701,123.4185185185185,0)" xlink:href="#aW"/><use transform="matrix(0.08703703703703701,0,0,0.08703703703703701,140.8259259259259,0)" xlink:href="#be"/><use transform="matrix(0.08703703703703701,0,0,0.08703703703703701,158.2333333333333,0)" xlink:href="#aX"/></g><path fill="#3a414a" d="M140-251c81 0 123 46 123 126C263-46 219 4 140 4 59 4 17-45 17-125s42-126 123-126zm0 227c63 0 89-41 89-101s-29-99-89-99c-61 0-89 39-89 99S79-25 140-24" id="bf"/><g id="D"><use transform="matrix(0.08086419753086417,0,0,0.08086419753086417,0,0)" xlink:href="#bf"/><use transform="matrix(0.08086419753086417,0,0,0.08086419753086417,22.641975308641968,0)" xlink:href="#bf"/><use transform="matrix(0.08086419753086417,0,0,0.08086419753086417,45.283950617283935,0)" xlink:href="#aM"/></g><g id="E"><use transform="matrix(0.08086419753086417,0,0,0.08086419753086417,0,0)" xlink:href="#aS"/><use transform="matrix(0.08086419753086417,0,0,0.08086419753086417,16.172839506172835,0)" xlink:href="#aR"/><use transform="matrix(0.08086419753086417,0,0,0.08086419753086417,32.34567901234567,0)" xlink:href="#aO"/><use transform="matrix(0.08086419753086417,0,0,0.08086419753086417,40.43209876543209,0)" xlink:href="#aR"/><use transform="matrix(0.08086419753086417,0,0,0.08086419753086417,56.60493827160492,0)" xlink:href="#aU"/><use transform="matrix(0.08086419753086417,0,0,0.08086419753086417,71.16049382716048,0)" xlink:href="#aO"/><use transform="matrix(0.08086419753086417,0,0,0.08086419753086417,79.2469135802469,0)" xlink:href="#aT"/><use transform="matrix(0.08086419753086417,0,0,0.08086419753086417,85.63518518518515,0)" xlink:href="#aV"/><use transform="matrix(0.08086419753086417,0,0,0.08086419753086417,101.80802469135799,0)" xlink:href="#aW"/><use transform="matrix(0.08086419753086417,0,0,0.08086419753086417,117.98086419753085,0)" xlink:href="#aX"/></g><path fill="#3a414a" d="M106-169C34-169 62-67 57 0H25v-261h32l-1 103c12-21 28-36 61-36 89 0 53 116 60 194h-32v-121c2-32-8-49-39-48" id="bg"/><g id="F"><use transform="matrix(0.08086419753086417,0,0,0.08086419753086417,0,0)" xlink:href="#aZ"/><use transform="matrix(0.08086419753086417,0,0,0.08086419753086417,24.178395061728388,0)" xlink:href="#aR"/><use transform="matrix(0.08086419753086417,0,0,0.08086419753086417,40.35123456790122,0)" xlink:href="#aO"/><use transform="matrix(0.08086419753086417,0,0,0.08086419753086417,48.43765432098764,0)" xlink:href="#bg"/><use transform="matrix(0.08086419753086417,0,0,0.08086419753086417,64.61049382716047,0)" xlink:href="#aV"/><use transform="matrix(0.08086419753086417,0,0,0.08086419753086417,80.7833333333333,0)" xlink:href="#aS"/></g><path fill="#3a414a" d="M33 0v-248h34V0H33" id="bh"/><path fill="#3a414a" d="M16-82v-28h88v28H16" id="bi"/><g id="G"><use transform="matrix(0.08703703703703701,0,0,0.08703703703703701,0,0)" xlink:href="#bh"/><use transform="matrix(0.08703703703703701,0,0,0.08703703703703701,8.7037037037037,0)" xlink:href="#aM"/><use transform="matrix(0.08703703703703701,0,0,0.08703703703703701,31.246296296296286,0)" xlink:href="#bi"/><use transform="matrix(0.08703703703703701,0,0,0.08703703703703701,41.60370370370369,0)" xlink:href="#bf"/><use transform="matrix(0.08703703703703701,0,0,0.08703703703703701,65.97407407407405,0)" xlink:href="#bf"/><use transform="matrix(0.08703703703703701,0,0,0.08703703703703701,90.34444444444442,0)" xlink:href="#aM"/></g><g id="H"><use transform="matrix(0.08703703703703701,0,0,0.08703703703703701,0,0)" xlink:href="#bb"/><use transform="matrix(0.08703703703703701,0,0,0.08703703703703701,6.875925925925924,0)" xlink:href="#aN"/><use transform="matrix(0.08703703703703701,0,0,0.08703703703703701,24.283333333333324,0)" xlink:href="#bd"/><use transform="matrix(0.08703703703703701,0,0,0.08703703703703701,41.69074074074072,0)" xlink:href="#aR"/><use transform="matrix(0.08703703703703701,0,0,0.08703703703703701,59.09814814814813,0)" xlink:href="#bb"/></g><g id="I"><use transform="matrix(0.08024691358024691,0,0,0.08024691358024691,0,0)" xlink:href="#al"/><use transform="matrix(0.08024691358024691,0,0,0.08024691358024691,19.25925925925926,0)" xlink:href="#ai"/><use transform="matrix(0.08024691358024691,0,0,0.08024691358024691,28.80864197530864,0)" xlink:href="#ai"/><use transform="matrix(0.08024691358024691,0,0,0.08024691358024691,38.358024691358025,0)" xlink:href="#av"/><use transform="matrix(0.08024691358024691,0,0,0.08024691358024691,54.407407407407405,0)" xlink:href="#ai"/></g><g id="J"><use transform="matrix(0.08024691358024691,0,0,0.08024691358024691,0,0)" xlink:href="#aj"/><use transform="matrix(0.08024691358024691,0,0,0.08024691358024691,16.049382716049383,0)" xlink:href="#ah"/><use transform="matrix(0.08024691358024691,0,0,0.08024691358024691,32.098765432098766,0)" xlink:href="#aj"/><use transform="matrix(0.08024691358024691,0,0,0.08024691358024691,48.14814814814815,0)" xlink:href="#aw"/><use transform="matrix(0.08024691358024691,0,0,0.08024691358024691,54.48765432098766,0)" xlink:href="#ax"/><use transform="matrix(0.08024691358024691,0,0,0.08024691358024691,68.9320987654321,0)" xlink:href="#ar"/><use transform="matrix(0.08024691358024691,0,0,0.08024691358024691,83.37654320987654,0)" xlink:href="#ap"/><use transform="matrix(0.08024691358024691,0,0,0.08024691358024691,89.71604938271605,0)" xlink:href="#ar"/></g><g id="K"><use transform="matrix(0.08086419753086417,0,0,0.08086419753086417,0,0)" xlink:href="#bh"/><use transform="matrix(0.08086419753086417,0,0,0.08086419753086417,8.086419753086417,0)" xlink:href="#aM"/><use transform="matrix(0.08086419753086417,0,0,0.08086419753086417,29.03024691358024,0)" xlink:href="#bi"/><use transform="matrix(0.08086419753086417,0,0,0.08086419753086417,38.65308641975307,0)" xlink:href="#bf"/><use transform="matrix(0.08086419753086417,0,0,0.08086419753086417,61.29506172839504,0)" xlink:href="#bf"/><use transform="matrix(0.08086419753086417,0,0,0.08086419753086417,83.93703703703702,0)" xlink:href="#aM"/></g><path fill="#3a414a" d="M84 4C-5 8 30-112 23-190h32v120c0 31 7 50 39 49 72-2 45-101 50-169h31l1 190h-30c-1-10 1-25-2-33-11 22-28 36-60 37" id="bj"/><path fill="#3a414a" d="M179-190L93 31C79 59 56 82 12 73V49c39 6 53-20 64-50L1-190h34L92-34l54-156h33" id="bk"/><g id="L"><use transform="matrix(0.08086419753086417,0,0,0.08086419753086417,0,0)" xlink:href="#aN"/><use transform="matrix(0.08086419753086417,0,0,0.08086419753086417,16.172839506172835,0)" xlink:href="#aU"/><use transform="matrix(0.08086419753086417,0,0,0.08086419753086417,30.728395061728385,0)" xlink:href="#aU"/><use transform="matrix(0.08086419753086417,0,0,0.08086419753086417,45.283950617283935,0)" xlink:href="#bj"/><use transform="matrix(0.08086419753086417,0,0,0.08086419753086417,61.45679012345677,0)" xlink:href="#aQ"/><use transform="matrix(0.08086419753086417,0,0,0.08086419753086417,71.07962962962961,0)" xlink:href="#aN"/><use transform="matrix(0.08086419753086417,0,0,0.08086419753086417,87.25246913580244,0)" xlink:href="#aU"/><use transform="matrix(0.08086419753086417,0,0,0.08086419753086417,101.80802469135799,0)" xlink:href="#bk"/></g><g id="M"><use transform="matrix(0.08086419753086417,0,0,0.08086419753086417,0,0)" xlink:href="#aQ"/><use transform="matrix(0.08086419753086417,0,0,0.08086419753086417,9.622839506172836,0)" xlink:href="#aR"/><use transform="matrix(0.08086419753086417,0,0,0.08086419753086417,25.79567901234567,0)" xlink:href="#aX"/><use transform="matrix(0.08086419753086417,0,0,0.08086419753086417,40.35123456790122,0)" xlink:href="#bj"/><use transform="matrix(0.08086419753086417,0,0,0.08086419753086417,56.52407407407406,0)" xlink:href="#bb"/><use transform="matrix(0.08086419753086417,0,0,0.08086419753086417,62.912345679012326,0)" xlink:href="#aO"/></g><path d="M30-248c87 1 191-15 191 75 0 78-77 80-158 76V0H30v-248zm33 125c57 0 124 11 124-50 0-59-68-47-124-48v98" id="bl"/><path d="M115-194c55 1 70 41 70 98S169 2 115 4C84 4 66-9 55-30l1 105H24l-1-265h31l2 30c10-21 28-34 59-34zm-8 174c40 0 45-34 45-75s-6-73-45-74c-42 0-51 32-51 76 0 43 10 73 51 73" id="bm"/><g id="N"><use transform="matrix(0.07407407407407407,0,0,0.07407407407407407,0,0)" xlink:href="#bl"/><use transform="matrix(0.07407407407407407,0,0,0.07407407407407407,17.77777777777778,0)" xlink:href="#ai"/><use transform="matrix(0.07407407407407407,0,0,0.07407407407407407,26.592592592592595,0)" xlink:href="#ag"/><use transform="matrix(0.07407407407407407,0,0,0.07407407407407407,41.407407407407405,0)" xlink:href="#bm"/><use transform="matrix(0.07407407407407407,0,0,0.07407407407407407,56.22222222222221,0)" xlink:href="#ai"/><use transform="matrix(0.07407407407407407,0,0,0.07407407407407407,65.03703703703702,0)" xlink:href="#av"/><use transform="matrix(0.07407407407407407,0,0,0.07407407407407407,79.85185185185183,0)" xlink:href="#au"/><use transform="matrix(0.07407407407407407,0,0,0.07407407407407407,93.18518518518516,0)" xlink:href="#ag"/><use transform="matrix(0.07407407407407407,0,0,0.07407407407407407,107.99999999999997,0)" xlink:href="#ar"/><use transform="matrix(0.07407407407407407,0,0,0.07407407407407407,121.33333333333329,0)" xlink:href="#ar"/></g><path fill="#3a414a" d="M233-177c-1 41-23 64-60 70L243 0h-38l-65-103H63V0H30v-248c88 3 205-21 203 71zM63-129c60-2 137 13 137-47 0-61-80-42-137-45v92" id="bn"/><path fill="#3a414a" d="M206 0h-36l-40-164L89 0H53L-1-190h32L70-26l43-164h34l41 164 42-164h31" id="bo"/><g id="O"><use transform="matrix(0.08703703703703701,0,0,0.08703703703703701,0,0)" xlink:href="#bn"/><use transform="matrix(0.08703703703703701,0,0,0.08703703703703701,22.542592592592584,0)" xlink:href="#aN"/><use transform="matrix(0.08703703703703701,0,0,0.08703703703703701,39.94999999999999,0)" xlink:href="#bo"/></g><g id="P"><use transform="matrix(0.08703703703703701,0,0,0.08703703703703701,0,0)" xlink:href="#aM"/><use transform="matrix(0.08703703703703701,0,0,0.08703703703703701,22.542592592592584,0)" xlink:href="#aN"/><use transform="matrix(0.08703703703703701,0,0,0.08703703703703701,39.94999999999999,0)" xlink:href="#aO"/><use transform="matrix(0.08703703703703701,0,0,0.08703703703703701,48.65370370370369,0)" xlink:href="#aN"/></g><path d="M190 0L58-211 59 0H30v-248h39L202-35l-2-213h31V0h-41" id="bp"/><g id="Q"><use transform="matrix(0.07407407407407407,0,0,0.07407407407407407,0,0)" xlink:href="#at"/><use transform="matrix(0.07407407407407407,0,0,0.07407407407407407,19.185185185185183,0)" xlink:href="#bp"/><use transform="matrix(0.07407407407407407,0,0,0.07407407407407407,38.37037037037037,0)" xlink:href="#bp"/></g><g id="R"><use transform="matrix(0.07407407407407407,0,0,0.07407407407407407,0,0)" xlink:href="#at"/><use transform="matrix(0.07407407407407407,0,0,0.07407407407407407,19.185185185185183,0)" xlink:href="#bp"/><use transform="matrix(0.07407407407407407,0,0,0.07407407407407407,38.37037037037037,0)" xlink:href="#bp"/></g><path d="M118-107v75H92v-75H18v-26h74v-75h26v75h74v26h-74" id="bq"/><use transform="matrix(0.07407407407407407,0,0,0.07407407407407407,0,0)" xlink:href="#bq" id="S"/><path d="M84 4C-5 8 30-112 23-190h32v120c0 31 7 50 39 49 72-2 45-101 50-169h31l1 190h-30c-1-10 1-25-2-33-11 22-28 36-60 37" id="br"/><g id="T"><use transform="matrix(0.07407407407407407,0,0,0.07407407407407407,0,0)" xlink:href="#av"/><use transform="matrix(0.07407407407407407,0,0,0.07407407407407407,14.814814814814813,0)" xlink:href="#br"/><use transform="matrix(0.07407407407407407,0,0,0.07407407407407407,29.629629629629626,0)" xlink:href="#ai"/></g><path d="M106-169C34-169 62-67 57 0H25v-261h32l-1 103c12-21 28-36 61-36 89 0 53 116 60 194h-32v-121c2-32-8-49-39-48" id="bs"/><g id="U"><use transform="matrix(0.07407407407407407,0,0,0.07407407407407407,0,0)" xlink:href="#am"/><use transform="matrix(0.07407407407407407,0,0,0.07407407407407407,22.148148148148145,0)" xlink:href="#ag"/><use transform="matrix(0.07407407407407407,0,0,0.07407407407407407,36.96296296296296,0)" xlink:href="#ak"/><use transform="matrix(0.07407407407407407,0,0,0.07407407407407407,44.37037037037037,0)" xlink:href="#bs"/><use transform="matrix(0.07407407407407407,0,0,0.07407407407407407,59.185185185185176,0)" xlink:href="#av"/><use transform="matrix(0.07407407407407407,0,0,0.07407407407407407,73.99999999999999,0)" xlink:href="#ao"/></g><path d="M185-189c-5-48-123-54-124 2 14 75 158 14 163 119 3 78-121 87-175 55-17-10-28-26-33-46l33-7c5 56 141 63 141-1 0-78-155-14-162-118-5-82 145-84 179-34 5 7 8 16 11 25" id="bt"/><g id="V"><use transform="matrix(0.07407407407407407,0,0,0.07407407407407407,0,0)" xlink:href="#aL"/><use transform="matrix(0.07407407407407407,0,0,0.07407407407407407,22.148148148148145,0)" xlink:href="#bt"/><use transform="matrix(0.07407407407407407,0,0,0.07407407407407407,39.925925925925924,0)" xlink:href="#bl"/></g><g id="W"><use transform="matrix(0.07407407407407407,0,0,0.07407407407407407,0,0)" xlink:href="#aL"/><use transform="matrix(0.07407407407407407,0,0,0.07407407407407407,22.148148148148145,0)" xlink:href="#bt"/><use transform="matrix(0.07407407407407407,0,0,0.07407407407407407,39.925925925925924,0)" xlink:href="#bl"/></g><path d="M197 0v-115H63V0H30v-248h33v105h134v-105h34V0h-34" id="bu"/><g id="X"><use transform="matrix(0.07407407407407407,0,0,0.07407407407407407,0,0)" xlink:href="#bt"/><use transform="matrix(0.07407407407407407,0,0,0.07407407407407407,17.77777777777778,0)" xlink:href="#bu"/><use transform="matrix(0.07407407407407407,0,0,0.07407407407407407,36.96296296296296,0)" xlink:href="#al"/></g><g id="Y"><use transform="matrix(0.07407407407407407,0,0,0.07407407407407407,0,0)" xlink:href="#bt"/><use transform="matrix(0.07407407407407407,0,0,0.07407407407407407,17.77777777777778,0)" xlink:href="#bu"/><use transform="matrix(0.07407407407407407,0,0,0.07407407407407407,36.96296296296296,0)" xlink:href="#al"/></g><g id="Z"><use transform="matrix(0.07407407407407407,0,0,0.07407407407407407,0,0)" xlink:href="#as"/><use transform="matrix(0.07407407407407407,0,0,0.07407407407407407,20.74074074074074,0)" xlink:href="#br"/><use transform="matrix(0.07407407407407407,0,0,0.07407407407407407,35.55555555555556,0)" xlink:href="#ai"/></g><g id="aa"><use transform="matrix(0.07407407407407407,0,0,0.07407407407407407,0,0)" xlink:href="#am"/><use transform="matrix(0.07407407407407407,0,0,0.07407407407407407,22.148148148148145,0)" xlink:href="#ag"/><use transform="matrix(0.07407407407407407,0,0,0.07407407407407407,36.96296296296296,0)" xlink:href="#ak"/><use transform="matrix(0.07407407407407407,0,0,0.07407407407407407,44.37037037037037,0)" xlink:href="#bs"/><use transform="matrix(0.07407407407407407,0,0,0.07407407407407407,59.185185185185176,0)" xlink:href="#av"/><use transform="matrix(0.07407407407407407,0,0,0.07407407407407407,73.99999999999999,0)" xlink:href="#ao"/></g><g id="ab"><use transform="matrix(0.07407407407407407,0,0,0.07407407407407407,0,0)" xlink:href="#av"/><use transform="matrix(0.07407407407407407,0,0,0.07407407407407407,14.814814814814813,0)" xlink:href="#ah"/></g><g id="ac"><use transform="matrix(0.07407407407407407,0,0,0.07407407407407407,0,0)" xlink:href="#bm"/><use transform="matrix(0.07407407407407407,0,0,0.07407407407407407,14.814814814814813,0)" xlink:href="#aj"/><use transform="matrix(0.07407407407407407,0,0,0.07407407407407407,29.629629629629626,0)" xlink:href="#ai"/><use transform="matrix(0.07407407407407407,0,0,0.07407407407407407,38.44444444444444,0)" xlink:href="#ak"/><use transform="matrix(0.07407407407407407,0,0,0.07407407407407407,45.85185185185185,0)" xlink:href="#ap"/><use transform="matrix(0.07407407407407407,0,0,0.07407407407407407,51.703703703703695,0)" xlink:href="#aj"/><use transform="matrix(0.07407407407407407,0,0,0.07407407407407407,66.5185185185185,0)" xlink:href="#aw"/></g><g id="ad"><use transform="matrix(0.07407407407407407,0,0,0.07407407407407407,0,0)" xlink:href="#ak"/><use transform="matrix(0.07407407407407407,0,0,0.07407407407407407,7.4074074074074066,0)" xlink:href="#ai"/><use transform="matrix(0.07407407407407407,0,0,0.07407407407407407,16.22222222222222,0)" xlink:href="#aj"/><use transform="matrix(0.07407407407407407,0,0,0.07407407407407407,31.037037037037035,0)" xlink:href="#ap"/><use transform="matrix(0.07407407407407407,0,0,0.07407407407407407,36.888888888888886,0)" xlink:href="#ah"/></g><g id="ae"><use transform="matrix(0.07407407407407407,0,0,0.07407407407407407,0,0)" xlink:href="#ao"/><use transform="matrix(0.07407407407407407,0,0,0.07407407407407407,14.814814814814813,0)" xlink:href="#aj"/><use transform="matrix(0.07407407407407407,0,0,0.07407407407407407,29.629629629629626,0)" xlink:href="#ak"/><use transform="matrix(0.07407407407407407,0,0,0.07407407407407407,37.03703703703703,0)" xlink:href="#aj"/></g></defs></g></svg>